<svg width="706" height="112" viewBox="0 0 706 112" fill="none" xmlns="http://www.w3.org/2000/svg">
<mask id="path-1-outside-1_128_10339" maskUnits="userSpaceOnUse" x="-2" y="-1" width="709" height="114" fill="black">
<rect fill="white" x="-2" y="-1" width="709" height="114"/>
<path d="M87.5443 109L79.1743 85.905H33.9143L25.5443 109H0.124336L43.5243 0.499993H69.4093L112.964 109H87.5443ZM40.2693 68.235H72.8193L56.5443 23.595L40.2693 68.235ZM174.815 111.015C169.545 111.015 164.637 109.723 160.09 107.14C155.647 104.557 152.392 101.147 150.325 96.91H150.17L150.325 109H128.47V0.499993H150.325L150.17 41.42H150.325C152.289 37.39 155.492 34.1867 159.935 31.81C164.482 29.4333 169.442 28.245 174.815 28.245C185.872 28.245 194.707 32.0683 201.32 39.715C207.934 47.2583 211.24 57.075 211.24 69.165C211.24 81.6683 207.934 91.795 201.32 99.545C194.81 107.192 185.975 111.015 174.815 111.015ZM184.115 52.425C180.395 48.085 175.59 45.915 169.7 45.915C163.81 45.915 159.005 48.0333 155.285 52.27C151.565 56.5067 149.654 62.0867 149.55 69.01V69.94C149.55 77.07 151.41 82.7533 155.13 86.99C158.85 91.2267 163.707 93.345 169.7 93.345C175.59 93.345 180.395 91.175 184.115 86.835C187.835 82.3917 189.695 76.5017 189.695 69.165C189.695 62.2417 187.835 56.6617 184.115 52.425ZM263.27 28.245C275.773 28.245 285.745 32.0683 293.185 39.715C300.625 47.2583 304.345 57.1783 304.345 69.475C304.345 81.875 300.625 91.8983 293.185 99.545C285.745 107.192 275.773 111.015 263.27 111.015C250.87 111.015 240.95 107.192 233.51 99.545C226.07 91.8983 222.35 81.875 222.35 69.475C222.35 57.1783 226.07 47.2583 233.51 39.715C240.95 32.0683 250.87 28.245 263.27 28.245ZM277.685 52.425C274.171 47.9817 269.366 45.76 263.27 45.76C257.173 45.76 252.368 47.9817 248.855 52.425C245.445 56.765 243.74 62.4483 243.74 69.475C243.74 76.605 245.445 82.3917 248.855 86.835C252.368 91.2783 257.173 93.5 263.27 93.5C269.366 93.5 274.171 91.2783 277.685 86.835C281.198 82.3917 282.955 76.605 282.955 69.475C282.955 62.4483 281.198 56.765 277.685 52.425ZM395.73 30.26V109H373.875V95.515C369.019 105.642 360.804 110.705 349.23 110.705C340.137 110.705 332.904 107.76 327.53 101.87C322.157 95.98 319.47 87.8167 319.47 77.38V30.26H341.325V73.97C341.325 79.4467 342.565 83.7867 345.045 86.99C347.525 90.1933 350.935 91.795 355.275 91.795C360.855 91.795 365.35 89.935 368.76 86.215C372.17 82.3917 373.875 77.07 373.875 70.25V30.26H395.73ZM471.688 47.31H444.563V79.705C444.563 83.735 445.648 86.835 447.818 89.005C450.091 91.0717 453.243 92.105 457.273 92.105C461.509 92.105 465.798 90.9683 470.138 88.695V107.14C465.901 109.413 460.476 110.55 453.863 110.55C444.459 110.55 436.916 108.018 431.233 102.955C425.549 97.8917 422.708 91.175 422.708 82.805V47.31H408.603V30.26H408.913C413.666 30.26 417.128 29.2267 419.298 27.16C421.571 25.0933 422.708 21.7867 422.708 17.24V6.7H444.563V30.26H471.688V47.31ZM593.661 0.499993H617.996V66.84C617.996 79.86 613.604 90.4 604.821 98.46C596.141 106.417 584.722 110.395 570.566 110.395C556.409 110.395 544.939 106.417 536.156 98.46C527.476 90.4 523.136 79.86 523.136 66.84V0.499993H547.471V66.84C547.471 73.8667 549.537 79.4983 553.671 83.735C557.907 87.9717 563.539 90.09 570.566 90.09C577.592 90.09 583.172 87.9717 587.306 83.735C591.542 79.4983 593.661 73.8667 593.661 66.84V0.499993ZM685.47 55.215C684.127 47.2583 679.115 43.28 670.435 43.28C666.715 43.28 663.718 44.055 661.445 45.605C659.275 47.155 658.19 49.1183 658.19 51.495C658.19 54.1817 659.275 56.0933 661.445 57.23C663.718 58.2633 668.213 59.555 674.93 61.105C678.34 61.8283 680.768 62.3967 682.215 62.81C683.662 63.12 685.78 63.6883 688.57 64.515C691.36 65.2383 693.375 65.9617 694.615 66.685C695.855 67.305 697.353 68.235 699.11 69.475C700.97 70.715 702.262 72.0583 702.985 73.505C703.708 74.8483 704.38 76.5533 705 78.62C705.62 80.6867 705.93 82.96 705.93 85.44C705.93 93.81 702.985 100.165 697.095 104.505C691.205 108.845 682.99 111.015 672.45 111.015C661.187 111.015 652.352 108.432 645.945 103.265C639.538 97.995 636.077 90.6067 635.56 81.1H655.09C656.537 90.6067 662.22 95.36 672.14 95.36C680.717 95.36 685.005 92.415 685.005 86.525C685.005 83.8383 683.868 81.9267 681.595 80.79C679.425 79.6533 674.672 78.31 667.335 76.76C663.098 75.83 659.792 75.055 657.415 74.435C655.142 73.815 652.558 72.885 649.665 71.645C646.772 70.405 644.55 69.01 643 67.46C641.553 65.91 640.313 63.895 639.28 61.415C638.247 58.8317 637.73 55.835 637.73 52.425C637.73 44.365 640.675 38.32 646.565 34.29C652.455 30.26 660.463 28.245 670.59 28.245C691.773 28.245 703.295 37.235 705.155 55.215H685.47Z"/>
</mask>
<path d="M87.5443 109L86.6042 109.341L86.8431 110H87.5443V109ZM79.1743 85.905L80.1145 85.5643L79.8756 84.905H79.1743V85.905ZM33.9143 85.905V84.905H33.2131L32.9742 85.5643L33.9143 85.905ZM25.5443 109V110H26.2456L26.4845 109.341L25.5443 109ZM0.124336 109L-0.804141 108.629L-1.3527 110H0.124336V109ZM43.5243 0.499992V-0.500008H42.8473L42.5959 0.128601L43.5243 0.499992ZM69.4093 0.499992L70.3374 0.127459L70.0855 -0.500008H69.4093V0.499992ZM112.964 109V110H114.443L113.892 108.627L112.964 109ZM40.2693 68.235L39.3298 67.8925L38.8404 69.235H40.2693V68.235ZM72.8193 68.235V69.235H74.2483L73.7588 67.8925L72.8193 68.235ZM56.5443 23.595L57.4838 23.2525L56.5443 20.6755L55.6048 23.2525L56.5443 23.595ZM88.4845 108.659L80.1145 85.5643L78.2342 86.2457L86.6042 109.341L88.4845 108.659ZM79.1743 84.905H33.9143V86.905H79.1743V84.905ZM32.9742 85.5643L24.6042 108.659L26.4845 109.341L34.8545 86.2457L32.9742 85.5643ZM25.5443 108H0.124336V110H25.5443V108ZM1.05281 109.371L44.4528 0.871384L42.5959 0.128601L-0.804141 108.629L1.05281 109.371ZM43.5243 1.49999H69.4093V-0.500008H43.5243V1.49999ZM68.4813 0.872526L112.036 109.373L113.892 108.627L70.3374 0.127459L68.4813 0.872526ZM112.964 108H87.5443V110H112.964V108ZM40.2693 69.235H72.8193V67.235H40.2693V69.235ZM73.7588 67.8925L57.4838 23.2525L55.6048 23.9375L71.8798 68.5775L73.7588 67.8925ZM55.6048 23.2525L39.3298 67.8925L41.2088 68.5775L57.4838 23.9375L55.6048 23.2525ZM160.09 107.14L159.588 108.005L159.596 108.009L160.09 107.14ZM150.325 96.91L151.224 96.4716L150.95 95.91H150.325V96.91ZM150.17 96.91V95.91H149.157L149.17 96.9228L150.17 96.91ZM150.325 109V110H151.338L151.325 108.987L150.325 109ZM128.47 109H127.47V110H128.47V109ZM128.47 0.499992V-0.500008H127.47V0.499992H128.47ZM150.325 0.499992L151.325 0.50378L151.329 -0.500008H150.325V0.499992ZM150.17 41.42L149.17 41.4162L149.167 42.42H150.17V41.42ZM150.325 41.42V42.42H150.951L151.224 41.858L150.325 41.42ZM159.935 31.81L159.472 30.9237L159.464 30.9282L159.935 31.81ZM201.32 39.715L200.564 40.3692L200.568 40.3742L201.32 39.715ZM201.32 99.545L200.56 98.8959L200.559 98.8968L201.32 99.545ZM184.115 52.425L183.356 53.0758L183.364 53.0848L184.115 52.425ZM155.285 52.27L154.534 51.6102L155.285 52.27ZM149.55 69.01L148.551 68.9951L148.55 69.0025V69.01H149.55ZM155.13 86.99L154.379 87.6498L155.13 86.99ZM184.115 86.835L184.875 87.4858L184.882 87.4769L184.115 86.835ZM174.815 110.015C169.717 110.015 164.979 108.768 160.584 106.271L159.596 108.009C164.295 110.679 169.374 112.015 174.815 112.015V110.015ZM160.593 106.275C156.305 103.782 153.196 100.514 151.224 96.4716L149.427 97.3484C151.588 101.779 154.989 105.331 159.588 108.005L160.593 106.275ZM150.325 95.91H150.17V97.91H150.325V95.91ZM149.17 96.9228L149.325 109.013L151.325 108.987L151.17 96.8972L149.17 96.9228ZM150.325 108H128.47V110H150.325V108ZM129.47 109V0.499992H127.47V109H129.47ZM128.47 1.49999H150.325V-0.500008H128.47V1.49999ZM149.325 0.496204L149.17 41.4162L151.17 41.4238L151.325 0.50378L149.325 0.496204ZM150.17 42.42H150.325V40.42H150.17V42.42ZM151.224 41.858C153.084 38.0403 156.125 34.982 160.407 32.6918L159.464 30.9282C154.859 33.3913 151.493 36.7397 149.426 40.982L151.224 41.858ZM160.399 32.6962C164.796 30.3979 169.596 29.245 174.815 29.245V27.245C169.289 27.245 164.169 28.4688 159.472 30.9238L160.399 32.6962ZM174.815 29.245C185.612 29.245 194.16 32.9643 200.564 40.3691L202.077 39.0608C195.254 31.1724 186.132 27.245 174.815 27.245V29.245ZM200.568 40.3742C206.991 47.6994 210.24 57.2654 210.24 69.165H212.24C212.24 56.8846 208.877 46.8172 202.072 39.0558L200.568 40.3742ZM210.24 69.165C210.24 81.4865 206.986 91.3654 200.56 98.8959L202.081 100.194C208.882 92.2245 212.24 81.8502 212.24 69.165H210.24ZM200.559 98.8968C194.262 106.294 185.719 110.015 174.815 110.015V112.015C186.232 112.015 195.359 108.09 202.082 100.193L200.559 98.8968ZM184.875 51.7742C180.958 47.2049 175.872 44.915 169.7 44.915V46.915C175.309 46.915 179.833 48.9651 183.356 53.0758L184.875 51.7742ZM169.7 44.915C163.537 44.915 158.453 47.1465 154.534 51.6102L156.037 52.9298C159.558 48.9201 164.084 46.915 169.7 46.915V44.915ZM154.534 51.6102C150.624 56.0636 148.657 61.8903 148.551 68.9951L150.55 69.0249C150.651 62.283 152.507 56.9497 156.037 52.9298L154.534 51.6102ZM148.55 69.01V69.94H150.55V69.01H148.55ZM148.55 69.94C148.55 77.2465 150.46 83.1863 154.379 87.6498L155.882 86.3302C152.361 82.3203 150.55 76.8935 150.55 69.94H148.55ZM154.379 87.6498C158.302 92.1177 163.44 94.345 169.7 94.345V92.345C163.974 92.345 159.399 90.3357 155.882 86.3302L154.379 87.6498ZM169.7 94.345C175.872 94.345 180.958 92.0551 184.875 87.4858L183.356 86.1842C179.833 90.2949 175.309 92.345 169.7 92.345V94.345ZM184.882 87.4769C188.789 82.81 190.695 76.6724 190.695 69.165H188.695C188.695 76.331 186.881 81.9733 183.349 86.1931L184.882 87.4769ZM190.695 69.165C190.695 62.0565 188.781 56.2235 184.867 51.7652L183.364 53.0848C186.889 57.0999 188.695 62.4268 188.695 69.165H190.695ZM293.185 39.715L292.468 40.4124L292.473 40.4172L293.185 39.715ZM293.185 99.545L293.901 100.242L293.185 99.545ZM233.51 99.545L232.793 100.242L233.51 99.545ZM233.51 39.715L234.222 40.4172L234.226 40.4124L233.51 39.715ZM277.685 52.425L276.9 53.0453L276.907 53.0542L277.685 52.425ZM248.855 52.425L248.07 51.8048L248.068 51.8072L248.855 52.425ZM248.855 86.835L248.061 87.4438L248.066 87.4496L248.07 87.4552L248.855 86.835ZM277.685 86.835L276.9 86.2148V86.2148L277.685 86.835ZM263.27 29.245C275.553 29.245 285.248 32.9925 292.468 40.4124L293.901 39.0176C286.241 31.1442 275.993 27.245 263.27 27.245V29.245ZM292.473 40.4172C299.698 47.7433 303.345 57.3956 303.345 69.475H305.345C305.345 56.9611 301.551 46.7733 293.897 39.0128L292.473 40.4172ZM303.345 69.475C303.345 81.66 299.697 91.4179 292.468 98.8476L293.901 100.242C301.552 92.3788 305.345 82.09 305.345 69.475H303.345ZM292.468 98.8476C285.248 106.268 275.553 110.015 263.27 110.015V112.015C275.993 112.015 286.241 108.116 293.901 100.242L292.468 98.8476ZM263.27 110.015C251.092 110.015 241.447 106.269 234.226 98.8476L232.793 100.242C240.452 108.114 250.647 112.015 263.27 112.015V110.015ZM234.226 98.8476C226.997 91.4179 223.35 81.66 223.35 69.475H221.35C221.35 82.09 225.142 92.3788 232.793 100.242L234.226 98.8476ZM223.35 69.475C223.35 57.3956 226.996 47.7433 234.221 40.4172L232.798 39.0128C225.143 46.7733 221.35 56.9611 221.35 69.475H223.35ZM234.226 40.4124C241.447 32.9908 251.092 29.245 263.27 29.245V27.245C250.647 27.245 240.452 31.1459 232.793 39.0176L234.226 40.4124ZM278.469 51.8048C274.75 47.1013 269.645 44.76 263.27 44.76V46.76C269.087 46.76 273.592 48.862 276.9 53.0452L278.469 51.8048ZM263.27 44.76C256.894 44.76 251.789 47.1013 248.07 51.8048L249.639 53.0452C252.947 48.862 257.452 46.76 263.27 46.76V44.76ZM248.068 51.8072C244.486 56.3667 242.74 62.2864 242.74 69.475H244.74C244.74 62.6103 246.403 57.1633 249.641 53.0428L248.068 51.8072ZM242.74 69.475C242.74 76.7644 244.484 82.7831 248.061 87.4438L249.648 86.2262C246.405 82.0003 244.74 76.4456 244.74 69.475H242.74ZM248.07 87.4552C251.789 92.1587 256.894 94.5 263.27 94.5V92.5C257.452 92.5 252.947 90.3979 249.639 86.2148L248.07 87.4552ZM263.27 94.5C269.645 94.5 274.75 92.1587 278.469 87.4552L276.9 86.2148C273.592 90.3979 269.087 92.5 263.27 92.5V94.5ZM278.469 87.4552C282.155 82.7938 283.955 76.7707 283.955 69.475H281.955C281.955 76.4392 280.241 81.9895 276.9 86.2148L278.469 87.4552ZM283.955 69.475C283.955 62.2798 282.153 56.3558 278.462 51.7958L276.907 53.0542C280.243 57.1742 281.955 62.6169 281.955 69.475H283.955ZM395.73 30.26H396.73V29.26H395.73V30.26ZM395.73 109V110H396.73V109H395.73ZM373.875 109H372.875V110H373.875V109ZM373.875 95.515H374.875L372.974 95.0826L373.875 95.515ZM327.53 101.87L328.269 101.196L327.53 101.87ZM319.47 30.26V29.26H318.47V30.26H319.47ZM341.325 30.26H342.325V29.26H341.325V30.26ZM345.045 86.99L344.255 87.6022L345.045 86.99ZM368.76 86.215L369.498 86.8908L369.507 86.8806L368.76 86.215ZM373.875 30.26V29.26H372.875V30.26H373.875ZM394.73 30.26V109H396.73V30.26H394.73ZM395.73 108H373.875V110H395.73V108ZM374.875 109V95.515H372.875V109H374.875ZM372.974 95.0826C370.614 100.002 367.466 103.641 363.547 106.056C359.626 108.473 354.869 109.705 349.23 109.705V111.705C355.165 111.705 360.302 110.406 364.596 107.759C368.892 105.111 372.28 101.155 374.777 95.9474L372.974 95.0826ZM349.23 109.705C340.375 109.705 333.425 106.848 328.269 101.196L326.792 102.544C332.382 108.672 339.899 111.705 349.23 111.705V109.705ZM328.269 101.196C323.11 95.5413 320.47 87.6463 320.47 77.38H318.47C318.47 87.987 321.204 96.4187 326.792 102.544L328.269 101.196ZM320.47 77.38V30.26H318.47V77.38H320.47ZM319.47 31.26H341.325V29.26H319.47V31.26ZM340.325 30.26V73.97H342.325V30.26H340.325ZM340.325 73.97C340.325 79.5909 341.598 84.1709 344.255 87.6022L345.836 86.3778C343.533 83.4024 342.325 79.3024 342.325 73.97H340.325ZM344.255 87.6022C346.939 91.0696 350.651 92.795 355.275 92.795V90.795C351.219 90.795 348.112 89.317 345.836 86.3778L344.255 87.6022ZM355.275 92.795C361.103 92.795 365.877 90.8405 369.497 86.8907L368.023 85.5393C364.824 89.0295 360.608 90.795 355.275 90.795V92.795ZM369.507 86.8806C373.128 82.8206 374.875 77.2328 374.875 70.25H372.875C372.875 76.9072 371.213 81.9628 368.014 85.5494L369.507 86.8806ZM374.875 70.25V30.26H372.875V70.25H374.875ZM373.875 31.26H395.73V29.26H373.875V31.26ZM471.688 47.31V48.31H472.688V47.31H471.688ZM444.563 47.31V46.31H443.563V47.31H444.563ZM447.818 89.005L447.111 89.7121L447.127 89.7289L447.145 89.7449L447.818 89.005ZM470.138 88.695H471.138V87.0423L469.674 87.8092L470.138 88.695ZM470.138 107.14L470.61 108.021L471.138 107.738V107.14H470.138ZM431.233 102.955L431.898 102.208L431.233 102.955ZM422.708 47.31H423.708V46.31H422.708V47.31ZM408.603 47.31H407.603V48.31H408.603V47.31ZM408.603 30.26V29.26H407.603V30.26H408.603ZM419.298 27.16L418.625 26.4201L418.616 26.4279L418.608 26.4359L419.298 27.16ZM422.708 6.7V5.7H421.708V6.7H422.708ZM444.563 6.7H445.563V5.7H444.563V6.7ZM444.563 30.26H443.563V31.26H444.563V30.26ZM471.688 30.26H472.688V29.26H471.688V30.26ZM471.688 46.31H444.563V48.31H471.688V46.31ZM443.563 47.31V79.705H445.563V47.31H443.563ZM443.563 79.705C443.563 83.9139 444.7 87.3013 447.111 89.7121L448.525 88.2979C446.596 86.3687 445.563 83.5561 445.563 79.705H443.563ZM447.145 89.7449C449.654 92.0256 453.073 93.105 457.273 93.105V91.105C453.412 91.105 450.528 90.1177 448.49 88.2651L447.145 89.7449ZM457.273 93.105C461.695 93.105 466.141 91.9174 470.602 89.5808L469.674 87.8092C465.454 90.0193 461.324 91.105 457.273 91.105V93.105ZM469.138 88.695V107.14H471.138V88.695H469.138ZM469.665 106.259C465.618 108.43 460.37 109.55 453.863 109.55V111.55C460.582 111.55 466.184 110.396 470.61 108.021L469.665 106.259ZM453.863 109.55C444.644 109.55 437.358 107.072 431.898 102.208L430.567 103.702C436.474 108.964 444.274 111.55 453.863 111.55V109.55ZM431.898 102.208C426.45 97.3549 423.708 90.9216 423.708 82.805H421.708C421.708 91.4284 424.648 98.4284 430.567 103.702L431.898 102.208ZM423.708 82.805V47.31H421.708V82.805H423.708ZM422.708 46.31H408.603V48.31H422.708V46.31ZM409.603 47.31V30.26H407.603V47.31H409.603ZM408.603 31.26H408.913V29.26H408.603V31.26ZM408.913 31.26C413.778 31.26 417.548 30.2072 419.987 27.8841L418.608 26.4359C416.707 28.2461 413.553 29.26 408.913 29.26V31.26ZM419.97 27.8999C422.535 25.5682 423.708 21.932 423.708 17.24H421.708C421.708 21.6413 420.607 24.6185 418.625 26.4201L419.97 27.8999ZM423.708 17.24V6.7H421.708V17.24H423.708ZM422.708 7.7H444.563V5.7H422.708V7.7ZM443.563 6.7V30.26H445.563V6.7H443.563ZM444.563 31.26H471.688V29.26H444.563V31.26ZM470.688 30.26V47.31H472.688V30.26H470.688ZM593.661 0.499992V-0.500008H592.661V0.499992H593.661ZM617.996 0.499992H618.996V-0.500008H617.996V0.499992ZM604.82 98.46L605.496 99.1972L605.497 99.1968L604.82 98.46ZM536.156 98.46L535.475 99.1929L535.484 99.2011L536.156 98.46ZM523.135 0.499992V-0.500008H522.135V0.499992H523.135ZM547.471 0.499992H548.471V-0.500008H547.471V0.499992ZM553.671 83.735L552.955 84.4334L552.963 84.4421L553.671 83.735ZM587.305 83.735L586.598 83.0278L586.59 83.0367L587.305 83.735ZM593.661 1.49999H617.996V-0.500008H593.661V1.49999ZM616.996 0.499992V66.84H618.996V0.499992H616.996ZM616.996 66.84C616.996 79.6087 612.701 89.8712 604.144 97.7232L605.497 99.1968C614.507 90.9287 618.996 80.1113 618.996 66.84H616.996ZM604.145 97.7228C595.685 105.478 584.525 109.395 570.565 109.395V111.395C584.919 111.395 596.596 107.356 605.496 99.1972L604.145 97.7228ZM570.565 109.395C556.606 109.395 545.392 105.478 536.827 97.7189L535.484 99.2011C544.486 107.356 556.212 111.395 570.565 111.395V109.395ZM536.836 97.7272C528.381 89.8763 524.135 79.6126 524.135 66.84H522.135C522.135 80.1074 526.57 90.9237 535.475 99.1928L536.836 97.7272ZM524.135 66.84V0.499992H522.135V66.84H524.135ZM523.135 1.49999H547.471V-0.500008H523.135V1.49999ZM546.471 0.499992V66.84H548.471V0.499992H546.471ZM546.471 66.84C546.471 74.0754 548.606 79.9755 552.955 84.4333L554.386 83.0367C550.469 79.0211 548.471 73.658 548.471 66.84H546.471ZM552.963 84.4421C557.42 88.8986 563.323 91.09 570.565 91.09V89.09C563.755 89.09 558.394 87.0448 554.378 83.0279L552.963 84.4421ZM570.565 91.09C577.807 91.09 583.665 88.8986 588.021 84.4333L586.59 83.0367C582.679 87.0447 577.377 89.09 570.565 89.09V91.09ZM588.013 84.4421C592.469 79.9856 594.661 74.0825 594.661 66.84H592.661C592.661 73.6508 590.615 79.011 586.598 83.0279L588.013 84.4421ZM594.661 66.84V0.499992H592.661V66.84H594.661ZM685.47 55.215L684.484 55.3815L684.625 56.215H685.47V55.215ZM661.445 45.605L660.882 44.7788L660.873 44.7849L660.864 44.7913L661.445 45.605ZM661.445 57.23L660.981 58.1158L661.006 58.1288L661.031 58.1404L661.445 57.23ZM674.93 61.105L674.705 62.0794L674.714 62.0814L674.723 62.0832L674.93 61.105ZM682.215 62.81L681.94 63.7715L681.973 63.7808L682.006 63.7878L682.215 62.81ZM688.57 64.515L688.286 65.4738L688.303 65.4787L688.319 65.483L688.57 64.515ZM694.615 66.685L694.111 67.5488L694.139 67.565L694.168 67.5794L694.615 66.685ZM699.11 69.475L698.534 70.292L698.544 70.2997L698.555 70.307L699.11 69.475ZM702.985 73.505L702.091 73.9522L702.098 73.9658L702.105 73.9791L702.985 73.505ZM705 78.62L704.042 78.9073L705 78.62ZM645.945 103.265L645.31 104.037L645.317 104.043L645.945 103.265ZM635.56 81.1V80.1H634.504L634.562 81.1543L635.56 81.1ZM655.09 81.1L656.079 80.9496L655.95 80.1H655.09V81.1ZM681.595 80.79L681.131 81.6758L681.14 81.6802L681.148 81.6844L681.595 80.79ZM667.335 76.76L667.121 77.7368L667.128 77.7384L667.335 76.76ZM657.415 74.435L657.152 75.3998L657.163 75.4026L657.415 74.435ZM649.665 71.645L649.271 72.5641L649.665 71.645ZM643 67.46L642.269 68.1423L642.281 68.1549L642.293 68.1671L643 67.46ZM639.28 61.415L638.352 61.7864L638.354 61.793L638.357 61.7996L639.28 61.415ZM646.565 34.29L646 33.4647L646.565 34.29ZM705.155 55.215V56.215H706.264L706.15 55.1121L705.155 55.215ZM686.456 55.0485C685.755 50.8926 684.072 47.6603 681.326 45.4805C678.589 43.3082 674.921 42.28 670.435 42.28V44.28C674.629 44.28 677.807 45.2409 680.082 47.047C682.348 48.8456 683.842 51.5807 684.484 55.3815L686.456 55.0485ZM670.435 42.28C666.583 42.28 663.37 43.082 660.882 44.7788L662.008 46.4312C664.067 45.028 666.847 44.28 670.435 44.28V42.28ZM660.864 44.7913C658.468 46.5024 657.19 48.7523 657.19 51.495H659.19C659.19 49.4844 660.082 47.8075 662.026 46.4187L660.864 44.7913ZM657.19 51.495C657.19 52.9732 657.489 54.301 658.134 55.4374C658.782 56.5789 659.746 57.4689 660.981 58.1158L661.909 56.3442C660.974 55.8544 660.311 55.2203 659.874 54.4501C659.434 53.6749 659.19 52.7035 659.19 51.495H657.19ZM661.031 58.1404C663.409 59.2212 667.999 60.5318 674.705 62.0794L675.155 60.1306C668.428 58.5782 664.028 57.3055 661.859 56.3196L661.031 58.1404ZM674.723 62.0832C678.132 62.8063 680.53 63.3686 681.94 63.7715L682.49 61.8485C681.007 61.4248 678.549 60.8503 675.138 60.1268L674.723 62.0832ZM682.006 63.7878C683.414 64.0895 685.502 64.6489 688.286 65.4738L688.854 63.5562C686.058 62.7278 683.91 62.1505 682.425 61.8322L682.006 63.7878ZM688.319 65.483C691.091 66.2016 692.995 66.8977 694.111 67.5488L695.119 65.8212C693.755 65.0256 691.63 64.2751 688.821 63.547L688.319 65.483ZM694.168 67.5794C695.345 68.1682 696.798 69.067 698.534 70.292L699.687 68.658C697.909 67.4029 696.365 66.4418 695.062 65.7906L694.168 67.5794ZM698.555 70.307C700.323 71.4857 701.469 72.7095 702.091 73.9522L703.88 73.0578C703.054 71.4072 701.617 69.9443 699.665 68.6429L698.555 70.307ZM702.105 73.9791C702.786 75.2442 703.434 76.8811 704.042 78.9073L705.958 78.3326C705.326 76.2256 704.631 74.4525 703.866 73.0309L702.105 73.9791ZM704.042 78.9073C704.631 80.8681 704.93 83.0431 704.93 85.44H706.93C706.93 82.8769 706.61 80.5052 705.958 78.3326L704.042 78.9073ZM704.93 85.44C704.93 93.5446 702.097 99.5775 696.502 103.7L697.688 105.31C703.874 100.753 706.93 94.0754 706.93 85.44H704.93ZM696.502 103.7C690.845 107.868 682.867 110.015 672.45 110.015V112.015C683.113 112.015 691.566 109.822 697.688 105.31L696.502 103.7ZM672.45 110.015C661.332 110.015 652.746 107.465 646.573 102.487L645.317 104.043C651.958 109.398 661.042 112.015 672.45 112.015V110.015ZM646.58 102.493C640.423 97.4276 637.063 90.3182 636.559 81.0457L634.562 81.1543C635.091 90.8951 638.654 98.5624 645.31 104.037L646.58 102.493ZM635.56 82.1H655.09V80.1H635.56V82.1ZM654.102 81.2504C654.85 86.1713 656.717 89.9871 659.796 92.5621C662.871 95.1336 667.026 96.36 672.14 96.36V94.36C667.335 94.36 663.688 93.2098 661.079 91.0279C658.475 88.8495 656.777 85.5354 656.079 80.9496L654.102 81.2504ZM672.14 96.36C676.512 96.36 679.968 95.6151 682.355 93.9756C684.81 92.2896 686.005 89.7488 686.005 86.525H684.005C684.005 89.1912 683.056 91.0679 681.223 92.3269C679.322 93.6324 676.345 94.36 672.14 94.36V96.36ZM686.005 86.525C686.005 85.0392 685.69 83.7049 685.012 82.5652C684.333 81.4221 683.325 80.537 682.042 79.8956L681.148 81.6844C682.138 82.1796 682.836 82.8187 683.293 83.5873C683.752 84.3592 684.005 85.3241 684.005 86.525H686.005ZM682.059 79.9042C679.746 78.6924 674.853 77.3262 667.542 75.7816L667.128 77.7384C674.491 79.2938 679.104 80.6142 681.131 81.6758L682.059 79.9042ZM667.55 75.7833C663.318 74.8543 660.026 74.0825 657.668 73.4674L657.163 75.4026C659.558 76.0275 662.879 76.8057 667.121 77.7367L667.55 75.7833ZM657.678 73.4702C655.461 72.8657 652.923 71.9533 650.059 70.7259L649.271 72.5641C652.194 73.8167 654.822 74.7643 657.152 75.3998L657.678 73.4702ZM650.059 70.7259C647.236 69.5159 645.137 68.1828 643.707 66.7529L642.293 68.1671C643.963 69.8372 646.308 71.2941 649.271 72.5641L650.059 70.7259ZM643.731 66.7777C642.384 65.3345 641.203 63.4286 640.203 61.0304L638.357 61.7996C639.424 64.3614 640.723 66.4855 642.269 68.1423L643.731 66.7777ZM640.209 61.0436C639.232 58.6018 638.73 55.7356 638.73 52.425H636.73C636.73 55.9344 637.262 59.0616 638.352 61.7864L640.209 61.0436ZM638.73 52.425C638.73 44.6453 641.551 38.9325 647.13 35.1153L646 33.4647C639.799 37.7075 636.73 44.0847 636.73 52.425H638.73ZM647.13 35.1153C652.797 31.2376 660.584 29.245 670.59 29.245V27.245C660.343 27.245 652.113 29.2824 646 33.4647L647.13 35.1153ZM670.59 29.245C681.056 29.245 688.982 31.4677 694.504 35.7759C700.001 40.0655 703.251 46.5301 704.16 55.3179L706.15 55.1121C705.199 45.9199 701.758 38.8995 695.734 34.1991C689.734 29.5173 681.308 27.245 670.59 27.245V29.245ZM705.155 54.215H685.47V56.215H705.155V54.215Z" fill="black" fill-opacity="0.23" mask="url(#path-1-outside-1_128_10339)"/>
</svg>
