<svg width="17" height="18" viewBox="0 0 17 18" fill="none" xmlns="http://www.w3.org/2000/svg">
<mask id="mask0_128_6771" style="mask-type:luminance" maskUnits="userSpaceOnUse" x="0" y="0" width="17" height="18">
<path d="M8.5 16.5C9.4851 16.5013 10.4607 16.3079 11.3708 15.9309C12.281 15.5539 13.1076 15.0007 13.8032 14.3032C14.5007 13.6076 15.0539 12.781 15.4309 11.8708C15.8079 10.9607 16.0013 9.9851 16 9C16.0012 8.0149 15.8078 7.03927 15.4308 6.12916C15.0538 5.21906 14.5007 4.39242 13.8032 3.69675C13.1076 2.99927 12.281 2.44613 11.3708 2.06914C10.4607 1.69215 9.4851 1.49873 8.5 1.50001C7.5149 1.49875 6.53927 1.69218 5.62916 2.06917C4.71906 2.44616 3.89242 2.99928 3.19675 3.69675C2.49928 4.39242 1.94616 5.21906 1.56917 6.12916C1.19218 7.03927 0.99875 8.0149 1.00001 9C0.99873 9.9851 1.19215 10.9607 1.56914 11.8708C1.94613 12.781 2.49927 13.6076 3.19675 14.3032C3.89242 15.0007 4.71906 15.5538 5.62916 15.9308C6.53927 16.3078 7.5149 16.5012 8.5 16.5Z" fill="white" stroke="white" stroke-width="2" stroke-linejoin="round"/>
<path d="M5.5 9L7.75 11.25L12.25 6.75" stroke="black" stroke-width="2" stroke-linecap="round" stroke-linejoin="round"/>
</mask>
<g mask="url(#mask0_128_6771)">
<path d="M-0.5 0H17.5V18H-0.5V0Z" fill="#8A73E8"/>
</g>
</svg>
