<svg width="1179" height="245" viewBox="0 0 1179 245" fill="none" xmlns="http://www.w3.org/2000/svg">
<path d="M84.0525 6.89998C122.681 6.89998 153.428 17.667 176.294 39.201C199.16 60.735 210.593 88.596 210.593 122.784C210.593 157.416 199.16 185.61 176.294 207.366C153.428 229.122 122.681 240 84.0525 240H0.802537V6.89998H84.0525ZM87.3825 197.376C108.917 197.376 125.9 190.605 138.332 177.063C150.986 163.299 157.313 145.206 157.313 122.784C157.313 100.806 150.986 83.157 138.332 69.837C125.9 56.295 108.917 49.524 87.3825 49.524H53.0835V197.376H87.3825ZM326.971 244.329C300.553 244.329 279.463 236.226 263.701 220.02C248.161 203.592 240.391 182.169 240.391 155.751C240.391 129.111 248.272 107.577 264.034 91.149C279.796 74.721 300.664 66.507 326.638 66.507C353.278 66.507 373.702 74.832 387.91 91.482C402.118 107.91 409.222 129.999 409.222 157.749V165.408H286.345V166.407C287.233 179.283 291.34 189.606 298.666 197.376C306.214 205.146 315.538 209.031 326.638 209.031C344.398 209.031 356.164 201.15 361.936 185.388H408.223C403.117 204.48 393.46 219.132 379.252 229.344C365.044 239.334 347.617 244.329 326.971 244.329ZM287.677 138.435H364.6C364.156 126.891 360.604 117.567 353.944 110.463C347.284 103.359 338.293 99.807 326.971 99.807C316.093 99.807 307.102 103.248 299.998 110.13C293.116 117.012 289.009 126.447 287.677 138.435ZM545.453 66.507C565.211 66.507 580.529 72.834 591.407 85.488C602.507 98.142 608.057 115.014 608.057 136.104V240H561.104V146.094C561.104 134.328 558.329 125.004 552.779 118.122C547.451 111.24 540.236 107.799 531.134 107.799C519.146 107.799 509.489 111.906 502.163 120.12C494.837 128.112 491.174 139.434 491.174 154.086V240H444.221V70.836H491.174V102.138C501.608 78.384 519.701 66.507 545.453 66.507ZM771.227 240L730.934 167.406H699.299V240H652.346V6.89998H699.299V124.782H730.601L766.232 70.836H820.511L767.564 144.762L826.172 240H771.227ZM917.416 66.507C941.392 66.507 959.818 72.168 972.694 83.49C985.792 94.59 992.341 110.352 992.341 130.776V240H947.053V216.69H946.054C942.058 222.906 935.509 228.678 926.407 234.006C917.305 239.112 905.428 241.665 890.776 241.665C874.126 241.665 860.584 237.336 850.15 228.678C839.938 219.798 834.832 207.921 834.832 193.047C834.832 175.287 842.38 161.301 857.476 151.089C872.572 140.655 896.881 135.438 930.403 135.438H947.053V130.443C947.053 121.341 944.389 114.237 939.061 109.131C933.733 103.803 926.518 101.139 917.416 101.139C908.536 101.139 901.432 103.359 896.104 107.799C890.776 112.017 887.779 117.9 887.113 125.448H842.491C842.713 106.8 849.706 92.37 863.47 82.158C877.234 71.724 895.216 66.507 917.416 66.507ZM907.093 209.697C918.193 209.697 927.628 206.478 935.398 200.04C943.168 193.38 947.053 185.388 947.053 176.064V164.076H930.736C897.88 164.076 881.452 172.623 881.452 189.717C881.452 195.933 883.783 200.817 888.445 204.369C893.107 207.921 899.323 209.697 907.093 209.697ZM1098.05 0.572986C1120.47 0.572986 1139.45 8.23199 1154.99 23.55C1170.75 38.646 1178.63 57.738 1178.63 80.826C1178.63 104.136 1170.75 123.561 1154.99 139.101C1139.23 154.641 1120.02 162.411 1097.38 162.411C1075.18 162.411 1056.2 154.752 1040.44 139.434C1024.67 123.894 1016.79 104.58 1016.79 81.492C1016.79 58.404 1024.67 39.201 1040.44 23.883C1056.2 8.34299 1075.4 0.572986 1098.05 0.572986ZM1097.38 147.426C1115.58 147.426 1131.12 141.21 1144 128.778C1156.88 116.124 1163.31 100.251 1163.31 81.159C1163.31 62.289 1156.88 46.638 1144 34.206C1131.35 21.552 1116.03 15.225 1098.05 15.225C1079.84 15.225 1064.3 21.552 1051.43 34.206C1038.55 46.638 1032.11 62.4 1032.11 81.492C1032.11 100.362 1038.44 116.124 1051.09 128.778C1063.97 141.21 1079.4 147.426 1097.38 147.426ZM1136.34 63.51C1136.34 73.944 1131.12 81.492 1120.69 86.154L1139.67 121.452H1114.7L1100.04 89.484H1084.73V121.452H1063.08V38.202H1107.7C1116.14 38.202 1123.02 40.644 1128.35 45.528C1133.68 50.19 1136.34 56.184 1136.34 63.51ZM1084.73 55.185V73.167H1104.37C1107.7 73.167 1110.48 72.279 1112.7 70.503C1114.92 68.727 1116.03 66.507 1116.03 63.843C1116.03 61.401 1114.92 59.403 1112.7 57.849C1110.7 56.073 1108.15 55.185 1105.04 55.185H1084.73Z" fill="black" fill-opacity="0.06"/>
</svg>
