<svg width="610" height="112" viewBox="0 0 610 112" fill="none" xmlns="http://www.w3.org/2000/svg">
<mask id="path-1-outside-1_128_12066" maskUnits="userSpaceOnUse" x="-1" y="-1" width="612" height="114" fill="black">
<rect fill="white" x="-1" y="-1" width="612" height="114"/>
<path d="M55.7097 0.499993C67.0764 0.499993 76.2214 3.65166 83.1447 9.95499C90.068 16.2583 93.5297 24.37 93.5297 34.29C93.5297 44.21 90.0164 52.425 82.9897 58.935C76.0664 65.3417 66.973 68.545 55.7097 68.545H25.1747V109H0.839708V0.499993H55.7097ZM51.9897 50.255C57.363 50.255 61.6514 48.7567 64.8547 45.76C68.058 42.66 69.6597 38.8367 69.6597 34.29C69.6597 29.95 68.058 26.2817 64.8547 23.285C61.6514 20.2883 57.363 18.79 51.9897 18.79H25.1747V50.255H51.9897ZM130.853 51.185C133.333 43.5383 137.363 38.01 142.943 34.6C148.523 31.19 155.808 29.485 164.798 29.485V52.115C152.398 50.875 143.615 52.425 138.448 56.765C133.385 61.105 130.853 68.6483 130.853 79.395V109H108.998V30.26H130.853V51.185ZM212.918 28.245C225.422 28.245 235.393 32.0683 242.833 39.715C250.273 47.2583 253.993 57.1783 253.993 69.475C253.993 81.875 250.273 91.8983 242.833 99.545C235.393 107.192 225.422 111.015 212.918 111.015C200.518 111.015 190.598 107.192 183.158 99.545C175.718 91.8983 171.998 81.875 171.998 69.475C171.998 57.1783 175.718 47.2583 183.158 39.715C190.598 32.0683 200.518 28.245 212.918 28.245ZM227.333 52.425C223.82 47.9817 219.015 45.76 212.918 45.76C206.822 45.76 202.017 47.9817 198.503 52.425C195.093 56.765 193.388 62.4483 193.388 69.475C193.388 76.605 195.093 82.3917 198.503 86.835C202.017 91.2783 206.822 93.5 212.918 93.5C219.015 93.5 223.82 91.2783 227.333 86.835C230.847 82.3917 232.603 76.605 232.603 69.475C232.603 62.4483 230.847 56.765 227.333 52.425ZM301.514 111.015C290.354 111.015 281.468 107.192 274.854 99.545C268.344 91.795 265.089 81.6683 265.089 69.165C265.089 57.075 268.396 47.2583 275.009 39.715C281.623 32.0683 290.458 28.245 301.514 28.245C306.991 28.245 312.106 29.485 316.859 31.965C321.613 34.3417 324.919 37.4933 326.779 41.42H326.934V0.499993H348.789V109H326.934V96.91H326.779C324.816 101.147 321.458 104.557 316.704 107.14C311.951 109.723 306.888 111.015 301.514 111.015ZM306.474 45.915C300.584 45.915 295.779 48.085 292.059 52.425C288.443 56.6617 286.634 62.2417 286.634 69.165C286.634 76.5017 288.443 82.3917 292.059 86.835C295.779 91.175 300.584 93.345 306.474 93.345C312.468 93.345 317.324 91.2267 321.044 86.99C324.764 82.7533 326.624 77.07 326.624 69.94V69.01C326.624 62.0867 324.764 56.5067 321.044 52.27C317.324 48.0333 312.468 45.915 306.474 45.915ZM444.828 30.26V109H422.973V95.515C418.116 105.642 409.901 110.705 398.328 110.705C389.234 110.705 382.001 107.76 376.628 101.87C371.254 95.98 368.568 87.8167 368.568 77.38V30.26H390.423V73.97C390.423 79.4467 391.663 83.7867 394.143 86.99C396.623 90.1933 400.033 91.795 404.373 91.795C409.953 91.795 414.448 89.935 417.858 86.215C421.268 82.3917 422.973 77.07 422.973 70.25V30.26H444.828ZM540.315 77.69C539.488 87.8167 535.613 95.9283 528.69 102.025C521.766 108.018 512.828 111.015 501.875 111.015C489.475 111.015 479.555 107.192 472.115 99.545C464.778 91.8983 461.11 81.875 461.11 69.475C461.11 57.1783 464.778 47.2583 472.115 39.715C479.555 32.0683 489.475 28.245 501.875 28.245C512.518 28.245 521.25 31.1383 528.07 36.925C534.993 42.6083 538.971 50.3583 540.005 60.175H518.46C516.703 50.255 511.071 45.295 501.565 45.295C495.571 45.295 490.818 47.5167 487.305 51.96C483.895 56.3 482.19 62.1383 482.19 69.475C482.19 76.8117 483.895 82.7017 487.305 87.145C490.818 91.485 495.571 93.655 501.565 93.655C511.485 93.655 517.271 88.3333 518.925 77.69H540.315ZM609.486 47.31H582.361V79.705C582.361 83.735 583.446 86.835 585.616 89.005C587.889 91.0717 591.041 92.105 595.071 92.105C599.308 92.105 603.596 90.9683 607.936 88.695V107.14C603.699 109.413 598.274 110.55 591.661 110.55C582.258 110.55 574.714 108.018 569.031 102.955C563.348 97.8917 560.506 91.175 560.506 82.805V47.31H546.401V30.26H546.711C551.464 30.26 554.926 29.2267 557.096 27.16C559.369 25.0933 560.506 21.7867 560.506 17.24V6.7H582.361V30.26H609.486V47.31Z"/>
</mask>
<path d="M83.1447 9.95499L83.8179 9.21555L83.1447 9.95499ZM82.9897 58.935L83.6689 59.669L83.6693 59.6686L82.9897 58.935ZM25.1747 68.545V67.545H24.1747V68.545H25.1747ZM25.1747 109V110H26.1747V109H25.1747ZM0.839708 109H-0.160292V110H0.839708V109ZM0.839708 0.499992V-0.500008H-0.160292V0.499992H0.839708ZM64.8547 45.76L65.5379 46.4903L65.5441 46.4845L65.5501 46.4786L64.8547 45.76ZM64.8547 23.285L65.5379 22.5547V22.5547L64.8547 23.285ZM25.1747 18.79V17.79H24.1747V18.79H25.1747ZM25.1747 50.255H24.1747V51.255H25.1747V50.255ZM55.7097 1.49999C66.8834 1.49999 75.7699 4.59299 82.4715 10.6944L83.8179 9.21555C76.6729 2.71033 67.2694 -0.500008 55.7097 -0.500008V1.49999ZM82.4715 10.6944C89.1731 16.7959 92.5297 24.6326 92.5297 34.29H94.5297C94.5297 24.1074 90.963 15.7207 83.8179 9.21555L82.4715 10.6944ZM92.5297 34.29C92.5297 43.9427 89.1244 51.8882 82.3101 58.2014L83.6693 59.6686C90.9084 52.9618 94.5297 44.4772 94.5297 34.29H92.5297ZM82.3105 58.201C75.6068 64.4045 66.773 67.545 55.7097 67.545V69.545C67.1731 69.545 76.526 66.2788 83.6689 59.669L82.3105 58.201ZM55.7097 67.545H25.1747V69.545H55.7097V67.545ZM24.1747 68.545V109H26.1747V68.545H24.1747ZM25.1747 108H0.839708V110H25.1747V108ZM1.83971 109V0.499992H-0.160292V109H1.83971ZM0.839708 1.49999H55.7097V-0.500008H0.839708V1.49999ZM51.9897 51.255C57.5567 51.255 62.1096 49.6973 65.5379 46.4903L64.1716 45.0297C61.1931 47.816 57.1694 49.255 51.9897 49.255V51.255ZM65.5501 46.4786C68.9525 43.186 70.6597 39.1015 70.6597 34.29H68.6597C68.6597 38.5719 67.1636 42.134 64.1593 45.0414L65.5501 46.4786ZM70.6597 34.29C70.6597 29.6699 68.9409 25.7382 65.5379 22.5547L64.1716 24.0153C67.1752 26.8251 68.6597 30.2301 68.6597 34.29H70.6597ZM65.5379 22.5547C62.1096 19.3477 57.5567 17.79 51.9897 17.79V19.79C57.1694 19.79 61.1931 21.229 64.1716 24.0153L65.5379 22.5547ZM51.9897 17.79H25.1747V19.79H51.9897V17.79ZM24.1747 18.79V50.255H26.1747V18.79H24.1747ZM25.1747 51.255H51.9897V49.255H25.1747V51.255ZM130.853 51.185H129.853L131.804 51.4935L130.853 51.185ZM142.943 34.6L143.465 35.4533L142.943 34.6ZM164.798 29.485H165.798V28.485H164.798V29.485ZM164.798 52.115L164.699 53.11L165.798 53.22V52.115H164.798ZM138.448 56.765L137.805 55.9993L137.797 56.0057L138.448 56.765ZM130.853 109V110H131.853V109H130.853ZM108.998 109H107.998V110H108.998V109ZM108.998 30.26V29.26H107.998V30.26H108.998ZM130.853 30.26H131.853V29.26H130.853V30.26ZM131.804 51.4935C134.228 44.0198 138.132 38.7121 143.465 35.4533L142.422 33.7467C136.594 37.3079 132.438 43.0568 129.902 50.8765L131.804 51.4935ZM143.465 35.4533C148.839 32.1687 155.926 30.485 164.798 30.485V28.485C155.691 28.485 148.207 30.2113 142.422 33.7467L143.465 35.4533ZM163.798 29.485V52.115H165.798V29.485H163.798ZM164.898 51.12C152.435 49.8737 143.296 51.3871 137.805 55.9993L139.091 57.5307C143.934 53.4629 152.361 51.8763 164.699 53.11L164.898 51.12ZM137.797 56.0057C132.407 60.6261 129.853 68.5319 129.853 79.395H131.853C131.853 68.7648 134.363 61.5839 139.099 57.5243L137.797 56.0057ZM129.853 79.395V109H131.853V79.395H129.853ZM130.853 108H108.998V110H130.853V108ZM109.998 109V30.26H107.998V109H109.998ZM108.998 31.26H130.853V29.26H108.998V31.26ZM129.853 30.26V51.185H131.853V30.26H129.853ZM242.833 39.715L242.117 40.4124L242.121 40.4172L242.833 39.715ZM242.833 99.545L243.55 100.242L242.833 99.545ZM183.158 99.545L182.442 100.242L183.158 99.545ZM183.158 39.715L183.87 40.4172L183.875 40.4124L183.158 39.715ZM227.333 52.425L226.549 53.0453L226.556 53.0542L227.333 52.425ZM198.503 52.425L197.719 51.8048L197.717 51.8072L198.503 52.425ZM198.503 86.835L197.71 87.4438L197.715 87.4496L197.719 87.4552L198.503 86.835ZM227.333 86.835L226.549 86.2148V86.2148L227.333 86.835ZM212.918 29.245C225.202 29.245 234.897 32.9925 242.117 40.4124L243.55 39.0176C235.89 31.1442 225.641 27.245 212.918 27.245V29.245ZM242.121 40.4172C249.347 47.7433 252.993 57.3956 252.993 69.475H254.993C254.993 56.9611 251.2 46.7733 243.545 39.0128L242.121 40.4172ZM252.993 69.475C252.993 81.66 249.346 91.4179 242.117 98.8476L243.55 100.242C251.201 92.3788 254.993 82.09 254.993 69.475H252.993ZM242.117 98.8476C234.897 106.268 225.202 110.015 212.918 110.015V112.015C225.641 112.015 235.89 108.116 243.55 100.242L242.117 98.8476ZM212.918 110.015C200.741 110.015 191.096 106.269 183.875 98.8476L182.442 100.242C190.101 108.114 200.296 112.015 212.918 112.015V110.015ZM183.875 98.8476C176.646 91.4179 172.998 81.66 172.998 69.475H170.998C170.998 82.09 174.791 92.3788 182.442 100.242L183.875 98.8476ZM172.998 69.475C172.998 57.3956 176.645 47.7433 183.87 40.4172L182.446 39.0128C174.792 46.7733 170.998 56.9611 170.998 69.475H172.998ZM183.875 40.4124C191.096 32.9908 200.741 29.245 212.918 29.245V27.245C200.296 27.245 190.101 31.1459 182.442 39.0176L183.875 40.4124ZM228.118 51.8048C224.399 47.1013 219.294 44.76 212.918 44.76V46.76C218.736 46.76 223.241 48.862 226.549 53.0452L228.118 51.8048ZM212.918 44.76C206.543 44.76 201.438 47.1013 197.719 51.8048L199.288 53.0452C202.596 48.862 207.101 46.76 212.918 46.76V44.76ZM197.717 51.8072C194.135 56.3667 192.388 62.2864 192.388 69.475H194.388C194.388 62.6103 196.052 57.1633 199.29 53.0428L197.717 51.8072ZM192.388 69.475C192.388 76.7644 194.133 82.7831 197.71 87.4438L199.297 86.2262C196.054 82.0003 194.388 76.4456 194.388 69.475H192.388ZM197.719 87.4552C201.438 92.1587 206.543 94.5 212.918 94.5V92.5C207.101 92.5 202.596 90.3979 199.288 86.2148L197.719 87.4552ZM212.918 94.5C219.294 94.5 224.399 92.1587 228.118 87.4552L226.549 86.2148C223.241 90.3979 218.736 92.5 212.918 92.5V94.5ZM228.118 87.4552C231.804 82.7938 233.603 76.7707 233.603 69.475H231.603C231.603 76.4392 229.89 81.9895 226.549 86.2148L228.118 87.4552ZM233.603 69.475C233.603 62.2798 231.802 56.3558 228.111 51.7958L226.556 53.0542C229.891 57.1742 231.603 62.6169 231.603 69.475H233.603ZM274.854 99.545L274.089 100.188L274.093 100.194L274.098 100.199L274.854 99.545ZM275.009 39.715L275.761 40.3742L275.766 40.3691L275.009 39.715ZM316.859 31.965L316.397 32.8516L316.404 32.8556L316.412 32.8594L316.859 31.965ZM326.779 41.42L325.876 41.8481L326.146 42.42H326.779V41.42ZM326.934 41.42V42.42H327.934V41.42H326.934ZM326.934 0.499992V-0.500008H325.934V0.499992H326.934ZM348.789 0.499992H349.789V-0.500008H348.789V0.499992ZM348.789 109V110H349.789V109H348.789ZM326.934 109H325.934V110H326.934V109ZM326.934 96.91H327.934V95.91H326.934V96.91ZM326.779 96.91V95.91H326.141L325.872 96.4895L326.779 96.91ZM292.059 52.425L291.3 51.7742L291.299 51.7757L292.059 52.425ZM292.059 86.835L291.284 87.4663L291.292 87.4761L291.3 87.4858L292.059 86.835ZM321.044 86.99L320.293 86.3302L321.044 86.99ZM321.044 52.27L320.293 52.9298L321.044 52.27ZM301.514 110.015C290.611 110.015 282.013 106.293 275.611 98.8908L274.098 100.199C280.922 108.09 290.098 112.015 301.514 112.015V110.015ZM275.62 98.9018C269.294 91.3714 266.089 81.4903 266.089 69.165H264.089C264.089 81.8464 267.394 92.2186 274.089 100.188L275.62 98.9018ZM266.089 69.165C266.089 57.2654 269.339 47.6994 275.761 40.3742L274.257 39.0558C267.453 46.8172 264.089 56.8846 264.089 69.165H266.089ZM275.766 40.3691C282.17 32.9643 290.717 29.245 301.514 29.245V27.245C290.198 27.245 281.075 31.1724 274.253 39.0608L275.766 40.3691ZM301.514 29.245C306.833 29.245 311.789 30.4477 316.397 32.8516L317.322 31.0784C312.423 28.5223 307.148 27.245 301.514 27.245V29.245ZM316.412 32.8594C321.011 35.159 324.131 38.1655 325.876 41.8481L327.683 40.9919C325.707 36.8212 322.214 33.5243 317.306 31.0706L316.412 32.8594ZM326.779 42.42H326.934V40.42H326.779V42.42ZM327.934 41.42V0.499992H325.934V41.42H327.934ZM326.934 1.49999H348.789V-0.500008H326.934V1.49999ZM347.789 0.499992V109H349.789V0.499992H347.789ZM348.789 108H326.934V110H348.789V108ZM327.934 109V96.91H325.934V109H327.934ZM326.934 95.91H326.779V97.91H326.934V95.91ZM325.872 96.4895C324.013 100.501 320.822 103.764 316.227 106.261L317.182 108.019C322.093 105.35 325.619 101.792 327.687 97.3305L325.872 96.4895ZM316.227 106.261C311.619 108.766 306.72 110.015 301.514 110.015V112.015C307.056 112.015 312.283 110.681 317.182 108.019L316.227 106.261ZM306.474 44.915C300.303 44.915 295.217 47.2049 291.3 51.7742L292.819 53.0758C296.342 48.9651 300.866 46.915 306.474 46.915V44.915ZM291.299 51.7757C287.493 56.2342 285.634 62.0634 285.634 69.165H287.634C287.634 62.4199 289.393 57.0891 292.82 53.0743L291.299 51.7757ZM285.634 69.165C285.634 76.666 287.485 82.7996 291.284 87.4663L292.835 86.2037C289.4 81.9838 287.634 76.3373 287.634 69.165H285.634ZM291.3 87.4858C295.217 92.0551 300.303 94.345 306.474 94.345V92.345C300.866 92.345 296.342 90.2949 292.819 86.1842L291.3 87.4858ZM306.474 94.345C312.735 94.345 317.873 92.1177 321.796 87.6498L320.293 86.3302C316.776 90.3357 312.2 92.345 306.474 92.345V94.345ZM321.796 87.6498C325.715 83.1863 327.624 77.2465 327.624 69.94H325.624C325.624 76.8935 323.814 82.3203 320.293 86.3302L321.796 87.6498ZM327.624 69.94V69.01H325.624V69.94H327.624ZM327.624 69.01C327.624 61.9015 325.71 56.0685 321.796 51.6102L320.293 52.9298C323.818 56.9449 325.624 62.2718 325.624 69.01H327.624ZM321.796 51.6102C317.873 47.1423 312.735 44.915 306.474 44.915V46.915C312.2 46.915 316.776 48.9243 320.293 52.9298L321.796 51.6102ZM444.828 30.26H445.828V29.26H444.828V30.26ZM444.828 109V110H445.828V109H444.828ZM422.973 109H421.973V110H422.973V109ZM422.973 95.515H423.973L422.071 95.0826L422.973 95.515ZM376.628 101.87L377.366 101.196L376.628 101.87ZM368.568 30.26V29.26H367.568V30.26H368.568ZM390.423 30.26H391.423V29.26H390.423V30.26ZM394.143 86.99L393.352 87.6022L394.143 86.99ZM417.858 86.215L418.595 86.8908L418.604 86.8806L417.858 86.215ZM422.973 30.26V29.26H421.973V30.26H422.973ZM443.828 30.26V109H445.828V30.26H443.828ZM444.828 108H422.973V110H444.828V108ZM423.973 109V95.515H421.973V109H423.973ZM422.071 95.0826C419.712 100.002 416.563 103.641 412.644 106.056C408.723 108.473 403.966 109.705 398.328 109.705V111.705C404.262 111.705 409.399 110.406 413.693 107.759C417.989 105.111 421.377 101.155 423.874 95.9474L422.071 95.0826ZM398.328 109.705C389.472 109.705 382.523 106.848 377.366 101.196L375.889 102.544C381.479 108.672 388.997 111.705 398.328 111.705V109.705ZM377.366 101.196C372.208 95.5413 369.568 87.6463 369.568 77.38H367.568C367.568 87.987 370.301 96.4187 375.889 102.544L377.366 101.196ZM369.568 77.38V30.26H367.568V77.38H369.568ZM368.568 31.26H390.423V29.26H368.568V31.26ZM389.423 30.26V73.97H391.423V30.26H389.423ZM389.423 73.97C389.423 79.5909 390.695 84.1709 393.352 87.6022L394.933 86.3778C392.63 83.4024 391.423 79.3024 391.423 73.97H389.423ZM393.352 87.6022C396.036 91.0696 399.749 92.795 404.373 92.795V90.795C400.316 90.795 397.209 89.317 394.933 86.3778L393.352 87.6022ZM404.373 92.795C410.2 92.795 414.974 90.8405 418.595 86.8907L417.12 85.5393C413.921 89.0295 409.705 90.795 404.373 90.795V92.795ZM418.604 86.8806C422.225 82.8206 423.973 77.2328 423.973 70.25H421.973C421.973 76.9072 420.31 81.9628 417.111 85.5494L418.604 86.8806ZM423.973 70.25V30.26H421.973V70.25H423.973ZM422.973 31.26H444.828V29.26H422.973V31.26ZM540.315 77.69L541.311 77.7714L541.4 76.69H540.315V77.69ZM528.69 102.025L529.344 102.781L529.351 102.775L528.69 102.025ZM472.115 99.545L471.393 100.237L471.398 100.242L472.115 99.545ZM472.115 39.715L471.398 39.0176L471.398 39.0178L472.115 39.715ZM528.07 36.925L527.423 37.6875L527.429 37.6928L527.435 37.6979L528.07 36.925ZM540.005 60.175V61.175H541.116L540.999 60.0703L540.005 60.175ZM518.46 60.175L517.475 60.3494L517.621 61.175H518.46V60.175ZM487.305 51.96L486.52 51.3398L486.518 51.3422L487.305 51.96ZM487.305 87.145L486.511 87.7538L486.519 87.7641L486.528 87.7742L487.305 87.145ZM518.925 77.69V76.69H518.068L517.937 77.5365L518.925 77.69ZM539.318 77.6086C538.51 87.5058 534.737 95.3671 528.029 101.275L529.351 102.775C536.489 96.4896 540.466 88.1276 541.311 77.7714L539.318 77.6086ZM528.035 101.269C521.328 107.075 512.637 110.015 501.875 110.015V112.015C513.019 112.015 522.205 108.961 529.344 102.781L528.035 101.269ZM501.875 110.015C489.697 110.015 480.052 106.269 472.832 98.8476L471.398 100.242C479.057 108.114 489.252 112.015 501.875 112.015V110.015ZM472.836 98.8527C465.708 91.4236 462.11 81.664 462.11 69.475H460.11C460.11 82.086 463.848 92.3731 471.393 100.237L472.836 98.8527ZM462.11 69.475C462.11 57.3916 465.707 47.7376 472.832 40.4122L471.398 39.0178C463.849 46.7791 460.11 56.9651 460.11 69.475H462.11ZM472.832 40.4124C480.052 32.9908 489.697 29.245 501.875 29.245V27.245C489.252 27.245 479.057 31.1459 471.398 39.0176L472.832 40.4124ZM501.875 29.245C512.328 29.245 520.816 32.0821 527.423 37.6875L528.717 36.1625C521.683 30.1945 512.708 27.245 501.875 27.245V29.245ZM527.435 37.6979C534.134 43.1967 538.001 50.6952 539.01 60.2797L540.999 60.0703C539.942 50.0215 535.852 42.0199 528.704 36.1521L527.435 37.6979ZM540.005 59.175H518.46V61.175H540.005V59.175ZM519.444 60.0006C518.54 54.8938 516.616 50.9386 513.579 48.2646C510.536 45.5844 506.494 44.295 501.565 44.295V46.295C506.142 46.295 509.669 47.4856 512.258 49.7654C514.853 52.0514 516.623 55.5362 517.475 60.3494L519.444 60.0006ZM501.565 44.295C495.286 44.295 490.236 46.6409 486.52 51.3398L488.089 52.5802C491.401 48.3924 495.857 46.295 501.565 46.295V44.295ZM486.518 51.3422C482.93 55.9087 481.19 61.988 481.19 69.475H483.19C483.19 62.2886 484.859 56.6913 488.091 52.5778L486.518 51.3422ZM481.19 69.475C481.19 76.9635 482.931 83.0884 486.511 87.7538L488.098 86.5362C484.859 82.3149 483.19 76.6599 483.19 69.475H481.19ZM486.528 87.7742C490.246 92.3678 495.295 94.655 501.565 94.655V92.655C495.848 92.655 491.39 90.6022 488.082 86.5158L486.528 87.7742ZM501.565 94.655C506.707 94.655 510.899 93.2715 514.022 90.3998C517.134 87.5376 519.064 83.3069 519.913 77.8435L517.937 77.5365C517.132 82.7164 515.342 86.4683 512.668 88.9277C510.004 91.3776 506.342 92.655 501.565 92.655V94.655ZM518.925 78.69H540.315V76.69H518.925V78.69ZM609.486 47.31V48.31H610.486V47.31H609.486ZM582.361 47.31V46.31H581.361V47.31H582.361ZM585.616 89.005L584.909 89.7121L584.926 89.7289L584.943 89.7449L585.616 89.005ZM607.936 88.695H608.936V87.0423L607.472 87.8092L607.936 88.695ZM607.936 107.14L608.409 108.021L608.936 107.738V107.14H607.936ZM569.031 102.955L569.696 102.208L569.031 102.955ZM560.506 47.31H561.506V46.31H560.506V47.31ZM546.401 47.31H545.401V48.31H546.401V47.31ZM546.401 30.26V29.26H545.401V30.26H546.401ZM557.096 27.16L556.423 26.4201L556.415 26.4279L556.406 26.4359L557.096 27.16ZM560.506 6.7V5.7H559.506V6.7H560.506ZM582.361 6.7H583.361V5.7H582.361V6.7ZM582.361 30.26H581.361V31.26H582.361V30.26ZM609.486 30.26H610.486V29.26H609.486V30.26ZM609.486 46.31H582.361V48.31H609.486V46.31ZM581.361 47.31V79.705H583.361V47.31H581.361ZM581.361 79.705C581.361 83.9139 582.498 87.3013 584.909 89.7121L586.323 88.2979C584.394 86.3687 583.361 83.5561 583.361 79.705H581.361ZM584.943 89.7449C587.452 92.0256 590.872 93.105 595.071 93.105V91.105C591.21 91.105 588.327 90.1177 586.289 88.2651L584.943 89.7449ZM595.071 93.105C599.493 93.105 603.939 91.9174 608.4 89.5808L607.472 87.8092C603.253 90.0193 599.122 91.105 595.071 91.105V93.105ZM606.936 88.695V107.14H608.936V88.695H606.936ZM607.463 106.259C603.416 108.43 598.168 109.55 591.661 109.55V111.55C598.38 111.55 603.982 110.396 608.409 108.021L607.463 106.259ZM591.661 109.55C582.443 109.55 575.156 107.072 569.696 102.208L568.366 103.702C574.273 108.964 582.073 111.55 591.661 111.55V109.55ZM569.696 102.208C564.248 97.3549 561.506 90.9216 561.506 82.805H559.506C559.506 91.4284 562.447 98.4284 568.366 103.702L569.696 102.208ZM561.506 82.805V47.31H559.506V82.805H561.506ZM560.506 46.31H546.401V48.31H560.506V46.31ZM547.401 47.31V30.26H545.401V47.31H547.401ZM546.401 31.26H546.711V29.26H546.401V31.26ZM546.711 31.26C551.577 31.26 555.346 30.2072 557.786 27.8841L556.406 26.4359C554.505 28.2461 551.352 29.26 546.711 29.26V31.26ZM557.769 27.8999C560.334 25.5682 561.506 21.932 561.506 17.24H559.506C559.506 21.6413 558.405 24.6185 556.423 26.4201L557.769 27.8999ZM561.506 17.24V6.7H559.506V17.24H561.506ZM560.506 7.7H582.361V5.7H560.506V7.7ZM581.361 6.7V30.26H583.361V6.7H581.361ZM582.361 31.26H609.486V29.26H582.361V31.26ZM608.486 30.26V47.31H610.486V30.26H608.486Z" fill="black" fill-opacity="0.23" mask="url(#path-1-outside-1_128_12066)"/>
</svg>
