<svg width="1145" height="141" viewBox="0 0 1145 141" fill="none" xmlns="http://www.w3.org/2000/svg">
<mask id="path-1-outside-1_128_10304" maskUnits="userSpaceOnUse" x="-1" y="-1" width="1148" height="143" fill="black">
<rect fill="white" x="-1" y="-1" width="1148" height="143"/>
<path d="M114.432 36.48H76.08V138H39.42V36.48H0.88V4.51999H114.432V36.48ZM158.243 139.88C149.595 139.88 141.887 138.564 135.119 135.932C128.351 133.175 122.649 129.477 118.011 124.84C113.499 120.203 110.053 114.876 107.671 108.86C105.29 102.844 104.099 96.5147 104.099 89.872C104.099 80.3467 106.167 71.636 110.303 63.74C114.439 55.7187 120.518 49.3267 128.539 44.564C136.561 39.676 146.462 37.232 158.243 37.232C170.025 37.232 179.926 39.6133 187.947 44.376C195.969 49.1387 202.047 55.4053 206.183 63.176C210.319 70.9467 212.387 79.4067 212.387 88.556C212.387 90.436 212.262 92.3787 212.011 94.384C211.886 96.264 211.698 97.956 211.447 99.46H142.075C142.326 102.969 143.266 105.852 144.895 108.108C146.65 110.239 148.781 111.805 151.287 112.808C153.919 113.811 156.614 114.312 159.371 114.312C163.257 114.312 166.891 113.435 170.275 111.68C173.785 109.925 176.103 107.481 177.231 104.348L207.499 112.996C204.867 118.26 201.17 122.897 196.407 126.908C191.77 130.919 186.255 134.115 179.863 136.496C173.471 138.752 166.265 139.88 158.243 139.88ZM141.323 78.028H174.035C173.659 74.7693 172.719 72.012 171.215 69.756C169.837 67.5 167.957 65.7453 165.575 64.492C163.319 63.2387 160.687 62.612 157.679 62.612C154.671 62.612 151.977 63.2387 149.595 64.492C147.339 65.7453 145.459 67.5 143.955 69.756C142.577 72.012 141.699 74.7693 141.323 78.028ZM263.782 139.88C255.134 139.88 246.611 138.501 238.214 135.744C229.942 132.861 222.923 128.725 217.158 123.336L229.378 101.34C235.519 105.351 241.41 108.484 247.05 110.74C252.815 112.996 258.017 114.124 262.654 114.124C265.286 114.124 267.229 113.811 268.482 113.184C269.735 112.432 270.362 111.241 270.362 109.612C270.362 108.484 269.923 107.544 269.046 106.792C268.169 106.04 266.727 105.288 264.722 104.536C262.842 103.784 260.398 102.969 257.39 102.092C249.619 99.3347 243.102 96.7653 237.838 94.384C232.699 92.0027 228.814 89.12 226.182 85.736C223.675 82.2267 222.422 77.5893 222.422 71.824C222.422 65.056 224.114 59.1027 227.498 53.964C230.882 48.7 235.707 44.564 241.974 41.556C248.366 38.548 256.011 37.044 264.91 37.044C271.553 37.044 278.195 38.1093 284.838 40.24C291.606 42.2453 298.123 45.9427 304.39 51.332L290.854 73.14C284.587 69.2547 279.261 66.4973 274.874 64.868C270.613 63.2387 266.79 62.424 263.406 62.424C261.777 62.424 260.335 62.612 259.082 62.988C257.954 63.364 257.077 63.928 256.45 64.68C255.823 65.432 255.51 66.4347 255.51 67.688C255.51 68.9413 255.949 70.0067 256.826 70.884C257.703 71.636 259.082 72.388 260.962 73.14C262.842 73.7667 265.223 74.5187 268.106 75.396C276.629 77.9027 283.585 80.472 288.974 83.104C294.363 85.6107 298.311 88.6813 300.818 92.316C303.45 95.9507 304.766 100.713 304.766 106.604C304.766 117.007 301.069 125.153 293.674 131.044C286.405 136.935 276.441 139.88 263.782 139.88ZM386.568 132.548C383.309 133.927 379.8 135.243 376.04 136.496C372.405 137.624 368.645 138.501 364.76 139.128C361 139.755 357.303 140.068 353.668 140.068C348.279 140.068 343.328 139.191 338.816 137.436C334.304 135.556 330.669 132.548 327.912 128.412C325.28 124.151 323.964 118.448 323.964 111.304V65.996H311.744V39.112H323.964V8.09199H359.684V39.112H379.048V65.996H359.684V98.708C359.684 101.967 360.373 104.285 361.752 105.664C363.131 106.917 365.011 107.544 367.392 107.544C369.147 107.544 371.152 107.231 373.408 106.604C375.664 105.977 377.92 105.225 380.176 104.348L386.568 132.548ZM444.282 139.88C435.509 139.88 427.738 138.501 420.97 135.744C414.202 132.987 408.5 129.227 403.862 124.464C399.35 119.576 395.904 114.061 393.522 107.92C391.266 101.779 390.138 95.324 390.138 88.556C390.138 81.788 391.266 75.3333 393.522 69.192C395.904 62.9253 399.35 57.4107 403.862 52.648C408.5 47.8853 414.202 44.1253 420.97 41.368C427.738 38.6107 435.509 37.232 444.282 37.232C453.181 37.232 460.952 38.6107 467.594 41.368C474.362 44.1253 480.002 47.8853 484.514 52.648C489.152 57.4107 492.598 62.9253 494.854 69.192C497.236 75.3333 498.426 81.788 498.426 88.556C498.426 95.324 497.236 101.779 494.854 107.92C492.598 114.061 489.152 119.576 484.514 124.464C480.002 129.227 474.362 132.987 467.594 135.744C460.952 138.501 453.181 139.88 444.282 139.88ZM426.798 88.556C426.798 92.9427 427.55 96.7653 429.054 100.024C430.558 103.157 432.626 105.601 435.258 107.356C437.89 108.985 440.898 109.8 444.282 109.8C447.666 109.8 450.674 108.985 453.306 107.356C455.938 105.601 458.006 103.157 459.51 100.024C461.014 96.7653 461.766 92.9427 461.766 88.556C461.766 84.1693 461.014 80.4093 459.51 77.276C458.006 74.0173 455.938 71.5733 453.306 69.944C450.674 68.1893 447.666 67.312 444.282 67.312C440.898 67.312 437.89 68.1893 435.258 69.944C432.626 71.5733 430.558 74.0173 429.054 77.276C427.55 80.4093 426.798 84.1693 426.798 88.556ZM670.495 138H634.775V82.352C634.775 77.464 633.772 73.9547 631.767 71.824C629.887 69.568 627.568 68.44 624.811 68.44C622.054 68.44 619.046 69.756 615.787 72.388C612.528 75.02 610.147 78.404 608.643 82.54V138H572.923V82.352C572.923 77.464 571.92 73.9547 569.915 71.824C568.035 69.568 565.716 68.44 562.959 68.44C560.202 68.44 557.194 69.756 553.935 72.388C550.676 75.02 548.295 78.404 546.791 82.54V138H511.071V39.112H543.219V53.776C546.728 48.3867 551.554 44.3133 557.695 41.556C563.836 38.6733 571.106 37.232 579.503 37.232C587.65 37.232 593.791 38.9867 597.927 42.496C602.063 46.0053 604.82 49.9533 606.199 54.34C609.708 48.9507 614.534 44.752 620.675 41.744C626.816 38.736 633.71 37.232 641.355 37.232C647.872 37.232 653.074 38.4227 656.959 40.804C660.844 43.1853 663.727 46.256 665.607 50.016C667.612 53.776 668.928 57.724 669.555 61.86C670.182 65.8707 670.495 69.568 670.495 72.952V138ZM736.564 139.88C727.79 139.88 720.02 138.501 713.252 135.744C706.484 132.987 700.781 129.227 696.144 124.464C691.632 119.576 688.185 114.061 685.804 107.92C683.548 101.779 682.42 95.324 682.42 88.556C682.42 81.788 683.548 75.3333 685.804 69.192C688.185 62.9253 691.632 57.4107 696.144 52.648C700.781 47.8853 706.484 44.1253 713.252 41.368C720.02 38.6107 727.79 37.232 736.564 37.232C745.462 37.232 753.233 38.6107 759.876 41.368C766.644 44.1253 772.284 47.8853 776.796 52.648C781.433 57.4107 784.88 62.9253 787.136 69.192C789.517 75.3333 790.708 81.788 790.708 88.556C790.708 95.324 789.517 101.779 787.136 107.92C784.88 114.061 781.433 119.576 776.796 124.464C772.284 129.227 766.644 132.987 759.876 135.744C753.233 138.501 745.462 139.88 736.564 139.88ZM719.08 88.556C719.08 92.9427 719.832 96.7653 721.336 100.024C722.84 103.157 724.908 105.601 727.54 107.356C730.172 108.985 733.18 109.8 736.564 109.8C739.948 109.8 742.956 108.985 745.588 107.356C748.22 105.601 750.288 103.157 751.792 100.024C753.296 96.7653 754.048 92.9427 754.048 88.556C754.048 84.1693 753.296 80.4093 751.792 77.276C750.288 74.0173 748.22 71.5733 745.588 69.944C742.956 68.1893 739.948 67.312 736.564 67.312C733.18 67.312 730.172 68.1893 727.54 69.944C724.908 71.5733 722.84 74.0173 721.336 77.276C719.832 80.4093 719.08 84.1693 719.08 88.556ZM902.804 138H867.084V82.352C867.084 77.464 865.956 73.9547 863.7 71.824C861.569 69.568 859.063 68.44 856.18 68.44C854.175 68.44 852.044 69.0667 849.788 70.32C847.532 71.448 845.464 73.0773 843.584 75.208C841.704 77.3387 840.2 79.7827 839.072 82.54V138H803.352V39.112H835.5V53.776C837.881 50.1413 840.889 47.1333 844.524 44.752C848.159 42.2453 852.357 40.3653 857.12 39.112C861.883 37.8587 867.084 37.232 872.724 37.232C879.492 37.232 884.881 38.4227 888.892 40.804C892.903 43.1853 895.911 46.256 897.916 50.016C899.921 53.776 901.237 57.724 901.864 61.86C902.491 65.8707 902.804 69.568 902.804 72.952V138ZM920.118 138V39.112H955.838V138H920.118ZM920.118 30.84V0.759996H955.838V30.84H920.118ZM968.459 108.108C968.459 101.465 970.276 95.6373 973.911 90.624C977.545 85.4853 982.559 81.4747 988.951 78.592C995.468 75.7093 1002.86 74.268 1011.13 74.268C1015.02 74.268 1018.65 74.5813 1022.04 75.208C1025.55 75.8347 1028.56 76.7747 1031.06 78.028V75.02C1031.06 70.3827 1029.68 66.936 1026.93 64.68C1024.29 62.424 1019.97 61.296 1013.95 61.296C1008.44 61.296 1003.24 62.236 998.351 64.116C993.588 65.8707 988.575 68.5027 983.311 72.012L972.971 49.828C979.613 45.5667 986.569 42.4333 993.839 40.428C1001.23 38.2973 1009.13 37.232 1017.53 37.232C1033.19 37.232 1045.29 40.804 1053.81 47.948C1062.46 54.9667 1066.78 65.432 1066.78 79.344V98.52C1066.78 101.904 1067.28 104.285 1068.29 105.664C1069.29 106.917 1071.04 107.669 1073.55 107.92V138C1070.67 138.627 1067.91 139.065 1065.28 139.316C1062.77 139.692 1060.52 139.88 1058.51 139.88C1052.12 139.88 1047.23 138.752 1043.85 136.496C1040.59 134.115 1038.46 130.668 1037.45 126.156L1036.7 122.584C1032.32 128.224 1027.24 132.548 1021.47 135.556C1015.71 138.439 1009.57 139.88 1003.05 139.88C996.533 139.88 990.643 138.501 985.379 135.744C980.115 132.987 975.979 129.227 972.971 124.464C969.963 119.576 968.459 114.124 968.459 108.108ZM1026.36 110.552C1027.74 109.549 1028.87 108.484 1029.75 107.356C1030.62 106.103 1031.06 104.849 1031.06 103.596V96.264C1029.06 95.512 1026.74 94.8853 1024.11 94.384C1021.6 93.8827 1019.34 93.632 1017.34 93.632C1013.08 93.632 1009.44 94.6973 1006.43 96.828C1003.55 98.9587 1002.11 101.653 1002.11 104.912C1002.11 106.667 1002.61 108.296 1003.61 109.8C1004.62 111.179 1006 112.307 1007.75 113.184C1009.51 113.936 1011.51 114.312 1013.77 114.312C1015.9 114.312 1018.09 113.999 1020.35 113.372C1022.73 112.62 1024.73 111.68 1026.36 110.552ZM1085.7 0.759996H1121.42V98.708C1121.42 102.343 1122.17 105.163 1123.68 107.168C1125.31 109.048 1127.63 109.988 1130.63 109.988C1132.14 109.988 1133.77 109.737 1135.52 109.236C1137.28 108.735 1138.91 108.045 1140.41 107.168L1144.92 133.488C1140.66 135.493 1135.84 137.06 1130.45 138.188C1125.18 139.316 1120.17 139.88 1115.41 139.88C1105.88 139.88 1098.55 137.436 1093.41 132.548C1088.27 127.535 1085.7 120.453 1085.7 111.304V0.759996Z"/>
</mask>
<path d="M114.432 36.48V37.48H115.432V36.48H114.432ZM76.08 36.48V35.48H75.08V36.48H76.08ZM76.08 138V139H77.08V138H76.08ZM39.42 138H38.42V139H39.42V138ZM39.42 36.48H40.42V35.48H39.42V36.48ZM0.88 36.48H-0.12V37.48H0.88V36.48ZM0.88 4.51999V3.51999H-0.12V4.51999H0.88ZM114.432 4.51999H115.432V3.51999H114.432V4.51999ZM114.432 35.48H76.08V37.48H114.432V35.48ZM75.08 36.48V138H77.08V36.48H75.08ZM76.08 137H39.42V139H76.08V137ZM40.42 138V36.48H38.42V138H40.42ZM39.42 35.48H0.88V37.48H39.42V35.48ZM1.88 36.48V4.51999H-0.12V36.48H1.88ZM0.88 5.51999H114.432V3.51999H0.88V5.51999ZM113.432 4.51999V36.48H115.432V4.51999H113.432ZM135.119 135.932L134.742 136.858L134.749 136.861L134.757 136.864L135.119 135.932ZM118.011 124.84L117.295 125.537L117.304 125.547L118.011 124.84ZM107.671 108.86L106.742 109.228L107.671 108.86ZM110.303 63.74L111.189 64.204L111.192 64.1983L110.303 63.74ZM128.539 44.564L129.05 45.4239L129.06 45.4179L128.539 44.564ZM187.947 44.376L188.458 43.5161L187.947 44.376ZM206.183 63.176L207.066 62.7061L206.183 63.176ZM212.011 94.384L211.019 94.26L211.015 94.2886L211.014 94.3175L212.011 94.384ZM211.447 99.46V100.46H212.294L212.434 99.6244L211.447 99.46ZM142.075 99.46V98.46H141.001L141.078 99.5312L142.075 99.46ZM144.895 108.108L144.085 108.693L144.103 108.719L144.123 108.744L144.895 108.108ZM151.287 112.808L150.916 113.736L150.924 113.74L150.931 113.742L151.287 112.808ZM170.275 111.68L169.828 110.786L169.822 110.789L169.815 110.792L170.275 111.68ZM177.231 104.348L177.506 103.386L176.607 103.13L176.29 104.009L177.231 104.348ZM207.499 112.996L208.394 113.443L208.933 112.365L207.774 112.034L207.499 112.996ZM196.407 126.908L195.763 126.143L195.753 126.152L196.407 126.908ZM179.863 136.496L180.196 137.439L180.204 137.436L180.212 137.433L179.863 136.496ZM141.323 78.028L140.33 77.9134L140.201 79.028H141.323V78.028ZM174.035 78.028V79.028H175.157L175.029 77.9134L174.035 78.028ZM171.215 69.756L170.362 70.2775L170.372 70.2943L170.383 70.3107L171.215 69.756ZM165.575 64.492L165.09 65.3661L165.1 65.3716L165.11 65.3769L165.575 64.492ZM149.595 64.492L149.13 63.6071L149.12 63.6123L149.11 63.6178L149.595 64.492ZM143.955 69.756L143.123 69.2013L143.112 69.2177L143.102 69.2346L143.955 69.756ZM158.243 138.88C149.696 138.88 142.114 137.579 135.482 135L134.757 136.864C141.66 139.549 149.494 140.88 158.243 140.88V138.88ZM135.497 135.006C128.838 132.293 123.251 128.666 118.718 124.133L117.304 125.547C122.046 130.289 127.865 134.056 134.742 136.858L135.497 135.006ZM118.728 124.143C114.308 119.6 110.934 114.385 108.601 108.492L106.742 109.228C109.171 115.367 112.691 120.805 117.295 125.537L118.728 124.143ZM108.601 108.492C106.267 102.596 105.099 96.3921 105.099 89.872H103.099C103.099 96.6373 104.313 103.092 106.742 109.228L108.601 108.492ZM105.099 89.872C105.099 80.4969 107.133 71.9471 111.189 64.204L109.418 63.276C105.201 71.3249 103.099 80.1964 103.099 89.872H105.099ZM111.192 64.1983C115.239 56.3494 121.184 50.0942 129.05 45.4239L128.029 43.7041C119.852 48.5592 113.639 55.0879 109.415 63.2817L111.192 64.1983ZM129.06 45.4179C136.889 40.647 146.599 38.232 158.243 38.232V36.232C146.325 36.232 136.232 38.705 128.019 43.7101L129.06 45.4179ZM158.243 38.232C169.892 38.232 179.606 40.5861 187.437 45.2358L188.458 43.5161C180.246 38.6405 170.158 36.232 158.243 36.232V38.232ZM187.437 45.2358C195.311 49.9109 201.256 56.0466 205.301 63.6458L207.066 62.7061C202.839 54.7641 196.627 48.3665 188.458 43.5161L187.437 45.2358ZM205.301 63.6458C209.357 71.2661 211.387 79.5638 211.387 88.556H213.387C213.387 79.2495 211.282 70.6272 207.066 62.7061L205.301 63.6458ZM211.387 88.556C211.387 90.3916 211.265 92.2927 211.019 94.26L213.004 94.508C213.259 92.4646 213.387 90.4804 213.387 88.556H211.387ZM211.014 94.3175C210.89 96.172 210.705 97.8305 210.461 99.2956L212.434 99.6244C212.691 98.0815 212.882 96.356 213.009 94.4505L211.014 94.3175ZM211.447 98.46H142.075V100.46H211.447V98.46ZM141.078 99.5312C141.338 103.177 142.321 106.252 144.085 108.693L145.706 107.523C144.211 105.452 143.314 102.761 143.073 99.3887L141.078 99.5312ZM144.123 108.744C145.982 111.001 148.25 112.67 150.916 113.736L151.659 111.88C149.312 110.941 147.318 109.476 145.667 107.472L144.123 108.744ZM150.931 113.742C153.675 114.788 156.49 115.312 159.371 115.312V113.312C156.738 113.312 154.164 112.834 151.643 111.874L150.931 113.742ZM159.371 115.312C163.414 115.312 167.207 114.398 170.736 112.568L169.815 110.792C166.576 112.472 163.1 113.312 159.371 113.312V115.312ZM170.723 112.574C174.418 110.727 176.942 108.104 178.172 104.687L176.29 104.009C175.265 106.858 173.151 109.124 169.828 110.786L170.723 112.574ZM176.957 105.31L207.225 113.958L207.774 112.034L177.506 103.386L176.957 105.31ZM206.605 112.549C204.037 117.684 200.428 122.215 195.763 126.143L197.051 127.673C201.912 123.58 205.697 118.836 208.394 113.443L206.605 112.549ZM195.753 126.152C191.216 130.076 185.807 133.215 179.514 135.559L180.212 137.433C186.704 135.015 192.324 131.761 197.062 127.664L195.753 126.152ZM179.531 135.553C173.263 137.765 166.172 138.88 158.243 138.88V140.88C166.358 140.88 173.68 139.739 180.196 137.439L179.531 135.553ZM141.323 79.028H174.035V77.028H141.323V79.028ZM175.029 77.9134C174.638 74.53 173.656 71.614 172.047 69.2013L170.383 70.3107C171.783 72.41 172.68 75.0087 173.042 78.1426L175.029 77.9134ZM172.069 69.2346C170.594 66.8218 168.579 64.9428 166.041 63.6071L165.11 65.3769C167.334 66.5478 169.079 68.1782 170.362 70.2775L172.069 69.2346ZM166.061 63.6178C163.633 62.2692 160.829 61.612 157.679 61.612V63.612C160.546 63.612 163.005 64.2081 165.09 65.3661L166.061 63.6178ZM157.679 61.612C154.528 61.612 151.671 62.2696 149.13 63.6071L150.061 65.3769C152.283 64.2077 154.814 63.612 157.679 63.612V61.612ZM149.11 63.6178C146.707 64.9525 144.711 66.8196 143.123 69.2013L144.787 70.3107C146.208 68.1803 147.971 66.5382 150.081 65.3661L149.11 63.6178ZM143.102 69.2346C141.632 71.6405 140.719 74.5443 140.33 77.9134L142.317 78.1426C142.68 74.9943 143.522 72.3835 144.809 70.2775L143.102 69.2346ZM238.214 135.744L237.885 136.688L237.893 136.691L237.902 136.694L238.214 135.744ZM217.158 123.336L216.284 122.85L215.904 123.533L216.475 124.067L217.158 123.336ZM229.378 101.34L229.925 100.503L229.025 99.9154L228.504 100.854L229.378 101.34ZM247.05 110.74L246.678 111.669L246.685 111.671L247.05 110.74ZM268.482 113.184L268.929 114.078L268.963 114.061L268.996 114.041L268.482 113.184ZM264.722 104.536L264.35 105.464L264.361 105.469L264.371 105.472L264.722 104.536ZM257.39 102.092L257.055 103.034L257.082 103.044L257.11 103.052L257.39 102.092ZM237.838 94.384L237.417 95.2914L237.426 95.2951L237.838 94.384ZM226.182 85.736L225.368 86.3172L225.38 86.3338L225.392 86.3499L226.182 85.736ZM227.498 53.964L228.333 54.514L228.339 54.5048L227.498 53.964ZM241.974 41.556L241.548 40.6512L241.541 40.6545L241.974 41.556ZM284.838 40.24L284.532 41.1922L284.543 41.1956L284.554 41.1988L284.838 40.24ZM304.39 51.332L305.24 51.8594L305.691 51.132L305.042 50.5738L304.39 51.332ZM290.854 73.14L290.327 73.9899L291.176 74.5166L291.703 73.6674L290.854 73.14ZM274.874 64.868L274.517 65.8021L274.526 65.8054L274.874 64.868ZM259.082 62.988L258.794 62.0302L258.78 62.0345L258.766 62.0393L259.082 62.988ZM256.45 64.68L257.218 65.3202L256.45 64.68ZM256.826 70.884L256.119 71.5911L256.146 71.6183L256.175 71.6432L256.826 70.884ZM260.962 73.14L260.59 74.0685L260.618 74.0794L260.646 74.0887L260.962 73.14ZM268.106 75.396L267.815 76.3527L267.824 76.3554L268.106 75.396ZM288.974 83.104L288.535 84.0026L288.544 84.0067L288.552 84.0107L288.974 83.104ZM300.818 92.316L299.995 92.8837L300.001 92.8932L300.008 92.9025L300.818 92.316ZM293.674 131.044L293.051 130.262L293.044 130.267L293.674 131.044ZM263.782 138.88C255.242 138.88 246.825 137.519 238.526 134.794L237.902 136.694C246.398 139.484 255.026 140.88 263.782 140.88V138.88ZM238.543 134.8C230.388 131.958 223.494 127.89 217.841 122.605L216.475 124.067C222.353 129.561 229.496 133.765 237.885 136.688L238.543 134.8ZM218.032 123.822L230.252 101.826L228.504 100.854L216.284 122.85L218.032 123.822ZM228.831 102.177C235.017 106.217 240.966 109.384 246.678 111.668L247.421 109.812C241.854 107.584 236.022 104.484 229.925 100.503L228.831 102.177ZM246.685 111.671C252.53 113.958 257.858 115.124 262.654 115.124V113.124C258.175 113.124 253.1 112.034 247.414 109.809L246.685 111.671ZM262.654 115.124C265.328 115.124 267.462 114.812 268.929 114.078L268.035 112.29C266.995 112.809 265.244 113.124 262.654 113.124V115.124ZM268.996 114.041C270.59 113.085 271.362 111.544 271.362 109.612H269.362C269.362 110.938 268.88 111.779 267.967 112.327L268.996 114.041ZM271.362 109.612C271.362 108.184 270.789 106.969 269.697 106.033L268.395 107.551C269.057 108.119 269.362 108.784 269.362 109.612H271.362ZM269.697 106.033C268.684 105.165 267.111 104.364 265.073 103.6L264.371 105.472C266.344 106.212 267.653 106.915 268.395 107.551L269.697 106.033ZM265.093 103.608C263.172 102.839 260.694 102.014 257.67 101.132L257.11 103.052C260.102 103.925 262.512 104.729 264.35 105.464L265.093 103.608ZM257.724 101.15C249.97 98.398 243.48 95.839 238.25 93.4729L237.426 95.2951C242.723 97.6917 249.269 100.271 257.055 103.034L257.724 101.15ZM238.258 93.4767C233.22 91.1417 229.479 88.3465 226.971 85.1221L225.392 86.3499C228.149 89.8935 232.179 92.8636 237.417 95.2913L238.258 93.4767ZM226.996 85.1548C224.645 81.8638 223.422 77.4502 223.422 71.824H221.422C221.422 77.7285 222.705 82.5895 225.368 86.3172L226.996 85.1548ZM223.422 71.824C223.422 65.2312 225.067 59.4732 228.333 54.514L226.663 53.414C223.16 58.7321 221.422 64.8808 221.422 71.824H223.422ZM228.339 54.5048C231.612 49.4134 236.288 45.3945 242.407 42.4575L241.541 40.6545C235.127 43.7335 230.152 47.9866 226.657 53.4232L228.339 54.5048ZM242.4 42.4608C248.629 39.5296 256.121 38.044 264.91 38.044V36.044C255.901 36.044 248.103 37.5664 241.548 40.6512L242.4 42.4608ZM264.91 38.044C271.444 38.044 277.983 39.0916 284.532 41.1922L285.143 39.2878C278.407 37.1271 271.661 36.044 264.91 36.044V38.044ZM284.554 41.1988C291.165 43.1577 297.56 46.7774 303.738 52.0902L305.042 50.5738C298.686 45.108 292.047 41.3329 285.122 39.2812L284.554 41.1988ZM303.54 50.8046L290.004 72.6126L291.703 73.6674L305.24 51.8594L303.54 50.8046ZM291.381 72.2901C285.086 68.3873 279.696 65.5923 275.222 63.9306L274.526 65.8054C278.825 67.4023 284.088 70.1221 290.327 73.9899L291.381 72.2901ZM275.231 63.9339C270.893 62.2753 266.946 61.424 263.406 61.424V63.424C266.633 63.424 270.332 64.2021 274.517 65.802L275.231 63.9339ZM263.406 61.424C261.702 61.424 260.161 61.6203 258.794 62.0302L259.369 63.9458C260.51 63.6037 261.851 63.424 263.406 63.424V61.424ZM258.766 62.0393C257.499 62.4614 256.451 63.117 255.682 64.0398L257.218 65.3202C257.702 64.739 258.408 64.2665 259.398 63.9367L258.766 62.0393ZM255.682 64.0398C254.867 65.017 254.51 66.2677 254.51 67.688H256.51C256.51 66.6017 256.779 65.847 257.218 65.3202L255.682 64.0398ZM254.51 67.688C254.51 69.2035 255.052 70.5241 256.119 71.5911L257.533 70.1769C256.845 69.4892 256.51 68.6791 256.51 67.688H254.51ZM256.175 71.6432C257.176 72.5009 258.673 73.3016 260.59 74.0685L261.333 72.2115C259.491 71.4744 258.231 70.7711 257.477 70.1247L256.175 71.6432ZM260.646 74.0887C262.537 74.7191 264.927 75.474 267.815 76.3527L268.397 74.4393C265.519 73.5634 263.147 72.8142 261.278 72.1913L260.646 74.0887ZM267.824 76.3554C276.316 78.853 283.214 81.4039 288.535 84.0026L289.413 82.2054C283.955 79.5401 276.941 76.9524 268.388 74.4366L267.824 76.3554ZM288.552 84.0107C293.834 86.4673 297.618 89.4381 299.995 92.8837L301.641 91.7483C299.004 87.9245 294.893 84.754 289.396 82.1973L288.552 84.0107ZM300.008 92.9025C302.483 96.3202 303.766 100.858 303.766 106.604H305.766C305.766 100.568 304.417 95.5811 301.628 91.7295L300.008 92.9025ZM303.766 106.604C303.766 116.737 300.181 124.582 293.051 130.262L294.297 131.826C301.956 125.725 305.766 117.276 305.766 106.604H303.766ZM293.044 130.267C286.007 135.97 276.292 138.88 263.782 138.88V140.88C276.589 140.88 286.802 137.9 294.303 131.821L293.044 130.267ZM386.568 132.548L386.958 133.469L387.728 133.143L387.543 132.327L386.568 132.548ZM376.04 136.496L376.336 137.451L376.346 137.448L376.356 137.445L376.04 136.496ZM364.76 139.128L364.601 138.141L364.595 138.142L364.76 139.128ZM338.816 137.436L338.431 138.359L338.442 138.364L338.453 138.368L338.816 137.436ZM327.912 128.412L327.061 128.937L327.07 128.952L327.08 128.967L327.912 128.412ZM323.964 65.996H324.964V64.996H323.964V65.996ZM311.744 65.996H310.744V66.996H311.744V65.996ZM311.744 39.112V38.112H310.744V39.112H311.744ZM323.964 39.112V40.112H324.964V39.112H323.964ZM323.964 8.09199V7.09199H322.964V8.09199H323.964ZM359.684 8.09199H360.684V7.09199H359.684V8.09199ZM359.684 39.112H358.684V40.112H359.684V39.112ZM379.048 39.112H380.048V38.112H379.048V39.112ZM379.048 65.996V66.996H380.048V65.996H379.048ZM359.684 65.996V64.996H358.684V65.996H359.684ZM361.752 105.664L361.045 106.371L361.062 106.388L361.079 106.404L361.752 105.664ZM373.408 106.604L373.14 105.64V105.64L373.408 106.604ZM380.176 104.348L381.151 104.127L380.895 102.996L379.813 103.416L380.176 104.348ZM386.178 131.627C382.946 132.994 379.462 134.301 375.724 135.547L376.356 137.445C380.138 136.184 383.672 134.859 386.958 133.469L386.178 131.627ZM375.743 135.541C372.155 136.655 368.441 137.521 364.601 138.141L364.919 140.115C368.849 139.481 372.655 138.593 376.336 137.451L375.743 135.541ZM364.595 138.142C360.887 138.76 357.245 139.068 353.668 139.068V141.068C357.36 141.068 361.113 140.75 364.924 140.114L364.595 138.142ZM353.668 139.068C348.389 139.068 343.562 138.209 339.178 136.504L338.453 138.368C343.093 140.172 348.169 141.068 353.668 141.068V139.068ZM339.201 136.513C334.874 134.71 331.394 131.832 328.744 127.857L327.08 128.967C329.945 133.264 333.734 136.402 338.431 138.359L339.201 136.513ZM328.763 127.887C326.261 123.837 324.964 118.338 324.964 111.304H322.964C322.964 118.558 324.298 124.465 327.061 128.937L328.763 127.887ZM324.964 111.304V65.996H322.964V111.304H324.964ZM323.964 64.996H311.744V66.996H323.964V64.996ZM312.744 65.996V39.112H310.744V65.996H312.744ZM311.744 40.112H323.964V38.112H311.744V40.112ZM324.964 39.112V8.09199H322.964V39.112H324.964ZM323.964 9.09199H359.684V7.09199H323.964V9.09199ZM358.684 8.09199V39.112H360.684V8.09199H358.684ZM359.684 40.112H379.048V38.112H359.684V40.112ZM378.048 39.112V65.996H380.048V39.112H378.048ZM379.048 64.996H359.684V66.996H379.048V64.996ZM358.684 65.996V98.708H360.684V65.996H358.684ZM358.684 98.708C358.684 102.064 359.386 104.712 361.045 106.371L362.459 104.957C361.36 103.858 360.684 101.87 360.684 98.708H358.684ZM361.079 106.404C362.689 107.867 364.833 108.544 367.392 108.544V106.544C365.188 106.544 363.572 105.967 362.425 104.924L361.079 106.404ZM367.392 108.544C369.261 108.544 371.359 108.211 373.676 107.568L373.14 105.64C370.944 106.25 369.032 106.544 367.392 106.544V108.544ZM373.676 107.568C375.965 106.932 378.252 106.169 380.538 105.28L379.813 103.416C377.587 104.282 375.363 105.023 373.14 105.64L373.676 107.568ZM379.201 104.569L385.593 132.769L387.543 132.327L381.151 104.127L379.201 104.569ZM420.97 135.744L420.593 136.67L420.97 135.744ZM403.862 124.464L403.128 125.142L403.137 125.152L403.146 125.162L403.862 124.464ZM393.522 107.92L392.584 108.265L392.587 108.273L392.59 108.282L393.522 107.92ZM393.522 69.192L392.588 68.8368L392.584 68.8472L393.522 69.192ZM403.862 52.648L403.146 51.9503L403.136 51.9603L403.862 52.648ZM420.97 41.368L421.348 42.2941L420.97 41.368ZM467.594 41.368L467.211 42.2916L467.217 42.2941L467.594 41.368ZM484.514 52.648L483.788 53.3358L483.798 53.3456L484.514 52.648ZM494.854 69.192L493.914 69.5307L493.918 69.5422L493.922 69.5535L494.854 69.192ZM494.854 107.92L493.922 107.558L493.919 107.567L493.916 107.575L494.854 107.92ZM484.514 124.464L483.789 123.776L483.788 123.776L484.514 124.464ZM467.594 135.744L467.217 134.818L467.211 134.82L467.594 135.744ZM429.054 100.024L428.146 100.443L428.15 100.45L428.153 100.457L429.054 100.024ZM435.258 107.356L434.704 108.188L434.718 108.197L434.732 108.206L435.258 107.356ZM453.306 107.356L453.833 108.206L453.847 108.197L453.861 108.188L453.306 107.356ZM459.51 100.024L460.412 100.457L460.415 100.45L460.418 100.443L459.51 100.024ZM459.51 77.276L458.602 77.6951L458.606 77.7019L458.609 77.7087L459.51 77.276ZM453.306 69.944L452.752 70.776L452.766 70.7854L452.78 70.7943L453.306 69.944ZM435.258 69.944L435.785 70.7943L435.799 70.7854L435.813 70.776L435.258 69.944ZM429.054 77.276L429.956 77.7087L429.959 77.7019L429.962 77.6951L429.054 77.276ZM444.282 138.88C435.613 138.88 427.974 137.518 421.348 134.818L420.593 136.67C427.502 139.485 435.405 140.88 444.282 140.88V138.88ZM421.348 134.818C414.695 132.107 409.111 128.421 404.579 123.766L403.146 125.162C407.889 130.032 413.71 133.866 420.593 136.67L421.348 134.818ZM404.597 123.786C400.169 118.989 396.79 113.582 394.455 107.558L392.59 108.282C395.017 114.541 398.531 120.163 403.128 125.142L404.597 123.786ZM394.461 107.575C392.247 101.548 391.138 95.2105 391.138 88.556H389.138C389.138 95.4375 390.286 102.009 392.584 108.265L394.461 107.575ZM391.138 88.556C391.138 81.9015 392.247 75.5639 394.461 69.5368L392.584 68.8472C390.286 75.1027 389.138 81.6745 389.138 88.556H391.138ZM394.457 69.5472C396.793 63.4013 400.169 58.0003 404.588 53.3357L403.136 51.9603C398.532 56.821 395.015 62.4493 392.588 68.8368L394.457 69.5472ZM404.579 53.3456C409.111 48.6911 414.695 45.0046 421.348 42.2941L420.593 40.4419C413.71 43.246 407.889 47.0796 403.146 51.9504L404.579 53.3456ZM421.348 42.2941C427.974 39.5943 435.613 38.232 444.282 38.232V36.232C435.405 36.232 427.502 37.627 420.593 40.4419L421.348 42.2941ZM444.282 38.232C453.08 38.232 460.715 39.5951 467.211 42.2916L467.978 40.4444C461.188 37.6262 453.282 36.232 444.282 36.232V38.232ZM467.217 42.2941C473.868 45.0039 479.385 48.6877 483.788 53.3357L485.24 51.9603C480.62 47.083 474.856 43.2468 467.972 40.4419L467.217 42.2941ZM483.798 53.3456C488.336 58.0058 491.706 63.3981 493.914 69.5307L495.795 68.8533C493.491 62.4526 489.968 56.8155 485.231 51.9504L483.798 53.3456ZM493.922 69.5535C496.257 75.5764 497.426 81.9082 497.426 88.556H499.426C499.426 81.6678 498.214 75.0903 495.787 68.8305L493.922 69.5535ZM497.426 88.556C497.426 95.2038 496.257 101.536 493.922 107.558L495.787 108.282C498.214 102.022 499.426 95.4442 499.426 88.556H497.426ZM493.916 107.575C491.708 113.585 488.335 118.983 483.789 123.776L485.24 125.152C489.968 120.169 493.489 114.538 495.793 108.265L493.916 107.575ZM483.788 123.776C479.385 128.424 473.868 132.108 467.217 134.818L467.972 136.67C474.856 133.865 480.62 130.029 485.24 125.152L483.788 123.776ZM467.211 134.82C460.715 137.517 453.08 138.88 444.282 138.88V140.88C453.282 140.88 461.188 139.486 467.978 136.668L467.211 134.82ZM425.798 88.556C425.798 93.0559 426.57 97.0271 428.146 100.443L429.962 99.6049C428.531 96.5035 427.798 92.8294 427.798 88.556H425.798ZM428.153 100.457C429.727 103.735 431.908 106.324 434.704 108.188L435.813 106.524C433.345 104.879 431.39 102.579 429.956 99.5913L428.153 100.457ZM434.732 108.206C437.537 109.943 440.73 110.8 444.282 110.8V108.8C441.066 108.8 438.244 108.028 435.785 106.506L434.732 108.206ZM444.282 110.8C447.834 110.8 451.028 109.943 453.833 108.206L452.78 106.506C450.321 108.028 447.498 108.8 444.282 108.8V110.8ZM453.861 108.188C456.657 106.324 458.838 103.735 460.412 100.457L458.609 99.5913C457.175 102.579 455.22 104.879 452.752 106.524L453.861 108.188ZM460.418 100.443C461.995 97.0271 462.766 93.0559 462.766 88.556H460.766C460.766 92.8294 460.034 96.5035 458.602 99.6049L460.418 100.443ZM462.766 88.556C462.766 84.0577 461.995 80.1423 460.412 76.8433L458.609 77.7087C460.033 80.6764 460.766 84.281 460.766 88.556H462.766ZM460.418 76.8569C458.846 73.4493 456.657 70.8419 453.833 69.0937L452.78 70.7943C455.22 72.3047 457.167 74.5853 458.602 77.6951L460.418 76.8569ZM453.861 69.1119C451.053 67.24 447.849 66.312 444.282 66.312V68.312C447.483 68.312 450.296 69.1386 452.752 70.776L453.861 69.1119ZM444.282 66.312C440.715 66.312 437.512 67.24 434.704 69.1119L435.813 70.776C438.269 69.1386 441.081 68.312 444.282 68.312V66.312ZM434.732 69.0937C431.908 70.8419 429.719 73.4493 428.146 76.8569L429.962 77.6951C431.398 74.5853 433.345 72.3047 435.785 70.7943L434.732 69.0937ZM428.153 76.8433C426.569 80.1423 425.798 84.0577 425.798 88.556H427.798C427.798 84.281 428.531 80.6764 429.956 77.7087L428.153 76.8433ZM670.495 138V139H671.495V138H670.495ZM634.775 138H633.775V139H634.775V138ZM631.767 71.824L630.999 72.4642L631.018 72.4874L631.039 72.5094L631.767 71.824ZM615.787 72.388L615.159 71.6101V71.6101L615.787 72.388ZM608.643 82.54L607.703 82.1982L607.643 82.3638V82.54H608.643ZM608.643 138V139H609.643V138H608.643ZM572.923 138H571.923V139H572.923V138ZM569.915 71.824L569.147 72.4642L569.166 72.4874L569.187 72.5094L569.915 71.824ZM553.935 72.388L554.563 73.1659L553.935 72.388ZM546.791 82.54L545.851 82.1983L545.791 82.3638V82.54H546.791ZM546.791 138V139H547.791V138H546.791ZM511.071 138H510.071V139H511.071V138ZM511.071 39.112V38.112H510.071V39.112H511.071ZM543.219 39.112H544.219V38.112H543.219V39.112ZM543.219 53.776H542.219V57.1443L544.057 54.3217L543.219 53.776ZM557.695 41.556L558.104 42.4683L558.112 42.4648L558.12 42.4612L557.695 41.556ZM597.927 42.496L598.574 41.7335L597.927 42.496ZM606.199 54.34L605.245 54.6398L605.88 56.6618L607.037 54.8857L606.199 54.34ZM620.675 41.744L621.115 42.6421L620.675 41.744ZM656.959 40.804L657.481 39.9514L656.959 40.804ZM665.607 50.016L664.712 50.4632L664.718 50.475L664.725 50.4866L665.607 50.016ZM669.555 61.86L668.566 62.0098L668.567 62.0144L669.555 61.86ZM670.495 137H634.775V139H670.495V137ZM635.775 138V82.352H633.775V138H635.775ZM635.775 82.352C635.775 77.3692 634.76 73.5453 632.495 71.1386L631.039 72.5094C632.784 74.364 633.775 77.5588 633.775 82.352H635.775ZM632.535 71.1838C630.479 68.7168 627.886 67.44 624.811 67.44V69.44C627.25 69.44 629.295 70.4192 630.999 72.4642L632.535 71.1838ZM624.811 67.44C621.733 67.44 618.507 68.9056 615.159 71.6101L616.415 73.1659C619.584 70.6064 622.374 69.44 624.811 69.44V67.44ZM615.159 71.6101C611.751 74.3623 609.266 77.9003 607.703 82.1982L609.583 82.8817C611.028 78.9077 613.305 75.6777 616.415 73.1659L615.159 71.6101ZM607.643 82.54V138H609.643V82.54H607.643ZM608.643 137H572.923V139H608.643V137ZM573.923 138V82.352H571.923V138H573.923ZM573.923 82.352C573.923 77.3692 572.908 73.5453 570.643 71.1386L569.187 72.5094C570.932 74.364 571.923 77.5588 571.923 82.352H573.923ZM570.683 71.1838C568.627 68.7168 566.034 67.44 562.959 67.44V69.44C565.398 69.44 567.443 70.4192 569.147 72.4642L570.683 71.1838ZM562.959 67.44C559.881 67.44 556.655 68.9056 553.307 71.6101L554.563 73.1659C557.732 70.6064 560.522 69.44 562.959 69.44V67.44ZM553.307 71.6101C549.899 74.3623 547.414 77.9003 545.851 82.1983L547.731 82.8817C549.176 78.9077 551.453 75.6777 554.563 73.1659L553.307 71.6101ZM545.791 82.54V138H547.791V82.54H545.791ZM546.791 137H511.071V139H546.791V137ZM512.071 138V39.112H510.071V138H512.071ZM511.071 40.112H543.219V38.112H511.071V40.112ZM542.219 39.112V53.776H544.219V39.112H542.219ZM544.057 54.3217C547.456 49.1008 552.13 45.1509 558.104 42.4683L557.285 40.6437C550.978 43.4758 546 47.6725 542.381 53.2303L544.057 54.3217ZM558.12 42.4612C564.1 39.654 571.218 38.232 579.503 38.232V36.232C570.993 36.232 563.572 37.6927 557.27 40.6508L558.12 42.4612ZM579.503 38.232C587.527 38.232 593.396 39.9632 597.28 43.2585L598.574 41.7335C594.186 38.0101 587.772 36.232 579.503 36.232V38.232ZM597.28 43.2585C601.298 46.6679 603.932 50.4635 605.245 54.6398L607.153 54.0402C605.708 49.4432 602.828 45.3427 598.574 41.7335L597.28 43.2585ZM607.037 54.8857C610.441 49.6572 615.125 45.5759 621.115 42.6421L620.235 40.8459C613.942 43.9281 608.975 48.2441 605.361 53.7943L607.037 54.8857ZM621.115 42.6421C627.104 39.7087 633.844 38.232 641.355 38.232V36.232C633.575 36.232 626.529 37.7633 620.235 40.8459L621.115 42.6421ZM641.355 38.232C647.763 38.232 652.762 39.4046 656.436 41.6566L657.481 39.9514C653.385 37.4408 647.981 36.232 641.355 36.232V38.232ZM656.436 41.6566C660.176 43.9488 662.923 46.8845 664.712 50.4632L666.501 49.5688C664.531 45.6275 661.512 42.4219 657.481 39.9514L656.436 41.6566ZM664.725 50.4866C666.677 54.1484 667.957 57.9881 668.566 62.0098L670.544 61.7102C669.9 57.4599 668.547 53.4036 666.489 49.5454L664.725 50.4866ZM668.567 62.0144C669.187 65.9837 669.495 69.6287 669.495 72.952H671.495C671.495 69.5073 671.176 65.7576 670.543 61.7056L668.567 62.0144ZM669.495 72.952V138H671.495V72.952H669.495ZM713.252 135.744L712.874 136.67L713.252 135.744ZM696.144 124.464L695.409 125.142L695.418 125.152L695.427 125.162L696.144 124.464ZM685.804 107.92L684.865 108.265L684.868 108.273L684.871 108.282L685.804 107.92ZM685.804 69.192L684.869 68.8368L684.865 68.8472L685.804 69.192ZM696.144 52.648L695.427 51.9503L695.418 51.9603L696.144 52.648ZM713.252 41.368L713.629 42.2941L713.252 41.368ZM759.876 41.368L759.492 42.2916L759.498 42.2941L759.876 41.368ZM776.796 52.648L776.07 53.3358L776.079 53.3456L776.796 52.648ZM787.136 69.192L786.195 69.5307L786.199 69.5422L786.203 69.5535L787.136 69.192ZM787.136 107.92L786.203 107.558L786.2 107.567L786.197 107.575L787.136 107.92ZM776.796 124.464L776.07 123.776L776.07 123.776L776.796 124.464ZM759.876 135.744L759.498 134.818L759.492 134.82L759.876 135.744ZM721.336 100.024L720.428 100.443L720.431 100.45L720.434 100.457L721.336 100.024ZM727.54 107.356L726.985 108.188L726.999 108.197L727.013 108.206L727.54 107.356ZM745.588 107.356L746.114 108.206L746.128 108.197L746.142 108.188L745.588 107.356ZM751.792 100.024L752.693 100.457L752.696 100.45L752.7 100.443L751.792 100.024ZM751.792 77.276L750.884 77.6951L750.887 77.7019L750.89 77.7087L751.792 77.276ZM745.588 69.944L745.033 70.776L745.047 70.7854L745.061 70.7943L745.588 69.944ZM727.54 69.944L728.066 70.7943L728.08 70.7854L728.094 70.776L727.54 69.944ZM721.336 77.276L722.237 77.7087L722.24 77.7019L722.244 77.6951L721.336 77.276ZM736.564 138.88C727.894 138.88 720.256 137.518 713.629 134.818L712.874 136.67C719.784 139.485 727.686 140.88 736.564 140.88V138.88ZM713.629 134.818C706.976 132.107 701.392 128.421 696.86 123.766L695.427 125.162C700.17 130.032 705.992 133.866 712.874 136.67L713.629 134.818ZM696.878 123.786C692.451 118.989 689.072 113.582 686.736 107.558L684.871 108.282C687.298 114.541 690.813 120.163 695.409 125.142L696.878 123.786ZM686.742 107.575C684.528 101.548 683.42 95.2105 683.42 88.556H681.42C681.42 95.4375 682.567 102.009 684.865 108.265L686.742 107.575ZM683.42 88.556C683.42 81.9015 684.528 75.5639 686.742 69.5368L684.865 68.8472C682.567 75.1027 681.42 81.6745 681.42 88.556H683.42ZM686.738 69.5472C689.074 63.4013 692.451 58.0003 696.87 53.3357L695.418 51.9603C690.813 56.821 687.296 62.4493 684.869 68.8368L686.738 69.5472ZM696.86 53.3456C701.392 48.6911 706.976 45.0046 713.629 42.2941L712.874 40.4419C705.992 43.246 700.17 47.0796 695.427 51.9504L696.86 53.3456ZM713.629 42.2941C720.256 39.5943 727.894 38.232 736.564 38.232V36.232C727.686 36.232 719.784 37.627 712.874 40.4419L713.629 42.2941ZM736.564 38.232C745.361 38.232 752.996 39.5951 759.492 42.2916L760.259 40.4444C753.47 37.6262 745.564 36.232 736.564 36.232V38.232ZM759.498 42.2941C766.15 45.0039 771.666 48.6877 776.07 53.3357L777.522 51.9603C772.901 47.083 767.138 43.2468 760.253 40.4419L759.498 42.2941ZM776.079 53.3456C780.617 58.0058 783.987 63.3981 786.195 69.5307L788.077 68.8533C785.772 62.4526 782.249 56.8155 777.512 51.9504L776.079 53.3456ZM786.203 69.5535C788.539 75.5764 789.708 81.9082 789.708 88.556H791.708C791.708 81.6678 790.495 75.0903 788.068 68.8305L786.203 69.5535ZM789.708 88.556C789.708 95.2038 788.539 101.536 786.203 107.558L788.068 108.282C790.495 102.022 791.708 95.4442 791.708 88.556H789.708ZM786.197 107.575C783.989 113.585 780.617 118.983 776.07 123.776L777.521 125.152C782.249 120.169 785.77 114.538 788.074 108.265L786.197 107.575ZM776.07 123.776C771.666 128.424 766.15 132.108 759.498 134.818L760.253 136.67C767.138 133.865 772.901 130.029 777.522 125.152L776.07 123.776ZM759.492 134.82C752.996 137.517 745.361 138.88 736.564 138.88V140.88C745.564 140.88 753.47 139.486 760.259 136.668L759.492 134.82ZM718.08 88.556C718.08 93.0559 718.851 97.0271 720.428 100.443L722.244 99.6049C720.812 96.5035 720.08 92.8294 720.08 88.556H718.08ZM720.434 100.457C722.008 103.735 724.189 106.324 726.985 108.188L728.094 106.524C725.626 104.879 723.671 102.579 722.237 99.5913L720.434 100.457ZM727.013 108.206C729.818 109.943 733.012 110.8 736.564 110.8V108.8C733.348 108.8 730.525 108.028 728.066 106.506L727.013 108.206ZM736.564 110.8C740.116 110.8 743.309 109.943 746.114 108.206L745.061 106.506C742.602 108.028 739.78 108.8 736.564 108.8V110.8ZM746.142 108.188C748.938 106.324 751.119 103.735 752.693 100.457L750.89 99.5913C749.456 102.579 747.501 104.879 745.033 106.524L746.142 108.188ZM752.7 100.443C754.276 97.0271 755.048 93.0559 755.048 88.556H753.048C753.048 92.8294 752.315 96.5035 750.884 99.6049L752.7 100.443ZM755.048 88.556C755.048 84.0577 754.277 80.1423 752.693 76.8433L750.89 77.7087C752.315 80.6764 753.048 84.281 753.048 88.556H755.048ZM752.7 76.8569C751.127 73.4493 748.938 70.8419 746.114 69.0937L745.061 70.7943C747.501 72.3047 749.448 74.5853 750.884 77.6951L752.7 76.8569ZM746.142 69.1119C743.334 67.24 740.131 66.312 736.564 66.312V68.312C739.765 68.312 742.577 69.1386 745.033 70.776L746.142 69.1119ZM736.564 66.312C732.997 66.312 729.793 67.24 726.985 69.1119L728.094 70.776C730.55 69.1386 733.363 68.312 736.564 68.312V66.312ZM727.013 69.0937C724.189 70.8419 722 73.4493 720.428 76.8569L722.244 77.6951C723.679 74.5853 725.626 72.3047 728.066 70.7943L727.013 69.0937ZM720.434 76.8433C718.851 80.1423 718.08 84.0577 718.08 88.556H720.08C720.08 84.281 720.813 80.6764 722.237 77.7087L720.434 76.8433ZM902.804 138V139H903.804V138H902.804ZM867.084 138H866.084V139H867.084V138ZM863.7 71.824L862.973 72.5106L862.993 72.5314L863.013 72.551L863.7 71.824ZM849.788 70.32L850.235 71.2144L850.255 71.2047L850.274 71.1942L849.788 70.32ZM843.584 75.208L844.334 75.8696L843.584 75.208ZM839.072 82.54L838.147 82.1614L838.072 82.3434V82.54H839.072ZM839.072 138V139H840.072V138H839.072ZM803.352 138H802.352V139H803.352V138ZM803.352 39.112V38.112H802.352V39.112H803.352ZM835.5 39.112H836.5V38.112H835.5V39.112ZM835.5 53.776H834.5V57.127L836.337 54.324L835.5 53.776ZM844.524 44.752L845.072 45.5885L845.082 45.5819L845.092 45.5752L844.524 44.752ZM857.12 39.112L857.375 40.0791L857.12 39.112ZM897.916 50.016L897.034 50.4866V50.4866L897.916 50.016ZM901.864 61.86L900.875 62.0098L900.876 62.0144L901.864 61.86ZM902.804 137H867.084V139H902.804V137ZM868.084 138V82.352H866.084V138H868.084ZM868.084 82.352C868.084 77.3435 866.933 73.5015 864.387 71.097L863.013 72.551C864.98 74.4079 866.084 77.5845 866.084 82.352H868.084ZM864.427 71.1374C862.124 68.6984 859.361 67.44 856.18 67.44V69.44C858.765 69.44 861.015 70.4376 862.973 72.5106L864.427 71.1374ZM856.18 67.44C853.963 67.44 851.665 68.1331 849.302 69.4458L850.274 71.1942C852.423 70.0003 854.387 69.44 856.18 69.44V67.44ZM849.341 69.4256C846.956 70.6178 844.789 72.3315 842.834 74.5464L844.334 75.8696C846.14 73.8231 848.108 72.2782 850.235 71.2144L849.341 69.4256ZM842.834 74.5464C840.877 76.7649 839.315 79.3056 838.147 82.1614L839.998 82.9186C841.085 80.2597 842.531 77.9124 844.334 75.8696L842.834 74.5464ZM838.072 82.54V138H840.072V82.54H838.072ZM839.072 137H803.352V139H839.072V137ZM804.352 138V39.112H802.352V138H804.352ZM803.352 40.112H835.5V38.112H803.352V40.112ZM834.5 39.112V53.776H836.5V39.112H834.5ZM836.337 54.324C838.643 50.8043 841.552 47.8945 845.072 45.5885L843.976 43.9155C840.227 46.3722 837.12 49.4784 834.664 53.228L836.337 54.324ZM845.092 45.5752C848.621 43.1414 852.711 41.3063 857.375 40.0791L856.866 38.1449C852.004 39.4243 847.697 41.3493 843.956 43.9288L845.092 45.5752ZM857.375 40.0791C862.043 38.8505 867.158 38.232 872.724 38.232V36.232C867.01 36.232 861.722 36.8668 856.866 38.1449L857.375 40.0791ZM872.724 38.232C879.389 38.232 884.58 39.4066 888.382 41.6638L889.403 39.9441C885.183 37.4387 879.596 36.232 872.724 36.232V38.232ZM888.382 41.6638C892.25 43.961 895.122 46.9029 897.034 50.4866L898.798 49.5454C896.699 45.609 893.555 42.4097 889.403 39.9441L888.382 41.6638ZM897.034 50.4866C898.987 54.1484 900.266 57.9881 900.875 62.0098L902.853 61.7102C902.209 57.4599 900.856 53.4036 898.798 49.5454L897.034 50.4866ZM900.876 62.0144C901.496 65.9837 901.804 69.6287 901.804 72.952H903.804C903.804 69.5073 903.485 65.7576 902.852 61.7056L900.876 62.0144ZM901.804 72.952V138H903.804V72.952H901.804ZM920.118 138H919.118V139H920.118V138ZM920.118 39.112V38.112H919.118V39.112H920.118ZM955.838 39.112H956.838V38.112H955.838V39.112ZM955.838 138V139H956.838V138H955.838ZM920.118 30.84H919.118V31.84H920.118V30.84ZM920.118 0.759995V-0.240005H919.118V0.759995H920.118ZM955.838 0.759995H956.838V-0.240005H955.838V0.759995ZM955.838 30.84V31.84H956.838V30.84H955.838ZM921.118 138V39.112H919.118V138H921.118ZM920.118 40.112H955.838V38.112H920.118V40.112ZM954.838 39.112V138H956.838V39.112H954.838ZM955.838 137H920.118V139H955.838V137ZM921.118 30.84V0.759995H919.118V30.84H921.118ZM920.118 1.75999H955.838V-0.240005H920.118V1.75999ZM954.838 0.759995V30.84H956.838V0.759995H954.838ZM955.838 29.84H920.118V31.84H955.838V29.84ZM973.911 90.624L974.72 91.211L974.727 91.2015L973.911 90.624ZM988.951 78.592L988.546 77.6774L988.54 77.6804L988.951 78.592ZM1022.04 75.208L1021.86 76.1913L1021.86 76.1924L1022.04 75.208ZM1031.06 78.028L1030.62 78.9224L1032.06 79.646V78.028H1031.06ZM1026.93 64.68L1026.28 65.4393L1026.28 65.4467L1026.29 65.454L1026.93 64.68ZM998.351 64.116L998.696 65.0543L998.703 65.0519L998.71 65.0493L998.351 64.116ZM983.311 72.012L982.404 72.4345L982.896 73.4901L983.865 72.844L983.311 72.012ZM972.971 49.828L972.431 48.9863L971.695 49.4582L972.064 50.2505L972.971 49.828ZM993.839 40.428L994.105 41.392L994.116 41.3889L993.839 40.428ZM1053.81 47.948L1053.17 48.7144L1053.17 48.7195L1053.18 48.7244L1053.81 47.948ZM1068.29 105.664L1067.48 106.252L1067.49 106.271L1067.51 106.289L1068.29 105.664ZM1073.55 107.92H1074.55V107.015L1073.65 106.925L1073.55 107.92ZM1073.55 138L1073.76 138.977L1074.55 138.806V138H1073.55ZM1065.28 139.316L1065.18 138.321L1065.16 138.323L1065.13 138.327L1065.28 139.316ZM1043.85 136.496L1043.26 137.303L1043.27 137.316L1043.29 137.328L1043.85 136.496ZM1037.45 126.156L1036.48 126.362L1036.48 126.373L1037.45 126.156ZM1036.7 122.584L1037.68 122.378L1037.24 120.268L1035.91 121.97L1036.7 122.584ZM1021.47 135.556L1021.92 136.45L1021.93 136.447L1021.94 136.443L1021.47 135.556ZM985.379 135.744L984.915 136.63L985.379 135.744ZM972.971 124.464L972.119 124.988L972.125 124.998L972.971 124.464ZM1026.36 110.552L1026.93 111.374L1026.94 111.368L1026.95 111.361L1026.36 110.552ZM1029.75 107.356L1030.54 107.97L1030.55 107.95L1030.57 107.929L1029.75 107.356ZM1031.06 96.264H1032.06V95.571L1031.41 95.3277L1031.06 96.264ZM1024.11 94.384L1023.91 95.3646L1023.92 95.3663L1024.11 94.384ZM1006.43 96.828L1005.86 96.012L1005.85 96.0178L1005.84 96.0238L1006.43 96.828ZM1003.61 109.8L1002.78 110.355L1002.79 110.372L1002.81 110.388L1003.61 109.8ZM1007.75 113.184L1007.3 114.078L1007.33 114.092L1007.36 114.103L1007.75 113.184ZM1020.35 113.372L1020.61 114.336L1020.63 114.331L1020.65 114.326L1020.35 113.372ZM969.459 108.108C969.459 101.66 971.219 96.0409 974.72 91.211L973.101 90.037C969.333 95.2337 967.459 101.271 967.459 108.108H969.459ZM974.727 91.2015C978.247 86.2244 983.113 82.3215 989.362 79.5036L988.54 77.6804C982.004 80.6278 976.843 84.7462 973.094 90.0465L974.727 91.2015ZM989.355 79.5065C995.726 76.6886 1002.98 75.268 1011.13 75.268V73.268C1002.75 73.268 995.21 74.7301 988.546 77.6775L989.355 79.5065ZM1011.13 75.268C1014.97 75.268 1018.54 75.577 1021.86 76.1913L1022.22 74.2247C1018.77 73.5856 1015.07 73.268 1011.13 73.268V75.268ZM1021.86 76.1924C1025.3 76.8066 1028.21 77.7217 1030.62 78.9224L1031.51 77.1336C1028.9 75.8276 1025.79 74.8627 1022.21 74.2236L1021.86 76.1924ZM1032.06 78.028V75.02H1030.06V78.028H1032.06ZM1032.06 75.02C1032.06 70.1802 1030.62 66.4061 1027.56 63.906L1026.29 65.454C1028.75 67.4659 1030.06 70.5852 1030.06 75.02H1032.06ZM1027.58 63.9207C1024.67 61.4301 1020.05 60.296 1013.95 60.296V62.296C1019.89 62.296 1023.92 63.4179 1026.28 65.4393L1027.58 63.9207ZM1013.95 60.296C1008.32 60.296 1003 61.2563 997.992 63.1827L998.71 65.0493C1003.48 63.2157 1008.56 62.296 1013.95 62.296V60.296ZM998.005 63.1777C993.153 64.9651 988.07 67.6373 982.756 71.1799L983.865 72.844C989.079 69.368 994.023 66.7762 998.696 65.0543L998.005 63.1777ZM984.217 71.5895L973.877 49.4055L972.064 50.2505L982.404 72.4345L984.217 71.5895ZM973.511 50.6697C980.073 46.4601 986.937 43.3693 994.105 41.392L993.573 39.464C986.202 41.4973 979.154 44.6732 972.431 48.9863L973.511 50.6697ZM994.116 41.3889C1001.41 39.2864 1009.21 38.232 1017.53 38.232V36.232C1009.04 36.232 1001.05 37.3082 993.562 39.4671L994.116 41.3889ZM1017.53 38.232C1033.05 38.232 1044.89 41.7727 1053.17 48.7144L1054.45 47.1816C1045.69 39.8353 1033.33 36.232 1017.53 36.232V38.232ZM1053.18 48.7244C1061.54 55.5069 1065.78 65.6512 1065.78 79.344H1067.78C1067.78 65.2128 1063.38 54.4264 1054.44 47.1715L1053.18 48.7244ZM1065.78 79.344V98.52H1067.78V79.344H1065.78ZM1065.78 98.52C1065.78 101.941 1066.28 104.602 1067.48 106.252L1069.1 105.076C1068.29 103.969 1067.78 101.867 1067.78 98.52H1065.78ZM1067.51 106.289C1068.75 107.845 1070.83 108.652 1073.45 108.915L1073.65 106.925C1071.26 106.686 1069.83 105.989 1069.07 105.039L1067.51 106.289ZM1072.55 107.92V138H1074.55V107.92H1072.55ZM1073.34 137.023C1070.49 137.642 1067.77 138.074 1065.18 138.321L1065.37 140.311C1068.05 140.057 1070.85 139.611 1073.76 138.977L1073.34 137.023ZM1065.13 138.327C1062.66 138.698 1060.46 138.88 1058.51 138.88V140.88C1060.58 140.88 1062.88 140.686 1065.43 140.305L1065.13 138.327ZM1058.51 138.88C1052.21 138.88 1047.55 137.764 1044.4 135.664L1043.29 137.328C1046.91 139.74 1052.03 140.88 1058.51 140.88V138.88ZM1044.44 135.689C1041.4 133.471 1039.39 130.251 1038.43 125.939L1036.48 126.373C1037.53 131.085 1039.77 134.758 1043.26 137.303L1044.44 135.689ZM1038.43 125.95L1037.68 122.378L1035.72 122.79L1036.48 126.362L1038.43 125.95ZM1035.91 121.97C1031.61 127.508 1026.64 131.734 1021.01 134.669L1021.94 136.443C1027.84 133.362 1033.03 128.94 1037.49 123.198L1035.91 121.97ZM1021.03 134.662C1015.4 137.474 1009.41 138.88 1003.05 138.88V140.88C1009.72 140.88 1016.02 139.403 1021.92 136.45L1021.03 134.662ZM1003.05 138.88C996.679 138.88 990.95 137.533 985.843 134.858L984.915 136.63C990.335 139.469 996.388 140.88 1003.05 140.88V138.88ZM985.843 134.858C980.726 132.178 976.725 128.536 973.816 123.93L972.125 124.998C975.232 129.918 979.504 133.796 984.915 136.63L985.843 134.858ZM973.822 123.94C970.916 119.217 969.459 113.948 969.459 108.108H967.459C967.459 114.3 969.009 119.935 972.119 124.988L973.822 123.94ZM1026.95 111.361C1028.39 110.313 1029.59 109.185 1030.54 107.97L1028.96 106.742C1028.15 107.783 1027.09 108.785 1025.77 109.743L1026.95 111.361ZM1030.57 107.929C1031.53 106.546 1032.06 105.096 1032.06 103.596H1030.06C1030.06 104.603 1029.71 105.66 1028.93 106.783L1030.57 107.929ZM1032.06 103.596V96.264H1030.06V103.596H1032.06ZM1031.41 95.3277C1029.34 94.5515 1026.97 93.9111 1024.29 93.4017L1023.92 95.3663C1026.51 95.8595 1028.77 96.4725 1030.71 97.2003L1031.41 95.3277ZM1024.3 93.4034C1021.75 92.8925 1019.42 92.632 1017.34 92.632V94.632C1019.26 94.632 1021.45 94.8728 1023.91 95.3646L1024.3 93.4034ZM1017.34 92.632C1012.9 92.632 1009.06 93.7437 1005.86 96.012L1007.01 97.644C1009.83 95.651 1013.25 94.632 1017.34 94.632V92.632ZM1005.84 96.0238C1002.73 98.3212 1001.11 101.301 1001.11 104.912H1003.11C1003.11 102.006 1004.37 99.5961 1007.03 97.6322L1005.84 96.0238ZM1001.11 104.912C1001.11 106.87 1001.67 108.692 1002.78 110.355L1004.45 109.245C1003.55 107.9 1003.11 106.463 1003.11 104.912H1001.11ZM1002.81 110.388C1003.92 111.915 1005.43 113.14 1007.3 114.078L1008.2 112.29C1006.56 111.473 1005.32 110.443 1004.42 109.212L1002.81 110.388ZM1007.36 114.103C1009.26 114.917 1011.4 115.312 1013.77 115.312V113.312C1011.62 113.312 1009.75 112.955 1008.14 112.265L1007.36 114.103ZM1013.77 115.312C1016 115.312 1018.28 114.984 1020.61 114.336L1020.08 112.408C1017.9 113.013 1015.8 113.312 1013.77 113.312V115.312ZM1020.65 114.326C1023.1 113.551 1025.2 112.572 1026.93 111.374L1025.79 109.73C1024.26 110.788 1022.36 111.689 1020.05 112.418L1020.65 114.326ZM1085.7 0.759995V-0.240005H1084.7V0.759995H1085.7ZM1121.42 0.759995H1122.42V-0.240005H1121.42V0.759995ZM1123.68 107.168L1122.88 107.768L1122.9 107.796L1122.92 107.823L1123.68 107.168ZM1135.52 109.236L1135.25 108.274L1135.52 109.236ZM1140.41 107.168L1141.4 106.999L1141.15 105.577L1139.91 106.304L1140.41 107.168ZM1144.92 133.488L1145.35 134.393L1146.04 134.069L1145.91 133.319L1144.92 133.488ZM1130.45 138.188L1130.24 137.209L1130.24 137.21L1130.45 138.188ZM1093.41 132.548L1092.71 133.264L1092.72 133.273L1093.41 132.548ZM1085.7 1.75999H1121.42V-0.240005H1085.7V1.75999ZM1120.42 0.759995V98.708H1122.42V0.759995H1120.42ZM1120.42 98.708C1120.42 102.465 1121.2 105.527 1122.88 107.768L1124.48 106.568C1123.15 104.798 1122.42 102.22 1122.42 98.708H1120.42ZM1122.92 107.823C1124.78 109.968 1127.4 110.988 1130.63 110.988V108.988C1127.85 108.988 1125.83 108.128 1124.43 106.513L1122.92 107.823ZM1130.63 110.988C1132.25 110.988 1133.97 110.719 1135.8 110.198L1135.25 108.274C1133.56 108.756 1132.03 108.988 1130.63 108.988V110.988ZM1135.8 110.198C1137.63 109.674 1139.33 108.953 1140.91 108.032L1139.91 106.304C1138.48 107.138 1136.93 107.795 1135.25 108.274L1135.8 110.198ZM1139.42 107.337L1143.94 133.657L1145.91 133.319L1141.4 106.999L1139.42 107.337ZM1144.5 132.583C1140.32 134.55 1135.57 136.095 1130.24 137.209L1130.65 139.167C1136.1 138.025 1141.01 136.436 1145.35 134.393L1144.5 132.583ZM1130.24 137.21C1125.03 138.325 1120.09 138.88 1115.41 138.88V140.88C1120.25 140.88 1125.33 140.307 1130.66 139.166L1130.24 137.21ZM1115.41 138.88C1106.05 138.88 1099 136.481 1094.1 131.823L1092.72 133.273C1098.1 138.391 1105.71 140.88 1115.41 140.88V138.88ZM1094.11 131.832C1089.21 127.055 1086.7 120.262 1086.7 111.304H1084.7C1084.7 120.645 1087.33 128.014 1092.71 133.264L1094.11 131.832ZM1086.7 111.304V0.759995H1084.7V111.304H1086.7Z" fill="black" mask="url(#path-1-outside-1_128_10304)"/>
</svg>
