<svg width="326" height="142" viewBox="0 0 326 142" fill="none" xmlns="http://www.w3.org/2000/svg">
<mask id="path-1-outside-1_128_12537" maskUnits="userSpaceOnUse" x="-1" y="-1" width="328" height="144" fill="black">
<rect fill="white" x="-1" y="-1" width="328" height="144"/>
<path d="M68.4964 53.355C85.443 56.6617 93.9164 65.445 93.9164 79.705C93.9164 88.4883 90.6097 95.5667 83.9964 100.94C77.383 106.313 68.5997 109 57.6464 109H0.916368V0.499993H57.6464C67.773 0.499993 75.8847 2.97999 81.9814 7.94C88.078 12.9 91.1264 19.3583 91.1264 27.315C91.1264 40.2317 83.583 48.9117 68.4964 53.355ZM25.2514 17.705V45.295H50.2064C56.303 45.295 60.8497 44.0033 63.8464 41.42C66.843 38.8367 68.3414 35.53 68.3414 31.5C68.3414 27.2633 66.8947 23.905 64.0014 21.425C61.108 18.945 57.233 17.705 52.3764 17.705H25.2514ZM51.7564 91.795C57.1297 91.795 61.6247 90.5033 65.2414 87.92C68.9614 85.2333 70.8214 81.4617 70.8214 76.605C70.8214 72.3683 69.2714 68.7517 66.1714 65.755C63.1747 62.7583 58.6797 61.26 52.6864 61.26H25.2514V91.795H51.7564ZM113.162 0.499993H135.017V109H113.162V0.499993ZM192.258 28.245C204.761 28.245 214.733 32.0683 222.173 39.715C229.613 47.2583 233.333 57.1783 233.333 69.475C233.333 81.875 229.613 91.8983 222.173 99.545C214.733 107.192 204.761 111.015 192.258 111.015C179.858 111.015 169.938 107.192 162.498 99.545C155.058 91.8983 151.338 81.875 151.338 69.475C151.338 57.1783 155.058 47.2583 162.498 39.715C169.938 32.0683 179.858 28.245 192.258 28.245ZM206.673 52.425C203.159 47.9817 198.354 45.76 192.258 45.76C186.161 45.76 181.356 47.9817 177.843 52.425C174.433 56.765 172.728 62.4483 172.728 69.475C172.728 76.605 174.433 82.3917 177.843 86.835C181.356 91.2783 186.161 93.5 192.258 93.5C198.354 93.5 203.159 91.2783 206.673 86.835C210.186 82.3917 211.943 76.605 211.943 69.475C211.943 62.4483 210.186 56.765 206.673 52.425ZM303.639 30.26H325.494V108.535C325.494 118.352 321.774 126.308 314.334 132.405C306.894 138.502 297.284 141.55 285.504 141.55C274.137 141.55 264.785 138.915 257.449 133.645C250.112 128.375 245.927 120.987 244.894 111.48H267.524C268.35 115.613 270.365 118.868 273.569 121.245C276.772 123.622 280.854 124.81 285.814 124.81C290.98 124.81 295.217 123.415 298.524 120.625C301.934 117.938 303.639 114.322 303.639 109.775V95.515H303.484C301.52 98.7183 298.472 101.405 294.339 103.575C290.205 105.642 285.504 106.675 280.234 106.675C269.28 106.675 260.445 103.058 253.729 95.825C247.012 88.4883 243.654 79.0333 243.654 67.46C243.654 55.7833 247.012 46.3283 253.729 39.095C260.445 31.8617 269.229 28.245 280.079 28.245C285.349 28.245 289.999 29.3817 294.029 31.655C298.162 33.825 301.314 36.615 303.484 40.025H303.639V30.26ZM285.039 90.4C290.825 90.4 295.527 88.2817 299.144 84.045C302.76 79.705 304.62 74.125 304.724 67.305V66.375C304.724 60.175 302.864 55.1117 299.144 51.185C295.527 47.2583 290.825 45.295 285.039 45.295C279.149 45.295 274.395 47.3617 270.779 51.495C267.162 55.525 265.354 60.795 265.354 67.305C265.354 74.0217 267.162 79.55 270.779 83.89C274.395 88.23 279.149 90.4 285.039 90.4Z"/>
</mask>
<path d="M68.4964 53.355L68.2139 52.3957L68.3049 54.3365L68.4964 53.355ZM0.916368 109H-0.0836315V110H0.916368V109ZM0.916368 0.499992V-0.500008H-0.0836315V0.499992H0.916368ZM81.9814 7.94L81.3503 8.71571L81.9814 7.94ZM25.2514 17.705V16.705H24.2514V17.705H25.2514ZM25.2514 45.295H24.2514V46.295H25.2514V45.295ZM63.8464 41.42L63.1934 40.6626L63.8464 41.42ZM64.0014 21.425L63.3506 22.1843L64.0014 21.425ZM65.2414 87.92L65.8226 88.7337L65.8269 88.7307L65.2414 87.92ZM66.1714 65.755L65.4643 66.4621L65.4703 66.4681L65.4763 66.474L66.1714 65.755ZM25.2514 61.26V60.26H24.2514V61.26H25.2514ZM25.2514 91.795H24.2514V92.795H25.2514V91.795ZM68.3049 54.3365C76.6574 55.9662 82.7954 58.9225 86.8417 63.1168C90.8684 67.2909 92.9164 72.7872 92.9164 79.705H94.9164C94.9164 72.3628 92.7276 66.3374 88.2811 61.7282C83.854 57.1392 77.282 54.0504 68.6879 52.3735L68.3049 54.3365ZM92.9164 79.705C92.9164 88.1979 89.7372 94.9871 83.3658 100.164L84.627 101.716C91.4822 96.1462 94.9164 88.7787 94.9164 79.705H92.9164ZM83.3658 100.164C76.9763 105.355 68.4366 108 57.6464 108V110C68.7628 110 77.7898 107.271 84.627 101.716L83.3658 100.164ZM57.6464 108H0.916368V110H57.6464V108ZM1.91637 109V0.499992H-0.0836315V109H1.91637ZM0.916368 1.49999H57.6464V-0.500008H0.916368V1.49999ZM57.6464 1.49999C67.6105 1.49999 75.478 3.93824 81.3503 8.71571L82.6125 7.16429C76.2914 2.02175 67.9356 -0.500008 57.6464 -0.500008V1.49999ZM81.3503 8.71571C87.2102 13.4831 90.1264 19.6549 90.1264 27.315H92.1264C92.1264 19.0618 88.9459 12.3169 82.6125 7.16429L81.3503 8.71571ZM90.1264 27.315C90.1264 33.564 88.308 38.7211 84.7141 42.8565C81.1058 47.0086 75.6392 50.2088 68.2139 52.3957L68.7789 54.3143C76.4403 52.0578 82.2886 48.6964 86.2237 44.1685C90.1731 39.6239 92.1264 33.9826 92.1264 27.315H90.1264ZM24.2514 17.705V45.295H26.2514V17.705H24.2514ZM25.2514 46.295H50.2064V44.295H25.2514V46.295ZM50.2064 46.295C56.4186 46.295 61.2452 44.9827 64.4993 42.1774L63.1934 40.6626C60.4542 43.024 56.1874 44.295 50.2064 44.295V46.295ZM64.4993 42.1774C67.721 39.4001 69.3414 35.8147 69.3414 31.5H67.3414C67.3414 35.2453 65.9651 38.2732 63.1934 40.6626L64.4993 42.1774ZM69.3414 31.5C69.3414 27.0081 67.7935 23.3584 64.6522 20.6657L63.3506 22.1843C65.9959 24.4516 67.3414 27.5186 67.3414 31.5H69.3414ZM64.6522 20.6657C61.5323 17.9916 57.4045 16.705 52.3764 16.705V18.705C57.0615 18.705 60.6837 19.8984 63.3506 22.1843L64.6522 20.6657ZM52.3764 16.705H25.2514V18.705H52.3764V16.705ZM51.7564 92.795C57.2937 92.795 62.0034 91.4617 65.8226 88.7337L64.6601 87.1063C61.246 89.545 56.9657 90.795 51.7564 90.795V92.795ZM65.8269 88.7307C69.8245 85.8435 71.8214 81.7607 71.8214 76.605H69.8214C69.8214 81.1626 68.0982 84.6232 64.6559 87.1093L65.8269 88.7307ZM71.8214 76.605C71.8214 72.0919 70.1574 68.2173 66.8664 65.036L65.4763 66.474C68.3853 69.286 69.8214 72.6448 69.8214 76.605H71.8214ZM66.8785 65.0479C63.6281 61.7975 58.8338 60.26 52.6864 60.26V62.26C58.5256 62.26 62.7213 63.7191 65.4643 66.4621L66.8785 65.0479ZM52.6864 60.26H25.2514V62.26H52.6864V60.26ZM24.2514 61.26V91.795H26.2514V61.26H24.2514ZM25.2514 92.795H51.7564V90.795H25.2514V92.795ZM113.162 0.499992V-0.500008H112.162V0.499992H113.162ZM135.017 0.499992H136.017V-0.500008H135.017V0.499992ZM135.017 109V110H136.017V109H135.017ZM113.162 109H112.162V110H113.162V109ZM113.162 1.49999H135.017V-0.500008H113.162V1.49999ZM134.017 0.499992V109H136.017V0.499992H134.017ZM135.017 108H113.162V110H135.017V108ZM114.162 109V0.499992H112.162V109H114.162ZM222.173 39.715L221.456 40.4124L221.461 40.4172L222.173 39.715ZM222.173 99.545L222.89 100.242L222.173 99.545ZM162.498 99.545L161.781 100.242L162.498 99.545ZM162.498 39.715L163.21 40.4172L163.215 40.4124L162.498 39.715ZM206.673 52.425L205.888 53.0453L205.896 53.0542L206.673 52.425ZM177.843 52.425L177.058 51.8048L177.057 51.8072L177.843 52.425ZM177.843 86.835L177.049 87.4438L177.054 87.4496L177.058 87.4552L177.843 86.835ZM206.673 86.835L205.888 86.2148V86.2148L206.673 86.835ZM192.258 29.245C204.541 29.245 214.237 32.9925 221.456 40.4124L222.89 39.0176C215.229 31.1442 204.981 27.245 192.258 27.245V29.245ZM221.461 40.4172C228.687 47.7433 232.333 57.3956 232.333 69.475H234.333C234.333 56.9611 230.539 46.7733 222.885 39.0128L221.461 40.4172ZM232.333 69.475C232.333 81.66 228.685 91.4179 221.456 98.8476L222.89 100.242C230.541 92.3788 234.333 82.09 234.333 69.475H232.333ZM221.456 98.8476C214.237 106.268 204.541 110.015 192.258 110.015V112.015C204.981 112.015 215.229 108.116 222.89 100.242L221.456 98.8476ZM192.258 110.015C180.08 110.015 170.436 106.269 163.215 98.8476L161.781 100.242C169.44 108.114 179.635 112.015 192.258 112.015V110.015ZM163.215 98.8476C155.986 91.4179 152.338 81.66 152.338 69.475H150.338C150.338 82.09 154.13 92.3788 161.781 100.242L163.215 98.8476ZM152.338 69.475C152.338 57.3956 155.984 47.7433 163.21 40.4172L161.786 39.0128C154.132 46.7733 150.338 56.9611 150.338 69.475H152.338ZM163.215 40.4124C170.436 32.9908 180.08 29.245 192.258 29.245V27.245C179.635 27.245 169.44 31.1459 161.781 39.0176L163.215 40.4124ZM207.457 51.8048C203.738 47.1013 198.633 44.76 192.258 44.76V46.76C198.076 46.76 202.581 48.862 205.888 53.0452L207.457 51.8048ZM192.258 44.76C185.882 44.76 180.777 47.1013 177.058 51.8048L178.627 53.0452C181.935 48.862 186.44 46.76 192.258 46.76V44.76ZM177.057 51.8072C173.474 56.3667 171.728 62.2864 171.728 69.475H173.728C173.728 62.6103 175.392 57.1633 178.629 53.0428L177.057 51.8072ZM171.728 69.475C171.728 76.7644 173.473 82.7831 177.049 87.4438L178.636 86.2262C175.393 82.0003 173.728 76.4456 173.728 69.475H171.728ZM177.058 87.4552C180.777 92.1587 185.882 94.5 192.258 94.5V92.5C186.44 92.5 181.935 90.3979 178.627 86.2148L177.058 87.4552ZM192.258 94.5C198.633 94.5 203.738 92.1587 207.457 87.4552L205.888 86.2148C202.581 90.3979 198.076 92.5 192.258 92.5V94.5ZM207.457 87.4552C211.143 82.7938 212.943 76.7707 212.943 69.475H210.943C210.943 76.4392 209.229 81.9895 205.888 86.2148L207.457 87.4552ZM212.943 69.475C212.943 62.2798 211.141 56.3558 207.45 51.7958L205.896 53.0542C209.231 57.1742 210.943 62.6169 210.943 69.475H212.943ZM303.639 30.26V29.26H302.639V30.26H303.639ZM325.494 30.26H326.494V29.26H325.494V30.26ZM314.334 132.405L313.7 131.632L314.334 132.405ZM257.449 133.645L256.865 134.457L257.449 133.645ZM244.894 111.48V110.48H243.779L243.899 111.588L244.894 111.48ZM267.524 111.48L268.504 111.284L268.343 110.48H267.524V111.48ZM273.569 121.245L272.973 122.048L273.569 121.245ZM298.524 120.625L297.905 119.84L297.892 119.85L297.879 119.861L298.524 120.625ZM303.639 95.515H304.639V94.515H303.639V95.515ZM303.484 95.515V94.515H302.924L302.631 94.9924L303.484 95.515ZM294.339 103.575L294.786 104.469L294.795 104.465L294.803 104.46L294.339 103.575ZM253.729 95.825L252.991 96.5003L252.996 96.5054L253.729 95.825ZM253.729 39.095L252.996 38.4145L253.729 39.095ZM294.029 31.655L293.537 32.526L293.55 32.5334L293.564 32.5404L294.029 31.655ZM303.484 40.025L302.64 40.5619L302.935 41.025H303.484V40.025ZM303.639 40.025V41.025H304.639V40.025H303.639ZM299.144 84.045L299.904 84.6943L299.912 84.6852L299.144 84.045ZM304.724 67.305L305.724 67.3201L305.724 67.3126V67.305H304.724ZM299.144 51.185L298.408 51.8625L298.418 51.8727L299.144 51.185ZM270.779 51.495L271.523 52.163L271.531 52.1535L270.779 51.495ZM270.779 83.89L271.547 83.2498L270.779 83.89ZM303.639 31.26H325.494V29.26H303.639V31.26ZM324.494 30.26V108.535H326.494V30.26H324.494ZM324.494 108.535C324.494 118.059 320.903 125.729 313.7 131.632L314.967 133.178C322.645 126.887 326.494 118.644 326.494 108.535H324.494ZM313.7 131.632C306.476 137.551 297.106 140.55 285.504 140.55V142.55C297.461 142.55 307.311 139.452 314.967 133.178L313.7 131.632ZM285.504 140.55C274.292 140.55 265.159 137.952 258.032 132.833L256.865 134.457C264.411 139.878 273.982 142.55 285.504 142.55V140.55ZM258.032 132.833C250.941 127.739 246.892 120.615 245.888 111.372L243.899 111.588C244.961 121.358 249.283 129.011 256.865 134.457L258.032 132.833ZM244.894 112.48H267.524V110.48H244.894V112.48ZM266.543 111.676C267.415 116.037 269.558 119.515 272.973 122.048L274.164 120.442C271.172 118.222 269.285 115.189 268.504 111.284L266.543 111.676ZM272.973 122.048C276.387 124.581 280.692 125.81 285.814 125.81V123.81C281.015 123.81 277.157 122.662 274.164 120.442L272.973 122.048ZM285.814 125.81C291.168 125.81 295.648 124.36 299.169 121.389L297.879 119.861C294.786 122.47 290.792 123.81 285.814 123.81V125.81ZM299.143 121.41C302.806 118.524 304.639 114.611 304.639 109.775H302.639C302.639 114.032 301.061 117.353 297.905 119.84L299.143 121.41ZM304.639 109.775V95.515H302.639V109.775H304.639ZM303.639 94.515H303.484V96.515H303.639V94.515ZM302.631 94.9924C300.782 98.0089 297.886 100.583 293.874 102.69L294.803 104.46C299.058 102.227 302.258 99.4278 304.336 96.0376L302.631 94.9924ZM293.891 102.681C289.915 104.669 285.37 105.675 280.234 105.675V107.675C285.637 107.675 290.495 106.615 294.786 104.469L293.891 102.681ZM280.234 105.675C269.525 105.675 260.967 102.151 254.461 95.1445L252.996 96.5054C259.924 103.966 269.036 107.675 280.234 107.675V105.675ZM254.466 95.1497C247.946 88.0273 244.654 78.8269 244.654 67.46H242.654C242.654 79.2397 246.078 88.9494 252.991 96.5003L254.466 95.1497ZM244.654 67.46C244.654 55.9867 247.947 46.7907 254.461 39.7754L252.996 38.4145C246.077 45.8659 242.654 55.58 242.654 67.46H244.654ZM254.461 39.7754C260.969 32.7673 269.476 29.245 280.079 29.245V27.245C268.981 27.245 259.922 30.956 252.996 38.4145L254.461 39.7754ZM280.079 29.245C285.201 29.245 289.677 30.3484 293.537 32.526L294.52 30.784C290.32 28.4149 285.496 27.245 280.079 27.245V29.245ZM293.564 32.5404C297.567 34.642 300.577 37.3206 302.64 40.5619L304.327 39.4881C302.05 35.9094 298.757 33.008 294.493 30.7696L293.564 32.5404ZM303.484 41.025H303.639V39.025H303.484V41.025ZM304.639 40.025V30.26H302.639V40.025H304.639ZM285.039 91.4C291.105 91.4 296.089 89.1632 299.904 84.6943L298.383 83.3957C294.965 87.4001 290.546 89.4 285.039 89.4V91.4ZM299.912 84.6852C303.704 80.1351 305.617 74.3197 305.724 67.3201L303.724 67.2898C303.623 73.9303 301.817 79.2749 298.375 83.4048L299.912 84.6852ZM305.724 67.305V66.375H303.724V67.305H305.724ZM305.724 66.375C305.724 59.9594 303.791 54.637 299.87 50.4973L298.418 51.8727C301.936 55.5863 303.724 60.3906 303.724 66.375H305.724ZM299.879 50.5075C296.056 46.3568 291.079 44.295 285.039 44.295V46.295C290.572 46.295 294.998 48.1599 298.408 51.8625L299.879 50.5075ZM285.039 44.295C278.884 44.295 273.848 46.469 270.026 50.8365L271.531 52.1535C274.943 48.2543 279.413 46.295 285.039 46.295V44.295ZM270.034 50.8271C266.221 55.0762 264.354 60.6009 264.354 67.305H266.354C266.354 60.9891 268.103 55.9738 271.523 52.1629L270.034 50.8271ZM264.354 67.305C264.354 74.2094 266.217 79.9779 270.01 84.5302L271.547 83.2498C268.107 79.1221 266.354 73.8339 266.354 67.305H264.354ZM270.01 84.5302C273.826 89.1091 278.866 91.4 285.039 91.4V89.4C279.431 89.4 274.964 87.3509 271.547 83.2498L270.01 84.5302Z" fill="black" fill-opacity="0.23" mask="url(#path-1-outside-1_128_12537)"/>
</svg>
