<svg width="614" height="114" viewBox="0 0 614 114" fill="none" xmlns="http://www.w3.org/2000/svg">
<mask id="path-1-outside-1_128_12461" maskUnits="userSpaceOnUse" x="-1" y="-1" width="616" height="116" fill="black">
<rect fill="white" x="-1" y="-1" width="616" height="116"/>
<path d="M105.772 70.235C104.119 83.7717 98.8491 94.26 89.9624 101.7C81.1791 109.14 69.5541 112.86 55.0874 112.86C38.5541 112.86 25.2758 107.693 15.2524 97.36C5.22911 87.0267 0.217442 73.49 0.217442 56.75C0.217442 39.9067 5.22911 26.3183 15.2524 15.985C25.2758 5.65166 38.5541 0.484991 55.0874 0.484991C69.3474 0.484991 80.9208 4.20499 89.8074 11.645C98.7974 18.9817 104.171 29.315 105.927 42.645H80.1974C78.9574 35.6183 76.1158 30.1933 71.6724 26.37C67.3324 22.5467 61.7524 20.635 54.9324 20.635C45.9424 20.635 38.7091 23.9933 33.2324 30.71C27.8591 37.3233 25.1724 45.9517 25.1724 56.595C25.1724 67.3417 27.8591 76.0733 33.2324 82.79C38.7091 89.4033 45.9424 92.71 54.9324 92.71C61.6491 92.71 67.1258 90.7983 71.3624 86.975C75.7024 83.0483 78.5441 77.4683 79.8874 70.235H105.772ZM160.656 30.245C173.159 30.245 183.131 34.0683 190.571 41.715C198.011 49.2583 201.731 59.1783 201.731 71.475C201.731 83.875 198.011 93.8983 190.571 101.545C183.131 109.192 173.159 113.015 160.656 113.015C148.256 113.015 138.336 109.192 130.896 101.545C123.456 93.8983 119.736 83.875 119.736 71.475C119.736 59.1783 123.456 49.2583 130.896 41.715C138.336 34.0683 148.256 30.245 160.656 30.245ZM175.071 54.425C171.557 49.9817 166.752 47.76 160.656 47.76C154.559 47.76 149.754 49.9817 146.241 54.425C142.831 58.765 141.126 64.4483 141.126 71.475C141.126 78.605 142.831 84.3917 146.241 88.835C149.754 93.2783 154.559 95.5 160.656 95.5C166.752 95.5 171.557 93.2783 175.071 88.835C178.584 84.3917 180.341 78.605 180.341 71.475C180.341 64.4483 178.584 58.765 175.071 54.425ZM265.062 30.245C274.258 30.245 281.388 33.19 286.452 39.08C291.618 44.97 294.202 52.8233 294.202 62.64V111H272.347V67.29C272.347 61.8133 271.055 57.4733 268.472 54.27C265.992 51.0667 262.633 49.465 258.397 49.465C252.817 49.465 248.322 51.3767 244.912 55.2C241.502 58.92 239.797 64.19 239.797 71.01V111H217.942V32.26H239.797V46.83C244.653 35.7733 253.075 30.245 265.062 30.245ZM367.863 49.31H340.738V81.705C340.738 85.735 341.823 88.835 343.993 91.005C346.266 93.0717 349.418 94.105 353.448 94.105C357.685 94.105 361.973 92.9683 366.313 90.695V109.14C362.076 111.413 356.651 112.55 350.038 112.55C340.635 112.55 333.091 110.018 327.408 104.955C321.725 99.8917 318.883 93.175 318.883 84.805V49.31H304.778V32.26H305.088C309.841 32.26 313.303 31.2267 315.473 29.16C317.746 27.0933 318.883 23.7867 318.883 19.24V8.7H340.738V32.26H367.863V49.31ZM414.887 30.245C426.047 30.245 434.624 32.88 440.617 38.15C446.714 43.3167 449.762 50.6533 449.762 60.16V111H428.682V100.15H428.217C426.357 103.043 423.309 105.73 419.072 108.21C414.836 110.587 409.307 111.775 402.487 111.775C394.737 111.775 388.434 109.76 383.577 105.73C378.824 101.597 376.447 96.0683 376.447 89.145C376.447 80.8783 379.961 74.3683 386.987 69.615C394.014 64.7583 405.329 62.33 420.932 62.33H428.682V60.005C428.682 55.7683 427.442 52.4617 424.962 50.085C422.482 47.605 419.124 46.365 414.887 46.365C410.754 46.365 407.447 47.3983 404.967 49.465C402.487 51.4283 401.092 54.1667 400.782 57.68H380.012C380.116 49 383.371 42.2833 389.777 37.53C396.184 32.6733 404.554 30.245 414.887 30.245ZM410.082 96.895C415.249 96.895 419.641 95.3967 423.257 92.4C426.874 89.3 428.682 85.58 428.682 81.24V75.66H421.087C405.794 75.66 398.147 79.6383 398.147 87.595C398.147 90.4883 399.232 92.7617 401.402 94.415C403.572 96.0683 406.466 96.895 410.082 96.895ZM544.512 79.69C543.685 89.8167 539.81 97.9283 532.887 104.025C525.964 110.018 517.025 113.015 506.072 113.015C493.672 113.015 483.752 109.192 476.312 101.545C468.975 93.8983 465.307 83.875 465.307 71.475C465.307 59.1783 468.975 49.2583 476.312 41.715C483.752 34.0683 493.672 30.245 506.072 30.245C516.715 30.245 525.447 33.1383 532.267 38.925C539.19 44.6083 543.169 52.3583 544.202 62.175H522.657C520.9 52.255 515.269 47.295 505.762 47.295C499.769 47.295 495.015 49.5167 491.502 53.96C488.092 58.3 486.387 64.1383 486.387 71.475C486.387 78.8117 488.092 84.7017 491.502 89.145C495.015 93.485 499.769 95.655 505.762 95.655C515.682 95.655 521.469 90.3333 523.122 79.69H544.512ZM613.683 49.31H586.558V81.705C586.558 85.735 587.643 88.835 589.813 91.005C592.087 93.0717 595.238 94.105 599.268 94.105C603.505 94.105 607.793 92.9683 612.133 90.695V109.14C607.897 111.413 602.472 112.55 595.858 112.55C586.455 112.55 578.912 110.018 573.228 104.955C567.545 99.8917 564.703 93.175 564.703 84.805V49.31H550.598V32.26H550.908C555.662 32.26 559.123 31.2267 561.293 29.16C563.567 27.0933 564.703 23.7867 564.703 19.24V8.7H586.558V32.26H613.683V49.31Z"/>
</mask>
<path d="M105.772 70.235L106.765 70.3562L106.902 69.235H105.772V70.235ZM89.9624 101.7L89.3205 100.933L89.3161 100.937L89.9624 101.7ZM15.2524 97.36L15.9702 96.6637L15.2524 97.36ZM89.8074 11.645L89.1655 12.4118L89.1752 12.4197L89.8074 11.645ZM105.927 42.645V43.645H107.068L106.919 42.5143L105.927 42.645ZM80.1974 42.645L79.2127 42.8188L79.3585 43.645H80.1974V42.645ZM71.6724 26.37L71.0114 27.1204L71.0202 27.128L71.6724 26.37ZM33.2324 30.71L32.4574 30.0781L32.4563 30.0794L33.2324 30.71ZM33.2324 82.79L32.4516 83.4147L32.4569 83.4213L32.4622 83.4278L33.2324 82.79ZM71.3624 86.975L72.0324 87.7174L72.0334 87.7165L71.3624 86.975ZM79.8874 70.235V69.235H79.0561L78.9043 70.0524L79.8874 70.235ZM104.78 70.1138C103.151 83.446 97.9788 93.6844 89.3205 100.933L90.6044 102.467C99.7194 94.8356 105.087 84.0973 106.765 70.3562L104.78 70.1138ZM89.3161 100.937C80.756 108.188 69.38 111.86 55.0874 111.86V113.86C69.7283 113.86 81.6022 110.092 90.6088 102.463L89.3161 100.937ZM55.0874 111.86C38.7808 111.86 25.7768 106.774 15.9702 96.6637L14.5347 98.0563C24.7748 108.613 38.3274 113.86 55.0874 113.86V111.86ZM15.9702 96.6637C6.15729 86.5473 1.21744 73.2756 1.21744 56.75H-0.782558C-0.782558 73.7044 4.30093 87.506 14.5347 98.0563L15.9702 96.6637ZM1.21744 56.75C1.21744 40.1192 6.15843 26.7965 15.9702 16.6813L14.5347 15.2887C4.29978 25.8401 -0.782558 39.6942 -0.782558 56.75H1.21744ZM15.9702 16.6813C25.7768 6.5714 38.7808 1.48499 55.0874 1.48499V-0.515009C38.3274 -0.515009 24.7748 4.73191 14.5347 15.2887L15.9702 16.6813ZM55.0874 1.48499C69.1687 1.48499 80.4975 5.15482 89.1655 12.4118L90.4494 10.8782C81.3441 3.25517 69.5262 -0.515009 55.0874 -0.515009V1.48499ZM89.1752 12.4197C97.9366 19.5698 103.207 29.6553 104.936 42.7757L106.919 42.5143C105.135 28.9747 99.6583 18.3935 90.4397 10.8702L89.1752 12.4197ZM105.927 41.645H80.1974V43.645H105.927V41.645ZM81.1822 42.4712C79.9111 35.2684 76.9786 29.6165 72.3247 25.612L71.0202 27.128C75.2529 30.7701 78.0038 35.9683 79.2127 42.8188L81.1822 42.4712ZM72.3335 25.6196C67.779 21.6074 61.9498 19.635 54.9324 19.635V21.635C61.5551 21.635 66.8859 23.4859 71.0114 27.1204L72.3335 25.6196ZM54.9324 19.635C45.6549 19.635 38.132 23.1186 32.4574 30.0781L34.0075 31.3419C39.2862 24.868 46.23 21.635 54.9324 21.635V19.635ZM32.4563 30.0794C26.9051 36.9117 24.1724 45.7807 24.1724 56.595H26.1724C26.1724 46.1227 28.8132 37.7349 34.0086 31.3406L32.4563 30.0794ZM24.1724 56.595C24.1724 67.5108 26.904 76.4802 32.4516 83.4147L34.0133 82.1653C28.8142 75.6665 26.1724 67.1725 26.1724 56.595H24.1724ZM32.4622 83.4278C38.1389 90.2827 45.6607 93.71 54.9324 93.71V91.71C46.2242 91.71 39.2793 88.524 34.0026 82.1522L32.4622 83.4278ZM54.9324 93.71C61.8502 93.71 67.5802 91.7352 72.0324 87.7174L70.6925 86.2326C66.6713 89.8614 61.448 91.71 54.9324 91.71V93.71ZM72.0334 87.7165C76.5737 83.6086 79.4977 77.8102 80.8706 70.4176L78.9043 70.0524C77.5905 77.1265 74.8311 82.4881 70.6915 86.2335L72.0334 87.7165ZM79.8874 71.235H105.772V69.235H79.8874V71.235ZM190.571 41.715L189.854 42.4124L189.859 42.4172L190.571 41.715ZM190.571 101.545L191.287 102.242L190.571 101.545ZM130.896 101.545L130.179 102.242L130.896 101.545ZM130.896 41.715L131.608 42.4172L131.612 42.4124L130.896 41.715ZM175.071 54.425L174.286 55.0453L174.294 55.0542L175.071 54.425ZM146.241 54.425L145.456 53.8048L145.454 53.8072L146.241 54.425ZM146.241 88.835L145.447 89.4438L145.452 89.4496L145.456 89.4552L146.241 88.835ZM175.071 88.835L174.286 88.2148V88.2148L175.071 88.835ZM160.656 31.245C172.939 31.245 182.635 34.9925 189.854 42.4124L191.287 41.0176C183.627 33.1442 173.379 29.245 160.656 29.245V31.245ZM189.859 42.4172C197.085 49.7433 200.731 59.3956 200.731 71.475H202.731C202.731 58.9611 198.937 48.7733 191.283 41.0128L189.859 42.4172ZM200.731 71.475C200.731 83.66 197.083 93.4179 189.854 100.848L191.287 102.242C198.939 94.3788 202.731 84.09 202.731 71.475H200.731ZM189.854 100.848C182.635 108.268 172.939 112.015 160.656 112.015V114.015C173.379 114.015 183.627 110.116 191.287 102.242L189.854 100.848ZM160.656 112.015C148.478 112.015 138.833 108.269 131.612 100.848L130.179 102.242C137.838 110.114 148.033 114.015 160.656 114.015V112.015ZM131.612 100.848C124.384 93.4179 120.736 83.66 120.736 71.475H118.736C118.736 84.09 122.528 94.3788 130.179 102.242L131.612 100.848ZM120.736 71.475C120.736 59.3956 124.382 49.7433 131.608 42.4172L130.184 41.0128C122.53 48.7733 118.736 58.9611 118.736 71.475H120.736ZM131.612 42.4124C138.833 34.9908 148.478 31.245 160.656 31.245V29.245C148.033 29.245 137.838 33.1459 130.179 41.0176L131.612 42.4124ZM175.855 53.8048C172.136 49.1013 167.031 46.76 160.656 46.76V48.76C166.473 48.76 170.979 50.862 174.286 55.0452L175.855 53.8048ZM160.656 46.76C154.28 46.76 149.175 49.1013 145.456 53.8048L147.025 55.0452C150.333 50.862 154.838 48.76 160.656 48.76V46.76ZM145.454 53.8072C141.872 58.3667 140.126 64.2864 140.126 71.475H142.126C142.126 64.6103 143.79 59.1633 147.027 55.0428L145.454 53.8072ZM140.126 71.475C140.126 78.7644 141.871 84.7831 145.447 89.4438L147.034 88.2262C143.791 84.0003 142.126 78.4456 142.126 71.475H140.126ZM145.456 89.4552C149.175 94.1587 154.28 96.5 160.656 96.5V94.5C154.838 94.5 150.333 92.3979 147.025 88.2148L145.456 89.4552ZM160.656 96.5C167.031 96.5 172.136 94.1587 175.855 89.4552L174.286 88.2148C170.979 92.3979 166.473 94.5 160.656 94.5V96.5ZM175.855 89.4552C179.541 84.7938 181.341 78.7707 181.341 71.475H179.341C179.341 78.4392 177.627 83.9895 174.286 88.2148L175.855 89.4552ZM181.341 71.475C181.341 64.2798 179.539 58.3558 175.848 53.7958L174.294 55.0542C177.629 59.1742 179.341 64.6169 179.341 71.475H181.341ZM286.452 39.08L285.693 39.7319L285.7 39.7394L286.452 39.08ZM294.202 111V112H295.202V111H294.202ZM272.347 111H271.347V112H272.347V111ZM268.472 54.27L267.681 54.8822L267.687 54.89L267.693 54.8978L268.472 54.27ZM244.912 55.2L245.649 55.8758L245.658 55.8656L244.912 55.2ZM239.797 111V112H240.797V111H239.797ZM217.942 111H216.942V112H217.942V111ZM217.942 32.26V31.26H216.942V32.26H217.942ZM239.797 32.26H240.797V31.26H239.797V32.26ZM239.797 46.83H238.797L240.712 47.2322L239.797 46.83ZM265.062 31.245C274.026 31.245 280.855 34.1041 285.693 39.7319L287.21 38.4281C281.921 32.2759 274.491 29.245 265.062 29.245V31.245ZM285.7 39.7394C290.669 45.4043 293.202 53.0024 293.202 62.64H295.202C295.202 52.6442 292.567 44.5357 287.203 38.4206L285.7 39.7394ZM293.202 62.64V111H295.202V62.64H293.202ZM294.202 110H272.347V112H294.202V110ZM273.347 111V67.29H271.347V111H273.347ZM273.347 67.29C273.347 61.6607 272.018 57.0746 269.25 53.6422L267.693 54.8978C270.092 57.8721 271.347 61.966 271.347 67.29H273.347ZM269.262 53.6578C266.583 50.1971 262.926 48.465 258.397 48.465V50.465C262.34 50.465 265.4 51.9362 267.681 54.8822L269.262 53.6578ZM258.397 48.465C252.56 48.465 247.783 50.4779 244.165 54.5344L245.658 55.8656C248.86 52.2754 253.073 50.465 258.397 50.465V48.465ZM244.174 54.5243C240.543 58.4853 238.797 64.029 238.797 71.01H240.797C240.797 64.351 242.46 59.3547 245.649 55.8757L244.174 54.5243ZM238.797 71.01V111H240.797V71.01H238.797ZM239.797 110H217.942V112H239.797V110ZM218.942 111V32.26H216.942V111H218.942ZM217.942 33.26H239.797V31.26H217.942V33.26ZM238.797 32.26V46.83H240.797V32.26H238.797ZM240.712 47.2322C243.078 41.8452 246.285 37.8658 250.304 35.2272C254.323 32.589 259.226 31.245 265.062 31.245V29.245C258.911 29.245 253.609 30.6652 249.207 33.5553C244.804 36.445 241.371 40.7581 238.881 46.4278L240.712 47.2322ZM367.863 49.31V50.31H368.863V49.31H367.863ZM340.738 49.31V48.31H339.738V49.31H340.738ZM343.993 91.005L343.286 91.7121L343.303 91.7289L343.32 91.7449L343.993 91.005ZM366.313 90.695H367.313V89.0423L365.849 89.8092L366.313 90.695ZM366.313 109.14L366.786 110.021L367.313 109.738V109.14H366.313ZM327.408 104.955L328.073 104.208L327.408 104.955ZM318.883 49.31H319.883V48.31H318.883V49.31ZM304.778 49.31H303.778V50.31H304.778V49.31ZM304.778 32.26V31.26H303.778V32.26H304.778ZM315.473 29.16L314.8 28.4201L314.792 28.4279L314.783 28.4359L315.473 29.16ZM318.883 8.7V7.7H317.883V8.7H318.883ZM340.738 8.7H341.738V7.7H340.738V8.7ZM340.738 32.26H339.738V33.26H340.738V32.26ZM367.863 32.26H368.863V31.26H367.863V32.26ZM367.863 48.31H340.738V50.31H367.863V48.31ZM339.738 49.31V81.705H341.738V49.31H339.738ZM339.738 81.705C339.738 85.9139 340.875 89.3013 343.286 91.7121L344.7 90.2979C342.771 88.3687 341.738 85.5561 341.738 81.705H339.738ZM343.32 91.7449C345.829 94.0256 349.249 95.105 353.448 95.105V93.105C349.587 93.105 346.703 92.1177 344.666 90.2651L343.32 91.7449ZM353.448 95.105C357.87 95.105 362.316 93.9174 366.777 91.5808L365.849 89.8092C361.63 92.0193 357.499 93.105 353.448 93.105V95.105ZM365.313 90.695V109.14H367.313V90.695H365.313ZM365.84 108.259C361.793 110.43 356.545 111.55 350.038 111.55V113.55C356.757 113.55 362.359 112.396 366.786 110.021L365.84 108.259ZM350.038 111.55C340.82 111.55 333.533 109.072 328.073 104.208L326.743 105.702C332.65 110.964 340.449 113.55 350.038 113.55V111.55ZM328.073 104.208C322.625 99.3549 319.883 92.9216 319.883 84.805H317.883C317.883 93.4284 320.824 100.428 326.743 105.702L328.073 104.208ZM319.883 84.805V49.31H317.883V84.805H319.883ZM318.883 48.31H304.778V50.31H318.883V48.31ZM305.778 49.31V32.26H303.778V49.31H305.778ZM304.778 33.26H305.088V31.26H304.778V33.26ZM305.088 33.26C309.954 33.26 313.723 32.2072 316.163 29.8841L314.783 28.4359C312.882 30.2461 309.729 31.26 305.088 31.26V33.26ZM316.146 29.8999C318.711 27.5682 319.883 23.932 319.883 19.24H317.883C317.883 23.6413 316.782 26.6185 314.8 28.4201L316.146 29.8999ZM319.883 19.24V8.7H317.883V19.24H319.883ZM318.883 9.7H340.738V7.7H318.883V9.7ZM339.738 8.7V32.26H341.738V8.7H339.738ZM340.738 33.26H367.863V31.26H340.738V33.26ZM366.863 32.26V49.31H368.863V32.26H366.863ZM440.617 38.15L439.957 38.901L439.964 38.907L439.971 38.9129L440.617 38.15ZM449.762 111V112H450.762V111H449.762ZM428.682 111H427.682V112H428.682V111ZM428.682 100.15H429.682V99.15H428.682V100.15ZM428.217 100.15V99.15H427.671L427.376 99.6092L428.217 100.15ZM419.072 108.21L419.561 109.082L419.57 109.078L419.577 109.073L419.072 108.21ZM383.577 105.73L382.921 106.485L382.93 106.492L382.939 106.5L383.577 105.73ZM386.987 69.615L387.548 70.4433L387.556 70.4376L386.987 69.615ZM428.682 62.33V63.33H429.682V62.33H428.682ZM424.962 50.085L424.255 50.7921L424.263 50.7996L424.27 50.807L424.962 50.085ZM404.967 49.465L405.588 50.249L405.598 50.2413L405.607 50.2332L404.967 49.465ZM400.782 57.68V58.68H401.698L401.778 57.7679L400.782 57.68ZM380.012 57.68L379.012 57.6681L379 58.68H380.012V57.68ZM389.777 37.53L390.373 38.3331L390.381 38.3269L389.777 37.53ZM423.257 92.4L423.895 93.17L423.902 93.1647L423.908 93.1593L423.257 92.4ZM428.682 75.66H429.682V74.66H428.682V75.66ZM401.402 94.415L402.008 93.6196L401.402 94.415ZM414.887 31.245C425.901 31.245 434.207 33.8454 439.957 38.901L441.278 37.399C435.04 31.9146 426.194 29.245 414.887 29.245V31.245ZM439.971 38.9129C445.8 43.8531 448.762 50.8858 448.762 60.16H450.762C450.762 50.4209 447.628 42.7802 441.264 37.3871L439.971 38.9129ZM448.762 60.16V111H450.762V60.16H448.762ZM449.762 110H428.682V112H449.762V110ZM429.682 111V100.15H427.682V111H429.682ZM428.682 99.15H428.217V101.15H428.682V99.15ZM427.376 99.6092C425.63 102.326 422.722 104.915 418.567 107.347L419.577 109.073C423.896 106.545 427.085 103.761 429.058 100.691L427.376 99.6092ZM418.583 107.338C414.544 109.604 409.201 110.775 402.487 110.775V112.775C409.413 112.775 415.127 111.57 419.561 109.082L418.583 107.338ZM402.487 110.775C394.915 110.775 388.855 108.81 384.216 104.96L382.939 106.5C388.013 110.71 394.559 112.775 402.487 112.775V110.775ZM384.233 104.975C379.722 101.052 377.447 95.8111 377.447 89.145H375.447C375.447 96.3255 377.926 102.141 382.921 106.485L384.233 104.975ZM377.447 89.145C377.447 81.2206 380.787 75.0165 387.548 70.4433L386.427 68.7867C379.134 73.7202 375.447 80.5361 375.447 89.145H377.447ZM387.556 70.4376C394.326 65.7581 405.387 63.33 420.932 63.33V61.33C405.271 61.33 393.702 63.7586 386.419 68.7924L387.556 70.4376ZM420.932 63.33H428.682V61.33H420.932V63.33ZM429.682 62.33V60.005H427.682V62.33H429.682ZM429.682 60.005C429.682 55.5637 428.375 51.9706 425.654 49.363L424.27 50.807C426.509 52.9527 427.682 55.973 427.682 60.005H429.682ZM425.669 49.3779C422.964 46.6724 419.33 45.365 414.887 45.365V47.365C418.918 47.365 422.001 48.5376 424.255 50.7921L425.669 49.3779ZM414.887 45.365C410.587 45.365 407.032 46.4425 404.327 48.6968L405.607 50.2332C407.862 48.3542 410.921 47.365 414.887 47.365V45.365ZM404.347 48.681C401.625 50.8354 400.117 53.8398 399.786 57.5921L401.778 57.7679C402.067 54.4936 403.349 52.0213 405.588 50.249L404.347 48.681ZM400.782 56.68H380.012V58.68H400.782V56.68ZM381.012 57.6919C381.112 49.2925 384.242 42.8821 390.373 38.3331L389.181 36.7269C382.499 41.6845 379.119 48.7075 379.012 57.6681L381.012 57.6919ZM390.381 38.3269C396.57 33.6354 404.709 31.245 414.887 31.245V29.245C404.398 29.245 395.798 31.7112 389.173 36.7331L390.381 38.3269ZM410.082 97.895C415.457 97.895 420.081 96.3305 423.895 93.17L422.619 91.63C419.2 94.4629 415.041 95.895 410.082 95.895V97.895ZM423.908 93.1593C427.722 89.8902 429.682 85.9026 429.682 81.24H427.682C427.682 85.2574 426.026 88.7098 422.606 91.6407L423.908 93.1593ZM429.682 81.24V75.66H427.682V81.24H429.682ZM428.682 74.66H421.087V76.66H428.682V74.66ZM421.087 74.66C413.386 74.66 407.458 75.6562 403.421 77.7566C401.387 78.8145 399.808 80.1662 398.739 81.834C397.668 83.5061 397.147 85.4388 397.147 87.595H399.147C399.147 85.7729 399.583 84.2245 400.423 82.9129C401.266 81.5969 402.554 80.4622 404.344 79.5309C407.953 77.653 413.495 76.66 421.087 76.66V74.66ZM397.147 87.595C397.147 90.7784 398.361 93.355 400.796 95.2104L402.008 93.6196C400.104 92.1683 399.147 90.1982 399.147 87.595H397.147ZM400.796 95.2104C403.19 97.0339 406.318 97.895 410.082 97.895V95.895C406.613 95.895 403.955 95.1027 402.008 93.6196L400.796 95.2104ZM544.512 79.69L545.509 79.7714L545.597 78.69H544.512V79.69ZM532.887 104.025L533.542 104.781L533.548 104.775L532.887 104.025ZM476.312 101.545L475.59 102.237L475.595 102.242L476.312 101.545ZM476.312 41.715L475.595 41.0176L475.595 41.0178L476.312 41.715ZM532.267 38.925L531.62 39.6875L531.626 39.6928L531.633 39.6979L532.267 38.925ZM544.202 62.175V63.175H545.313L545.197 62.0703L544.202 62.175ZM522.657 62.175L521.672 62.3494L521.819 63.175H522.657V62.175ZM491.502 53.96L490.718 53.3398L490.716 53.3422L491.502 53.96ZM491.502 89.145L490.709 89.7538L490.717 89.7641L490.725 89.7742L491.502 89.145ZM523.122 79.69V78.69H522.265L522.134 79.5365L523.122 79.69ZM543.515 79.6086C542.707 89.5058 538.935 97.3671 532.226 103.275L533.548 104.775C540.686 98.4896 544.663 90.1276 545.509 79.7714L543.515 79.6086ZM532.233 103.269C525.525 109.075 516.834 112.015 506.072 112.015V114.015C517.216 114.015 526.402 110.961 533.542 104.781L532.233 103.269ZM506.072 112.015C493.894 112.015 484.25 108.269 477.029 100.848L475.595 102.242C483.254 110.114 493.45 114.015 506.072 114.015V112.015ZM477.034 100.853C469.906 93.4236 466.307 83.664 466.307 71.475H464.307C464.307 84.086 468.045 94.3731 475.59 102.237L477.034 100.853ZM466.307 71.475C466.307 59.3916 469.904 49.7376 477.029 42.4122L475.595 41.0178C468.047 48.7791 464.307 58.9651 464.307 71.475H466.307ZM477.029 42.4124C484.25 34.9908 493.894 31.245 506.072 31.245V29.245C493.45 29.245 483.254 33.1459 475.595 41.0176L477.029 42.4124ZM506.072 31.245C516.526 31.245 525.014 34.0821 531.62 39.6875L532.914 38.1625C525.88 32.1945 516.905 29.245 506.072 29.245V31.245ZM531.633 39.6979C538.331 45.1967 542.199 52.6952 543.208 62.2797L545.197 62.0703C544.139 52.0215 540.05 44.0199 532.902 38.1521L531.633 39.6979ZM544.202 61.175H522.657V63.175H544.202V61.175ZM523.642 62.0006C522.737 56.8938 520.813 52.9386 517.777 50.2646C514.734 47.5844 510.692 46.295 505.762 46.295V48.295C510.339 48.295 513.866 49.4856 516.455 51.7654C519.05 54.0514 520.82 57.5362 521.672 62.3494L523.642 62.0006ZM505.762 46.295C499.483 46.295 494.433 48.6409 490.718 53.3398L492.286 54.5802C495.598 50.3924 500.054 48.295 505.762 48.295V46.295ZM490.716 53.3422C487.128 57.9087 485.387 63.988 485.387 71.475H487.387C487.387 64.2886 489.056 58.6913 492.288 54.5778L490.716 53.3422ZM485.387 71.475C485.387 78.9635 487.128 85.0884 490.709 89.7538L492.295 88.5362C489.056 84.3149 487.387 78.6599 487.387 71.475H485.387ZM490.725 89.7742C494.443 94.3678 499.492 96.655 505.762 96.655V94.655C500.045 94.655 495.587 92.6022 492.279 88.5158L490.725 89.7742ZM505.762 96.655C510.905 96.655 515.096 95.2715 518.219 92.3998C521.331 89.5376 523.262 85.3069 524.11 79.8435L522.134 79.5365C521.329 84.7164 519.539 88.4683 516.865 90.9277C514.201 93.3776 510.54 94.655 505.762 94.655V96.655ZM523.122 80.69H544.512V78.69H523.122V80.69ZM613.683 49.31V50.31H614.683V49.31H613.683ZM586.558 49.31V48.31H585.558V49.31H586.558ZM589.813 91.005L589.106 91.7121L589.123 91.7289L589.141 91.7449L589.813 91.005ZM612.133 90.695H613.133V89.0423L611.669 89.8092L612.133 90.695ZM612.133 109.14L612.606 110.021L613.133 109.738V109.14H612.133ZM573.228 104.955L573.893 104.208L573.228 104.955ZM564.703 49.31H565.703V48.31H564.703V49.31ZM550.598 49.31H549.598V50.31H550.598V49.31ZM550.598 32.26V31.26H549.598V32.26H550.598ZM561.293 29.16L560.621 28.4201L560.612 28.4279L560.604 28.4359L561.293 29.16ZM564.703 8.7V7.7H563.703V8.7H564.703ZM586.558 8.7H587.558V7.7H586.558V8.7ZM586.558 32.26H585.558V33.26H586.558V32.26ZM613.683 32.26H614.683V31.26H613.683V32.26ZM613.683 48.31H586.558V50.31H613.683V48.31ZM585.558 49.31V81.705H587.558V49.31H585.558ZM585.558 81.705C585.558 85.9139 586.695 89.3013 589.106 91.7121L590.52 90.2979C588.591 88.3687 587.558 85.5561 587.558 81.705H585.558ZM589.141 91.7449C591.649 94.0256 595.069 95.105 599.268 95.105V93.105C595.408 93.105 592.524 92.1177 590.486 90.2651L589.141 91.7449ZM599.268 95.105C603.69 95.105 608.137 93.9174 612.597 91.5808L611.669 89.8092C607.45 92.0193 603.32 93.105 599.268 93.105V95.105ZM611.133 90.695V109.14H613.133V90.695H611.133ZM611.66 108.259C607.613 110.43 602.365 111.55 595.858 111.55V113.55C602.578 113.55 608.18 112.396 612.606 110.021L611.66 108.259ZM595.858 111.55C586.64 111.55 579.353 109.072 573.893 104.208L572.563 105.702C578.47 110.964 586.27 113.55 595.858 113.55V111.55ZM573.893 104.208C568.446 99.3549 565.703 92.9216 565.703 84.805H563.703C563.703 93.4284 566.644 100.428 572.563 105.702L573.893 104.208ZM565.703 84.805V49.31H563.703V84.805H565.703ZM564.703 48.31H550.598V50.31H564.703V48.31ZM551.598 49.31V32.26H549.598V49.31H551.598ZM550.598 33.26H550.908V31.26H550.598V33.26ZM550.908 33.26C555.774 33.26 559.544 32.2072 561.983 29.8841L560.604 28.4359C558.703 30.2461 555.549 31.26 550.908 31.26V33.26ZM561.966 29.8999C564.531 27.5682 565.703 23.932 565.703 19.24H563.703C563.703 23.6413 562.602 26.6185 560.621 28.4201L561.966 29.8999ZM565.703 19.24V8.7H563.703V19.24H565.703ZM564.703 9.7H586.558V7.7H564.703V9.7ZM585.558 8.7V32.26H587.558V8.7H585.558ZM586.558 33.26H613.683V31.26H586.558V33.26ZM612.683 32.26V49.31H614.683V32.26H612.683Z" fill="black" fill-opacity="0.23" mask="url(#path-1-outside-1_128_12461)"/>
</svg>
