<svg width="320" height="121" viewBox="0 0 320 121" fill="none" xmlns="http://www.w3.org/2000/svg">
<mask id="path-1-outside-1_128_12670" maskUnits="userSpaceOnUse" x="-1" y="-1" width="322" height="123" fill="black">
<rect fill="white" x="-1" y="-1" width="322" height="123"/>
<path d="M83.5836 22.185H25.3036V48.69H77.6936V67.91H25.3036V111H0.968614V2.49999H83.5836V22.185ZM173.704 111L165.334 87.905H120.074L111.704 111H86.284L129.684 2.49999H155.569L199.124 111H173.704ZM126.429 70.235H158.979L142.704 25.595L126.429 70.235ZM319.462 105.11L304.582 120.455L288.617 105.42C280.144 110.38 270.224 112.86 258.857 112.86C242.22 112.86 228.839 107.693 218.712 97.36C208.585 87.0267 203.522 73.5417 203.522 56.905C203.522 40.0617 208.585 26.4733 218.712 16.14C228.839 5.70332 242.22 0.484991 258.857 0.484991C275.494 0.484991 288.875 5.70332 299.002 16.14C309.129 26.4733 314.192 40.0617 314.192 56.905C314.192 70.4417 310.782 81.9633 303.962 91.47L319.462 105.11ZM258.857 92.71C263.61 92.71 268.054 91.7283 272.187 89.765L260.097 78.295L273.117 64.035L285.672 75.195C288.049 69.8217 289.237 63.725 289.237 56.905C289.237 46.1583 286.447 37.4267 280.867 30.71C275.39 23.9933 268.054 20.635 258.857 20.635C249.66 20.635 242.272 23.9933 236.692 30.71C231.215 37.4267 228.477 46.1583 228.477 56.905C228.477 67.445 231.267 76.0733 236.847 82.79C242.427 89.4033 249.764 92.71 258.857 92.71Z"/>
</mask>
<path d="M83.5836 22.185V23.185H84.5836V22.185H83.5836ZM25.3036 22.185V21.185H24.3036V22.185H25.3036ZM25.3036 48.69H24.3036V49.69H25.3036V48.69ZM77.6936 48.69H78.6936V47.69H77.6936V48.69ZM77.6936 67.91V68.91H78.6936V67.91H77.6936ZM25.3036 67.91V66.91H24.3036V67.91H25.3036ZM25.3036 111V112H26.3036V111H25.3036ZM0.968615 111H-0.0313854V112H0.968615V111ZM0.968615 2.49999V1.49999H-0.0313854V2.49999H0.968615ZM83.5836 2.49999H84.5836V1.49999H83.5836V2.49999ZM83.5836 21.185H25.3036V23.185H83.5836V21.185ZM24.3036 22.185V48.69H26.3036V22.185H24.3036ZM25.3036 49.69H77.6936V47.69H25.3036V49.69ZM76.6936 48.69V67.91H78.6936V48.69H76.6936ZM77.6936 66.91H25.3036V68.91H77.6936V66.91ZM24.3036 67.91V111H26.3036V67.91H24.3036ZM25.3036 110H0.968615V112H25.3036V110ZM1.96861 111V2.49999H-0.0313854V111H1.96861ZM0.968615 3.49999H83.5836V1.49999H0.968615V3.49999ZM82.5836 2.49999V22.185H84.5836V2.49999H82.5836ZM173.704 111L172.764 111.341L173.003 112H173.704V111ZM165.334 87.905L166.274 87.5643L166.035 86.905H165.334V87.905ZM120.074 87.905V86.905H119.373L119.134 87.5643L120.074 87.905ZM111.704 111V112H112.405L112.644 111.341L111.704 111ZM86.284 111L85.3555 110.629L84.807 112H86.284V111ZM129.684 2.49999V1.49999H129.007L128.756 2.1286L129.684 2.49999ZM155.569 2.49999L156.497 2.12746L156.245 1.49999H155.569V2.49999ZM199.124 111V112H200.603L200.052 110.627L199.124 111ZM126.429 70.235L125.49 69.8925L125 71.235H126.429V70.235ZM158.979 70.235V71.235H160.408L159.919 69.8925L158.979 70.235ZM142.704 25.595L143.644 25.2525L142.704 22.6755L141.764 25.2525L142.704 25.595ZM174.644 110.659L166.274 87.5643L164.394 88.2457L172.764 111.341L174.644 110.659ZM165.334 86.905H120.074V88.905H165.334V86.905ZM119.134 87.5643L110.764 110.659L112.644 111.341L121.014 88.2457L119.134 87.5643ZM111.704 110H86.284V112H111.704V110ZM87.2125 111.371L130.612 2.87138L128.756 2.1286L85.3555 110.629L87.2125 111.371ZM129.684 3.49999H155.569V1.49999H129.684V3.49999ZM154.641 2.87253L198.196 111.373L200.052 110.627L156.497 2.12746L154.641 2.87253ZM199.124 110H173.704V112H199.124V110ZM126.429 71.235H158.979V69.235H126.429V71.235ZM159.919 69.8925L143.644 25.2525L141.764 25.9375L158.039 70.5775L159.919 69.8925ZM141.764 25.2525L125.49 69.8925L127.369 70.5775L143.644 25.9375L141.764 25.2525ZM319.462 105.11L320.18 105.806L320.911 105.053L320.123 104.359L319.462 105.11ZM304.582 120.455L303.897 121.183L304.614 121.859L305.3 121.151L304.582 120.455ZM288.617 105.42L289.303 104.692L288.758 104.179L288.112 104.557L288.617 105.42ZM218.712 97.36L219.426 96.6601L218.712 97.36ZM218.712 16.14L219.426 16.8399L219.43 16.8364L218.712 16.14ZM299.002 16.14L298.284 16.8364L298.288 16.8399L299.002 16.14ZM303.962 91.47L303.15 90.8871L302.622 91.6227L303.302 92.2207L303.962 91.47ZM272.187 89.765L272.616 90.6683L273.933 90.0428L272.875 89.0395L272.187 89.765ZM260.097 78.295L259.359 77.6207L258.697 78.3452L259.409 79.0205L260.097 78.295ZM273.117 64.035L273.781 63.2876L273.044 62.632L272.379 63.3607L273.117 64.035ZM285.672 75.195L285.008 75.9424L286.032 76.853L286.587 75.5995L285.672 75.195ZM280.867 30.71L280.092 31.342L280.098 31.349L280.867 30.71ZM236.692 30.71L235.923 30.071L235.917 30.0781L236.692 30.71ZM236.847 82.79L236.078 83.429L236.083 83.4349L236.847 82.79ZM318.744 104.414L303.864 119.759L305.3 121.151L320.18 105.806L318.744 104.414ZM305.268 119.727L289.303 104.692L287.932 106.148L303.897 121.183L305.268 119.727ZM288.112 104.557C279.815 109.414 270.075 111.86 258.857 111.86V113.86C270.373 113.86 280.473 111.346 289.122 106.283L288.112 104.557ZM258.857 111.86C242.445 111.86 229.336 106.772 219.426 96.6601L217.998 98.0599C228.341 108.614 241.996 113.86 258.857 113.86V111.86ZM219.426 96.6601C209.511 86.5419 204.522 73.3224 204.522 56.905H202.522C202.522 73.761 207.66 87.5114 217.998 98.0599L219.426 96.6601ZM204.522 56.905C204.522 40.2771 209.513 26.9557 219.426 16.8399L217.998 15.4401C207.658 25.991 202.522 39.8462 202.522 56.905H204.522ZM219.43 16.8364C229.34 6.62231 242.448 1.48499 258.857 1.48499V-0.515009C241.993 -0.515009 228.337 4.78434 217.994 15.4436L219.43 16.8364ZM258.857 1.48499C275.266 1.48499 288.374 6.62231 298.284 16.8364L299.72 15.4436C289.377 4.78434 275.722 -0.515009 258.857 -0.515009V1.48499ZM298.288 16.8399C308.201 26.9557 313.192 40.2771 313.192 56.905H315.192C315.192 39.8462 310.056 25.991 299.716 15.4401L298.288 16.8399ZM313.192 56.905C313.192 70.2665 309.829 81.576 303.15 90.8871L304.775 92.0529C311.735 82.3507 315.192 70.6168 315.192 56.905H313.192ZM303.302 92.2207L318.802 105.861L320.123 104.359L304.623 90.7193L303.302 92.2207ZM258.857 93.71C263.753 93.71 268.344 92.6978 272.616 90.6683L271.758 88.8617C267.764 90.7589 263.468 91.71 258.857 91.71V93.71ZM272.875 89.0395L260.785 77.5695L259.409 79.0205L271.499 90.4905L272.875 89.0395ZM260.836 78.9693L273.856 64.7093L272.379 63.3607L259.359 77.6207L260.836 78.9693ZM272.453 64.7824L285.008 75.9424L286.336 74.4476L273.781 63.2876L272.453 64.7824ZM286.587 75.5995C289.028 70.0799 290.237 63.8421 290.237 56.905H288.237C288.237 63.6079 287.07 69.5634 284.758 74.7905L286.587 75.5995ZM290.237 56.905C290.237 45.9806 287.398 37.0058 281.636 30.071L280.098 31.349C285.497 37.8475 288.237 46.3361 288.237 56.905H290.237ZM281.642 30.0781C275.963 23.1126 268.333 19.635 258.857 19.635V21.635C267.774 21.635 274.818 24.8741 280.092 31.3419L281.642 30.0781ZM258.857 19.635C249.381 19.635 241.704 23.112 235.923 30.071L237.461 31.349C242.84 24.8746 249.94 21.635 258.857 21.635V19.635ZM235.917 30.0781C230.263 37.0128 227.477 45.9849 227.477 56.905H229.477C229.477 46.3318 232.168 37.8406 237.467 31.3419L235.917 30.0781ZM227.477 56.905C227.477 67.6282 230.32 76.4976 236.078 83.429L237.616 82.151C232.215 75.649 229.477 67.2618 229.477 56.905H227.477ZM236.083 83.4349C241.864 90.2862 249.486 93.71 258.857 93.71V91.71C250.041 91.71 242.991 88.5205 237.611 82.1451L236.083 83.4349Z" fill="black" fill-opacity="0.23" mask="url(#path-1-outside-1_128_12670)"/>
</svg>
