<svg width="20" height="31" viewBox="0 0 20 31" fill="none" xmlns="http://www.w3.org/2000/svg">
<path d="M9.77492 30.177C4.40323 30.177 0.0507812 25.505 0.0507812 19.7752V10.3724C0.0507812 4.64262 4.40323 0 9.77492 0C15.1466 0 19.4991 4.64262 19.4991 10.3724V19.7752C19.4991 25.505 15.1466 30.177 9.77492 30.177ZM9.77492 2.49761C5.69794 2.49761 2.39229 6.02365 2.39229 10.3724V19.7752C2.39229 24.124 5.69794 27.65 9.77492 27.65C13.8519 27.65 17.1576 24.124 17.1576 19.7752V10.3724C17.1576 6.02365 13.8519 2.49761 9.77492 2.49761Z" fill="black"/>
<path d="M9.77492 12.5738C8.90804 12.5738 8.15423 11.9203 8.15423 11.095V7.34651C8.15423 6.55555 8.87035 5.86775 9.77492 5.86775C10.6795 5.86775 11.3956 6.52116 11.3956 7.34651V11.095C11.3956 11.9203 10.6795 12.5738 9.77492 12.5738Z" fill="black"/>
</svg>
