<svg width="1440" height="977" viewBox="0 0 1440 977" fill="none" xmlns="http://www.w3.org/2000/svg">
<g clip-path="url(#clip0_182_39)">
<mask id="mask0_182_39" style="mask-type:luminance" maskUnits="userSpaceOnUse" x="-98" y="-128" width="257" height="1106">
<path d="M95.3414 -128C95.2807 -112.629 96.319 -95.5994 98.6431 -76.7322C107.426 -5.45858 123.134 50.8546 136.238 97.825C167.503 209.901 183.957 268.886 56.4106 351.3C-18.2537 399.545 -45.5624 456.472 -46.3159 512.642C-47.3853 592.381 5.05437 670.609 51.5164 720.327C96.3486 768.293 51.258 804.787 -0.632156 846.781C-40.7118 879.216 -84.8591 914.945 -94.5743 961.751C-95.664 966.999 -96.3941 972.079 -96.819 977.004H-97.5195C-97.093 972.054 -96.3598 966.946 -95.2639 961.67C-85.5176 914.697 -41.2925 878.908 -1.14275 846.415C50.5388 804.592 95.4473 768.247 50.9467 720.635C4.41613 670.855 -48.0858 592.515 -47.0132 512.639C-46.2583 456.326 -18.8826 399.257 55.9592 350.896C183.185 268.688 166.762 209.81 135.553 97.938C122.448 50.9565 106.736 -5.36401 97.9489 -76.6818C95.6216 -95.5638 94.5802 -112.616 94.6378 -128H95.3414Z" fill="white"/>
</mask>
<g mask="url(#mask0_182_39)">
<path d="M183.956 -128H-97.5215V977H183.956V-128Z" fill="url(#paint0_linear_182_39)"/>
</g>
<mask id="mask1_182_39" style="mask-type:luminance" maskUnits="userSpaceOnUse" x="-94" y="-129" width="261" height="1106">
<path d="M97.9341 -128C98.507 -112.247 100.292 -94.8502 103.538 -75.5875C114.323 -11.5786 129.17 40.4753 141.74 84.557C176.347 205.901 193.721 266.819 61.8955 350.57C-12.9244 398.101 -42.0467 453.519 -45.0246 508.507C-49.1856 585.343 -2.31883 661.371 42.2659 713.95C87.3643 767.13 44.4452 806.141 -4.67095 850.797C-39.1077 882.1 -76.6049 916.187 -88.8559 959.859C-90.4488 965.519 -91.6775 971.239 -92.5374 976.996H-93.2441C-92.381 971.202 -91.1455 965.446 -89.5424 959.75C-77.2555 915.941 -39.6977 881.8 -5.20957 850.45C43.7385 805.954 86.4941 767.087 41.6775 714.233C-2.96639 661.586 -49.8939 585.452 -45.7251 508.481C-42.7394 453.352 -13.5487 397.802 61.4456 350.157C192.946 266.61 175.601 205.793 141.054 84.6651C128.484 40.592 113.636 -11.4656 102.844 -75.5249C99.595 -94.8073 97.8049 -112.229 97.2305 -128.004L97.9341 -128Z" fill="white"/>
</mask>
<g mask="url(#mask1_182_39)">
<path d="M193.721 -128H-93.2441V977H193.721V-128Z" fill="url(#paint1_linear_182_39)"/>
</g>
<mask id="mask2_182_39" style="mask-type:luminance" maskUnits="userSpaceOnUse" x="-90" y="-128" width="265" height="1106">
<path d="M100.424 -128C101.654 -111.862 104.225 -94.09 108.433 -74.4441C120.381 -18.6517 134.232 28.137 146.178 68.4974C185.451 201.168 204.178 264.428 67.3774 349.84C-21.6364 405.416 -48.6773 470.918 -44.2455 534.479C-39.8105 598.067 -3.88405 659.725 33.0138 707.573C78.643 766.735 37.9796 808.394 -8.64591 856.171C-37.6156 885.856 -68.8892 917.907 -83.139 957.986C-85.373 964.246 -87.1839 970.596 -88.564 977.007H-89.2754C-87.8899 970.549 -86.0675 964.153 -83.8161 957.848C-69.5399 917.678 -38.2165 885.582 -9.20943 855.857C37.2697 808.232 77.7977 766.704 32.4098 707.848C-4.53318 659.941 -40.5033 598.202 -44.9444 534.512C-49.3872 470.795 -22.2855 405.137 66.9337 349.433C203.4 264.231 184.704 201.069 145.494 68.6189C133.545 28.2537 119.692 -18.5411 107.742 -74.3544C103.528 -94.0286 100.953 -111.829 99.7204 -127.995L100.424 -128Z" fill="white"/>
</mask>
<g mask="url(#mask2_182_39)">
<path d="M204.177 -128H-89.2773V977H204.177V-128Z" fill="url(#paint2_linear_182_39)"/>
</g>
<mask id="mask3_182_39" style="mask-type:luminance" maskUnits="userSpaceOnUse" x="-86" y="-128" width="270" height="1106">
<path d="M102.815 -128C104.725 -111.471 108.117 -93.3212 113.327 -73.2994C125.396 -26.9148 137.955 13.3178 149.039 48.8256C194.839 195.549 215.476 261.659 72.8599 349.115C-15.5109 403.305 -45.5563 466.029 -44.6285 527.842C-43.6945 589.678 -11.7827 650.618 23.7608 701.203C70.3381 767.49 31.8447 811.973 -12.8848 863.66C-36.5587 891.018 -61.9839 920.402 -77.4229 956.101C-80.4014 962.957 -82.9046 969.936 -84.9214 977.006H-85.6406C-83.6129 969.879 -81.0919 962.845 -78.0892 955.935C-62.6237 920.171 -37.1705 890.756 -13.4686 863.368C31.1364 811.824 69.5255 767.463 23.1444 701.453C-12.4427 650.808 -44.3981 589.787 -45.329 527.846C-46.263 465.882 -16.146 403.01 72.4225 348.7C214.696 261.456 194.086 195.447 148.355 48.9485C137.274 13.4455 124.72 -26.7822 112.639 -73.1913C107.42 -93.2475 104.023 -111.432 102.11 -127.994L102.815 -128Z" fill="white"/>
</mask>
<g mask="url(#mask3_182_39)">
<path d="M215.476 -128H-85.6406V977H215.476V-128Z" fill="url(#paint3_linear_182_39)"/>
</g>
<mask id="mask4_182_39" style="mask-type:luminance" maskUnits="userSpaceOnUse" x="-83" y="-128" width="275" height="1106">
<path d="M105.105 -128C107.718 -111.076 111.965 -92.5425 118.216 -72.156C129.113 -36.6076 139.814 -4.63201 149.52 24.3861C204.515 188.812 227.797 258.422 78.3392 348.379C-9.38561 401.181 -42.4385 461.126 -45.0163 521.193C-47.5942 581.259 -19.683 641.5 14.5046 694.82C62.774 770.107 26.0676 817.58 -18.0532 874.645C-36.5449 898.562 -56.3474 924.167 -71.7117 954.211C-75.5434 961.659 -78.8553 969.267 -81.6324 977.001H-82.3594C-79.5625 969.202 -76.2231 961.529 -72.3562 954.02C-56.9654 923.937 -37.1536 898.312 -18.6509 874.376C25.364 817.445 61.9847 770.082 13.8835 695.055C-20.3446 641.671 -48.2885 581.367 -45.7059 521.175C-43.1219 460.964 -9.99896 400.878 77.9157 347.963C227.014 258.22 203.767 188.71 148.849 24.5176C139.144 -4.49567 128.456 -36.4651 117.542 -72.0344C111.277 -92.4639 107.022 -111.038 104.406 -128H105.105Z" fill="white"/>
</mask>
<g mask="url(#mask4_182_39)">
<path d="M227.799 -128H-82.3574V977H227.799V-128Z" fill="url(#paint4_linear_182_39)"/>
</g>
<mask id="mask5_182_39" style="mask-type:luminance" maskUnits="userSpaceOnUse" x="-80" y="-128" width="281" height="1106">
<path d="M107.303 -128C110.64 -110.675 115.774 -91.754 123.109 -71.0126C131.238 -48.0248 139.04 -26.6078 146.357 -6.5013C214.483 180.648 241.407 254.609 83.8253 347.65C-3.25664 399.063 -39.3077 456.232 -45.3958 514.549C-51.4793 572.888 -27.5781 632.389 5.25213 688.443C56.5212 775.98 20.7332 826.449 -25.7366 891.943C-38.8796 910.473 -52.8803 930.209 -65.9968 952.327C-70.7924 960.366 -75.0369 968.603 -78.7118 977.001H-79.4512C-76.0794 969.219 -71.8764 960.944 -66.6351 952.107C-53.5076 929.972 -39.5022 910.226 -26.353 891.691C20.0156 826.322 55.7413 775.958 4.61078 688.661C-28.2615 632.533 -52.1923 572.949 -46.0963 514.505C-40.0004 456.044 -3.86686 398.746 83.3956 347.227C240.606 254.408 213.717 180.544 145.68 -6.36497C138.338 -26.5329 130.518 -48.0149 122.432 -70.8799C115.08 -91.6656 109.931 -110.632 106.592 -128H107.303Z" fill="white"/>
</mask>
<g mask="url(#mask5_182_39)">
<path d="M241.406 -128H-79.4512V977H241.406V-128Z" fill="url(#paint5_linear_182_39)"/>
</g>
<mask id="mask6_182_39" style="mask-type:luminance" maskUnits="userSpaceOnUse" x="-77" y="-128" width="286" height="1106">
<path d="M109.406 -128C113.489 -110.268 119.548 -90.9557 128.004 -69.8654C131.221 -61.8504 134.37 -54.0109 137.451 -46.3471C224.692 170.622 256.639 250.075 89.3078 346.915C2.86886 396.943 -36.1943 451.334 -45.7819 507.904C-55.3694 564.474 -35.4767 623.273 -4.0023 682.059C52.6466 787.861 16.1115 840.365 -40.4207 921.621C-46.8217 930.821 -53.4796 940.39 -60.2823 950.441C-66.7098 959.937 -71.9262 968.759 -76.1899 977.001H-76.9434C-72.6532 968.688 -67.3947 959.786 -60.9096 950.196C-54.1007 940.137 -47.4444 930.57 -41.0449 921.373C15.3939 840.25 51.8621 787.832 -4.6561 682.267C-36.171 623.405 -56.0871 564.535 -46.4793 507.842C-36.8715 451.15 2.27422 396.621 88.8813 346.497C255.824 249.876 223.915 170.518 136.777 -46.1935C133.695 -53.859 130.546 -61.6985 127.33 -69.7119C118.85 -90.8575 112.779 -110.221 108.692 -128H109.406Z" fill="white"/>
</mask>
<g mask="url(#mask6_182_39)">
<path d="M256.639 -128H-76.9434V977H256.639V-128Z" fill="url(#paint6_linear_182_39)"/>
</g>
<mask id="mask7_182_39" style="mask-type:luminance" maskUnits="userSpaceOnUse" x="-75" y="-128" width="293" height="1105">
<path d="M111.415 -128C116.264 -109.856 123.28 -90.15 132.897 -68.7208C185.338 48.1526 218.788 127.479 217.653 189.793C216.517 252.158 180.76 297.449 94.7911 346.191C8.99506 394.827 -33.0756 446.444 -46.1672 501.268C-59.2588 556.091 -43.3761 614.166 -13.2576 675.689C16.903 737.299 25.1642 781.157 16.5885 821.801C8.01282 862.445 -17.3921 899.843 -54.5686 948.549C-62.394 958.803 -68.7981 968.242 -74.0986 976.996H-74.877C-69.5422 968.166 -63.0836 958.64 -55.1788 948.283C-18.0412 899.622 7.33566 862.266 15.8927 821.713C24.4497 781.16 16.204 737.387 -13.9192 675.869C-44.0766 614.266 -59.9811 556.112 -46.8599 501.168C-33.7387 446.225 8.41911 394.499 94.3724 345.762C180.145 297.132 215.819 251.964 216.953 189.784C218.087 127.56 184.652 48.2754 132.231 -68.5501C122.587 -90.0432 115.556 -109.805 110.699 -127.994L111.415 -128Z" fill="white"/>
</mask>
<g mask="url(#mask7_182_39)">
<path d="M218.789 -128H-74.873V977H218.789V-128Z" fill="url(#paint7_linear_182_39)"/>
</g>
<mask id="mask8_182_39" style="mask-type:luminance" maskUnits="userSpaceOnUse" x="-74" y="-128" width="301" height="1106">
<path d="M113.334 -128C118.966 -109.436 126.973 -89.3357 137.786 -67.5737C195.599 48.763 228.873 128.321 226.381 190.649C223.89 253.025 185.596 298.115 100.272 345.462C15.1215 392.715 -29.9566 441.553 -46.5555 494.629C-63.1543 547.706 -51.2768 605.059 -22.5157 669.313C6.28272 733.646 20.1465 778.975 16.591 820.229C13.0356 861.484 -7.95307 898.666 -48.8593 946.668C-58.2585 957.699 -66.0014 967.749 -72.4741 977.004H-73.2695C-66.7517 967.669 -58.9481 957.526 -49.4524 946.38C-8.61309 898.453 12.3366 861.357 15.8843 820.195C19.4319 779.032 5.58065 733.752 -23.1882 669.484C-51.9867 605.138 -63.8812 547.7 -47.2466 494.507C-30.612 441.313 14.5533 392.368 99.8497 345.038C184.978 297.797 223.183 252.828 225.673 190.641C228.163 128.404 194.905 48.8944 137.121 -67.3808C126.276 -89.2154 118.254 -109.38 112.611 -128H113.334Z" fill="white"/>
</mask>
<g mask="url(#mask8_182_39)">
<path d="M228.873 -128H-73.2695V977H228.873V-128Z" fill="url(#paint8_linear_182_39)"/>
</g>
<mask id="mask9_182_39" style="mask-type:luminance" maskUnits="userSpaceOnUse" x="-73" y="-129" width="309" height="1107">
<path d="M115.199 -128C121.634 -109.003 130.624 -88.5227 142.678 -66.4314C205.863 49.3722 238.961 129.163 235.11 191.504C231.255 253.896 190.433 298.777 105.75 344.732C21.243 390.598 -26.8427 436.658 -46.9456 487.988C-67.0485 539.317 -59.181 595.944 -31.7758 662.933L-30.1304 666.953C23.5624 798.169 45.2329 851.123 -43.1504 944.78C-54.3118 956.61 -63.5584 967.268 -71.3511 977.001H-72.1699C-64.3243 967.182 -54.9983 956.423 -43.7186 944.469C44.4592 851.028 22.8199 798.148 -30.7982 667.111L-32.4452 663.091C-59.8909 596.003 -67.7661 539.281 -47.6196 487.83C-27.4731 436.38 20.6997 390.233 105.344 344.292C189.829 298.445 230.574 253.677 234.409 191.481C238.256 129.236 205.178 49.5036 142.03 -66.2239C129.935 -88.3913 120.923 -108.937 114.477 -128.001L115.199 -128Z" fill="white"/>
</mask>
<g mask="url(#mask9_182_39)">
<path d="M238.962 -128H-72.166V977H238.962V-128Z" fill="url(#paint9_linear_182_39)"/>
</g>
<mask id="mask10_182_39" style="mask-type:luminance" maskUnits="userSpaceOnUse" x="-72" y="-128" width="317" height="1105">
<path d="M116.983 -128C124.24 -108.562 134.239 -87.6986 147.568 -65.2856C216.126 49.9838 249.048 130.004 243.838 192.358C238.626 254.755 195.257 299.44 111.236 344.001C27.3698 388.481 -23.7281 431.764 -47.3335 481.348C-70.9389 530.932 -67.0783 586.831 -41.0305 656.554C-32.5466 679.258 -24.1701 699.686 -16.5051 718.375C22.9722 814.638 43.5669 864.861 -37.4361 942.886C-50.5682 955.536 -61.4976 966.799 -70.7614 976.996H-71.6113C-62.2713 966.709 -51.2563 955.342 -37.9872 942.557C42.784 864.748 22.2265 814.618 -17.1776 718.53C-24.8426 699.837 -33.2222 679.405 -41.7076 656.694C-67.7959 586.864 -71.658 530.857 -47.995 481.161C-24.332 431.466 26.8452 388.102 110.832 343.559C194.667 299.099 237.939 254.529 243.136 192.32C248.336 130.065 215.436 50.1177 146.933 -65.0719C133.552 -87.561 123.524 -108.495 116.253 -128H116.983Z" fill="white"/>
</mask>
<g mask="url(#mask10_182_39)">
<path d="M249.048 -128H-71.6543V977H249.048V-128Z" fill="url(#paint10_linear_182_39)"/>
</g>
<mask id="mask11_182_39" style="mask-type:luminance" maskUnits="userSpaceOnUse" x="-72" y="-128" width="326" height="1106">
<path d="M118.679 -128C126.774 -108.116 137.814 -86.8659 152.459 -64.1348C226.39 50.6016 259.135 130.852 252.569 193.219C245.997 255.627 200.089 300.108 116.72 343.278C33.4983 386.363 -20.6086 426.871 -47.7243 474.708C-74.84 522.546 -74.9801 577.723 -50.2882 650.173C-37.8846 686.569 -23.9804 717.224 -11.7574 744.177C24.7715 824.719 46.3315 872.26 -31.7264 941.002C-47.0534 954.501 -59.8586 966.357 -70.7647 977.001H-71.6504C-60.6649 966.266 -47.7492 954.3 -32.2557 940.655C45.5391 872.141 24.0274 824.715 -12.419 744.35C-24.6497 717.383 -38.5617 686.713 -50.9669 650.307C-75.7009 577.734 -75.5499 522.443 -48.3703 474.497C-21.1908 426.552 32.9877 385.98 116.326 342.837C199.513 299.763 245.318 255.397 251.87 193.177C258.427 130.908 225.704 50.7465 151.832 -63.9002C137.131 -86.7173 126.058 -108.045 117.945 -128H118.679Z" fill="white"/>
</mask>
<g mask="url(#mask11_182_39)">
<path d="M259.132 -128H-75.6992V977H259.132V-128Z" fill="url(#paint11_linear_182_39)"/>
</g>
<mask id="mask12_182_39" style="mask-type:luminance" maskUnits="userSpaceOnUse" x="-76" y="-128" width="339" height="1106">
<path d="M120.297 -128C129.25 -107.661 141.359 -86.0233 157.346 -62.995C236.648 51.2059 269.216 131.686 261.291 194.063C253.362 256.483 204.915 300.763 122.196 342.537C39.6147 384.242 -17.4981 421.974 -48.1194 468.064C-78.7407 514.154 -82.8799 568.61 -59.5454 643.794C-45.1866 690.056 -25.9415 727.237 -9.42049 759.165C27.8572 831.186 51.3271 876.533 -26.0177 939.113C-43.7872 953.483 -58.6768 965.929 -71.4026 977.001H-72.3366C-59.5158 965.836 -44.497 953.281 -26.533 938.747C50.5068 876.413 27.0991 831.187 -10.0774 759.36C-26.6124 727.413 -45.8669 690.213 -60.2381 643.911C-83.6131 568.597 -79.4459 514.021 -48.7514 467.822C-18.0569 421.623 39.1244 383.847 121.802 342.092C204.343 300.407 252.683 256.243 260.589 194.011C268.499 131.742 235.955 51.3545 156.72 -62.7518C140.676 -85.8649 128.529 -107.58 119.556 -128H120.297Z" fill="white"/>
</mask>
<g mask="url(#mask12_182_39)">
<path d="M269.22 -128H-83.6035V977H269.22V-128Z" fill="url(#paint12_linear_182_39)"/>
</g>
<mask id="mask13_182_39" style="mask-type:luminance" maskUnits="userSpaceOnUse" x="-82" y="-128" width="354" height="1106">
<path d="M121.833 -128C131.656 -107.201 144.872 -85.1698 162.238 -61.8491C246.918 51.8187 279.304 132.528 270.024 194.92C260.735 257.352 209.749 301.427 127.681 341.81C45.7411 382.13 -14.3838 417.085 -48.5124 461.434C-82.6409 505.784 -90.7823 559.499 -68.8036 637.415C-53.5482 691.483 -28.7348 733.4 -7.78201 768.787C31.7451 835.552 57.5376 879.119 -20.2992 937.222C-40.7804 952.511 -57.9894 965.521 -72.728 977.001H-73.7056C-58.8565 965.427 -41.4964 952.299 -20.7911 936.84C56.6985 878.993 30.9838 835.564 -8.4218 769.003C-29.3918 733.599 -54.2222 691.65 -69.4901 637.526C-91.5093 559.469 -83.3258 505.608 -49.1164 461.159C-14.9069 416.71 45.2773 381.726 127.3 341.365C209.193 301.069 260.067 257.106 269.326 194.863C278.593 132.581 246.225 51.9759 161.629 -61.5802C144.187 -84.9966 130.932 -107.116 121.086 -127.995L121.833 -128Z" fill="white"/>
</mask>
<g mask="url(#mask13_182_39)">
<path d="M279.304 -128H-91.5098V977H279.304V-128Z" fill="url(#paint13_linear_182_39)"/>
</g>
<mask id="mask14_182_39" style="mask-type:luminance" maskUnits="userSpaceOnUse" x="-89" y="-128" width="370" height="1106">
<path d="M123.291 -128C134.001 -106.733 148.341 -84.3064 167.128 -60.6959C257.177 52.4303 289.393 133.367 278.753 195.78C268.105 258.224 214.58 302.097 133.163 341.086C51.866 380.02 -11.2712 412.198 -48.9053 454.792C-86.5394 497.387 -98.6846 550.395 -78.0618 631.036C-62.5464 691.708 -31.8566 737.386 -6.31471 775.404C36.1607 838.626 64.4361 880.711 -14.59 935.333C-21.2339 939.924 -28.5736 944.986 -35.5381 949.79C-50.1709 959.878 -63.1551 968.84 -74.8224 977.002H-75.856C-64.044 968.733 -50.8667 959.645 -36.0051 949.395C-29.6928 945.042 -23.0847 940.484 -15.0601 934.937C63.5706 880.589 35.3932 838.648 -6.93583 775.643C-32.4995 737.593 -63.2158 691.881 -78.7483 631.133C-99.41 550.332 -87.2104 497.187 -49.4828 454.488C-11.7553 411.789 51.427 379.595 132.794 340.628C214.042 301.722 267.447 257.96 278.063 195.703C288.683 133.414 256.494 52.5888 166.535 -60.4306C147.664 -84.1295 133.282 -106.648 122.541 -128H123.291Z" fill="white"/>
</mask>
<g mask="url(#mask14_182_39)">
<path d="M289.392 -128H-99.4121V977H289.392V-128Z" fill="url(#paint14_linear_182_39)"/>
</g>
<mask id="mask15_182_39" style="mask-type:luminance" maskUnits="userSpaceOnUse" x="-97" y="-128" width="387" height="1105">
<path d="M124.675 -128C136.284 -106.261 151.784 -83.4343 172.021 -59.5549C267.445 53.042 299.48 134.207 287.481 196.631C275.474 259.085 219.414 302.756 138.644 340.352L124.903 346.738C-28.4086 417.957 -124.745 462.698 -87.321 624.659C-71.9488 691.178 -35.0837 740.04 -4.79546 780.187C40.9707 840.859 71.7649 881.666 -8.87861 933.444C-28.9239 946.308 -46.589 957.409 -62.3208 967.295C-67.684 970.666 -72.8263 973.9 -77.7474 976.997H-78.848C-73.7203 973.762 -68.3601 970.39 -62.7675 966.88C-47.014 956.981 -29.3208 945.862 -9.3316 933.029C70.8651 881.537 40.1909 840.879 -5.40568 780.444C-35.7219 740.26 -72.6182 691.355 -88.0106 624.741C-125.519 462.433 -29.0251 417.613 124.539 346.284L138.278 339.898C218.878 302.38 274.817 258.819 286.785 196.553C298.761 134.256 266.748 53.2115 171.436 -59.2675C151.107 -83.2489 135.551 -106.169 123.912 -128H124.675Z" fill="white"/>
</mask>
<g mask="url(#mask15_182_39)">
<path d="M299.479 -128H-125.52V977H299.479V-128Z" fill="url(#paint15_linear_182_39)"/>
</g>
<mask id="mask16_182_39" style="mask-type:luminance" maskUnits="userSpaceOnUse" x="-104" y="-128" width="404" height="1106">
<path d="M125.98 -128C138.507 -105.77 155.193 -82.5574 176.91 -58.4078C277.703 53.6536 309.565 135.049 296.209 197.485C282.843 259.952 224.244 303.418 144.122 339.624C130.625 345.722 117.409 351.562 104.57 357.235C-34.4411 418.661 -129.378 460.613 -96.5835 618.273C-81.6394 690.148 -38.3125 741.821 -3.15193 783.761C46.0841 842.49 79.3627 882.185 -3.17063 931.548C-30.8436 948.099 -54.6498 961.656 -75.3147 973.428L-81.5927 977.005H-82.7587L-75.735 973.002C-55.095 961.249 -31.3184 947.702 -3.60337 931.132C78.4333 882.068 45.2902 842.537 -3.74192 784.051C-38.9383 742.069 -82.301 690.341 -97.2747 618.36C-130.141 460.335 -35.0342 418.308 104.221 356.774C117.042 351.11 130.236 345.278 143.761 339.163C223.713 303.036 282.188 259.677 295.51 197.4C308.841 135.095 277.004 53.8255 176.325 -58.1069C154.519 -82.3585 137.771 -105.68 125.211 -128H125.98Z" fill="white"/>
</mask>
<g mask="url(#mask16_182_39)">
<path d="M309.565 -128H-130.141V977H309.565V-128Z" fill="url(#paint16_linear_182_39)"/>
</g>
<mask id="mask17_182_39" style="mask-type:luminance" maskUnits="userSpaceOnUse" x="-112" y="-128" width="421" height="1106">
<path d="M127.218 -128C140.675 -105.279 158.571 -81.6621 181.8 -57.257C287.965 54.2689 319.651 135.892 304.932 198.344C290.209 260.82 229.07 304.09 149.603 338.897C129.424 347.74 109.792 355.837 90.8976 363.633C-39.3789 417.392 -134.753 456.749 -105.841 611.897C-91.5119 688.788 -41.4726 743.02 -1.33689 786.518C51.4343 843.716 87.1413 882.407 2.54079 929.659C-30.6241 948.182 -58.9074 962.789 -83.1977 975.333L-86.4356 977.005H-87.6809L-83.5915 974.892C-59.3245 962.365 -31.0662 947.766 2.12515 929.229C86.1715 882.286 50.6311 843.768 -1.91129 786.825C-42.089 743.28 -92.1844 688.99 -106.537 611.97C-135.513 456.452 -39.9564 417.02 90.566 363.16C109.514 355.341 129.198 347.219 149.253 338.431C228.557 303.692 289.567 260.534 304.244 198.246C318.93 135.933 287.272 54.447 181.227 -56.9475C157.892 -81.4594 139.937 -105.183 126.446 -128H127.218Z" fill="white"/>
</mask>
<g mask="url(#mask17_182_39)">
<path d="M319.65 -128H-135.514V977H319.65V-128Z" fill="url(#paint17_linear_182_39)"/>
</g>
<mask id="mask18_182_39" style="mask-type:luminance" maskUnits="userSpaceOnUse" x="-120" y="-128" width="438" height="1106">
<path d="M128.434 -128C142.833 -104.78 161.914 -80.7667 186.69 -56.1135C298.229 54.8781 329.733 136.729 313.664 199.194C297.583 261.681 233.904 304.743 155.087 338.163C129.987 348.804 105.273 358.183 81.576 367.182C-43.5105 414.667 -140.655 451.545 -115.099 605.509C-101.542 687.183 -44.5317 743.795 0.664803 788.676C11.7717 799.708 22.1671 810.03 31.0464 819.863C67.141 859.831 77.8852 891.363 8.25514 927.76C-29.2887 947.385 -61.2908 962.409 -88.6525 975.254L-92.3729 977.001H-93.7039L-89.0183 974.802C-61.6551 961.955 -29.6514 946.929 7.85976 927.323C76.9979 891.181 66.3222 859.862 30.4705 820.163C21.6223 810.367 11.2206 800.038 0.115311 789C-45.1387 744.069 -102.213 687.392 -115.787 605.577C-141.411 451.24 -44.0724 414.283 81.2632 366.704C104.981 357.701 129.702 348.317 154.746 337.697C233.402 304.35 296.943 261.392 312.976 199.096C329.009 136.773 297.533 55.066 186.133 -55.7856C161.243 -80.5604 142.095 -104.677 127.658 -128H128.434Z" fill="white"/>
</mask>
<g mask="url(#mask18_182_39)">
<path d="M329.738 -128H-141.412V977H329.738V-128Z" fill="url(#paint18_linear_182_39)"/>
</g>
<mask id="mask19_182_39" style="mask-type:luminance" maskUnits="userSpaceOnUse" x="-129" y="-128" width="456" height="1106">
<path d="M129.58 -128C144.934 -104.27 165.228 -79.8554 191.578 -54.9652C308.492 55.491 339.825 137.57 322.392 200.049C304.957 262.547 238.736 305.408 160.566 337.434C131.757 349.238 102.933 359.173 75.2602 368.718C-47.0103 410.87 -146.936 445.322 -124.349 599.13C-111.682 685.411 -47.4695 744.273 2.85466 790.401C20.1026 806.211 35.7207 820.528 47.0829 833.944C75.1902 867.133 77.3275 894.814 13.974 925.867C-27.2483 946.074 -62.5832 961.198 -92.7516 974.11L-99.5029 977.001H-100.932L-93.094 973.645C-62.9335 960.735 -27.6079 945.616 13.5973 925.419C76.4713 894.599 74.3651 867.144 46.4929 834.232C35.1494 820.837 19.5469 806.535 2.31604 790.741C-48.0719 744.559 -112.363 685.628 -125.054 599.188C-147.69 444.996 -47.5535 410.472 74.966 368.232C102.633 358.692 131.444 348.76 160.234 336.965C238.242 305.004 304.319 262.249 321.707 199.938C339.099 137.607 307.795 55.6801 191.033 -54.6311C164.56 -79.6417 144.193 -104.164 128.799 -128H129.58Z" fill="white"/>
</mask>
<g mask="url(#mask19_182_39)">
<path d="M339.827 -128H-147.689V977H339.827V-128Z" fill="url(#paint19_linear_182_39)"/>
</g>
<mask id="mask20_182_39" style="mask-type:luminance" maskUnits="userSpaceOnUse" x="-137" y="-128" width="474" height="1106">
<path d="M130.665 -128C146.986 -103.753 168.515 -78.9441 196.47 -53.8181C318.757 56.1038 349.913 138.41 331.122 200.906C312.332 263.402 243.567 306.07 166.048 336.704C134.433 349.197 102.191 359.18 71.1078 368.794C-49.9812 406.263 -153.495 438.298 -133.617 592.747C-121.934 683.51 -50.2909 744.523 5.21693 791.791C27.1193 810.442 46.5124 826.957 58.7385 842.325C81.9205 871.466 79.4158 896.467 19.68 923.973C-24.8035 944.457 -63.2191 959.49 -96.0244 972.327C-100.087 973.917 -104.063 975.475 -107.952 977.001H-109.479C-105.204 975.321 -100.826 973.605 -96.3451 971.854C-63.5538 959.022 -25.1538 943.994 19.3157 923.516C78.5798 896.228 81.0908 871.457 58.1361 842.602C45.9364 827.268 26.5683 810.773 4.69232 792.146C-50.8731 744.822 -122.609 683.734 -134.311 592.798C-154.236 437.953 -50.5026 405.849 70.8479 368.299C101.913 358.686 134.136 348.713 165.727 336.23C243.094 305.66 311.696 263.106 330.439 200.783C349.181 138.461 318.059 56.2979 195.942 -53.473C167.849 -78.7181 146.241 -103.643 129.875 -128H130.665Z" fill="white"/>
</mask>
<g mask="url(#mask20_182_39)">
<path d="M349.913 -128H-154.242V977H349.913V-128Z" fill="url(#paint20_linear_182_39)"/>
</g>
<mask id="mask21_182_39" style="mask-type:luminance" maskUnits="userSpaceOnUse" x="-146" y="-128" width="492" height="1106">
<path d="M131.683 -128C148.983 -103.229 171.771 -78.0132 201.358 -52.6685C329.021 56.7154 359.999 139.25 339.846 201.756C319.694 264.261 248.396 306.733 171.526 335.975C137.815 348.798 102.681 358.443 68.6038 367.798C-52.4914 401.042 -160.255 430.625 -142.873 586.366C-132.257 681.524 -52.9646 744.604 7.77054 792.919C33.6689 813.522 56.1987 831.445 68.6272 848.05C88.2895 874.321 82.7197 897.241 25.3936 922.076C-22.0756 942.643 -63.3975 957.467 -98.72 970.146C-105.284 972.5 -111.638 974.788 -117.783 977.007H-119.41C-112.847 974.625 -106.049 972.177 -99.0173 969.663C-63.7041 956.994 -22.3916 942.174 25.0496 921.621C81.9071 896.989 87.4722 874.302 68.0138 848.321C55.632 831.776 33.1287 813.873 7.25995 793.299C-53.55 744.922 -132.937 681.766 -143.582 586.42C-161.001 430.264 -52.9973 400.614 68.3672 367.297C102.426 357.947 137.54 348.307 171.213 335.498C247.925 306.317 319.069 263.964 339.165 201.627C359.26 139.29 328.316 56.9144 200.84 -52.3123C171.108 -77.7823 148.24 -103.111 130.894 -127.996L131.683 -128Z" fill="white"/>
</mask>
<g mask="url(#mask21_182_39)">
<path d="M360 -128H-161V977H360V-128Z" fill="url(#paint21_linear_182_39)"/>
</g>
</g>
<g clip-path="url(#clip1_182_39)">
<mask id="mask22_182_39" style="mask-type:luminance" maskUnits="userSpaceOnUse" x="1277" y="-128" width="257" height="1106">
<path d="M1340.66 -128C1340.72 -112.629 1339.68 -95.5994 1337.36 -76.7322C1328.57 -5.45858 1312.87 50.8546 1299.76 97.825C1268.5 209.901 1252.04 268.886 1379.59 351.3C1454.25 399.545 1481.56 456.472 1482.32 512.642C1483.39 592.381 1430.95 670.609 1384.48 720.327C1339.65 768.293 1384.74 804.787 1436.63 846.781C1476.71 879.216 1520.86 914.945 1530.57 961.751C1531.66 966.999 1532.39 972.079 1532.82 977.004H1533.52C1533.09 972.054 1532.36 966.946 1531.26 961.67C1521.52 914.697 1477.29 878.908 1437.14 846.415C1385.46 804.592 1340.55 768.247 1385.05 720.635C1431.58 670.855 1484.09 592.515 1483.01 512.639C1482.26 456.326 1454.88 399.257 1380.04 350.896C1252.82 268.688 1269.24 209.81 1300.45 97.938C1313.55 50.9565 1329.26 -5.36401 1338.05 -76.6818C1340.38 -95.5638 1341.42 -112.616 1341.36 -128H1340.66Z" fill="white"/>
</mask>
<g mask="url(#mask22_182_39)">
<path d="M1252.04 -128H1533.52V977H1252.04V-128Z" fill="url(#paint22_linear_182_39)"/>
</g>
<mask id="mask23_182_39" style="mask-type:luminance" maskUnits="userSpaceOnUse" x="1269" y="-129" width="261" height="1106">
<path d="M1338.07 -128C1337.49 -112.247 1335.71 -94.8502 1332.46 -75.5875C1321.68 -11.5786 1306.83 40.4753 1294.26 84.557C1259.65 205.901 1242.28 266.819 1374.1 350.57C1448.92 398.101 1478.05 453.519 1481.02 508.507C1485.19 585.343 1438.32 661.371 1393.73 713.95C1348.64 767.13 1391.55 806.141 1440.67 850.797C1475.11 882.1 1512.6 916.187 1524.86 959.859C1526.45 965.519 1527.68 971.239 1528.54 976.996H1529.24C1528.38 971.202 1527.15 965.446 1525.54 959.75C1513.26 915.941 1475.7 881.8 1441.21 850.45C1392.26 805.954 1349.51 767.087 1394.32 714.233C1438.97 661.586 1485.89 585.452 1481.73 508.481C1478.74 453.352 1449.55 397.802 1374.55 350.157C1243.05 266.61 1260.4 205.793 1294.95 84.6651C1307.52 40.592 1322.36 -11.4656 1333.16 -75.5249C1336.4 -94.8073 1338.2 -112.229 1338.77 -128.004L1338.07 -128Z" fill="white"/>
</mask>
<g mask="url(#mask23_182_39)">
<path d="M1242.28 -128H1529.24V977H1242.28V-128Z" fill="url(#paint23_linear_182_39)"/>
</g>
<mask id="mask24_182_39" style="mask-type:luminance" maskUnits="userSpaceOnUse" x="1261" y="-128" width="265" height="1106">
<path d="M1335.58 -128C1334.35 -111.862 1331.77 -94.09 1327.57 -74.4441C1315.62 -18.6517 1301.77 28.137 1289.82 68.4974C1250.55 201.168 1231.82 264.428 1368.62 349.84C1457.64 405.416 1484.68 470.918 1480.25 534.479C1475.81 598.067 1439.88 659.725 1402.99 707.573C1357.36 766.735 1398.02 808.394 1444.65 856.171C1473.62 885.856 1504.89 917.907 1519.14 957.986C1521.37 964.246 1523.18 970.596 1524.56 977.007H1525.28C1523.89 970.549 1522.07 964.153 1519.82 957.848C1505.54 917.678 1474.22 885.582 1445.21 855.857C1398.73 808.232 1358.2 766.704 1403.59 707.848C1440.53 659.941 1476.5 598.202 1480.94 534.512C1485.39 470.795 1458.29 405.137 1369.07 349.433C1232.6 264.231 1251.3 201.069 1290.51 68.6189C1302.45 28.2537 1316.31 -18.5411 1328.26 -74.3544C1332.47 -94.0286 1335.05 -111.829 1336.28 -127.995L1335.58 -128Z" fill="white"/>
</mask>
<g mask="url(#mask24_182_39)">
<path d="M1231.82 -128H1525.28V977H1231.82V-128Z" fill="url(#paint24_linear_182_39)"/>
</g>
<mask id="mask25_182_39" style="mask-type:luminance" maskUnits="userSpaceOnUse" x="1252" y="-128" width="270" height="1106">
<path d="M1333.19 -128C1331.27 -111.471 1327.88 -93.3212 1322.67 -73.2994C1310.6 -26.9148 1298.04 13.3178 1286.96 48.8256C1241.16 195.549 1220.52 261.659 1363.14 349.115C1451.51 403.305 1481.56 466.029 1480.63 527.842C1479.69 589.678 1447.78 650.618 1412.24 701.203C1365.66 767.49 1404.16 811.973 1448.88 863.66C1472.56 891.018 1497.98 920.402 1513.42 956.101C1516.4 962.957 1518.9 969.936 1520.92 977.006H1521.64C1519.61 969.879 1517.09 962.845 1514.09 955.935C1498.62 920.171 1473.17 890.756 1449.47 863.368C1404.86 811.824 1366.47 767.463 1412.86 701.453C1448.44 650.808 1480.4 589.787 1481.33 527.846C1482.26 465.882 1452.15 403.01 1363.58 348.7C1221.3 261.456 1241.91 195.447 1287.64 48.9485C1298.73 13.4455 1311.28 -26.7822 1323.36 -73.1913C1328.58 -93.2475 1331.98 -111.432 1333.89 -127.994L1333.19 -128Z" fill="white"/>
</mask>
<g mask="url(#mask25_182_39)">
<path d="M1220.52 -128H1521.64V977H1220.52V-128Z" fill="url(#paint25_linear_182_39)"/>
</g>
<mask id="mask26_182_39" style="mask-type:luminance" maskUnits="userSpaceOnUse" x="1244" y="-128" width="275" height="1106">
<path d="M1330.9 -128C1328.28 -111.076 1324.04 -92.5425 1317.78 -72.156C1306.89 -36.6076 1296.19 -4.63201 1286.48 24.3861C1231.48 188.812 1208.2 258.422 1357.66 348.379C1445.39 401.181 1478.44 461.126 1481.02 521.193C1483.59 581.259 1455.68 641.5 1421.5 694.82C1373.23 770.107 1409.93 817.58 1454.05 874.645C1472.54 898.562 1492.35 924.167 1507.71 954.211C1511.54 961.659 1514.86 969.267 1517.63 977.001H1518.36C1515.56 969.202 1512.22 961.529 1508.36 954.02C1492.97 923.937 1473.15 898.312 1454.65 874.376C1410.64 817.445 1374.02 770.082 1422.12 695.055C1456.34 641.671 1484.29 581.367 1481.71 521.175C1479.12 460.964 1446 400.878 1358.08 347.963C1208.99 258.22 1232.23 188.71 1287.15 24.5176C1296.86 -4.49567 1307.54 -36.4651 1318.46 -72.0344C1324.72 -92.4639 1328.98 -111.038 1331.59 -128H1330.9Z" fill="white"/>
</mask>
<g mask="url(#mask26_182_39)">
<path d="M1208.2 -128H1518.36V977H1208.2V-128Z" fill="url(#paint26_linear_182_39)"/>
</g>
<mask id="mask27_182_39" style="mask-type:luminance" maskUnits="userSpaceOnUse" x="1235" y="-128" width="281" height="1106">
<path d="M1328.7 -128C1325.36 -110.675 1320.23 -91.754 1312.89 -71.0126C1304.76 -48.0248 1296.96 -26.6078 1289.64 -6.5013C1221.52 180.648 1194.59 254.609 1352.17 347.65C1439.26 399.063 1475.31 456.232 1481.4 514.549C1487.48 572.888 1463.58 632.389 1430.75 688.443C1379.48 775.98 1415.27 826.449 1461.74 891.943C1474.88 910.473 1488.88 930.209 1502 952.327C1506.79 960.366 1511.04 968.603 1514.71 977.001H1515.45C1512.08 969.219 1507.88 960.944 1502.64 952.107C1489.51 929.972 1475.5 910.226 1462.35 891.691C1415.98 826.322 1380.26 775.958 1431.39 688.661C1464.26 632.533 1488.19 572.949 1482.1 514.505C1476 456.044 1439.87 398.746 1352.6 347.227C1195.39 254.408 1222.28 180.544 1290.32 -6.36497C1297.66 -26.5329 1305.48 -48.0149 1313.57 -70.8799C1320.92 -91.6656 1326.07 -110.632 1329.41 -128H1328.7Z" fill="white"/>
</mask>
<g mask="url(#mask27_182_39)">
<path d="M1194.59 -128H1515.45V977H1194.59V-128Z" fill="url(#paint27_linear_182_39)"/>
</g>
<mask id="mask28_182_39" style="mask-type:luminance" maskUnits="userSpaceOnUse" x="1227" y="-128" width="286" height="1106">
<path d="M1326.59 -128C1322.51 -110.268 1316.45 -90.9557 1308 -69.8654C1304.78 -61.8504 1301.63 -54.0109 1298.55 -46.3471C1211.31 170.622 1179.36 250.075 1346.69 346.915C1433.13 396.943 1472.19 451.334 1481.78 507.904C1491.37 564.474 1471.48 623.273 1440 682.059C1383.35 787.861 1419.89 840.365 1476.42 921.621C1482.82 930.821 1489.48 940.39 1496.28 950.441C1502.71 959.937 1507.93 968.759 1512.19 977.001H1512.94C1508.65 968.688 1503.39 959.786 1496.91 950.196C1490.1 940.137 1483.44 930.57 1477.04 921.373C1420.61 840.25 1384.14 787.832 1440.66 682.267C1472.17 623.405 1492.09 564.535 1482.48 507.842C1472.87 451.15 1433.73 396.621 1347.12 346.497C1180.18 249.876 1212.09 170.518 1299.22 -46.1935C1302.31 -53.859 1305.45 -61.6985 1308.67 -69.7119C1317.15 -90.8575 1323.22 -110.221 1327.31 -128H1326.59Z" fill="white"/>
</mask>
<g mask="url(#mask28_182_39)">
<path d="M1179.36 -128H1512.94V977H1179.36V-128Z" fill="url(#paint28_linear_182_39)"/>
</g>
<mask id="mask29_182_39" style="mask-type:luminance" maskUnits="userSpaceOnUse" x="1218" y="-128" width="293" height="1105">
<path d="M1324.59 -128C1319.74 -109.856 1312.72 -90.15 1303.1 -68.7208C1250.66 48.1526 1217.21 127.479 1218.35 189.793C1219.48 252.158 1255.24 297.449 1341.21 346.191C1427 394.827 1469.08 446.444 1482.17 501.268C1495.26 556.091 1479.38 614.166 1449.26 675.689C1419.1 737.299 1410.84 781.157 1419.41 821.801C1427.99 862.445 1453.39 899.843 1490.57 948.549C1498.39 958.803 1504.8 968.242 1510.1 976.996H1510.88C1505.54 968.166 1499.08 958.64 1491.18 948.283C1454.04 899.622 1428.66 862.266 1420.11 821.713C1411.55 781.16 1419.8 737.387 1449.92 675.869C1480.08 614.266 1495.98 556.112 1482.86 501.168C1469.74 446.225 1427.58 394.499 1341.63 345.762C1255.85 297.132 1220.18 251.964 1219.05 189.784C1217.91 127.56 1251.35 48.2754 1303.77 -68.5501C1313.41 -90.0432 1320.44 -109.805 1325.3 -127.994L1324.59 -128Z" fill="white"/>
</mask>
<g mask="url(#mask29_182_39)">
<path d="M1217.21 -128H1510.87V977H1217.21V-128Z" fill="url(#paint29_linear_182_39)"/>
</g>
<mask id="mask30_182_39" style="mask-type:luminance" maskUnits="userSpaceOnUse" x="1209" y="-128" width="301" height="1106">
<path d="M1322.67 -128C1317.03 -109.436 1309.03 -89.3357 1298.21 -67.5737C1240.4 48.763 1207.13 128.321 1209.62 190.649C1212.11 253.025 1250.4 298.115 1335.73 345.462C1420.88 392.715 1465.96 441.553 1482.56 494.629C1499.15 547.706 1487.28 605.059 1458.52 669.313C1429.72 733.646 1415.85 778.975 1419.41 820.229C1422.96 861.484 1443.95 898.666 1484.86 946.668C1494.26 957.699 1502 967.749 1508.47 977.004H1509.27C1502.75 967.669 1494.95 957.526 1485.45 946.38C1444.61 898.453 1423.66 861.357 1420.12 820.195C1416.57 779.032 1430.42 733.752 1459.19 669.484C1487.99 605.138 1499.88 547.7 1483.25 494.507C1466.61 441.313 1421.45 392.368 1336.15 345.038C1251.02 297.797 1212.82 252.828 1210.33 190.641C1207.84 128.404 1241.1 48.8944 1298.88 -67.3808C1309.72 -89.2154 1317.75 -109.38 1323.39 -128H1322.67Z" fill="white"/>
</mask>
<g mask="url(#mask30_182_39)">
<path d="M1207.13 -128H1509.27V977H1207.13V-128Z" fill="url(#paint30_linear_182_39)"/>
</g>
<mask id="mask31_182_39" style="mask-type:luminance" maskUnits="userSpaceOnUse" x="1200" y="-129" width="309" height="1107">
<path d="M1320.8 -128C1314.37 -109.003 1305.38 -88.5227 1293.32 -66.4314C1230.14 49.3722 1197.04 129.163 1200.89 191.504C1204.74 253.896 1245.57 298.777 1330.25 344.732C1414.76 390.598 1462.84 436.658 1482.95 487.988C1503.05 539.317 1495.18 595.944 1467.78 662.933L1466.13 666.953C1412.44 798.169 1390.77 851.123 1479.15 944.78C1490.31 956.61 1499.56 967.268 1507.35 977.001H1508.17C1500.32 967.182 1491 956.423 1479.72 944.469C1391.54 851.028 1413.18 798.148 1466.8 667.111L1468.45 663.091C1495.89 596.003 1503.77 539.281 1483.62 487.83C1463.47 436.38 1415.3 390.233 1330.66 344.292C1246.17 298.445 1205.43 253.677 1201.59 191.481C1197.74 129.236 1230.82 49.5036 1293.97 -66.2239C1306.07 -88.3913 1315.08 -108.937 1321.52 -128.001L1320.8 -128Z" fill="white"/>
</mask>
<g mask="url(#mask31_182_39)">
<path d="M1197.04 -128H1508.17V977H1197.04V-128Z" fill="url(#paint31_linear_182_39)"/>
</g>
<mask id="mask32_182_39" style="mask-type:luminance" maskUnits="userSpaceOnUse" x="1191" y="-128" width="317" height="1105">
<path d="M1319.02 -128C1311.76 -108.562 1301.76 -87.6986 1288.43 -65.2856C1219.87 49.9838 1186.95 130.004 1192.16 192.358C1197.37 254.755 1240.74 299.44 1324.76 344.001C1408.63 388.481 1459.73 431.764 1483.33 481.348C1506.94 530.932 1503.08 586.831 1477.03 656.554C1468.55 679.258 1460.17 699.686 1452.51 718.375C1413.03 814.638 1392.43 864.861 1473.44 942.886C1486.57 955.536 1497.5 966.799 1506.76 976.996H1507.61C1498.27 966.709 1487.26 955.342 1473.99 942.557C1393.22 864.748 1413.77 814.618 1453.18 718.53C1460.84 699.837 1469.22 679.405 1477.71 656.694C1503.8 586.864 1507.66 530.857 1484 481.161C1460.33 431.466 1409.15 388.102 1325.17 343.559C1241.33 299.099 1198.06 254.529 1192.86 192.32C1187.66 130.065 1220.56 50.1177 1289.07 -65.0719C1302.45 -87.561 1312.48 -108.495 1319.75 -128H1319.02Z" fill="white"/>
</mask>
<g mask="url(#mask32_182_39)">
<path d="M1186.95 -128H1507.65V977H1186.95V-128Z" fill="url(#paint32_linear_182_39)"/>
</g>
<mask id="mask33_182_39" style="mask-type:luminance" maskUnits="userSpaceOnUse" x="1182" y="-128" width="326" height="1106">
<path d="M1317.32 -128C1309.23 -108.116 1298.19 -86.8659 1283.54 -64.1348C1209.61 50.6016 1176.87 130.852 1183.43 193.219C1190 255.627 1235.91 300.108 1319.28 343.278C1402.5 386.363 1456.61 426.871 1483.72 474.708C1510.84 522.546 1510.98 577.723 1486.29 650.173C1473.88 686.569 1459.98 717.224 1447.76 744.177C1411.23 824.719 1389.67 872.26 1467.73 941.002C1483.05 954.501 1495.86 966.357 1506.76 977.001H1507.65C1496.66 966.266 1483.75 954.3 1468.26 940.655C1390.46 872.141 1411.97 824.715 1448.42 744.35C1460.65 717.383 1474.56 686.713 1486.97 650.307C1511.7 577.734 1511.55 522.443 1484.37 474.497C1457.19 426.552 1403.01 385.98 1319.67 342.837C1236.49 299.763 1190.68 255.397 1184.13 193.177C1177.57 130.908 1210.3 50.7465 1284.17 -63.9002C1298.87 -86.7173 1309.94 -108.045 1318.06 -128H1317.32Z" fill="white"/>
</mask>
<g mask="url(#mask33_182_39)">
<path d="M1176.87 -128H1511.7V977H1176.87V-128Z" fill="url(#paint33_linear_182_39)"/>
</g>
<mask id="mask34_182_39" style="mask-type:luminance" maskUnits="userSpaceOnUse" x="1173" y="-128" width="339" height="1106">
<path d="M1315.7 -128C1306.75 -107.661 1294.64 -86.0233 1278.65 -62.995C1199.35 51.2059 1166.78 131.686 1174.71 194.063C1182.64 256.483 1231.09 300.763 1313.8 342.537C1396.39 384.242 1453.5 421.974 1484.12 468.064C1514.74 514.154 1518.88 568.61 1495.55 643.794C1481.19 690.056 1461.94 727.237 1445.42 759.165C1408.14 831.186 1384.67 876.533 1462.02 939.113C1479.79 953.483 1494.68 965.929 1507.4 977.001H1508.34C1495.52 965.836 1480.5 953.281 1462.53 938.747C1385.49 876.413 1408.9 831.187 1446.08 759.36C1462.61 727.413 1481.87 690.213 1496.24 643.911C1519.61 568.597 1515.45 514.021 1484.75 467.822C1454.06 421.623 1396.88 383.847 1314.2 342.092C1231.66 300.407 1183.32 256.243 1175.41 194.011C1167.5 131.742 1200.05 51.3545 1279.28 -62.7518C1295.32 -85.8649 1307.47 -107.58 1316.44 -128H1315.7Z" fill="white"/>
</mask>
<g mask="url(#mask34_182_39)">
<path d="M1166.78 -128H1519.6V977H1166.78V-128Z" fill="url(#paint34_linear_182_39)"/>
</g>
<mask id="mask35_182_39" style="mask-type:luminance" maskUnits="userSpaceOnUse" x="1164" y="-128" width="354" height="1106">
<path d="M1314.17 -128C1304.34 -107.201 1291.13 -85.1698 1273.76 -61.8491C1189.08 51.8187 1156.7 132.528 1165.98 194.92C1175.27 257.352 1226.25 301.427 1308.32 341.81C1390.26 382.13 1450.38 417.085 1484.51 461.434C1518.64 505.784 1526.78 559.499 1504.8 637.415C1489.55 691.483 1464.73 733.4 1443.78 768.787C1404.25 835.552 1378.46 879.119 1456.3 937.222C1476.78 952.511 1493.99 965.521 1508.73 977.001H1509.71C1494.86 965.427 1477.5 952.299 1456.79 936.84C1379.3 878.993 1405.02 835.564 1444.42 769.003C1465.39 733.599 1490.22 691.65 1505.49 637.526C1527.51 559.469 1519.33 505.608 1485.12 461.159C1450.91 416.71 1390.72 381.726 1308.7 341.365C1226.81 301.069 1175.93 257.106 1166.67 194.863C1157.41 132.581 1189.77 51.9759 1274.37 -61.5802C1291.81 -84.9966 1305.07 -107.116 1314.91 -127.995L1314.17 -128Z" fill="white"/>
</mask>
<g mask="url(#mask35_182_39)">
<path d="M1156.7 -128H1527.51V977H1156.7V-128Z" fill="url(#paint35_linear_182_39)"/>
</g>
<mask id="mask36_182_39" style="mask-type:luminance" maskUnits="userSpaceOnUse" x="1155" y="-128" width="370" height="1106">
<path d="M1312.71 -128C1302 -106.733 1287.66 -84.3064 1268.87 -60.6959C1178.82 52.4303 1146.61 133.367 1157.25 195.78C1167.89 258.224 1221.42 302.097 1302.84 341.086C1384.13 380.02 1447.27 412.198 1484.91 454.792C1522.54 497.387 1534.68 550.395 1514.06 631.036C1498.55 691.708 1467.86 737.386 1442.31 775.404C1399.84 838.626 1371.56 880.711 1450.59 935.333C1457.23 939.924 1464.57 944.986 1471.54 949.79C1486.17 959.878 1499.16 968.84 1510.82 977.002H1511.86C1500.04 968.733 1486.87 959.645 1472.01 949.395C1465.69 945.042 1459.08 940.484 1451.06 934.937C1372.43 880.589 1400.61 838.648 1442.94 775.643C1468.5 737.593 1499.22 691.881 1514.75 631.133C1535.41 550.332 1523.21 497.187 1485.48 454.488C1447.76 411.789 1384.57 379.595 1303.21 340.628C1221.96 301.722 1168.55 257.96 1157.94 195.703C1147.32 133.414 1179.51 52.5888 1269.46 -60.4306C1288.34 -84.1295 1302.72 -106.648 1313.46 -128H1312.71Z" fill="white"/>
</mask>
<g mask="url(#mask36_182_39)">
<path d="M1146.61 -128H1535.41V977H1146.61V-128Z" fill="url(#paint36_linear_182_39)"/>
</g>
<mask id="mask37_182_39" style="mask-type:luminance" maskUnits="userSpaceOnUse" x="1146" y="-128" width="387" height="1105">
<path d="M1311.33 -128C1299.72 -106.261 1284.22 -83.4343 1263.98 -59.5549C1168.56 53.042 1136.52 134.207 1148.52 196.631C1160.53 259.085 1216.59 302.756 1297.36 340.352L1311.1 346.738C1464.41 417.957 1560.74 462.698 1523.32 624.659C1507.95 691.178 1471.08 740.04 1440.8 780.187C1395.03 840.859 1364.24 881.666 1444.88 933.444C1464.92 946.308 1482.59 957.409 1498.32 967.295C1503.68 970.666 1508.83 973.9 1513.75 976.997H1514.85C1509.72 973.762 1504.36 970.39 1498.77 966.88C1483.01 956.981 1465.32 945.862 1445.33 933.029C1365.13 881.537 1395.81 840.879 1441.41 780.444C1471.72 740.26 1508.62 691.355 1524.01 624.741C1561.52 462.433 1465.03 417.613 1311.46 346.284L1297.72 339.898C1217.12 302.38 1161.18 258.819 1149.21 196.553C1137.24 134.256 1169.25 53.2115 1264.56 -59.2675C1284.89 -83.2489 1300.45 -106.169 1312.09 -128H1311.33Z" fill="white"/>
</mask>
<g mask="url(#mask37_182_39)">
<path d="M1136.52 -128H1561.52V977H1136.52V-128Z" fill="url(#paint37_linear_182_39)"/>
</g>
<mask id="mask38_182_39" style="mask-type:luminance" maskUnits="userSpaceOnUse" x="1136" y="-128" width="404" height="1106">
<path d="M1310.02 -128C1297.49 -105.77 1280.81 -82.5574 1259.09 -58.4078C1158.3 53.6536 1126.43 135.049 1139.79 197.485C1153.16 259.952 1211.76 303.418 1291.88 339.624C1305.37 345.722 1318.59 351.562 1331.43 357.235C1470.44 418.661 1565.38 460.613 1532.58 618.273C1517.64 690.148 1474.31 741.821 1439.15 783.761C1389.92 842.49 1356.64 882.185 1439.17 931.548C1466.84 948.099 1490.65 961.656 1511.31 973.428L1517.59 977.005H1518.76L1511.73 973.002C1491.1 961.249 1467.32 947.702 1439.6 931.132C1357.57 882.068 1390.71 842.537 1439.74 784.051C1474.94 742.069 1518.3 690.341 1533.27 618.36C1566.14 460.335 1471.03 418.308 1331.78 356.774C1318.96 351.11 1305.76 345.278 1292.24 339.163C1212.29 303.036 1153.81 259.677 1140.49 197.4C1127.16 135.095 1159 53.8255 1259.68 -58.1069C1281.48 -82.3585 1298.23 -105.68 1310.79 -128H1310.02Z" fill="white"/>
</mask>
<g mask="url(#mask38_182_39)">
<path d="M1126.43 -128H1566.14V977H1126.43V-128Z" fill="url(#paint38_linear_182_39)"/>
</g>
<mask id="mask39_182_39" style="mask-type:luminance" maskUnits="userSpaceOnUse" x="1127" y="-128" width="421" height="1106">
<path d="M1308.78 -128C1295.32 -105.279 1277.43 -81.6621 1254.2 -57.257C1148.04 54.2689 1116.35 135.892 1131.07 198.344C1145.79 260.82 1206.93 304.09 1286.4 338.897C1306.58 347.74 1326.21 355.837 1345.1 363.633C1475.38 417.392 1570.75 456.749 1541.84 611.897C1527.51 688.788 1477.47 743.02 1437.34 786.518C1384.57 843.716 1348.86 882.407 1433.46 929.659C1466.62 948.182 1494.91 962.789 1519.2 975.333L1522.44 977.005H1523.68L1519.59 974.892C1495.32 962.365 1467.07 947.766 1433.87 929.229C1349.83 882.286 1385.37 843.768 1437.91 786.825C1478.09 743.28 1528.18 688.99 1542.54 611.97C1571.51 456.452 1475.96 417.02 1345.43 363.16C1326.49 355.341 1306.8 347.219 1286.75 338.431C1207.44 303.692 1146.43 260.534 1131.76 198.246C1117.07 135.933 1148.73 54.447 1254.77 -56.9475C1278.11 -81.4594 1296.06 -105.183 1309.55 -128H1308.78Z" fill="white"/>
</mask>
<g mask="url(#mask39_182_39)">
<path d="M1116.35 -128H1571.51V977H1116.35V-128Z" fill="url(#paint39_linear_182_39)"/>
</g>
<mask id="mask40_182_39" style="mask-type:luminance" maskUnits="userSpaceOnUse" x="1118" y="-128" width="438" height="1106">
<path d="M1307.57 -128C1293.17 -104.78 1274.09 -80.7667 1249.31 -56.1135C1137.77 54.8781 1106.27 136.729 1122.34 199.194C1138.42 261.681 1202.1 304.743 1280.91 338.163C1306.01 348.804 1330.73 358.183 1354.42 367.182C1479.51 414.667 1576.65 451.545 1551.1 605.509C1537.54 687.183 1480.53 743.795 1435.34 788.676C1424.23 799.708 1413.83 810.03 1404.95 819.863C1368.86 859.831 1358.11 891.363 1427.74 927.76C1465.29 947.385 1497.29 962.409 1524.65 975.254L1528.37 977.001H1529.7L1525.02 974.802C1497.66 961.955 1465.65 946.929 1428.14 927.323C1359 891.181 1369.68 859.862 1405.53 820.163C1414.38 810.367 1424.78 800.038 1435.88 789C1481.14 744.069 1538.21 687.392 1551.79 605.577C1577.41 451.24 1480.07 414.283 1354.74 366.704C1331.02 357.701 1306.3 348.317 1281.25 337.697C1202.6 304.35 1139.06 261.392 1123.02 199.096C1106.99 136.773 1138.47 55.066 1249.87 -55.7856C1274.76 -80.5604 1293.91 -104.677 1308.34 -128H1307.57Z" fill="white"/>
</mask>
<g mask="url(#mask40_182_39)">
<path d="M1106.26 -128H1577.41V977H1106.26V-128Z" fill="url(#paint40_linear_182_39)"/>
</g>
<mask id="mask41_182_39" style="mask-type:luminance" maskUnits="userSpaceOnUse" x="1109" y="-128" width="456" height="1106">
<path d="M1306.42 -128C1291.07 -104.27 1270.77 -79.8554 1244.42 -54.9652C1127.51 55.491 1096.18 137.57 1113.61 200.049C1131.04 262.547 1197.26 305.408 1275.43 337.434C1304.24 349.238 1333.07 359.173 1360.74 368.718C1483.01 410.87 1582.94 445.322 1560.35 599.13C1547.68 685.411 1483.47 744.273 1433.15 790.401C1415.9 806.211 1400.28 820.528 1388.92 833.944C1360.81 867.133 1358.67 894.814 1422.03 925.867C1463.25 946.074 1498.58 961.198 1528.75 974.11L1535.5 977.001H1536.93L1529.09 973.645C1498.93 960.735 1463.61 945.616 1422.4 925.419C1359.53 894.599 1361.63 867.144 1389.51 834.232C1400.85 820.837 1416.45 806.535 1433.68 790.741C1484.07 744.559 1548.36 685.628 1561.05 599.188C1583.69 444.996 1483.55 410.472 1361.03 368.232C1333.37 358.692 1304.56 348.76 1275.77 336.965C1197.76 305.004 1131.68 262.249 1114.29 199.938C1096.9 137.607 1128.21 55.6801 1244.97 -54.6311C1271.44 -79.6417 1291.81 -104.164 1307.2 -128H1306.42Z" fill="white"/>
</mask>
<g mask="url(#mask41_182_39)">
<path d="M1096.17 -128H1583.69V977H1096.17V-128Z" fill="url(#paint41_linear_182_39)"/>
</g>
<mask id="mask42_182_39" style="mask-type:luminance" maskUnits="userSpaceOnUse" x="1099" y="-128" width="474" height="1106">
<path d="M1305.34 -128C1289.01 -103.753 1267.48 -78.9441 1239.53 -53.8181C1117.24 56.1038 1086.09 138.41 1104.88 200.906C1123.67 263.402 1192.43 306.07 1269.95 336.704C1301.57 349.197 1333.81 359.18 1364.89 368.794C1485.98 406.263 1589.5 438.298 1569.62 592.747C1557.93 683.51 1486.29 744.523 1430.78 791.791C1408.88 810.442 1389.49 826.957 1377.26 842.325C1354.08 871.466 1356.58 896.467 1416.32 923.973C1460.8 944.457 1499.22 959.49 1532.02 972.327C1536.09 973.917 1540.06 975.475 1543.95 977.001H1545.48C1541.2 975.321 1536.83 973.605 1532.35 971.854C1499.55 959.022 1461.15 943.994 1416.68 923.516C1357.42 896.228 1354.91 871.457 1377.86 842.602C1390.06 827.268 1409.43 810.773 1431.31 792.146C1486.87 744.822 1558.61 683.734 1570.31 592.798C1590.24 437.953 1486.5 405.849 1365.15 368.299C1334.09 358.686 1301.86 348.713 1270.27 336.23C1192.91 305.66 1124.3 263.106 1105.56 200.783C1086.82 138.461 1117.94 56.2979 1240.06 -53.473C1268.15 -78.7181 1289.76 -103.643 1306.12 -128H1305.34Z" fill="white"/>
</mask>
<g mask="url(#mask42_182_39)">
<path d="M1086.09 -128H1590.24V977H1086.09V-128Z" fill="url(#paint42_linear_182_39)"/>
</g>
<mask id="mask43_182_39" style="mask-type:luminance" maskUnits="userSpaceOnUse" x="1090" y="-128" width="492" height="1106">
<path d="M1304.32 -128C1287.02 -103.229 1264.23 -78.0132 1234.64 -52.6685C1106.98 56.7154 1076 139.25 1096.15 201.756C1116.31 264.261 1187.6 306.733 1264.47 335.975C1298.18 348.798 1333.32 358.443 1367.4 367.798C1488.49 401.042 1596.26 430.625 1578.87 586.366C1568.26 681.524 1488.96 744.604 1428.23 792.919C1402.33 813.522 1379.8 831.445 1367.37 848.05C1347.71 874.321 1353.28 897.241 1410.61 922.076C1458.08 942.643 1499.4 957.467 1534.72 970.146C1541.28 972.5 1547.64 974.788 1553.78 977.007H1555.41C1548.85 974.625 1542.05 972.177 1535.02 969.663C1499.7 956.994 1458.39 942.174 1410.95 921.621C1354.09 896.989 1348.53 874.302 1367.99 848.321C1380.37 831.776 1402.87 813.873 1428.74 793.299C1489.55 744.922 1568.94 681.766 1579.58 586.42C1597 430.264 1489 400.614 1367.63 367.297C1333.57 357.947 1298.46 348.307 1264.79 335.498C1188.08 306.317 1116.93 263.964 1096.84 201.627C1076.74 139.29 1107.68 56.9144 1235.16 -52.3123C1264.89 -77.7823 1287.76 -103.111 1305.11 -127.996L1304.32 -128Z" fill="white"/>
</mask>
<g mask="url(#mask43_182_39)">
<path d="M1076 -128H1597V977H1076V-128Z" fill="url(#paint43_linear_182_39)"/>
</g>
</g>
<defs>
<linearGradient id="paint0_linear_182_39" x1="-22.1723" y1="938.057" x2="62.524" y2="-130.552" gradientUnits="userSpaceOnUse">
<stop stop-color="#0131B8"/>
<stop offset="1" stop-color="#F5F5F5"/>
</linearGradient>
<linearGradient id="paint1_linear_182_39" x1="-15.2221" y1="938.608" x2="69.4752" y2="-130" gradientUnits="userSpaceOnUse">
<stop stop-color="#0131B8"/>
<stop offset="1" stop-color="#F5F5F5"/>
</linearGradient>
<linearGradient id="paint2_linear_182_39" x1="-8.08127" y1="939.173" x2="76.616" y2="-129.435" gradientUnits="userSpaceOnUse">
<stop stop-color="#0131B8"/>
<stop offset="1" stop-color="#F5F5F5"/>
</linearGradient>
<linearGradient id="paint3_linear_182_39" x1="-0.689826" y1="939.759" x2="84.0075" y2="-128.848" gradientUnits="userSpaceOnUse">
<stop stop-color="#0131B8"/>
<stop offset="1" stop-color="#F5F5F5"/>
</linearGradient>
<linearGradient id="paint4_linear_182_39" x1="7.03612" y1="940.372" x2="91.7334" y2="-128.237" gradientUnits="userSpaceOnUse">
<stop stop-color="#0131B8"/>
<stop offset="1" stop-color="#F5F5F5"/>
</linearGradient>
<linearGradient id="paint5_linear_182_39" x1="15.2102" y1="941.02" x2="99.9074" y2="-127.588" gradientUnits="userSpaceOnUse">
<stop stop-color="#0131B8"/>
<stop offset="1" stop-color="#F5F5F5"/>
</linearGradient>
<linearGradient id="paint6_linear_182_39" x1="23.9914" y1="941.716" x2="108.689" y2="-126.892" gradientUnits="userSpaceOnUse">
<stop stop-color="#0131B8"/>
<stop offset="1" stop-color="#F5F5F5"/>
</linearGradient>
<linearGradient id="paint7_linear_182_39" x1="6.281" y1="940.312" x2="90.9773" y2="-128.296" gradientUnits="userSpaceOnUse">
<stop stop-color="#0131B8"/>
<stop offset="1" stop-color="#F5F5F5"/>
</linearGradient>
<linearGradient id="paint8_linear_182_39" x1="12.0673" y1="940.77" x2="96.7636" y2="-127.839" gradientUnits="userSpaceOnUse">
<stop stop-color="#0131B8"/>
<stop offset="1" stop-color="#F5F5F5"/>
</linearGradient>
<linearGradient id="paint9_linear_182_39" x1="17.6058" y1="941.21" x2="102.303" y2="-127.398" gradientUnits="userSpaceOnUse">
<stop stop-color="#0131B8"/>
<stop offset="1" stop-color="#F5F5F5"/>
</linearGradient>
<linearGradient id="paint10_linear_182_39" x1="22.8529" y1="941.626" x2="107.549" y2="-126.983" gradientUnits="userSpaceOnUse">
<stop stop-color="#0131B8"/>
<stop offset="1" stop-color="#F5F5F5"/>
</linearGradient>
<linearGradient id="paint11_linear_182_39" x1="25.8426" y1="941.862" x2="110.54" y2="-126.747" gradientUnits="userSpaceOnUse">
<stop stop-color="#0131B8"/>
<stop offset="1" stop-color="#F5F5F5"/>
</linearGradient>
<linearGradient id="paint12_linear_182_39" x1="26.9234" y1="941.948" x2="111.62" y2="-126.661" gradientUnits="userSpaceOnUse">
<stop stop-color="#0131B8"/>
<stop offset="1" stop-color="#F5F5F5"/>
</linearGradient>
<linearGradient id="paint13_linear_182_39" x1="28.0008" y1="942.034" x2="112.698" y2="-126.575" gradientUnits="userSpaceOnUse">
<stop stop-color="#0131B8"/>
<stop offset="1" stop-color="#F5F5F5"/>
</linearGradient>
<linearGradient id="paint14_linear_182_39" x1="29.082" y1="942.119" x2="113.779" y2="-126.49" gradientUnits="userSpaceOnUse">
<stop stop-color="#0131B8"/>
<stop offset="1" stop-color="#F5F5F5"/>
</linearGradient>
<linearGradient id="paint15_linear_182_39" x1="21.1534" y1="941.491" x2="105.85" y2="-127.117" gradientUnits="userSpaceOnUse">
<stop stop-color="#0131B8"/>
<stop offset="1" stop-color="#F5F5F5"/>
</linearGradient>
<linearGradient id="paint16_linear_182_39" x1="23.858" y1="941.706" x2="108.555" y2="-126.904" gradientUnits="userSpaceOnUse">
<stop stop-color="#0131B8"/>
<stop offset="1" stop-color="#F5F5F5"/>
</linearGradient>
<linearGradient id="paint17_linear_182_39" x1="26.1905" y1="941.89" x2="110.888" y2="-126.719" gradientUnits="userSpaceOnUse">
<stop stop-color="#0131B8"/>
<stop offset="1" stop-color="#F5F5F5"/>
</linearGradient>
<linearGradient id="paint18_linear_182_39" x1="28.2638" y1="942.055" x2="112.961" y2="-126.553" gradientUnits="userSpaceOnUse">
<stop stop-color="#0131B8"/>
<stop offset="1" stop-color="#F5F5F5"/>
</linearGradient>
<linearGradient id="paint19_linear_182_39" x1="30.1496" y1="942.204" x2="114.847" y2="-126.404" gradientUnits="userSpaceOnUse">
<stop stop-color="#0131B8"/>
<stop offset="1" stop-color="#F5F5F5"/>
</linearGradient>
<linearGradient id="paint20_linear_182_39" x1="31.9002" y1="942.342" x2="116.597" y2="-126.267" gradientUnits="userSpaceOnUse">
<stop stop-color="#0131B8"/>
<stop offset="1" stop-color="#F5F5F5"/>
</linearGradient>
<linearGradient id="paint21_linear_182_39" x1="33.5468" y1="942.472" x2="118.244" y2="-126.137" gradientUnits="userSpaceOnUse">
<stop stop-color="#0131B8"/>
<stop offset="1" stop-color="#F5F5F5"/>
</linearGradient>
<linearGradient id="paint22_linear_182_39" x1="1458.17" y1="938.057" x2="1373.48" y2="-130.552" gradientUnits="userSpaceOnUse">
<stop stop-color="#0131B8"/>
<stop offset="1" stop-color="#F5F5F5"/>
</linearGradient>
<linearGradient id="paint23_linear_182_39" x1="1451.22" y1="938.608" x2="1366.52" y2="-130" gradientUnits="userSpaceOnUse">
<stop stop-color="#0131B8"/>
<stop offset="1" stop-color="#F5F5F5"/>
</linearGradient>
<linearGradient id="paint24_linear_182_39" x1="1444.08" y1="939.173" x2="1359.38" y2="-129.435" gradientUnits="userSpaceOnUse">
<stop stop-color="#0131B8"/>
<stop offset="1" stop-color="#F5F5F5"/>
</linearGradient>
<linearGradient id="paint25_linear_182_39" x1="1436.69" y1="939.759" x2="1351.99" y2="-128.848" gradientUnits="userSpaceOnUse">
<stop stop-color="#0131B8"/>
<stop offset="1" stop-color="#F5F5F5"/>
</linearGradient>
<linearGradient id="paint26_linear_182_39" x1="1428.96" y1="940.372" x2="1344.27" y2="-128.237" gradientUnits="userSpaceOnUse">
<stop stop-color="#0131B8"/>
<stop offset="1" stop-color="#F5F5F5"/>
</linearGradient>
<linearGradient id="paint27_linear_182_39" x1="1420.79" y1="941.02" x2="1336.09" y2="-127.588" gradientUnits="userSpaceOnUse">
<stop stop-color="#0131B8"/>
<stop offset="1" stop-color="#F5F5F5"/>
</linearGradient>
<linearGradient id="paint28_linear_182_39" x1="1412.01" y1="941.716" x2="1327.31" y2="-126.892" gradientUnits="userSpaceOnUse">
<stop stop-color="#0131B8"/>
<stop offset="1" stop-color="#F5F5F5"/>
</linearGradient>
<linearGradient id="paint29_linear_182_39" x1="1429.72" y1="940.312" x2="1345.02" y2="-128.296" gradientUnits="userSpaceOnUse">
<stop stop-color="#0131B8"/>
<stop offset="1" stop-color="#F5F5F5"/>
</linearGradient>
<linearGradient id="paint30_linear_182_39" x1="1423.93" y1="940.77" x2="1339.24" y2="-127.839" gradientUnits="userSpaceOnUse">
<stop stop-color="#0131B8"/>
<stop offset="1" stop-color="#F5F5F5"/>
</linearGradient>
<linearGradient id="paint31_linear_182_39" x1="1418.39" y1="941.21" x2="1333.7" y2="-127.398" gradientUnits="userSpaceOnUse">
<stop stop-color="#0131B8"/>
<stop offset="1" stop-color="#F5F5F5"/>
</linearGradient>
<linearGradient id="paint32_linear_182_39" x1="1413.15" y1="941.626" x2="1328.45" y2="-126.983" gradientUnits="userSpaceOnUse">
<stop stop-color="#0131B8"/>
<stop offset="1" stop-color="#F5F5F5"/>
</linearGradient>
<linearGradient id="paint33_linear_182_39" x1="1410.16" y1="941.862" x2="1325.46" y2="-126.747" gradientUnits="userSpaceOnUse">
<stop stop-color="#0131B8"/>
<stop offset="1" stop-color="#F5F5F5"/>
</linearGradient>
<linearGradient id="paint34_linear_182_39" x1="1409.08" y1="941.948" x2="1324.38" y2="-126.661" gradientUnits="userSpaceOnUse">
<stop stop-color="#0131B8"/>
<stop offset="1" stop-color="#F5F5F5"/>
</linearGradient>
<linearGradient id="paint35_linear_182_39" x1="1408" y1="942.034" x2="1323.3" y2="-126.575" gradientUnits="userSpaceOnUse">
<stop stop-color="#0131B8"/>
<stop offset="1" stop-color="#F5F5F5"/>
</linearGradient>
<linearGradient id="paint36_linear_182_39" x1="1406.92" y1="942.119" x2="1322.22" y2="-126.49" gradientUnits="userSpaceOnUse">
<stop stop-color="#0131B8"/>
<stop offset="1" stop-color="#F5F5F5"/>
</linearGradient>
<linearGradient id="paint37_linear_182_39" x1="1414.85" y1="941.491" x2="1330.15" y2="-127.117" gradientUnits="userSpaceOnUse">
<stop stop-color="#0131B8"/>
<stop offset="1" stop-color="#F5F5F5"/>
</linearGradient>
<linearGradient id="paint38_linear_182_39" x1="1412.14" y1="941.706" x2="1327.44" y2="-126.904" gradientUnits="userSpaceOnUse">
<stop stop-color="#0131B8"/>
<stop offset="1" stop-color="#F5F5F5"/>
</linearGradient>
<linearGradient id="paint39_linear_182_39" x1="1409.81" y1="941.89" x2="1325.11" y2="-126.719" gradientUnits="userSpaceOnUse">
<stop stop-color="#0131B8"/>
<stop offset="1" stop-color="#F5F5F5"/>
</linearGradient>
<linearGradient id="paint40_linear_182_39" x1="1407.74" y1="942.055" x2="1323.04" y2="-126.553" gradientUnits="userSpaceOnUse">
<stop stop-color="#0131B8"/>
<stop offset="1" stop-color="#F5F5F5"/>
</linearGradient>
<linearGradient id="paint41_linear_182_39" x1="1405.85" y1="942.204" x2="1321.15" y2="-126.404" gradientUnits="userSpaceOnUse">
<stop stop-color="#0131B8"/>
<stop offset="1" stop-color="#F5F5F5"/>
</linearGradient>
<linearGradient id="paint42_linear_182_39" x1="1404.1" y1="942.342" x2="1319.4" y2="-126.267" gradientUnits="userSpaceOnUse">
<stop stop-color="#0131B8"/>
<stop offset="1" stop-color="#F5F5F5"/>
</linearGradient>
<linearGradient id="paint43_linear_182_39" x1="1402.45" y1="942.472" x2="1317.76" y2="-126.137" gradientUnits="userSpaceOnUse">
<stop stop-color="#0131B8"/>
<stop offset="1" stop-color="#F5F5F5"/>
</linearGradient>
<clipPath id="clip0_182_39">
<rect width="521" height="1105" fill="white" transform="translate(-161 -128)"/>
</clipPath>
<clipPath id="clip1_182_39">
<rect width="521" height="1105" fill="white" transform="matrix(-1 0 0 1 1597 -128)"/>
</clipPath>
</defs>
</svg>
