<svg width="843" height="145" viewBox="0 0 843 145" fill="none" xmlns="http://www.w3.org/2000/svg">
<mask id="path-1-outside-1_128_12364" maskUnits="userSpaceOnUse" x="-1" y="-1" width="845" height="147" fill="black">
<rect fill="white" x="-1" y="-1" width="845" height="147"/>
<path d="M25.4808 72.475C25.8942 79.8117 28.2192 85.495 32.4558 89.525C36.6925 93.4517 42.0658 95.415 48.5758 95.415C54.1558 95.415 58.7542 94.175 62.3708 91.695C65.9875 89.215 67.7958 85.805 67.7958 81.465C67.7958 77.2283 66.0392 74.1283 62.5258 72.165C59.0125 70.2017 53.1742 68.1867 45.0108 66.12C41.9108 65.3967 39.8958 64.9317 38.9658 64.725C38.0358 64.415 36.1242 63.8983 33.2308 63.175C30.3375 62.3483 28.3225 61.7283 27.1858 61.315C26.1525 60.9017 24.4475 60.23 22.0708 59.3C19.6942 58.37 17.9892 57.5433 16.9558 56.82C16.0258 55.9933 14.6825 54.96 12.9258 53.72C11.1692 52.48 9.87749 51.24 9.05082 50C8.32749 48.6567 7.50082 47.1583 6.57082 45.505C5.64082 43.8517 4.96915 42.095 4.55582 40.235C4.24582 38.2717 4.09082 36.1533 4.09082 33.88C4.09082 23.7533 7.75915 15.8483 15.0958 10.165C22.4325 4.37833 32.6625 1.48499 45.7858 1.48499C59.0125 1.48499 69.5008 4.58499 77.2508 10.785C85.1042 16.8817 89.4958 26.0783 90.4258 38.375H66.4008C65.2642 25.7683 58.5475 19.465 46.2508 19.465C40.6708 19.465 36.2275 20.6533 32.9208 23.03C29.6142 25.4067 27.9608 28.6617 27.9608 32.795C27.9608 36.4117 29.6142 39.2533 32.9208 41.32C36.2275 43.3867 42.6858 45.7117 52.2958 48.295C53.0192 48.5017 54.6208 48.915 57.1008 49.535C59.6842 50.0517 61.4925 50.465 62.5258 50.775C63.5592 51.085 65.2642 51.6017 67.6408 52.325C70.1208 53.0483 71.9292 53.6683 73.0658 54.185C74.3058 54.7017 75.9075 55.4767 77.8708 56.51C79.9375 57.5433 81.4875 58.5767 82.5208 59.61C83.6575 60.54 84.8975 61.78 86.2408 63.33C87.6875 64.7767 88.7208 66.3267 89.3408 67.98C90.0642 69.53 90.6842 71.39 91.2008 73.56C91.7175 75.6267 91.9758 77.8483 91.9758 80.225C91.9758 90.2483 88.0492 98.36 80.1958 104.56C72.4458 110.657 61.8542 113.705 48.4208 113.705C34.3675 113.705 23.0008 110.14 14.3208 103.01C5.74415 95.7767 1.24915 85.5983 0.835821 72.475H25.4808ZM185.176 80.69C184.349 90.8167 180.474 98.9283 173.551 105.025C166.627 111.018 157.689 114.015 146.736 114.015C134.336 114.015 124.416 110.192 116.976 102.545C109.639 94.8983 105.971 84.875 105.971 72.475C105.971 60.1783 109.639 50.2583 116.976 42.715C124.416 35.0683 134.336 31.245 146.736 31.245C157.379 31.245 166.111 34.1383 172.931 39.925C179.854 45.6083 183.832 53.3583 184.866 63.175H163.321C161.564 53.255 155.932 48.295 146.426 48.295C140.432 48.295 135.679 50.5167 132.166 54.96C128.756 59.3 127.051 65.1383 127.051 72.475C127.051 79.8117 128.756 85.7017 132.166 90.145C135.679 94.485 140.432 96.655 146.426 96.655C156.346 96.655 162.132 91.3333 163.786 80.69H185.176ZM247.361 31.245C256.558 31.245 263.688 34.19 268.751 40.08C273.918 45.97 276.501 53.8233 276.501 63.64V112H254.646V68.29C254.646 62.8133 253.354 58.4733 250.771 55.27C248.291 52.0667 244.933 50.465 240.696 50.465C235.116 50.465 230.621 52.3767 227.211 56.2C223.801 59.92 222.096 65.19 222.096 72.01V112H200.241V3.49999H222.096V47.83C226.953 36.7733 235.374 31.245 247.361 31.245ZM332.301 114.015C320.004 114.015 310.188 110.243 302.851 102.7C295.618 95.0533 292.001 85.0817 292.001 72.785C292.001 60.385 295.669 50.3617 303.006 42.715C310.343 35.0683 320.056 31.245 332.146 31.245C344.546 31.245 354.053 35.12 360.666 42.87C367.279 50.5167 370.586 60.7983 370.586 73.715V77.28H313.391V77.745C313.804 83.7383 315.716 88.5433 319.126 92.16C322.639 95.7767 326.979 97.585 332.146 97.585C340.413 97.585 345.889 93.9167 348.576 86.58H370.121C367.744 95.4667 363.249 102.287 356.636 107.04C350.023 111.69 341.911 114.015 332.301 114.015ZM314.011 64.725H349.816C349.609 59.3517 347.956 55.0117 344.856 51.705C341.756 48.3983 337.571 46.745 332.301 46.745C327.238 46.745 323.053 48.3467 319.746 51.55C316.543 54.7533 314.631 59.145 314.011 64.725ZM418.187 114.015C407.027 114.015 398.14 110.192 391.527 102.545C385.017 94.795 381.762 84.6683 381.762 72.165C381.762 60.075 385.068 50.2583 391.682 42.715C398.295 35.0683 407.13 31.245 418.187 31.245C423.663 31.245 428.778 32.485 433.532 34.965C438.285 37.3417 441.592 40.4933 443.452 44.42H443.607V3.49999H465.462V112H443.607V99.91H443.452C441.488 104.147 438.13 107.557 433.377 110.14C428.623 112.723 423.56 114.015 418.187 114.015ZM423.147 48.915C417.257 48.915 412.452 51.085 408.732 55.425C405.115 59.6617 403.307 65.2417 403.307 72.165C403.307 79.5017 405.115 85.3917 408.732 89.835C412.452 94.175 417.257 96.345 423.147 96.345C429.14 96.345 433.997 94.2267 437.717 89.99C441.437 85.7533 443.297 80.07 443.297 72.94V72.01C443.297 65.0867 441.437 59.5067 437.717 55.27C433.997 51.0333 429.14 48.915 423.147 48.915ZM561.5 33.26V112H539.645V98.515C534.788 108.642 526.573 113.705 515 113.705C505.907 113.705 498.673 110.76 493.3 104.87C487.927 98.98 485.24 90.8167 485.24 80.38V33.26H507.095V76.97C507.095 82.4467 508.335 86.7867 510.815 89.99C513.295 93.1933 516.705 94.795 521.045 94.795C526.625 94.795 531.12 92.935 534.53 89.215C537.94 85.3917 539.645 80.07 539.645 73.25V33.26H561.5ZM582.897 3.49999H604.752V112H582.897V3.49999ZM623.863 21.015V0.709992H650.368V21.015H623.863ZM626.188 112V33.26H648.043V112H626.188ZM716.599 31.245C725.796 31.245 732.926 34.19 737.989 40.08C743.156 45.97 745.739 53.8233 745.739 63.64V112H723.884V68.29C723.884 62.8133 722.593 58.4733 720.009 55.27C717.529 52.0667 714.171 50.465 709.934 50.465C704.354 50.465 699.859 52.3767 696.449 56.2C693.039 59.92 691.334 65.19 691.334 72.01V112H669.479V33.26H691.334V47.83C696.191 36.7733 704.613 31.245 716.599 31.245ZM820.449 33.26H842.304V111.535C842.304 121.352 838.584 129.308 831.144 135.405C823.704 141.502 814.094 144.55 802.314 144.55C790.948 144.55 781.596 141.915 774.259 136.645C766.923 131.375 762.738 123.987 761.704 114.48H784.334C785.161 118.613 787.176 121.868 790.379 124.245C793.583 126.622 797.664 127.81 802.624 127.81C807.791 127.81 812.028 126.415 815.334 123.625C818.744 120.938 820.449 117.322 820.449 112.775V98.515H820.294C818.331 101.718 815.283 104.405 811.149 106.575C807.016 108.642 802.314 109.675 797.044 109.675C786.091 109.675 777.256 106.058 770.539 98.825C763.823 91.4883 760.464 82.0333 760.464 70.46C760.464 58.7833 763.823 49.3283 770.539 42.095C777.256 34.8617 786.039 31.245 796.889 31.245C802.159 31.245 806.809 32.3817 810.839 34.655C814.973 36.825 818.124 39.615 820.294 43.025H820.449V33.26ZM801.849 93.4C807.636 93.4 812.338 91.2817 815.954 87.045C819.571 82.705 821.431 77.125 821.534 70.305V69.375C821.534 63.175 819.674 58.1117 815.954 54.185C812.338 50.2583 807.636 48.295 801.849 48.295C795.959 48.295 791.206 50.3617 787.589 54.495C783.973 58.525 782.164 63.795 782.164 70.305C782.164 77.0217 783.973 82.55 787.589 86.89C791.206 91.23 795.959 93.4 801.849 93.4Z"/>
</mask>
<path d="M25.4808 72.475L26.4792 72.4187L26.4261 71.475H25.4808V72.475ZM32.4558 89.525L31.7666 90.2496L31.7761 90.2584L32.4558 89.525ZM62.3708 91.695L62.9364 92.5197L62.3708 91.695ZM62.5258 72.165L62.038 73.0379L62.5258 72.165ZM45.0108 66.12L45.2562 65.1506L45.2472 65.1483L45.2381 65.1462L45.0108 66.12ZM38.9658 64.725L38.6496 65.6737L38.6985 65.69L38.7489 65.7012L38.9658 64.725ZM33.2308 63.175L32.9561 64.1365L32.9721 64.1411L32.9883 64.1451L33.2308 63.175ZM27.1858 61.315L26.8144 62.2435L26.8292 62.2494L26.8441 62.2548L27.1858 61.315ZM22.0708 59.3L21.7064 60.2312H21.7064L22.0708 59.3ZM16.9558 56.82L16.2915 57.5674L16.3348 57.606L16.3824 57.6392L16.9558 56.82ZM12.9258 53.72L12.3491 54.537L12.9258 53.72ZM9.05082 50L8.17035 50.4741L8.19266 50.5155L8.21877 50.5547L9.05082 50ZM6.57082 45.505L7.4424 45.0147L6.57082 45.505ZM4.55582 40.235L3.56806 40.391L3.5729 40.4216L3.57963 40.4519L4.55582 40.235ZM15.0958 10.165L15.7082 10.9556L15.7151 10.9502L15.0958 10.165ZM77.2508 10.785L76.6261 11.5659L76.6318 11.5704L76.6376 11.5749L77.2508 10.785ZM90.4258 38.375V39.375H91.5043L91.423 38.2996L90.4258 38.375ZM66.4008 38.375L65.4049 38.4648L65.4869 39.375H66.4008V38.375ZM32.9208 23.03L32.3372 22.218L32.9208 23.03ZM32.9208 41.32L33.4508 40.472L32.9208 41.32ZM52.2958 48.295L52.5705 47.3335L52.563 47.3313L52.5554 47.3293L52.2958 48.295ZM57.1008 49.535L56.8583 50.5051L56.8814 50.5109L56.9047 50.5156L57.1008 49.535ZM62.5258 50.775L62.2385 51.7328H62.2385L62.5258 50.775ZM67.6408 52.325L67.3496 53.2817L67.3608 53.285L67.6408 52.325ZM73.0658 54.185L72.652 55.0954L72.6665 55.102L72.6812 55.1081L73.0658 54.185ZM77.8708 56.51L77.4051 57.3949L77.4143 57.3998L77.4236 57.4044L77.8708 56.51ZM82.5208 59.61L81.8137 60.3171L81.849 60.3524L81.8876 60.3839L82.5208 59.61ZM86.2408 63.33L85.4851 63.9849L85.5085 64.0119L85.5337 64.0371L86.2408 63.33ZM89.3408 67.98L88.4045 68.3311L88.4182 68.3676L88.4346 68.4029L89.3408 67.98ZM91.2008 73.56L90.228 73.7916L90.2307 73.8025L91.2008 73.56ZM80.1958 104.56L80.8141 105.346L80.8155 105.345L80.1958 104.56ZM14.3208 103.01L13.6761 103.774L13.6861 103.783L14.3208 103.01ZM0.83582 72.475V71.475H-0.196171L-0.163684 72.5065L0.83582 72.475ZM24.4824 72.5312C24.9062 80.0538 27.3015 86.0023 31.7666 90.2496L33.145 88.8004C29.1368 84.9877 26.8821 79.5695 26.4792 72.4187L24.4824 72.5312ZM31.7761 90.2584C36.2215 94.3786 41.8483 96.415 48.5758 96.415V94.415C42.2834 94.415 37.1635 92.5248 33.1356 88.7916L31.7761 90.2584ZM48.5758 96.415C54.3028 96.415 59.113 95.1414 62.9364 92.5197L61.8053 90.8703C58.3953 93.2085 54.0089 94.415 48.5758 94.415V96.415ZM62.9364 92.5197C66.8215 89.8556 68.7958 86.1388 68.7958 81.465H66.7958C66.7958 85.4712 65.1534 88.5744 61.8053 90.8703L62.9364 92.5197ZM68.7958 81.465C68.7958 76.8896 66.8633 73.4433 63.0136 71.2921L62.038 73.0379C65.215 74.8133 66.7958 77.567 66.7958 81.465H68.7958ZM63.0136 71.2921C59.3792 69.261 53.433 67.2207 45.2562 65.1506L44.7654 67.0894C52.9153 69.1527 58.6458 71.1423 62.038 73.0379L63.0136 71.2921ZM45.2381 65.1462C42.1393 64.4231 40.1189 63.9568 39.1828 63.7488L38.7489 65.7012C39.6727 65.9065 41.6823 66.3702 44.7836 67.0938L45.2381 65.1462ZM39.2821 63.7763C38.3094 63.4521 36.3601 62.9265 33.4734 62.2049L32.9883 64.1451C35.8882 64.8701 37.7622 65.3779 38.6496 65.6737L39.2821 63.7763ZM33.5055 62.2135C30.6114 61.3866 28.6273 60.7751 27.5276 60.3752L26.8441 62.2548C28.0177 62.6815 30.0636 63.3101 32.9561 64.1365L33.5055 62.2135ZM27.5572 60.3865C26.5201 59.9717 24.812 59.2988 22.4352 58.3688L21.7064 60.2312C24.083 61.1612 25.7849 61.8317 26.8144 62.2435L27.5572 60.3865ZM22.4352 58.3688C20.0734 57.4446 18.4607 56.6528 17.5293 56.0008L16.3824 57.6392C17.5176 58.4339 19.3149 59.2954 21.7064 60.2312L22.4352 58.3688ZM17.6202 56.0726C16.6493 55.2096 15.2712 54.1515 13.5025 52.903L12.3491 54.537C14.0938 55.7685 15.4023 56.777 16.2915 57.5674L17.6202 56.0726ZM13.5025 52.903C11.8056 51.7052 10.6182 50.5483 9.88287 49.4453L8.21877 50.5547C9.13677 51.9317 10.5327 53.2548 12.3491 54.537L13.5025 52.903ZM9.93129 49.5259C9.20444 48.176 8.37472 46.6722 7.4424 45.0147L5.69925 45.9953C6.62692 47.6445 7.45053 49.1373 8.17035 50.4741L9.93129 49.5259ZM7.4424 45.0147C6.5607 43.4473 5.92416 41.7828 5.53201 40.0181L3.57963 40.4519C4.01415 42.4072 4.72094 44.2561 5.69925 45.9953L7.4424 45.0147ZM5.54358 40.079C5.24279 38.174 5.09082 36.1084 5.09082 33.88H3.09082C3.09082 36.1983 3.24885 38.3693 3.56806 40.391L5.54358 40.079ZM5.09082 33.88C5.09082 24.0302 8.64059 16.4305 15.7082 10.9556L14.4834 9.37445C6.87771 15.2662 3.09082 23.4765 3.09082 33.88H5.09082ZM15.7151 10.9502C22.8162 5.34928 32.7981 2.48499 45.7858 2.48499V0.484991C32.5269 0.484991 22.0488 3.40737 14.4765 9.37983L15.7151 10.9502ZM45.7858 2.48499C58.8611 2.48499 69.1046 5.54867 76.6261 11.5659L77.8755 10.0041C69.897 3.62131 59.1639 0.484991 45.7858 0.484991V2.48499ZM76.6376 11.5749C84.2159 17.4581 88.5145 26.3626 89.4287 38.4504L91.423 38.2996C90.4772 25.7941 85.9924 16.3052 77.8641 9.99508L76.6376 11.5749ZM90.4258 37.375H66.4008V39.375H90.4258V37.375ZM67.3968 38.2852C66.8147 31.8295 64.7896 26.8366 61.1951 23.4633C57.5964 20.086 52.5663 18.465 46.2508 18.465V20.465C52.232 20.465 56.7086 21.9956 59.8265 24.9217C62.9487 27.8518 64.8503 32.3138 65.4049 38.4648L67.3968 38.2852ZM46.2508 18.465C40.5373 18.465 35.8666 19.6812 32.3372 22.218L33.5045 23.842C36.5884 21.6255 40.8044 20.465 46.2508 20.465V18.465ZM32.3372 22.218C28.7645 24.7859 26.9608 28.3455 26.9608 32.795H28.9608C28.9608 28.9778 30.4638 26.0275 33.5045 23.842L32.3372 22.218ZM26.9608 32.795C26.9608 36.7876 28.8192 39.9357 32.3908 42.168L33.4508 40.472C30.4091 38.5709 28.9608 36.0357 28.9608 32.795H26.9608ZM32.3908 42.168C35.8394 44.3234 42.4339 46.6794 52.0362 49.2607L52.5554 47.3293C42.9378 44.7439 36.6156 42.45 33.4508 40.472L32.3908 42.168ZM52.0211 49.2565C52.7636 49.4687 54.3825 49.8862 56.8583 50.5051L57.3434 48.5648C54.8592 47.9438 53.2747 47.5347 52.5705 47.3335L52.0211 49.2565ZM56.9047 50.5156C59.4885 51.0323 61.2551 51.4378 62.2385 51.7328L62.8132 49.8172C61.7299 49.4922 59.8798 49.071 57.2969 48.5544L56.9047 50.5156ZM62.2385 51.7328C63.2697 52.0422 64.9731 52.5584 67.3497 53.2817L67.932 51.3683C65.5552 50.645 63.8486 50.1278 62.8132 49.8172L62.2385 51.7328ZM67.3608 53.285C69.8326 54.0059 71.5837 54.6098 72.652 55.0954L73.4796 53.2746C72.2746 52.7269 70.409 52.0907 67.9208 51.365L67.3608 53.285ZM72.6812 55.1081C73.8817 55.6083 75.4536 56.3678 77.4051 57.3949L78.3366 55.6251C76.3614 54.5855 74.73 53.7951 73.4504 53.2619L72.6812 55.1081ZM77.4236 57.4044C79.4432 58.4142 80.8873 59.3907 81.8137 60.3171L83.2279 58.9029C82.0876 57.7626 80.4318 56.6724 78.318 55.6156L77.4236 57.4044ZM81.8876 60.3839C82.9666 61.2668 84.1657 62.4625 85.4851 63.9849L86.9965 62.6751C85.6293 61.0975 84.3483 59.8132 83.1541 58.836L81.8876 60.3839ZM85.5337 64.0371C86.8954 65.3988 87.842 66.831 88.4045 68.3311L90.2772 67.6289C89.5997 65.8223 88.4796 64.1546 86.9479 62.6229L85.5337 64.0371ZM88.4346 68.4029C89.1222 69.8763 89.7226 71.6688 90.228 73.7916L92.1736 73.3284C91.6457 71.1112 91.0061 69.1837 90.247 67.5571L88.4346 68.4029ZM90.2307 73.8025C90.7254 75.7813 90.9758 77.9208 90.9758 80.225H92.9758C92.9758 77.7759 92.7096 75.472 92.171 73.3175L90.2307 73.8025ZM90.9758 80.225C90.9758 89.9429 87.1888 97.7651 79.5762 103.775L80.8155 105.345C88.9095 98.9548 92.9758 90.5537 92.9758 80.225H90.9758ZM79.5775 103.774C72.0581 109.689 61.7104 112.705 48.4208 112.705V114.705C61.9979 114.705 72.8335 111.624 80.8141 105.346L79.5775 103.774ZM48.4208 112.705C34.5393 112.705 23.4154 109.186 14.9556 102.237L13.6861 103.783C22.5862 111.094 34.1956 114.705 48.4208 114.705V112.705ZM14.9655 102.246C6.64322 95.2268 2.2414 85.3363 1.83533 72.4435L-0.163684 72.5065C0.256912 85.8604 4.84509 96.3266 13.6761 103.774L14.9655 102.246ZM0.83582 73.475H25.4808V71.475H0.83582V73.475ZM185.176 80.69L186.172 80.7714L186.261 79.69H185.176V80.69ZM173.551 105.025L174.205 105.781L174.212 105.775L173.551 105.025ZM116.976 102.545L116.254 103.237L116.259 103.242L116.976 102.545ZM116.976 42.715L116.259 42.0176L116.259 42.0178L116.976 42.715ZM172.931 39.925L172.284 40.6875L172.29 40.6928L172.296 40.6979L172.931 39.925ZM184.866 63.175V64.175H185.976L185.86 63.0703L184.866 63.175ZM163.321 63.175L162.336 63.3494L162.482 64.175H163.321V63.175ZM132.166 54.96L131.381 54.3398L131.379 54.3422L132.166 54.96ZM132.166 90.145L131.372 90.7538L131.38 90.7641L131.388 90.7742L132.166 90.145ZM163.786 80.69V79.69H162.929L162.797 80.5365L163.786 80.69ZM184.179 80.6086C183.371 90.5058 179.598 98.3671 172.89 104.275L174.212 105.775C181.35 99.4896 185.327 91.1276 186.172 80.7714L184.179 80.6086ZM172.896 104.269C166.189 110.075 157.498 113.015 146.736 113.015V115.015C157.88 115.015 167.066 111.961 174.205 105.781L172.896 104.269ZM146.736 113.015C134.558 113.015 124.913 109.269 117.692 101.848L116.259 103.242C123.918 111.114 134.113 115.015 146.736 115.015V113.015ZM117.697 101.853C110.569 94.4236 106.971 84.664 106.971 72.475H104.971C104.971 85.086 108.709 95.3731 116.254 103.237L117.697 101.853ZM106.971 72.475C106.971 60.3916 110.568 50.7376 117.692 43.4122L116.259 42.0178C108.71 49.7791 104.971 59.9651 104.971 72.475H106.971ZM117.692 43.4124C124.913 35.9908 134.558 32.245 146.736 32.245V30.245C134.113 30.245 123.918 34.1459 116.259 42.0176L117.692 43.4124ZM146.736 32.245C157.189 32.245 165.677 35.0821 172.284 40.6875L173.578 39.1625C166.544 33.1945 157.569 30.245 146.736 30.245V32.245ZM172.296 40.6979C178.995 46.1967 182.862 53.6952 183.871 63.2797L185.86 63.0703C184.802 53.0215 180.713 45.0199 173.565 39.1521L172.296 40.6979ZM184.866 62.175H163.321V64.175H184.866V62.175ZM164.305 63.0006C163.401 57.8938 161.476 53.9386 158.44 51.2646C155.397 48.5844 151.355 47.295 146.426 47.295V49.295C151.003 49.295 154.53 50.4856 157.118 52.7654C159.714 55.0514 161.484 58.5362 162.336 63.3494L164.305 63.0006ZM146.426 47.295C140.147 47.295 135.097 49.6409 131.381 54.3398L132.95 55.5802C136.261 51.3924 140.718 49.295 146.426 49.295V47.295ZM131.379 54.3422C127.791 58.9087 126.051 64.988 126.051 72.475H128.051C128.051 65.2886 129.72 59.6913 132.952 55.5778L131.379 54.3422ZM126.051 72.475C126.051 79.9635 127.792 86.0884 131.372 90.7538L132.959 89.5362C129.719 85.3149 128.051 79.6599 128.051 72.475H126.051ZM131.388 90.7742C135.107 95.3678 140.156 97.655 146.426 97.655V95.655C140.709 95.655 136.251 93.6022 132.943 89.5158L131.388 90.7742ZM146.426 97.655C151.568 97.655 155.76 96.2715 158.883 93.3998C161.995 90.5376 163.925 86.3069 164.774 80.8435L162.797 80.5365C161.993 85.7164 160.203 89.4683 157.529 91.9277C154.865 94.3776 151.203 95.655 146.426 95.655V97.655ZM163.786 81.69H185.176V79.69H163.786V81.69ZM268.751 40.08L267.993 40.7319L267.999 40.7394L268.751 40.08ZM276.501 112V113H277.501V112H276.501ZM254.646 112H253.646V113H254.646V112ZM250.771 55.27L249.98 55.8822L249.986 55.89L249.992 55.8978L250.771 55.27ZM227.211 56.2L227.948 56.8758L227.957 56.8656L227.211 56.2ZM222.096 112V113H223.096V112H222.096ZM200.241 112H199.241V113H200.241V112ZM200.241 3.49999V2.49999H199.241V3.49999H200.241ZM222.096 3.49999H223.096V2.49999H222.096V3.49999ZM222.096 47.83H221.096L223.011 48.2322L222.096 47.83ZM247.361 32.245C256.325 32.245 263.155 35.1041 267.993 40.7319L269.509 39.4281C264.22 33.2759 256.79 30.245 247.361 30.245V32.245ZM267.999 40.7394C272.968 46.4043 275.501 54.0024 275.501 63.64H277.501C277.501 53.6442 274.867 45.5357 269.503 39.4206L267.999 40.7394ZM275.501 63.64V112H277.501V63.64H275.501ZM276.501 111H254.646V113H276.501V111ZM255.646 112V68.29H253.646V112H255.646ZM255.646 68.29C255.646 62.6607 254.317 58.0746 251.549 54.6422L249.992 55.8978C252.391 58.8721 253.646 62.966 253.646 68.29H255.646ZM251.562 54.6578C248.882 51.1971 245.225 49.465 240.696 49.465V51.465C244.64 51.465 247.699 52.9362 249.98 55.8822L251.562 54.6578ZM240.696 49.465C234.859 49.465 230.083 51.4779 226.465 55.5344L227.957 56.8656C231.159 53.2754 235.372 51.465 240.696 51.465V49.465ZM226.474 55.5243C222.843 59.4853 221.096 65.029 221.096 72.01H223.096C223.096 65.351 224.759 60.3547 227.948 56.8757L226.474 55.5243ZM221.096 72.01V112H223.096V72.01H221.096ZM222.096 111H200.241V113H222.096V111ZM201.241 112V3.49999H199.241V112H201.241ZM200.241 4.49999H222.096V2.49999H200.241V4.49999ZM221.096 3.49999V47.83H223.096V3.49999H221.096ZM223.011 48.2322C225.378 42.8452 228.584 38.8658 232.603 36.2272C236.622 33.589 241.525 32.245 247.361 32.245V30.245C241.21 30.245 235.909 31.6652 231.506 34.5553C227.104 37.445 223.671 41.7581 221.18 47.4278L223.011 48.2322ZM302.851 102.7L302.124 103.387L302.134 103.397L302.851 102.7ZM303.006 42.715L303.727 43.4073L303.006 42.715ZM360.666 42.87L359.905 43.5191L359.91 43.5241L360.666 42.87ZM370.586 77.28V78.28H371.586V77.28H370.586ZM313.391 77.28V76.28H312.391V77.28H313.391ZM313.391 77.745H312.391V77.7794L312.393 77.8138L313.391 77.745ZM319.126 92.16L318.398 92.846L318.403 92.8514L318.409 92.8568L319.126 92.16ZM348.576 86.58V85.58H347.877L347.637 86.2361L348.576 86.58ZM370.121 86.58L371.087 86.8384L371.423 85.58H370.121V86.58ZM356.636 107.04L357.211 107.858L357.22 107.852L356.636 107.04ZM314.011 64.725L313.017 64.6146L312.894 65.725H314.011V64.725ZM349.816 64.725V65.725H350.855L350.815 64.6866L349.816 64.725ZM319.746 51.55L319.05 50.8318L319.044 50.8373L319.039 50.8429L319.746 51.55ZM332.301 113.015C320.225 113.015 310.684 109.32 303.568 102.003L302.134 103.397C309.691 111.167 319.784 115.015 332.301 115.015V113.015ZM303.577 102.013C296.549 94.5828 293.001 84.8721 293.001 72.785H291.001C291.001 85.2913 294.686 95.5239 302.124 103.387L303.577 102.013ZM293.001 72.785C293.001 60.596 296.6 50.8364 303.727 43.4073L302.284 42.0227C294.739 49.8869 291.001 60.174 291.001 72.785H293.001ZM303.727 43.4073C310.848 35.9856 320.286 32.245 332.146 32.245V30.245C319.826 30.245 309.837 34.1511 302.284 42.0227L303.727 43.4073ZM332.146 32.245C344.323 32.245 353.523 36.0397 359.905 43.5191L361.427 42.2209C354.582 34.2003 344.769 30.245 332.146 30.245V32.245ZM359.91 43.5241C366.326 50.9433 369.586 60.9701 369.586 73.715H371.586C371.586 60.6266 368.232 50.0901 361.422 42.2158L359.91 43.5241ZM369.586 73.715V77.28H371.586V73.715H369.586ZM370.586 76.28H313.391V78.28H370.586V76.28ZM312.391 77.28V77.745H314.391V77.28H312.391ZM312.393 77.8138C312.819 83.988 314.798 89.0279 318.398 92.846L319.853 91.474C316.633 88.0588 314.789 83.4887 314.389 77.6762L312.393 77.8138ZM318.409 92.8568C322.115 96.6726 326.716 98.585 332.146 98.585V96.585C327.242 96.585 323.163 94.8807 319.843 91.4632L318.409 92.8568ZM332.146 98.585C336.427 98.585 340.07 97.6341 343.01 95.6646C345.955 93.692 348.113 90.753 349.515 86.9239L347.637 86.2361C346.352 89.7436 344.429 92.3071 341.897 94.0029C339.361 95.7017 336.131 96.585 332.146 96.585V98.585ZM348.576 87.58H370.121V85.58H348.576V87.58ZM369.155 86.3216C366.83 95.0157 362.454 101.627 356.052 106.228L357.22 107.852C364.045 102.946 368.659 95.9176 371.087 86.8384L369.155 86.3216ZM356.061 106.222C349.646 110.733 341.745 113.015 332.301 113.015V115.015C342.077 115.015 350.399 112.647 357.211 107.858L356.061 106.222ZM314.011 65.725H349.816V63.725H314.011V65.725ZM350.815 64.6866C350.601 59.1198 348.88 54.535 345.585 51.0211L344.126 52.3889C347.032 55.4883 348.617 59.5835 348.817 64.7634L350.815 64.6866ZM345.585 51.0211C342.265 47.4795 337.798 45.745 332.301 45.745V47.745C337.344 47.745 341.247 49.3172 344.126 52.3889L345.585 51.0211ZM332.301 45.745C327.006 45.745 322.563 47.4289 319.05 50.8318L320.442 52.2682C323.542 49.2644 327.469 47.745 332.301 47.745V45.745ZM319.039 50.8429C315.639 54.2422 313.656 58.8643 313.017 64.6146L315.005 64.8354C315.606 59.4257 317.446 55.2644 320.453 52.2571L319.039 50.8429ZM391.527 102.545L390.761 103.188L390.766 103.194L390.77 103.199L391.527 102.545ZM391.682 42.715L392.434 43.3742L392.438 43.3691L391.682 42.715ZM433.532 34.965L433.069 35.8516L433.077 35.8556L433.084 35.8594L433.532 34.965ZM443.452 44.42L442.548 44.8481L442.819 45.42H443.452V44.42ZM443.607 44.42V45.42H444.607V44.42H443.607ZM443.607 3.49999V2.49999H442.607V3.49999H443.607ZM465.462 3.49999H466.462V2.49999H465.462V3.49999ZM465.462 112V113H466.462V112H465.462ZM443.607 112H442.607V113H443.607V112ZM443.607 99.91H444.607V98.91H443.607V99.91ZM443.452 99.91V98.91H442.813L442.544 99.4895L443.452 99.91ZM408.732 55.425L407.972 54.7742L407.971 54.7757L408.732 55.425ZM408.732 89.835L407.956 90.4663L407.964 90.4761L407.972 90.4858L408.732 89.835ZM437.717 89.99L436.965 89.3302L437.717 89.99ZM437.717 55.27L436.965 55.9298L437.717 55.27ZM418.187 113.015C407.283 113.015 398.685 109.293 392.283 101.891L390.77 103.199C397.595 111.09 406.77 115.015 418.187 115.015V113.015ZM392.292 101.902C385.967 94.3714 382.762 84.4903 382.762 72.165H380.762C380.762 84.8464 384.066 95.2186 390.761 103.188L392.292 101.902ZM382.762 72.165C382.762 60.2654 386.011 50.6994 392.434 43.3742L390.93 42.0558C384.125 49.8172 380.762 59.8846 380.762 72.165H382.762ZM392.438 43.3691C398.842 35.9643 407.39 32.245 418.187 32.245V30.245C406.87 30.245 397.748 34.1724 390.925 42.0608L392.438 43.3691ZM418.187 32.245C423.506 32.245 428.462 33.4477 433.069 35.8516L433.994 34.0784C429.095 31.5223 423.821 30.245 418.187 30.245V32.245ZM433.084 35.8594C437.684 38.159 440.803 41.1655 442.548 44.8481L444.355 43.9919C442.38 39.8212 438.886 36.5243 433.979 34.0706L433.084 35.8594ZM443.452 45.42H443.607V43.42H443.452V45.42ZM444.607 44.42V3.49999H442.607V44.42H444.607ZM443.607 4.49999H465.462V2.49999H443.607V4.49999ZM464.462 3.49999V112H466.462V3.49999H464.462ZM465.462 111H443.607V113H465.462V111ZM444.607 112V99.91H442.607V112H444.607ZM443.607 98.91H443.452V100.91H443.607V98.91ZM442.544 99.4895C440.685 103.501 437.495 106.764 432.899 109.261L433.854 111.019C438.765 108.35 442.291 104.792 444.359 100.33L442.544 99.4895ZM432.899 109.261C428.291 111.766 423.392 113.015 418.187 113.015V115.015C423.728 115.015 428.955 113.681 433.854 111.019L432.899 109.261ZM423.147 47.915C416.975 47.915 411.889 50.2049 407.972 54.7742L409.491 56.0758C413.014 51.9651 417.538 49.915 423.147 49.915V47.915ZM407.971 54.7757C404.165 59.2342 402.307 65.0634 402.307 72.165H404.307C404.307 65.4199 406.065 60.0891 409.492 56.0743L407.971 54.7757ZM402.307 72.165C402.307 79.666 404.158 85.7996 407.956 90.4663L409.507 89.2037C406.072 84.9838 404.307 79.3373 404.307 72.165H402.307ZM407.972 90.4858C411.889 95.0551 416.975 97.345 423.147 97.345V95.345C417.538 95.345 413.014 93.2949 409.491 89.1842L407.972 90.4858ZM423.147 97.345C429.407 97.345 434.545 95.1177 438.468 90.6498L436.965 89.3302C433.448 93.3357 428.873 95.345 423.147 95.345V97.345ZM438.468 90.6498C442.387 86.1863 444.297 80.2465 444.297 72.94H442.297C442.297 79.8935 440.486 85.3203 436.965 89.3302L438.468 90.6498ZM444.297 72.94V72.01H442.297V72.94H444.297ZM444.297 72.01C444.297 64.9015 442.383 59.0685 438.468 54.6102L436.965 55.9298C440.491 59.9449 442.297 65.2718 442.297 72.01H444.297ZM438.468 54.6102C434.545 50.1423 429.407 47.915 423.147 47.915V49.915C428.873 49.915 433.448 51.9243 436.965 55.9298L438.468 54.6102ZM561.5 33.26H562.5V32.26H561.5V33.26ZM561.5 112V113H562.5V112H561.5ZM539.645 112H538.645V113H539.645V112ZM539.645 98.515H540.645L538.743 98.0826L539.645 98.515ZM493.3 104.87L494.039 104.196L493.3 104.87ZM485.24 33.26V32.26H484.24V33.26H485.24ZM507.095 33.26H508.095V32.26H507.095V33.26ZM510.815 89.99L510.024 90.6022L510.815 89.99ZM534.53 89.215L535.267 89.8908L535.276 89.8806L534.53 89.215ZM539.645 33.26V32.26H538.645V33.26H539.645ZM560.5 33.26V112H562.5V33.26H560.5ZM561.5 111H539.645V113H561.5V111ZM540.645 112V98.515H538.645V112H540.645ZM538.743 98.0826C536.384 103.002 533.235 106.641 529.316 109.056C525.396 111.473 520.638 112.705 515 112.705V114.705C520.935 114.705 526.072 113.406 530.366 110.759C534.662 108.111 538.049 104.155 540.547 98.9474L538.743 98.0826ZM515 112.705C506.144 112.705 499.195 109.848 494.039 104.196L492.561 105.544C498.151 111.672 505.669 114.705 515 114.705V112.705ZM494.039 104.196C488.88 98.5413 486.24 90.6463 486.24 80.38H484.24C484.24 90.987 486.973 99.4187 492.561 105.544L494.039 104.196ZM486.24 80.38V33.26H484.24V80.38H486.24ZM485.24 34.26H507.095V32.26H485.24V34.26ZM506.095 33.26V76.97H508.095V33.26H506.095ZM506.095 76.97C506.095 82.5909 507.368 87.1709 510.024 90.6022L511.606 89.3778C509.302 86.4024 508.095 82.3024 508.095 76.97H506.095ZM510.024 90.6022C512.709 94.0696 516.421 95.795 521.045 95.795V93.795C516.989 93.795 513.881 92.317 511.606 89.3778L510.024 90.6022ZM521.045 95.795C526.872 95.795 531.646 93.8405 535.267 89.8907L533.793 88.5393C530.593 92.0295 526.378 93.795 521.045 93.795V95.795ZM535.276 89.8806C538.897 85.8206 540.645 80.2328 540.645 73.25H538.645C538.645 79.9072 536.982 84.9628 533.784 88.5494L535.276 89.8806ZM540.645 73.25V33.26H538.645V73.25H540.645ZM539.645 34.26H561.5V32.26H539.645V34.26ZM582.897 3.49999V2.49999H581.897V3.49999H582.897ZM604.752 3.49999H605.752V2.49999H604.752V3.49999ZM604.752 112V113H605.752V112H604.752ZM582.897 112H581.897V113H582.897V112ZM582.897 4.49999H604.752V2.49999H582.897V4.49999ZM603.752 3.49999V112H605.752V3.49999H603.752ZM604.752 111H582.897V113H604.752V111ZM583.897 112V3.49999H581.897V112H583.897ZM623.863 21.015H622.863V22.015H623.863V21.015ZM623.863 0.709991V-0.290009H622.863V0.709991H623.863ZM650.368 0.709991H651.368V-0.290009H650.368V0.709991ZM650.368 21.015V22.015H651.368V21.015H650.368ZM626.188 112H625.188V113H626.188V112ZM626.188 33.26V32.26H625.188V33.26H626.188ZM648.043 33.26H649.043V32.26H648.043V33.26ZM648.043 112V113H649.043V112H648.043ZM624.863 21.015V0.709991H622.863V21.015H624.863ZM623.863 1.70999H650.368V-0.290009H623.863V1.70999ZM649.368 0.709991V21.015H651.368V0.709991H649.368ZM650.368 20.015H623.863V22.015H650.368V20.015ZM627.188 112V33.26H625.188V112H627.188ZM626.188 34.26H648.043V32.26H626.188V34.26ZM647.043 33.26V112H649.043V33.26H647.043ZM648.043 111H626.188V113H648.043V111ZM737.989 40.08L737.231 40.7319L737.237 40.7394L737.989 40.08ZM745.739 112V113H746.739V112H745.739ZM723.884 112H722.884V113H723.884V112ZM720.009 55.27L719.218 55.8822L719.225 55.89L719.231 55.8978L720.009 55.27ZM696.449 56.2L697.186 56.8758L697.195 56.8656L696.449 56.2ZM691.334 112V113H692.334V112H691.334ZM669.479 112H668.479V113H669.479V112ZM669.479 33.26V32.26H668.479V33.26H669.479ZM691.334 33.26H692.334V32.26H691.334V33.26ZM691.334 47.83H690.334L692.25 48.2322L691.334 47.83ZM716.599 32.245C725.564 32.245 732.393 35.1041 737.231 40.7319L738.747 39.4281C733.459 33.2759 726.028 30.245 716.599 30.245V32.245ZM737.237 40.7394C742.207 46.4043 744.739 54.0024 744.739 63.64H746.739C746.739 53.6442 744.105 45.5357 738.741 39.4206L737.237 40.7394ZM744.739 63.64V112H746.739V63.64H744.739ZM745.739 111H723.884V113H745.739V111ZM724.884 112V68.29H722.884V112H724.884ZM724.884 68.29C724.884 62.6607 723.556 58.0746 720.788 54.6422L719.231 55.8978C721.629 58.8721 722.884 62.966 722.884 68.29H724.884ZM720.8 54.6578C718.121 51.1971 714.464 49.465 709.934 49.465V51.465C713.878 51.465 716.938 52.9362 719.218 55.8822L720.8 54.6578ZM709.934 49.465C704.098 49.465 699.321 51.4779 695.703 55.5344L697.195 56.8656C700.398 53.2754 704.611 51.465 709.934 51.465V49.465ZM695.712 55.5243C692.081 59.4853 690.334 65.029 690.334 72.01H692.334C692.334 65.351 693.997 60.3547 697.186 56.8757L695.712 55.5243ZM690.334 72.01V112H692.334V72.01H690.334ZM691.334 111H669.479V113H691.334V111ZM670.479 112V33.26H668.479V112H670.479ZM669.479 34.26H691.334V32.26H669.479V34.26ZM690.334 33.26V47.83H692.334V33.26H690.334ZM692.25 48.2322C694.616 42.8452 697.822 38.8658 701.842 36.2272C705.861 33.589 710.763 32.245 716.599 32.245V30.245C710.448 30.245 705.147 31.6652 700.744 34.5553C696.342 37.445 692.909 41.7581 690.419 47.4278L692.25 48.2322ZM820.449 33.26V32.26H819.449V33.26H820.449ZM842.304 33.26H843.304V32.26H842.304V33.26ZM831.144 135.405L830.51 134.632L831.144 135.405ZM774.259 136.645L773.676 137.457L774.259 136.645ZM761.704 114.48V113.48H760.59L760.71 114.588L761.704 114.48ZM784.334 114.48L785.315 114.284L785.154 113.48H784.334V114.48ZM790.379 124.245L789.783 125.048L790.379 124.245ZM815.334 123.625L814.715 122.84L814.702 122.85L814.689 122.861L815.334 123.625ZM820.449 98.515H821.449V97.515H820.449V98.515ZM820.294 98.515V97.515H819.734L819.442 97.9924L820.294 98.515ZM811.149 106.575L811.596 107.469L811.605 107.465L811.614 107.46L811.149 106.575ZM770.539 98.825L769.802 99.5003L769.806 99.5054L770.539 98.825ZM770.539 42.095L769.806 41.4145L770.539 42.095ZM810.839 34.655L810.348 35.526L810.361 35.5334L810.374 35.5404L810.839 34.655ZM820.294 43.025L819.451 43.5619L819.745 44.025H820.294V43.025ZM820.449 43.025V44.025H821.449V43.025H820.449ZM815.954 87.045L816.715 87.6943L816.722 87.6852L815.954 87.045ZM821.534 70.305L822.534 70.3201L822.534 70.3126V70.305H821.534ZM815.954 54.185L815.219 54.8625L815.228 54.8727L815.954 54.185ZM787.589 54.495L788.333 55.163L788.342 55.1535L787.589 54.495ZM787.589 86.89L788.357 86.2498L787.589 86.89ZM820.449 34.26H842.304V32.26H820.449V34.26ZM841.304 33.26V111.535H843.304V33.26H841.304ZM841.304 111.535C841.304 121.059 837.713 128.729 830.51 134.632L831.778 136.178C839.455 129.887 843.304 121.644 843.304 111.535H841.304ZM830.51 134.632C823.287 140.551 813.917 143.55 802.314 143.55V145.55C814.272 145.55 824.122 142.452 831.778 136.178L830.51 134.632ZM802.314 143.55C791.102 143.55 781.97 140.952 774.843 135.833L773.676 137.457C781.222 142.878 790.793 145.55 802.314 145.55V143.55ZM774.843 135.833C767.751 130.739 763.703 123.615 762.698 114.372L760.71 114.588C761.772 124.358 766.094 132.011 773.676 137.457L774.843 135.833ZM761.704 115.48H784.334V113.48H761.704V115.48ZM783.354 114.676C784.226 119.037 786.369 122.515 789.783 125.048L790.975 123.442C787.983 121.222 786.096 118.189 785.315 114.284L783.354 114.676ZM789.783 125.048C793.197 127.581 797.503 128.81 802.624 128.81V126.81C797.826 126.81 793.968 125.662 790.975 123.442L789.783 125.048ZM802.624 128.81C807.979 128.81 812.458 127.36 815.979 124.389L814.689 122.861C811.597 125.47 807.603 126.81 802.624 126.81V128.81ZM815.953 124.41C819.617 121.524 821.449 117.611 821.449 112.775H819.449C819.449 117.032 817.872 120.353 814.715 122.84L815.953 124.41ZM821.449 112.775V98.515H819.449V112.775H821.449ZM820.449 97.515H820.294V99.515H820.449V97.515ZM819.442 97.9924C817.593 101.009 814.697 103.583 810.684 105.69L811.614 107.46C815.869 105.227 819.069 102.428 821.147 99.0376L819.442 97.9924ZM810.702 105.681C806.726 107.669 802.181 108.675 797.044 108.675V110.675C802.448 110.675 807.306 109.615 811.596 107.469L810.702 105.681ZM797.044 108.675C786.335 108.675 777.778 105.151 771.272 98.1445L769.806 99.5054C776.734 106.966 785.847 110.675 797.044 110.675V108.675ZM771.277 98.1497C764.756 91.0273 761.464 81.8269 761.464 70.46H759.464C759.464 82.2397 762.889 91.9494 769.802 99.5003L771.277 98.1497ZM761.464 70.46C761.464 58.9867 764.758 49.7907 771.272 42.7754L769.806 41.4145C762.887 48.8659 759.464 58.58 759.464 70.46H761.464ZM771.272 42.7754C777.78 35.7673 786.287 32.245 796.889 32.245V30.245C785.792 30.245 776.732 33.956 769.806 41.4145L771.272 42.7754ZM796.889 32.245C802.011 32.245 806.488 33.3484 810.348 35.526L811.331 33.784C807.131 31.4149 802.307 30.245 796.889 30.245V32.245ZM810.374 35.5404C814.377 37.642 817.388 40.3206 819.451 43.5619L821.138 42.4881C818.86 38.9094 815.568 36.008 811.304 33.7696L810.374 35.5404ZM820.294 44.025H820.449V42.025H820.294V44.025ZM821.449 43.025V33.26H819.449V43.025H821.449ZM801.849 94.4C807.915 94.4 812.9 92.1632 816.715 87.6943L815.194 86.3957C811.775 90.4001 807.356 92.4 801.849 92.4V94.4ZM816.722 87.6852C820.514 83.1351 822.428 77.3197 822.534 70.3201L820.534 70.2898C820.434 76.9303 818.628 82.2749 815.186 86.4048L816.722 87.6852ZM822.534 70.305V69.375H820.534V70.305H822.534ZM822.534 69.375C822.534 62.9594 820.602 57.637 816.68 53.4973L815.228 54.8727C818.746 58.5863 820.534 63.3906 820.534 69.375H822.534ZM816.69 53.5075C812.867 49.3568 807.889 47.295 801.849 47.295V49.295C807.383 49.295 811.808 51.1599 815.219 54.8625L816.69 53.5075ZM801.849 47.295C795.694 47.295 790.658 49.469 786.837 53.8365L788.342 55.1535C791.754 51.2543 796.224 49.295 801.849 49.295V47.295ZM786.845 53.8271C783.032 58.0762 781.164 63.6009 781.164 70.305H783.164C783.164 63.9891 784.913 58.9738 788.333 55.1629L786.845 53.8271ZM781.164 70.305C781.164 77.2094 783.027 82.9779 786.821 87.5302L788.357 86.2498C784.918 82.1221 783.164 76.8339 783.164 70.305H781.164ZM786.821 87.5302C790.637 92.1091 795.677 94.4 801.849 94.4V92.4C796.241 92.4 791.775 90.3509 788.357 86.2498L786.821 87.5302Z" fill="black" fill-opacity="0.23" mask="url(#path-1-outside-1_128_12364)"/>
</svg>
