<svg width="1609" height="142" viewBox="0 0 1609 142" fill="none" xmlns="http://www.w3.org/2000/svg">
<mask id="path-1-outside-1_128_12896" maskUnits="userSpaceOnUse" x="-1" y="-1" width="1611" height="144" fill="black">
<rect fill="white" x="-1" y="-1" width="1611" height="144"/>
<path d="M14.6757 70.235C15.2957 79.9483 18.3957 87.5433 23.9757 93.02C29.5557 98.4967 36.789 101.235 45.6757 101.235C52.8057 101.235 58.8507 99.53 63.8107 96.12C68.7707 92.71 71.2507 88.0083 71.2507 82.015C71.2507 79.535 70.734 77.3133 69.7007 75.35C68.6674 73.3867 67.4274 71.785 65.9807 70.545C64.6374 69.305 62.519 68.1167 59.6257 66.98C56.8357 65.74 54.3557 64.81 52.1857 64.19C50.119 63.4667 47.1224 62.5883 43.1957 61.555C38.029 60.2117 33.9474 59.075 30.9507 58.145C28.0574 57.215 24.699 55.8717 20.8757 54.115C17.0524 52.3583 14.159 50.55 12.1957 48.69C10.2324 46.7267 8.52735 44.2983 7.08068 41.405C5.63402 38.4083 4.91068 34.9983 4.91068 31.175C4.91068 21.4617 8.21735 13.97 14.8307 8.7C21.444 3.43 30.4857 0.794996 41.9557 0.794996C53.9424 0.794996 63.449 3.84333 70.4757 9.94C77.5024 15.9333 81.4807 24.9233 82.4107 36.91H68.7707C67.4274 20.2733 58.6957 11.955 42.5757 11.955C35.1357 11.955 29.1424 13.6083 24.5957 16.915C20.1524 20.2217 17.9307 24.7683 17.9307 30.555C17.9307 35.3083 19.739 38.9767 23.3557 41.56C26.9724 44.1433 34.619 47.0883 46.2957 50.395C57.0424 53.495 64.224 55.9233 67.8407 57.68C78.5874 63.1567 84.0124 71.165 84.1157 81.705C84.1157 90.9017 80.5507 98.3417 73.4207 104.025C66.394 109.605 57.094 112.395 45.5207 112.395C32.1907 112.395 21.4957 108.623 13.4357 101.08C5.47902 93.4333 1.24235 83.1517 0.725684 70.235H14.6757ZM177.153 33.5V111H164.443V97.05C159.173 107.487 150.493 112.705 138.403 112.705C128.897 112.705 121.612 109.708 116.548 103.715C111.485 97.6183 108.953 89.4033 108.953 79.07V33.5H121.663V79.07C121.663 85.9933 123.265 91.47 126.468 95.5C129.672 99.53 134.063 101.545 139.643 101.545C147.187 101.545 153.18 99.0133 157.623 93.95C162.17 88.8867 164.443 82.3767 164.443 74.42V33.5H177.153ZM205.108 142V33.5H217.818L217.663 48.07H217.818C220.091 43.11 223.501 39.1833 228.048 36.29C232.698 33.2933 237.916 31.795 243.703 31.795C254.863 31.795 263.904 35.6183 270.828 43.265C277.751 50.8083 281.213 60.5217 281.213 72.405C281.213 84.185 277.751 93.8467 270.828 101.39C263.904 108.933 254.863 112.705 243.703 112.705C237.709 112.705 232.388 111.413 227.738 108.83C223.191 106.143 219.884 102.527 217.818 97.98H217.663L217.818 142H205.108ZM243.238 101.855C250.988 101.855 257.188 99.1167 261.838 93.64C266.488 88.06 268.813 80.9817 268.813 72.405C268.813 63.725 266.488 56.595 261.838 51.015C257.188 45.435 250.988 42.645 243.238 42.645C235.281 42.645 228.874 45.3833 224.018 50.86C219.264 56.2333 216.888 63.1567 216.888 71.63V72.87C216.991 81.3433 219.419 88.3183 224.173 93.795C229.029 99.1683 235.384 101.855 243.238 101.855ZM302.891 142V33.5H315.601L315.446 48.07H315.601C317.874 43.11 321.284 39.1833 325.831 36.29C330.481 33.2933 335.699 31.795 341.486 31.795C352.646 31.795 361.688 35.6183 368.611 43.265C375.534 50.8083 378.996 60.5217 378.996 72.405C378.996 84.185 375.534 93.8467 368.611 101.39C361.688 108.933 352.646 112.705 341.486 112.705C335.493 112.705 330.171 111.413 325.521 108.83C320.974 106.143 317.668 102.527 315.601 97.98H315.446L315.601 142H302.891ZM341.021 101.855C348.771 101.855 354.971 99.1167 359.621 93.64C364.271 88.06 366.596 80.9817 366.596 72.405C366.596 63.725 364.271 56.595 359.621 51.015C354.971 45.435 348.771 42.645 341.021 42.645C333.064 42.645 326.658 45.3833 321.801 50.86C317.048 56.2333 314.671 63.1567 314.671 71.63V72.87C314.774 81.3433 317.203 88.3183 321.956 93.795C326.813 99.1683 333.168 101.855 341.021 101.855ZM405.014 43.265C412.144 35.6183 421.444 31.795 432.914 31.795C444.384 31.795 453.632 35.6183 460.659 43.265C467.789 50.8083 471.354 60.47 471.354 72.25C471.354 84.03 467.789 93.7433 460.659 101.39C453.632 108.933 444.384 112.705 432.914 112.705C421.444 112.705 412.144 108.933 405.014 101.39C397.987 93.7433 394.474 84.03 394.474 72.25C394.474 60.47 397.987 50.8083 405.014 43.265ZM451.824 51.015C447.071 45.435 440.767 42.645 432.914 42.645C425.061 42.645 418.757 45.435 414.004 51.015C409.251 56.4917 406.874 63.57 406.874 72.25C406.874 80.93 409.251 88.06 414.004 93.64C418.757 99.1167 425.061 101.855 432.914 101.855C440.767 101.855 447.071 99.1167 451.824 93.64C456.577 88.06 458.954 80.93 458.954 72.25C458.954 63.57 456.577 56.4917 451.824 51.015ZM505.718 53.495C511.401 39.7517 523.233 32.88 541.213 32.88V47.295C529.226 46.1583 520.288 48.07 514.398 53.03C508.611 57.8867 505.718 66.1017 505.718 77.675V111H493.008V33.5H505.718V53.495ZM610.1 44.35H579.41V85.425C579.41 95.7583 584.628 100.925 595.065 100.925C599.818 100.925 604.313 99.9433 608.55 97.98V109.295C604.83 111.155 600.335 112.085 595.065 112.085C586.385 112.085 579.461 109.708 574.295 104.955C569.231 100.098 566.7 93.5883 566.7 85.425V44.35H550.425V33.5H550.58C556.676 33.5 560.861 32.4667 563.135 30.4C565.511 28.3333 566.7 24.6133 566.7 19.24V8.7H579.41V33.5H610.1V44.35ZM697.554 31.795C707.06 31.795 714.552 34.3783 720.029 39.545C725.505 44.7117 728.244 51.6867 728.244 60.47V111H715.844V98.755H715.534C713.364 102.165 709.902 105.213 705.149 107.9C700.395 110.483 694.764 111.775 688.254 111.775C680.607 111.775 674.459 109.812 669.809 105.885C665.262 101.855 662.989 96.43 662.989 89.61C662.989 72.4567 677.042 63.88 705.149 63.88H715.844V60.47C715.844 54.9933 714.19 50.6533 710.884 47.45C707.68 44.2467 703.237 42.645 697.554 42.645C692.18 42.645 687.84 44.04 684.534 46.83C681.227 49.5167 679.419 53.2367 679.109 57.99H666.399C666.605 49.93 669.499 43.575 675.079 38.925C680.659 34.1717 688.15 31.795 697.554 31.795ZM691.044 101.545C697.76 101.545 703.547 99.4783 708.404 95.345C713.364 91.2117 715.844 86.4583 715.844 81.085V73.8H705.149C685.309 73.8 675.389 78.9667 675.389 89.3C675.389 93.1233 676.784 96.12 679.574 98.29C682.364 100.46 686.187 101.545 691.044 101.545ZM794.077 31.795C803.584 31.795 810.869 34.8433 815.932 40.94C820.996 46.9333 823.527 55.0967 823.527 65.43V111H810.817V65.43C810.817 58.5067 809.216 53.03 806.012 49C802.809 44.97 798.417 42.955 792.837 42.955C785.294 42.955 779.249 45.4867 774.702 50.55C770.259 55.6133 768.037 62.1233 768.037 70.08V111H755.327V33.5H768.037V48.69C772.997 37.4267 781.677 31.795 794.077 31.795ZM881.999 112.705C870.839 112.705 861.797 108.933 854.874 101.39C847.95 93.7433 844.489 83.9783 844.489 72.095C844.489 60.315 847.95 50.6533 854.874 43.11C861.797 35.5667 870.839 31.795 881.999 31.795C888.095 31.795 893.675 33.1383 898.739 35.825C903.802 38.5117 907.315 42.0767 909.279 46.52H909.589V2.49999H922.299V111H909.589V96.43H909.434C907.264 101.287 903.595 105.213 898.429 108.21C893.365 111.207 887.889 112.705 881.999 112.705ZM882.464 42.645C874.714 42.645 868.514 45.435 863.864 51.015C859.214 56.4917 856.889 63.5183 856.889 72.095C856.889 80.775 859.214 87.905 863.864 93.485C868.514 99.065 874.714 101.855 882.464 101.855C890.42 101.855 896.775 99.1683 901.529 93.795C906.385 88.3183 908.814 81.3433 908.814 72.87V71.63C908.71 63.1567 906.23 56.2333 901.374 50.86C896.62 45.3833 890.317 42.645 882.464 42.645ZM1003.56 70.235C1004.18 79.9483 1007.28 87.5433 1012.86 93.02C1018.44 98.4967 1025.67 101.235 1034.56 101.235C1041.69 101.235 1047.73 99.53 1052.69 96.12C1057.65 92.71 1060.13 88.0083 1060.13 82.015C1060.13 79.535 1059.62 77.3133 1058.58 75.35C1057.55 73.3867 1056.31 71.785 1054.86 70.545C1053.52 69.305 1051.4 68.1167 1048.51 66.98C1045.72 65.74 1043.24 64.81 1041.07 64.19C1039 63.4667 1036 62.5883 1032.08 61.555C1026.91 60.2117 1022.83 59.075 1019.83 58.145C1016.94 57.215 1013.58 55.8717 1009.76 54.115C1005.93 52.3583 1003.04 50.55 1001.08 48.69C999.114 46.7267 997.409 44.2983 995.963 41.405C994.516 38.4083 993.793 34.9983 993.793 31.175C993.793 21.4617 997.099 13.97 1003.71 8.7C1010.33 3.43 1019.37 0.794996 1030.84 0.794996C1042.82 0.794996 1052.33 3.84333 1059.36 9.94C1066.38 15.9333 1070.36 24.9233 1071.29 36.91H1057.65C1056.31 20.2733 1047.58 11.955 1031.46 11.955C1024.02 11.955 1018.02 13.6083 1013.48 16.915C1009.03 20.2217 1006.81 24.7683 1006.81 30.555C1006.81 35.3083 1008.62 38.9767 1012.24 41.56C1015.85 44.1433 1023.5 47.0883 1035.18 50.395C1045.92 53.495 1053.11 55.9233 1056.72 57.68C1067.47 63.1567 1072.89 71.165 1073 81.705C1073 90.9017 1069.43 98.3417 1062.3 104.025C1055.28 109.605 1045.98 112.395 1034.4 112.395C1021.07 112.395 1010.38 108.623 1002.32 101.08C994.361 93.4333 990.124 83.1517 989.608 70.235H1003.56ZM1130.54 112.705C1119.17 112.705 1110.08 108.985 1103.26 101.545C1096.54 94.0017 1093.19 84.3917 1093.19 72.715C1093.19 60.7283 1096.65 50.9117 1103.57 43.265C1110.6 35.6183 1119.69 31.795 1130.85 31.795C1141.8 31.795 1150.38 35.5667 1156.58 43.11C1162.88 50.55 1166.04 60.2633 1166.04 72.25V74.885H1106.52V75.505C1107.03 83.3583 1109.41 89.7133 1113.65 94.57C1117.99 99.4267 1123.51 101.855 1130.23 101.855C1134.88 101.855 1139.12 100.563 1142.94 97.98C1146.76 95.3967 1149.55 91.47 1151.31 86.2H1165.42C1163.25 94.4667 1159.06 100.977 1152.86 105.73C1146.76 110.38 1139.32 112.705 1130.54 112.705ZM1106.83 65.275H1153.17C1152.96 58.5583 1150.9 53.1333 1146.97 49C1143.04 44.7633 1137.62 42.645 1130.7 42.645C1124.19 42.645 1118.86 44.66 1114.73 48.69C1110.6 52.6167 1107.96 58.145 1106.83 65.275ZM1200.49 53.495C1206.18 39.7517 1218.01 32.88 1235.99 32.88V47.295C1224 46.1583 1215.06 48.07 1209.17 53.03C1203.39 57.8867 1200.49 66.1017 1200.49 77.675V111H1187.78V33.5H1200.49V53.495ZM1308.25 33.5H1322.35L1289.8 111H1277.71L1245.16 33.5H1259.27L1283.76 96.74L1308.25 33.5ZM1335.46 18.465V2.49999H1351.58V18.465H1335.46ZM1337.17 111V33.5H1349.88V111H1337.17ZM1444.26 82.325C1443.23 91.315 1439.56 98.6517 1433.25 104.335C1427.05 109.915 1418.84 112.705 1408.61 112.705C1397.14 112.705 1387.99 108.933 1381.17 101.39C1374.35 93.8467 1370.94 84.1333 1370.94 72.25C1370.94 60.3667 1374.35 50.6533 1381.17 43.11C1387.99 35.5667 1397.14 31.795 1408.61 31.795C1418.32 31.795 1426.28 34.43 1432.48 39.7C1438.68 44.97 1442.45 51.8417 1443.79 60.315H1430.77C1429.64 54.9417 1427.21 50.6533 1423.49 47.45C1419.77 44.2467 1414.81 42.645 1408.61 42.645C1400.76 42.645 1394.56 45.435 1390.01 51.015C1385.57 56.4917 1383.34 63.57 1383.34 72.25C1383.34 80.93 1385.57 88.06 1390.01 93.64C1394.56 99.1167 1400.76 101.855 1408.61 101.855C1415.22 101.855 1420.44 100.098 1424.26 96.585C1428.09 92.9683 1430.52 88.215 1431.55 82.325H1444.26ZM1495.18 112.705C1483.82 112.705 1474.72 108.985 1467.9 101.545C1461.19 94.0017 1457.83 84.3917 1457.83 72.715C1457.83 60.7283 1461.29 50.9117 1468.21 43.265C1475.24 35.6183 1484.33 31.795 1495.49 31.795C1506.45 31.795 1515.02 35.5667 1521.22 43.11C1527.53 50.55 1530.68 60.2633 1530.68 72.25V74.885H1471.16V75.505C1471.68 83.3583 1474.05 89.7133 1478.29 94.57C1482.63 99.4267 1488.16 101.855 1494.87 101.855C1499.52 101.855 1503.76 100.563 1507.58 97.98C1511.41 95.3967 1514.2 91.47 1515.95 86.2H1530.06C1527.89 94.4667 1523.7 100.977 1517.5 105.73C1511.41 110.38 1503.97 112.705 1495.18 112.705ZM1471.47 65.275H1517.81C1517.61 58.5583 1515.54 53.1333 1511.61 49C1507.69 44.7633 1502.26 42.645 1495.34 42.645C1488.83 42.645 1483.51 44.66 1479.37 48.69C1475.24 52.6167 1472.61 58.145 1471.47 65.275ZM1595.83 58.455C1594.28 47.7083 1587.77 42.335 1576.3 42.335C1571.54 42.335 1567.62 43.42 1564.52 45.59C1561.52 47.76 1560.02 50.4467 1560.02 53.65C1560.02 57.1633 1561.31 59.6433 1563.9 61.09C1566.48 62.5367 1571.13 64.1383 1577.85 65.895C1578.67 66.1017 1579.29 66.2567 1579.71 66.36C1580.53 66.5667 1582.03 66.98 1584.2 67.6C1586.48 68.1167 1587.97 68.4783 1588.7 68.685C1589.52 68.8917 1590.87 69.305 1592.73 69.925C1594.59 70.4417 1595.88 70.9067 1596.6 71.32C1597.43 71.63 1598.57 72.1467 1600.01 72.87C1601.46 73.5933 1602.44 74.3167 1602.96 75.04C1603.58 75.66 1604.35 76.4867 1605.28 77.52C1606.21 78.45 1606.83 79.4833 1607.14 80.62C1607.56 81.6533 1607.92 82.8933 1608.23 84.34C1608.54 85.7867 1608.69 87.3367 1608.69 88.99C1608.69 96.74 1606.01 102.63 1600.63 106.66C1595.26 110.69 1588.03 112.705 1578.93 112.705C1568.81 112.705 1560.75 110.122 1554.75 104.955C1548.76 99.685 1545.56 92.5033 1545.14 83.41H1557.54C1558.06 89.1967 1560.13 93.795 1563.74 97.205C1567.36 100.512 1572.47 102.165 1579.09 102.165C1584.25 102.165 1588.44 101.183 1591.64 99.22C1594.85 97.1533 1596.45 93.95 1596.45 89.61C1596.45 88.06 1596.19 86.7683 1595.67 85.735C1595.16 84.5983 1594.54 83.6683 1593.81 82.945C1593.19 82.2217 1592 81.55 1590.25 80.93C1588.49 80.2067 1586.89 79.6383 1585.44 79.225C1584.1 78.8117 1581.93 78.2433 1578.93 77.52C1578.11 77.3133 1577.49 77.1583 1577.07 77.055C1576.35 76.8483 1574.85 76.4867 1572.58 75.97C1570.41 75.4533 1568.91 75.0917 1568.08 74.885C1567.36 74.575 1566.07 74.1617 1564.21 73.645C1562.35 73.025 1561 72.56 1560.18 72.25C1559.45 71.8367 1558.32 71.2683 1556.77 70.545C1555.32 69.8217 1554.29 69.15 1553.67 68.53C1553.05 67.8067 1552.27 66.98 1551.34 66.05C1550.41 65.0167 1549.74 63.9833 1549.33 62.95C1548.91 61.8133 1548.55 60.5217 1548.24 59.075C1547.93 57.6283 1547.78 56.0783 1547.78 54.425C1547.78 46.7783 1550.52 41.095 1555.99 37.375C1561.47 33.655 1568.39 31.795 1576.76 31.795C1595.36 31.795 1605.75 40.6817 1607.92 58.455H1595.83Z"/>
</mask>
<path d="M14.6757 70.235L15.6737 70.1713L15.6139 69.235H14.6757V70.235ZM23.9757 93.02L23.2752 93.7337L23.2752 93.7337L23.9757 93.02ZM63.8107 96.12L64.3772 96.944L64.3772 96.944L63.8107 96.12ZM69.7007 75.35L68.8158 75.8157L68.8158 75.8157L69.7007 75.35ZM65.9807 70.545L65.3024 71.2798L65.3159 71.2923L65.3299 71.3043L65.9807 70.545ZM59.6257 66.98L59.2195 67.8938L59.2396 67.9027L59.26 67.9108L59.6257 66.98ZM52.1857 64.19L51.8553 65.1339L51.8829 65.1435L51.911 65.1515L52.1857 64.19ZM43.1957 61.555L43.4502 60.5879L43.4473 60.5872L43.1957 61.555ZM30.9507 58.145L30.6447 59.0971L30.6543 59.1001L30.9507 58.145ZM12.1957 48.69L11.4886 49.3971L11.4981 49.4067L11.5079 49.416L12.1957 48.69ZM7.08068 41.405L6.18005 41.8398L6.18626 41.8522L7.08068 41.405ZM14.8307 8.7L14.2075 7.91794L14.2075 7.91794L14.8307 8.7ZM70.4757 9.94L69.8203 10.6953L69.8267 10.7008L70.4757 9.94ZM82.4107 36.91V37.91H83.4913L83.4077 36.8326L82.4107 36.91ZM68.7707 36.91L67.7739 36.9905L67.8482 37.91H68.7707V36.91ZM24.5957 16.915L24.0075 16.1062L23.9987 16.1128L24.5957 16.915ZM23.3557 41.56L22.7744 42.3737L22.7744 42.3737L23.3557 41.56ZM46.2957 50.395L46.5728 49.4342L46.5682 49.4328L46.2957 50.395ZM67.8407 57.68L68.2947 56.789L68.2862 56.7847L68.2776 56.7805L67.8407 57.68ZM84.1157 81.705L85.1157 81.705L85.1156 81.6952L84.1157 81.705ZM73.4207 104.025L74.0426 104.808L74.044 104.807L73.4207 104.025ZM13.4357 101.08L12.7427 101.801L12.7524 101.81L13.4357 101.08ZM0.725684 70.235V69.235H-0.315115L-0.273516 70.275L0.725684 70.235ZM13.6777 70.2987C14.3094 80.1953 17.4792 88.045 23.2752 93.7337L24.6762 92.3063C19.3122 87.0417 16.282 79.7014 15.6737 70.1713L13.6777 70.2987ZM23.2752 93.7337C29.0682 99.4194 36.5659 102.235 45.6757 102.235V100.235C37.0122 100.235 30.0432 97.574 24.6762 92.3063L23.2752 93.7337ZM45.6757 102.235C52.9698 102.235 59.2216 100.489 64.3772 96.944L63.2442 95.296C58.4798 98.5715 52.6416 100.235 45.6757 100.235V102.235ZM64.3772 96.944C69.6072 93.3484 72.2507 88.3393 72.2507 82.015H70.2507C70.2507 87.6773 67.9342 92.0715 63.2442 95.296L64.3772 96.944ZM72.2507 82.015C72.2507 79.3921 71.7031 77.0074 70.5856 74.8843L68.8158 75.8157C69.765 77.6192 70.2507 79.6779 70.2507 82.015H72.2507ZM70.5856 74.8843C69.503 72.8273 68.1884 71.1203 66.6315 69.7857L65.3299 71.3043C66.6663 72.4497 67.8317 73.9461 68.8158 75.8157L70.5856 74.8843ZM66.659 69.8102C65.1823 68.4471 62.9308 67.204 59.9913 66.0492L59.26 67.9108C62.1073 69.0293 64.0924 70.1629 65.3024 71.2798L66.659 69.8102ZM60.0318 66.0662C57.213 64.8134 54.6878 63.8649 52.4604 63.2285L51.911 65.1515C54.0236 65.7551 56.4584 66.6666 59.2195 67.8938L60.0318 66.0662ZM52.516 63.2461C50.4117 62.5096 47.3848 61.6234 43.4502 60.5879L42.9412 62.5221C46.8599 63.5533 49.8264 64.4237 51.8553 65.1339L52.516 63.2461ZM43.4473 60.5872C38.2869 59.2455 34.2222 58.1133 31.2471 57.1899L30.6543 59.1001C33.6725 60.0367 37.7712 61.1779 42.944 62.5228L43.4473 60.5872ZM31.2567 57.193C28.4127 56.2788 25.0929 54.9521 21.2932 53.2063L20.4582 55.0237C24.3051 56.7912 27.7021 58.1512 30.6447 59.097L31.2567 57.193ZM21.2932 53.2063C17.5204 51.4729 14.7359 49.719 12.8834 47.964L11.5079 49.416C13.5822 51.381 16.5843 53.2438 20.4582 55.0237L21.2932 53.2063ZM12.9028 47.9829C11.0268 46.1069 9.38147 43.7705 7.97511 40.9578L6.18626 41.8522C7.67323 44.8262 9.43788 47.3464 11.4886 49.3971L12.9028 47.9829ZM7.98124 40.9702C6.60913 38.128 5.91068 34.8702 5.91068 31.175H3.91068C3.91068 35.1264 4.65891 38.6886 6.18013 41.8397L7.98124 40.9702ZM5.91068 31.175C5.91068 21.7151 9.11588 14.5327 15.4539 9.48206L14.2075 7.91794C7.31882 13.4073 3.91068 21.2082 3.91068 31.175H5.91068ZM15.4539 9.48206C21.8362 4.39614 30.6319 1.795 41.9557 1.795V-0.205004C30.3395 -0.205004 21.0518 2.46385 14.2075 7.91794L15.4539 9.48206ZM41.9557 1.795C53.7727 1.795 63.0229 4.79754 69.8203 10.6953L71.131 9.18468C63.8751 2.88912 54.112 -0.205004 41.9557 -0.205004V1.795ZM69.8267 10.7008C76.5954 16.4741 80.4978 25.1823 81.4137 36.9874L83.4077 36.8326C82.4636 24.6643 78.4094 15.3926 71.1246 9.17916L69.8267 10.7008ZM82.4107 35.91H68.7707V37.91H82.4107V35.91ZM69.7674 36.8295C69.0836 28.3605 66.5063 21.8539 61.9042 17.4697C57.2969 13.0805 50.8039 10.955 42.5757 10.955V12.955C50.4675 12.955 56.4003 14.9887 60.5247 18.9178C64.6543 22.8519 67.1144 28.8228 67.7739 36.9905L69.7674 36.8295ZM42.5757 10.955C34.9921 10.955 28.7728 12.6406 24.0075 16.1063L25.1839 17.7237C29.5119 14.5761 35.2792 12.955 42.5757 12.955V10.955ZM23.9987 16.1128C19.2888 19.6178 16.9307 24.4688 16.9307 30.555H18.9307C18.9307 25.0678 21.0159 20.8255 25.1927 17.7172L23.9987 16.1128ZM16.9307 30.555C16.9307 35.6049 18.8743 39.5879 22.7744 42.3737L23.9369 40.7463C20.6038 38.3654 18.9307 35.0117 18.9307 30.555H16.9307ZM22.7744 42.3737C26.5528 45.0725 34.3648 48.0557 46.0232 51.3572L46.5682 49.4328C34.8733 46.121 27.3919 43.2141 23.9369 40.7463L22.7744 42.3737ZM46.0185 51.3558C56.7745 54.4585 63.8757 56.8659 67.4038 58.5795L68.2776 56.7805C64.5723 54.9808 57.3102 52.5315 46.5728 49.4342L46.0185 51.3558ZM67.3866 58.571C72.6461 61.2513 76.5444 64.5208 79.1415 68.3546C81.7339 72.1814 83.0658 76.623 83.1157 81.7148L85.1156 81.6952C85.0622 76.247 83.63 71.4144 80.7974 67.2329C77.9695 63.0584 73.782 59.5854 68.2947 56.789L67.3866 58.571ZM83.1157 81.705C83.1157 90.6003 79.6869 97.7513 72.7974 103.243L74.044 104.807C81.4144 98.932 85.1157 91.203 85.1157 81.705H83.1157ZM72.7988 103.242C65.9947 108.645 56.9344 111.395 45.5207 111.395V113.395C57.2536 113.395 66.7934 110.565 74.0426 104.808L72.7988 103.242ZM45.5207 111.395C32.3888 111.395 21.9567 107.685 14.119 100.35L12.7524 101.81C21.0347 109.561 31.9926 113.395 45.5207 113.395V111.395ZM14.1286 100.359C6.38975 92.9216 2.23313 82.9011 1.72489 70.195L-0.273516 70.275C0.251575 83.4023 4.56828 93.945 12.7428 101.801L14.1286 100.359ZM0.725684 71.235H14.6757V69.235H0.725684V71.235ZM177.153 33.5H178.153V32.5H177.153V33.5ZM177.153 111V112H178.153V111H177.153ZM164.443 111H163.443V112H164.443V111ZM164.443 97.05H165.443L163.551 96.5993L164.443 97.05ZM116.548 103.715L115.779 104.354L115.784 104.36L116.548 103.715ZM108.953 33.5V32.5H107.953V33.5H108.953ZM121.663 33.5H122.663V32.5H121.663V33.5ZM126.468 95.5L125.685 96.1222L125.685 96.1222L126.468 95.5ZM157.623 93.95L156.879 93.2818L156.872 93.2904L157.623 93.95ZM164.443 33.5V32.5H163.443V33.5H164.443ZM176.153 33.5V111H178.153V33.5H176.153ZM177.153 110H164.443V112H177.153V110ZM165.443 111V97.05H163.443V111H165.443ZM163.551 96.5993C160.987 101.676 157.62 105.436 153.465 107.934C149.309 110.433 144.302 111.705 138.403 111.705V113.705C144.594 113.705 149.973 112.368 154.496 109.648C159.021 106.928 162.629 102.861 165.336 97.5007L163.551 96.5993ZM138.403 111.705C129.123 111.705 122.145 108.791 117.312 103.07L115.784 104.36C121.078 110.626 128.671 113.705 138.403 113.705V111.705ZM117.318 103.076C112.444 97.2074 109.953 89.2419 109.953 79.07H107.953C107.953 89.5648 110.526 98.0292 115.779 104.354L117.318 103.076ZM109.953 79.07V33.5H107.953V79.07H109.953ZM108.953 34.5H121.663V32.5H108.953V34.5ZM120.663 33.5V79.07H122.663V33.5H120.663ZM120.663 79.07C120.663 86.1416 122.3 91.8628 125.685 96.1222L127.251 94.8778C124.23 91.0772 122.663 85.845 122.663 79.07H120.663ZM125.685 96.1222C129.096 100.413 133.788 102.545 139.643 102.545V100.545C134.339 100.545 130.247 98.647 127.251 94.8778L125.685 96.1222ZM139.643 102.545C147.436 102.545 153.718 99.9166 158.375 94.6096L156.872 93.2904C152.642 98.11 146.937 100.545 139.643 100.545V102.545ZM158.367 94.6181C163.106 89.3408 165.443 82.579 165.443 74.42H163.443C163.443 82.1743 161.234 88.4326 156.879 93.2819L158.367 94.6181ZM165.443 74.42V33.5H163.443V74.42H165.443ZM164.443 34.5H177.153V32.5H164.443V34.5ZM205.108 142H204.108V143H205.108V142ZM205.108 33.5V32.5H204.108V33.5H205.108ZM217.818 33.5L218.818 33.5106L218.828 32.5H217.818V33.5ZM217.663 48.07L216.663 48.0594L216.652 49.07H217.663V48.07ZM217.818 48.07V49.07H218.459L218.727 48.4867L217.818 48.07ZM228.048 36.29L228.585 37.1337L228.589 37.1306L228.048 36.29ZM270.828 43.265L270.086 43.9362L270.091 43.9412L270.828 43.265ZM270.828 101.39L270.091 100.714L270.091 100.714L270.828 101.39ZM227.738 108.83L227.229 109.691L227.24 109.698L227.252 109.704L227.738 108.83ZM217.818 97.98L218.728 97.5662L218.462 96.98H217.818V97.98ZM217.663 97.98V96.98H216.659L216.663 97.9835L217.663 97.98ZM217.818 142V143H218.821L218.818 141.996L217.818 142ZM261.838 93.64L262.6 94.2873L262.606 94.2802L261.838 93.64ZM261.838 51.015L262.606 50.3748L262.606 50.3748L261.838 51.015ZM224.018 50.86L223.27 50.1965L223.269 50.1974L224.018 50.86ZM216.888 72.87H215.888L215.888 72.8822L216.888 72.87ZM224.173 93.795L223.417 94.4505L223.424 94.4581L223.431 94.4655L224.173 93.795ZM206.108 142V33.5H204.108V142H206.108ZM205.108 34.5H217.818V32.5H205.108V34.5ZM216.818 33.4894L216.663 48.0594L218.663 48.0806L218.818 33.5106L216.818 33.4894ZM217.663 49.07H217.818V47.07H217.663V49.07ZM218.727 48.4867C220.921 43.6996 224.203 39.9221 228.585 37.1337L227.511 35.4463C222.799 38.4445 219.261 42.5204 216.909 47.6533L218.727 48.4867ZM228.589 37.1306C233.07 34.2429 238.099 32.795 243.703 32.795V30.795C237.733 30.795 232.325 32.3437 227.506 35.4494L228.589 37.1306ZM243.703 32.795C254.606 32.795 263.369 36.5174 270.086 43.9362L271.569 42.5938C264.439 34.7193 255.119 30.795 243.703 30.795V32.795ZM270.091 43.9412C276.818 51.2707 280.213 60.7291 280.213 72.405H282.213C282.213 60.3142 278.684 50.346 271.564 42.5888L270.091 43.9412ZM280.213 72.405C280.213 83.9749 276.82 93.3827 270.091 100.714L271.564 102.066C278.683 94.3107 282.213 84.3951 282.213 72.405H280.213ZM270.091 100.714C263.375 108.031 254.611 111.705 243.703 111.705V113.705C255.115 113.705 264.433 109.836 271.564 102.066L270.091 100.714ZM243.703 111.705C237.857 111.705 232.707 110.447 228.223 107.956L227.252 109.704C232.069 112.38 237.561 113.705 243.703 113.705V111.705ZM228.246 107.969C223.866 105.38 220.705 101.915 218.728 97.5662L216.907 98.3938C219.064 103.138 222.516 106.906 227.229 109.691L228.246 107.969ZM217.818 96.98H217.663V98.98H217.818V96.98ZM216.663 97.9835L216.818 142.004L218.818 141.996L218.663 97.9765L216.663 97.9835ZM217.818 141H205.108V143H217.818V141ZM243.238 102.855C251.255 102.855 257.744 100.007 262.6 94.2872L261.075 92.9928C256.632 98.2264 250.72 100.855 243.238 100.855V102.855ZM262.606 94.2802C267.432 88.4891 269.813 81.1713 269.813 72.405H267.813C267.813 80.792 265.544 87.6309 261.069 92.9998L262.606 94.2802ZM269.813 72.405C269.813 63.5387 267.434 56.168 262.606 50.3748L261.069 51.6552C265.542 57.022 267.813 63.9113 267.813 72.405H269.813ZM262.606 50.3748C257.752 44.5499 251.262 41.645 243.238 41.645V43.645C250.714 43.645 256.624 46.3201 261.069 51.6552L262.606 50.3748ZM243.238 41.645C235.023 41.645 228.334 44.4858 223.27 50.1965L224.766 51.5235C229.415 46.2809 235.539 43.645 243.238 43.645V41.645ZM223.269 50.1974C218.325 55.7858 215.888 62.9593 215.888 71.63H217.888C217.888 63.3541 220.204 56.6809 224.767 51.5226L223.269 50.1974ZM215.888 71.63V72.87H217.888V71.63H215.888ZM215.888 72.8822C215.993 81.5502 218.484 88.7657 223.417 94.4505L224.928 93.1395C220.355 87.8709 217.989 81.1365 217.888 72.8578L215.888 72.8822ZM223.431 94.4655C228.494 100.068 235.128 102.855 243.238 102.855V100.855C235.64 100.855 229.564 98.269 224.915 93.1245L223.431 94.4655ZM302.891 142H301.891V143H302.891V142ZM302.891 33.5V32.5H301.891V33.5H302.891ZM315.601 33.5L316.601 33.5106L316.612 32.5H315.601V33.5ZM315.446 48.07L314.446 48.0594L314.435 49.07H315.446V48.07ZM315.601 48.07V49.07H316.243L316.51 48.4867L315.601 48.07ZM325.831 36.29L326.368 37.1337L326.373 37.1306L325.831 36.29ZM368.611 43.265L367.87 43.9362L367.874 43.9412L368.611 43.265ZM368.611 101.39L367.874 100.714L367.874 100.714L368.611 101.39ZM325.521 108.83L325.012 109.691L325.024 109.698L325.035 109.704L325.521 108.83ZM315.601 97.98L316.511 97.5662L316.245 96.98H315.601V97.98ZM315.446 97.98V96.98H314.442L314.446 97.9835L315.446 97.98ZM315.601 142V143H316.604L316.601 141.996L315.601 142ZM359.621 93.64L360.383 94.2873L360.389 94.2802L359.621 93.64ZM359.621 51.015L360.389 50.3748L360.389 50.3748L359.621 51.015ZM321.801 50.86L321.053 50.1965L321.052 50.1974L321.801 50.86ZM314.671 72.87H313.671L313.671 72.8822L314.671 72.87ZM321.956 93.795L321.201 94.4505L321.207 94.4581L321.214 94.4655L321.956 93.795ZM303.891 142V33.5H301.891V142H303.891ZM302.891 34.5H315.601V32.5H302.891V34.5ZM314.601 33.4894L314.446 48.0594L316.446 48.0806L316.601 33.5106L314.601 33.4894ZM315.446 49.07H315.601V47.07H315.446V49.07ZM316.51 48.4867C318.704 43.6996 321.986 39.9221 326.368 37.1337L325.294 35.4463C320.583 38.4445 317.044 42.5204 314.692 47.6533L316.51 48.4867ZM326.373 37.1306C330.853 34.2429 335.882 32.795 341.486 32.795V30.795C335.516 30.795 330.108 32.3437 325.289 35.4494L326.373 37.1306ZM341.486 32.795C352.389 32.795 361.153 36.5174 367.87 43.9362L369.352 42.5938C362.223 34.7193 352.902 30.795 341.486 30.795V32.795ZM367.874 43.9412C374.601 51.2707 377.996 60.7291 377.996 72.405H379.996C379.996 60.3142 376.467 50.346 369.348 42.5888L367.874 43.9412ZM377.996 72.405C377.996 83.9749 374.603 93.3827 367.874 100.714L369.348 102.066C376.466 94.3107 379.996 84.3951 379.996 72.405H377.996ZM367.874 100.714C361.158 108.031 352.394 111.705 341.486 111.705V113.705C352.898 113.705 362.217 109.836 369.348 102.066L367.874 100.714ZM341.486 111.705C335.641 111.705 330.49 110.447 326.007 107.956L325.035 109.704C329.852 112.38 335.345 113.705 341.486 113.705V111.705ZM326.03 107.969C321.649 105.38 318.488 101.915 316.511 97.5662L314.691 98.3938C316.847 103.138 320.3 106.906 325.012 109.691L326.03 107.969ZM315.601 96.98H315.446V98.98H315.601V96.98ZM314.446 97.9835L314.601 142.004L316.601 141.996L316.446 97.9765L314.446 97.9835ZM315.601 141H302.891V143H315.601V141ZM341.021 102.855C349.038 102.855 355.527 100.007 360.383 94.2872L358.859 92.9928C354.415 98.2264 348.504 100.855 341.021 100.855V102.855ZM360.389 94.2802C365.215 88.4891 367.596 81.1713 367.596 72.405H365.596C365.596 80.792 363.327 87.6309 358.853 92.9998L360.389 94.2802ZM367.596 72.405C367.596 63.5387 365.217 56.168 360.389 50.3748L358.853 51.6552C363.325 57.022 365.596 63.9113 365.596 72.405H367.596ZM360.389 50.3748C355.535 44.5499 349.045 41.645 341.021 41.645V43.645C348.497 43.645 354.407 46.3201 358.853 51.6552L360.389 50.3748ZM341.021 41.645C332.806 41.645 326.117 44.4858 321.053 50.1965L322.549 51.5235C327.198 46.2809 333.322 43.645 341.021 43.645V41.645ZM321.052 50.1974C316.108 55.7858 313.671 62.9593 313.671 71.63H315.671C315.671 63.3541 317.987 56.6809 322.55 51.5226L321.052 50.1974ZM313.671 71.63V72.87H315.671V71.63H313.671ZM313.671 72.8822C313.777 81.5502 316.267 88.7657 321.201 94.4505L322.711 93.1395C318.138 87.8709 315.772 81.1365 315.671 72.8578L313.671 72.8822ZM321.214 94.4655C326.278 100.068 332.912 102.855 341.021 102.855V100.855C333.424 100.855 327.348 98.269 322.698 93.1245L321.214 94.4655ZM405.014 43.265L404.283 42.583L404.282 42.5834L405.014 43.265ZM460.659 43.265L459.923 43.9417L459.932 43.9519L460.659 43.265ZM460.659 101.39L459.928 100.708L459.927 100.708L460.659 101.39ZM405.014 101.39L404.278 102.067L404.287 102.077L405.014 101.39ZM451.824 51.015L451.063 51.6635L451.069 51.6705L451.824 51.015ZM414.004 51.015L414.759 51.6705L414.765 51.6635L414.004 51.015ZM414.004 93.64L413.243 94.2885L413.249 94.2955L414.004 93.64ZM451.824 93.64L452.579 94.2955L452.585 94.2885L451.824 93.64ZM405.746 43.947C412.667 36.524 421.692 32.795 432.914 32.795V30.795C421.197 30.795 411.621 34.7126 404.283 42.583L405.746 43.947ZM432.914 32.795C444.137 32.795 453.106 36.5238 459.923 43.9416L461.395 42.5884C454.158 34.7128 444.631 30.795 432.914 30.795V32.795ZM459.932 43.9519C466.863 51.2842 470.354 60.6883 470.354 72.25H472.354C472.354 60.2517 468.715 50.3325 461.386 42.5781L459.932 43.9519ZM470.354 72.25C470.354 83.8115 466.863 93.2704 459.928 100.708L461.391 102.072C468.715 94.2163 472.354 84.2485 472.354 72.25H470.354ZM459.927 100.708C453.112 108.025 444.141 111.705 432.914 111.705V113.705C444.627 113.705 454.153 109.842 461.391 102.072L459.927 100.708ZM432.914 111.705C421.687 111.705 412.661 108.024 405.741 100.703L404.287 102.077C411.627 109.842 421.201 113.705 432.914 113.705V111.705ZM405.75 100.713C398.916 93.2763 395.474 83.8156 395.474 72.25H393.474C393.474 84.2444 397.059 94.2104 404.278 102.067L405.75 100.713ZM395.474 72.25C395.474 60.6842 398.916 51.2783 405.746 43.9466L404.282 42.5834C397.059 50.3384 393.474 60.2558 393.474 72.25H395.474ZM452.585 50.3665C447.627 44.546 441.037 41.645 432.914 41.645V43.645C440.498 43.645 446.514 46.324 451.063 51.6635L452.585 50.3665ZM432.914 41.645C424.792 41.645 418.201 44.546 413.243 50.3665L414.765 51.6635C419.314 46.324 425.33 43.645 432.914 43.645V41.645ZM413.249 50.3595C408.308 56.0524 405.874 63.3789 405.874 72.25H407.874C407.874 63.7611 410.194 56.9309 414.759 51.6705L413.249 50.3595ZM405.874 72.25C405.874 81.1217 408.308 88.4954 413.243 94.2885L414.765 92.9915C410.194 87.6246 407.874 80.7383 407.874 72.25H405.874ZM413.249 94.2955C418.209 100.011 424.798 102.855 432.914 102.855V100.855C425.323 100.855 419.306 98.2227 414.759 92.9845L413.249 94.2955ZM432.914 102.855C441.03 102.855 447.619 100.011 452.579 94.2955L451.069 92.9845C446.523 98.2227 440.505 100.855 432.914 100.855V102.855ZM452.585 94.2885C457.52 88.4954 459.954 81.1217 459.954 72.25H457.954C457.954 80.7383 455.635 87.6246 451.063 92.9915L452.585 94.2885ZM459.954 72.25C459.954 63.3789 457.52 56.0524 452.579 50.3595L451.069 51.6705C455.635 56.9309 457.954 63.7611 457.954 72.25H459.954ZM505.718 53.495H504.718L506.642 53.8771L505.718 53.495ZM541.213 32.88H542.213V31.88H541.213V32.88ZM541.213 47.295L541.119 48.2905L542.213 48.3943V47.295H541.213ZM514.398 53.03L515.041 53.796L515.042 53.7949L514.398 53.03ZM505.718 111V112H506.718V111H505.718ZM493.008 111H492.008V112H493.008V111ZM493.008 33.5V32.5H492.008V33.5H493.008ZM505.718 33.5H506.718V32.5H505.718V33.5ZM506.642 53.8771C509.408 47.1896 513.647 42.2143 519.357 38.8985C525.079 35.5749 532.346 33.88 541.213 33.88V31.88C532.101 31.88 524.461 33.621 518.352 37.169C512.23 40.7248 507.712 46.0571 504.794 53.1128L506.642 53.8771ZM540.213 32.88V47.295H542.213V32.88H540.213ZM541.308 46.2995C529.2 45.1514 519.94 47.0561 513.754 52.2651L515.042 53.7949C520.637 49.0839 529.252 47.1653 541.119 48.2905L541.308 46.2995ZM513.755 52.264C507.644 57.3932 504.718 65.9646 504.718 77.675H506.718C506.718 66.2388 509.579 58.3801 515.041 53.796L513.755 52.264ZM504.718 77.675V111H506.718V77.675H504.718ZM505.718 110H493.008V112H505.718V110ZM494.008 111V33.5H492.008V111H494.008ZM493.008 34.5H505.718V32.5H493.008V34.5ZM504.718 33.5V53.495H506.718V33.5H504.718ZM610.1 44.35V45.35H611.1V44.35H610.1ZM579.41 44.35V43.35H578.41V44.35H579.41ZM608.55 97.98H609.55V96.4144L608.129 97.0727L608.55 97.98ZM608.55 109.295L608.997 110.189L609.55 109.913V109.295H608.55ZM574.295 104.955L573.602 105.677L573.61 105.684L573.618 105.691L574.295 104.955ZM566.7 44.35H567.7V43.35H566.7V44.35ZM550.425 44.35H549.425V45.35H550.425V44.35ZM550.425 33.5V32.5H549.425V33.5H550.425ZM563.135 30.4L562.479 29.6454L562.47 29.6526L562.462 29.6601L563.135 30.4ZM566.7 8.7V7.7H565.7V8.7H566.7ZM579.41 8.7H580.41V7.7H579.41V8.7ZM579.41 33.5H578.41V34.5H579.41V33.5ZM610.1 33.5H611.1V32.5H610.1V33.5ZM610.1 43.35H579.41V45.35H610.1V43.35ZM578.41 44.35V85.425H580.41V44.35H578.41ZM578.41 85.425C578.41 90.7483 579.755 94.924 582.62 97.7606C585.483 100.595 589.695 101.925 595.065 101.925V99.925C589.998 99.925 586.382 98.6712 584.027 96.3394C581.674 94.0094 580.41 90.435 580.41 85.425H578.41ZM595.065 101.925C599.961 101.925 604.599 100.913 608.97 98.8873L608.129 97.0727C604.027 98.9738 599.676 99.925 595.065 99.925V101.925ZM607.55 97.98V109.295H609.55V97.98H607.55ZM608.102 108.401C604.553 110.175 600.22 111.085 595.065 111.085V113.085C600.45 113.085 605.106 112.135 608.997 110.189L608.102 108.401ZM595.065 111.085C586.573 111.085 579.913 108.765 574.972 104.219L573.618 105.691C579.01 110.652 586.196 113.085 595.065 113.085V111.085ZM574.987 104.233C570.153 99.5963 567.7 93.3644 567.7 85.425H565.7C565.7 93.8123 568.31 100.6 573.602 105.677L574.987 104.233ZM567.7 85.425V44.35H565.7V85.425H567.7ZM566.7 43.35H550.425V45.35H566.7V43.35ZM551.425 44.35V33.5H549.425V44.35H551.425ZM550.425 34.5H550.58V32.5H550.425V34.5ZM550.58 34.5C556.715 34.5 561.238 33.4756 563.807 31.1399L562.462 29.6601C560.485 31.4577 556.638 32.5 550.58 32.5V34.5ZM563.791 31.1546C566.5 28.7993 567.7 24.7073 567.7 19.24H565.7C565.7 24.5193 564.523 27.8674 562.479 29.6454L563.791 31.1546ZM567.7 19.24V8.7H565.7V19.24H567.7ZM566.7 9.7H579.41V7.7H566.7V9.7ZM578.41 8.7V33.5H580.41V8.7H578.41ZM579.41 34.5H610.1V32.5H579.41V34.5ZM609.1 33.5V44.35H611.1V33.5H609.1ZM728.244 111V112H729.244V111H728.244ZM715.844 111H714.844V112H715.844V111ZM715.844 98.755H716.844V97.755H715.844V98.755ZM715.534 98.755V97.755H714.985L714.69 98.2181L715.534 98.755ZM705.149 107.9L705.626 108.779L705.633 108.775L705.641 108.771L705.149 107.9ZM669.809 105.885L669.145 106.633L669.154 106.641L669.163 106.649L669.809 105.885ZM715.844 63.88V64.88H716.844V63.88H715.844ZM710.884 47.45L710.177 48.1571L710.182 48.1627L710.188 48.1682L710.884 47.45ZM684.534 46.83L685.164 47.6061L685.171 47.6003L685.178 47.5943L684.534 46.83ZM679.109 57.99V58.99H680.046L680.106 58.0551L679.109 57.99ZM666.399 57.99L665.399 57.9644L665.373 58.99H666.399V57.99ZM675.079 38.925L675.719 39.6933L675.727 39.6862L675.079 38.925ZM708.404 95.345L707.763 94.5767L707.755 94.5835L708.404 95.345ZM715.844 73.8H716.844V72.8H715.844V73.8ZM679.574 98.29L680.188 97.5006L680.188 97.5006L679.574 98.29ZM697.554 32.795C706.875 32.795 714.097 35.3235 719.342 40.2724L720.715 38.8176C715.007 33.4331 707.246 30.795 697.554 30.795V32.795ZM719.342 40.2724C724.585 45.2184 727.244 51.912 727.244 60.47H729.244C729.244 51.4613 726.425 44.205 720.715 38.8176L719.342 40.2724ZM727.244 60.47V111H729.244V60.47H727.244ZM728.244 110H715.844V112H728.244V110ZM716.844 111V98.755H714.844V111H716.844ZM715.844 97.755H715.534V99.755H715.844V97.755ZM714.69 98.2181C712.633 101.45 709.315 104.396 704.657 107.029L705.641 108.771C710.489 106.03 714.094 102.88 716.377 99.2919L714.69 98.2181ZM704.671 107.021C700.091 109.51 694.631 110.775 688.254 110.775V112.775C694.897 112.775 700.699 111.456 705.626 108.779L704.671 107.021ZM688.254 110.775C680.781 110.775 674.881 108.859 670.454 105.121L669.163 106.649C674.036 110.764 680.433 112.775 688.254 112.775V110.775ZM670.472 105.137C666.167 101.321 663.989 96.1829 663.989 89.61H661.989C661.989 96.6771 664.357 102.389 669.145 106.633L670.472 105.137ZM663.989 89.61C663.989 81.3641 667.335 75.2638 674.05 71.1661C680.844 67.0194 691.164 64.88 705.149 64.88V62.88C691.026 62.88 680.267 65.0289 673.008 69.4589C665.669 73.9379 661.989 80.7025 661.989 89.61H663.989ZM705.149 64.88H715.844V62.88H705.149V64.88ZM716.844 63.88V60.47H714.844V63.88H716.844ZM716.844 60.47C716.844 54.778 715.117 50.1588 711.579 46.7318L710.188 48.1682C713.264 51.1479 714.844 55.2087 714.844 60.47H716.844ZM711.591 46.7429C708.155 43.307 703.431 41.645 697.554 41.645V43.645C703.043 43.645 707.206 45.1863 710.177 48.1571L711.591 46.7429ZM697.554 41.645C692.003 41.645 687.416 43.0894 683.889 46.0657L685.178 47.5943C688.264 44.9906 692.357 43.645 697.554 43.645V41.645ZM683.903 46.0539C680.354 48.9378 678.436 52.9301 678.111 57.9249L680.106 58.0551C680.401 53.5432 682.1 50.0955 685.164 47.6061L683.903 46.0539ZM679.109 56.99H666.399V58.99H679.109V56.99ZM667.398 58.0156C667.598 50.2079 670.386 44.1374 675.719 39.6932L674.438 38.1568C668.611 43.0126 665.612 49.6521 665.399 57.9644L667.398 58.0156ZM675.727 39.6862C681.08 35.1264 688.319 32.795 697.554 32.795V30.795C687.981 30.795 680.237 33.2169 674.43 38.1638L675.727 39.6862ZM691.044 102.545C697.984 102.545 704.004 100.402 709.052 96.1065L707.755 94.5835C703.09 98.5542 697.536 100.545 691.044 100.545V102.545ZM709.044 96.1132C714.181 91.8321 716.844 86.8153 716.844 81.085H714.844C714.844 86.1014 712.546 90.5912 707.763 94.5768L709.044 96.1132ZM716.844 81.085V73.8H714.844V81.085H716.844ZM715.844 72.8H705.149V74.8H715.844V72.8ZM705.149 72.8C695.174 72.8 687.541 74.0933 682.367 76.7881C679.765 78.1431 677.759 79.8663 676.406 81.9797C675.051 84.0974 674.389 86.5498 674.389 89.3H676.389C676.389 86.8835 676.966 84.8151 678.091 83.0578C679.218 81.2962 680.932 79.7902 683.291 78.5619C688.037 76.0901 695.283 74.8 705.149 74.8V72.8ZM674.389 89.3C674.389 93.4029 675.904 96.7027 678.96 99.0794L680.188 97.5006C677.663 95.5372 676.389 92.8438 676.389 89.3H674.389ZM678.96 99.0794C681.981 101.429 686.047 102.545 691.044 102.545V100.545C686.327 100.545 682.747 99.4911 680.188 97.5006L678.96 99.0794ZM815.932 40.94L815.163 41.5789L815.169 41.5853L815.932 40.94ZM823.527 111V112H824.527V111H823.527ZM810.817 111H809.817V112H810.817V111ZM806.012 49L806.795 48.3778L806.795 48.3778L806.012 49ZM774.702 50.55L773.958 49.8818L773.951 49.8904L774.702 50.55ZM768.037 111V112H769.037V111H768.037ZM755.327 111H754.327V112H755.327V111ZM755.327 33.5V32.5H754.327V33.5H755.327ZM768.037 33.5H769.037V32.5H768.037V33.5ZM768.037 48.69H767.037L768.953 49.093L768.037 48.69ZM794.077 32.795C803.352 32.795 810.328 35.757 815.163 41.5789L816.702 40.3011C811.41 33.9296 803.816 30.795 794.077 30.795V32.795ZM815.169 41.5853C820.037 47.3477 822.527 55.2571 822.527 65.43H824.527C824.527 54.9363 821.955 46.519 816.696 40.2946L815.169 41.5853ZM822.527 65.43V111H824.527V65.43H822.527ZM823.527 110H810.817V112H823.527V110ZM811.817 111V65.43H809.817V111H811.817ZM811.817 65.43C811.817 58.3584 810.181 52.6372 806.795 48.3778L805.23 49.6222C808.251 53.4228 809.817 58.6549 809.817 65.43H811.817ZM806.795 48.3778C803.385 44.087 798.693 41.955 792.837 41.955V43.955C798.142 43.955 802.234 45.853 805.23 49.6222L806.795 48.3778ZM792.837 41.955C785.045 41.955 778.717 44.583 773.958 49.8819L775.446 51.2181C779.782 46.3903 785.544 43.955 792.837 43.955V41.955ZM773.951 49.8904C769.319 55.1683 767.037 61.927 767.037 70.08H769.037C769.037 62.3197 771.199 56.0584 775.454 51.2096L773.951 49.8904ZM767.037 70.08V111H769.037V70.08H767.037ZM768.037 110H755.327V112H768.037V110ZM756.327 111V33.5H754.327V111H756.327ZM755.327 34.5H768.037V32.5H755.327V34.5ZM767.037 33.5V48.69H769.037V33.5H767.037ZM768.953 49.093C771.369 43.6054 774.664 39.5487 778.812 36.8576C782.96 34.1663 788.032 32.795 794.077 32.795V30.795C787.723 30.795 782.255 32.2396 777.723 35.1798C773.191 38.1205 769.666 42.5113 767.122 48.287L768.953 49.093ZM854.874 101.39L854.132 102.061L854.137 102.066L854.874 101.39ZM854.874 43.11L854.137 42.4338L854.137 42.4338L854.874 43.11ZM898.739 35.825L898.27 36.7083L898.27 36.7083L898.739 35.825ZM909.279 46.52L908.364 46.9242L908.627 47.52H909.279V46.52ZM909.589 46.52V47.52H910.589V46.52H909.589ZM909.589 2.49999V1.49999H908.589V2.49999H909.589ZM922.299 2.49999H923.299V1.49999H922.299V2.49999ZM922.299 111V112H923.299V111H922.299ZM909.589 111H908.589V112H909.589V111ZM909.589 96.43H910.589V95.43H909.589V96.43ZM909.434 96.43V95.43H908.785L908.521 96.0221L909.434 96.43ZM898.429 108.21L897.927 107.345L897.919 107.349L898.429 108.21ZM863.864 51.015L864.626 51.6623L864.632 51.6552L863.864 51.015ZM863.864 93.485L863.096 94.1252L863.096 94.1252L863.864 93.485ZM901.529 93.795L900.781 93.1315L900.78 93.1324L901.529 93.795ZM908.814 71.63H909.814L909.814 71.6178L908.814 71.63ZM901.374 50.86L900.619 51.5155L900.625 51.5231L900.632 51.5305L901.374 50.86ZM881.999 111.705C871.091 111.705 862.326 108.031 855.611 100.714L854.137 102.066C861.268 109.836 870.587 113.705 881.999 113.705V111.705ZM855.615 100.719C848.883 93.2839 845.489 83.7705 845.489 72.095H843.489C843.489 84.1861 847.017 94.2028 854.132 102.061L855.615 100.719ZM845.489 72.095C845.489 60.5251 848.882 51.1173 855.611 43.7862L854.137 42.4338C847.019 50.1893 843.489 60.1049 843.489 72.095H845.489ZM855.611 43.7862C862.326 36.4691 871.091 32.795 881.999 32.795V30.795C870.587 30.795 861.268 34.6643 854.137 42.4338L855.611 43.7862ZM881.999 32.795C887.943 32.795 893.36 34.1031 898.27 36.7083L899.207 34.9416C893.991 32.1735 888.248 30.795 881.999 30.795V32.795ZM898.27 36.7083C903.172 39.3095 906.507 42.7214 908.364 46.9242L910.193 46.1158C908.124 41.4319 904.432 37.7138 899.207 34.9416L898.27 36.7083ZM909.279 47.52H909.589V45.52H909.279V47.52ZM910.589 46.52V2.49999H908.589V46.52H910.589ZM909.589 3.49999H922.299V1.49999H909.589V3.49999ZM921.299 2.49999V111H923.299V2.49999H921.299ZM922.299 110H909.589V112H922.299V110ZM910.589 111V96.43H908.589V111H910.589ZM909.589 95.43H909.434V97.43H909.589V95.43ZM908.521 96.0221C906.447 100.664 902.935 104.44 897.927 107.345L898.93 109.075C904.256 105.986 908.081 101.91 910.347 96.8379L908.521 96.0221ZM897.919 107.349C893.011 110.255 887.71 111.705 881.999 111.705V113.705C888.068 113.705 893.72 112.159 898.938 109.071L897.919 107.349ZM882.464 41.645C874.44 41.645 867.95 44.5499 863.096 50.3748L864.632 51.6552C869.078 46.3201 874.988 43.645 882.464 43.645V41.645ZM863.101 50.3678C858.27 56.0587 855.889 63.3293 855.889 72.095H857.889C857.889 63.7073 860.158 56.9246 864.626 51.6622L863.101 50.3678ZM855.889 72.095C855.889 80.9613 858.268 88.332 863.096 94.1252L864.632 92.8448C860.16 87.478 857.889 80.5887 857.889 72.095H855.889ZM863.096 94.1252C867.95 99.9501 874.44 102.855 882.464 102.855V100.855C874.988 100.855 869.078 98.1799 864.632 92.8448L863.096 94.1252ZM882.464 102.855C890.672 102.855 897.313 100.07 902.278 94.4576L900.78 93.1324C896.238 98.2663 890.169 100.855 882.464 100.855V102.855ZM902.277 94.4585C907.321 88.7704 909.814 81.5469 909.814 72.87H907.814C907.814 81.1398 905.45 87.8663 900.781 93.1315L902.277 94.4585ZM909.814 72.87V71.63H907.814V72.87H909.814ZM909.814 71.6178C909.708 62.9447 907.163 55.7736 902.116 50.1895L900.632 51.5305C905.298 56.6931 907.713 63.3686 907.814 71.6422L909.814 71.6178ZM902.129 50.2045C897.169 44.4893 890.58 41.645 882.464 41.645V43.645C890.054 43.645 896.072 46.2773 900.619 51.5155L902.129 50.2045ZM1003.56 70.235L1004.56 70.1713L1004.5 69.235H1003.56V70.235ZM1012.86 93.02L1012.16 93.7337L1012.16 93.7337L1012.86 93.02ZM1052.69 96.12L1053.26 96.944L1053.26 96.944L1052.69 96.12ZM1058.58 75.35L1057.7 75.8157L1057.7 75.8157L1058.58 75.35ZM1054.86 70.545L1054.18 71.2798L1054.2 71.2923L1054.21 71.3043L1054.86 70.545ZM1048.51 66.98L1048.1 67.8938L1048.12 67.9027L1048.14 67.9108L1048.51 66.98ZM1041.07 64.19L1040.74 65.1339L1040.76 65.1435L1040.79 65.1515L1041.07 64.19ZM1032.08 61.555L1032.33 60.5879L1032.33 60.5872L1032.08 61.555ZM1019.83 58.145L1019.53 59.0971L1019.54 59.1001L1019.83 58.145ZM1001.08 48.69L1000.37 49.3971L1000.38 49.4067L1000.39 49.416L1001.08 48.69ZM995.963 41.405L995.062 41.8398L995.068 41.8522L995.963 41.405ZM1003.71 8.7L1003.09 7.91794L1003.09 7.91794L1003.71 8.7ZM1059.36 9.94L1058.7 10.6953L1058.71 10.7008L1059.36 9.94ZM1071.29 36.91V37.91H1072.37L1072.29 36.8326L1071.29 36.91ZM1057.65 36.91L1056.66 36.9905L1056.73 37.91H1057.65V36.91ZM1013.48 16.915L1012.89 16.1062L1012.88 16.1128L1013.48 16.915ZM1012.24 41.56L1011.66 42.3737L1011.66 42.3737L1012.24 41.56ZM1035.18 50.395L1035.45 49.4342L1035.45 49.4328L1035.18 50.395ZM1056.72 57.68L1057.18 56.789L1057.17 56.7847L1057.16 56.7805L1056.72 57.68ZM1073 81.705L1074 81.705L1074 81.6952L1073 81.705ZM1062.3 104.025L1062.92 104.808L1062.93 104.807L1062.3 104.025ZM1002.32 101.08L1001.62 101.801L1001.63 101.81L1002.32 101.08ZM989.608 70.235V69.235H988.567L988.608 70.275L989.608 70.235ZM1002.56 70.2987C1003.19 80.1953 1006.36 88.045 1012.16 93.7337L1013.56 92.3063C1008.19 87.0417 1005.16 79.7014 1004.56 70.1713L1002.56 70.2987ZM1012.16 93.7337C1017.95 99.4194 1025.45 102.235 1034.56 102.235V100.235C1025.89 100.235 1018.93 97.574 1013.56 92.3063L1012.16 93.7337ZM1034.56 102.235C1041.85 102.235 1048.1 100.489 1053.26 96.944L1052.13 95.296C1047.36 98.5715 1041.52 100.235 1034.56 100.235V102.235ZM1053.26 96.944C1058.49 93.3484 1061.13 88.3393 1061.13 82.015H1059.13C1059.13 87.6773 1056.82 92.0715 1052.13 95.296L1053.26 96.944ZM1061.13 82.015C1061.13 79.3921 1060.58 77.0074 1059.47 74.8843L1057.7 75.8157C1058.65 77.6192 1059.13 79.6779 1059.13 82.015H1061.13ZM1059.47 74.8843C1058.38 72.8273 1057.07 71.1203 1055.51 69.7857L1054.21 71.3043C1055.55 72.4497 1056.71 73.9461 1057.7 75.8157L1059.47 74.8843ZM1055.54 69.8102C1054.06 68.4471 1051.81 67.204 1048.87 66.0492L1048.14 67.9108C1050.99 69.0293 1052.97 70.1629 1054.18 71.2798L1055.54 69.8102ZM1048.91 66.0662C1046.09 64.8134 1043.57 63.8649 1041.34 63.2285L1040.79 65.1515C1042.91 65.7551 1045.34 66.6666 1048.1 67.8938L1048.91 66.0662ZM1041.4 63.2461C1039.29 62.5096 1036.27 61.6234 1032.33 60.5879L1031.82 62.5221C1035.74 63.5533 1038.71 64.4237 1040.74 65.1339L1041.4 63.2461ZM1032.33 60.5872C1027.17 59.2455 1023.1 58.1133 1020.13 57.1899L1019.54 59.1001C1022.55 60.0367 1026.65 61.1779 1031.83 62.5228L1032.33 60.5872ZM1020.14 57.193C1017.29 56.2788 1013.97 54.9521 1010.18 53.2063L1009.34 55.0237C1013.19 56.7912 1016.58 58.1512 1019.53 59.097L1020.14 57.193ZM1010.18 53.2063C1006.4 51.4729 1003.62 49.719 1001.77 47.964L1000.39 49.416C1002.46 51.381 1005.47 53.2438 1009.34 55.0237L1010.18 53.2063ZM1001.78 47.9829C999.909 46.1069 998.263 43.7705 996.857 40.9578L995.068 41.8522C996.555 44.8262 998.32 47.3464 1000.37 49.3971L1001.78 47.9829ZM996.863 40.9702C995.491 38.128 994.793 34.8702 994.793 31.175H992.793C992.793 35.1264 993.541 38.6886 995.062 41.8397L996.863 40.9702ZM994.793 31.175C994.793 21.7151 997.998 14.5327 1004.34 9.48206L1003.09 7.91794C996.201 13.4073 992.793 21.2082 992.793 31.175H994.793ZM1004.34 9.48206C1010.72 4.39614 1019.51 1.795 1030.84 1.795V-0.205004C1019.22 -0.205004 1009.93 2.46385 1003.09 7.91794L1004.34 9.48206ZM1030.84 1.795C1042.65 1.795 1051.9 4.79754 1058.7 10.6953L1060.01 9.18468C1052.76 2.88912 1042.99 -0.205004 1030.84 -0.205004V1.795ZM1058.71 10.7008C1065.48 16.4741 1069.38 25.1823 1070.3 36.9874L1072.29 36.8326C1071.35 24.6643 1067.29 15.3926 1060.01 9.17916L1058.71 10.7008ZM1071.29 35.91H1057.65V37.91H1071.29V35.91ZM1058.65 36.8295C1057.97 28.3605 1055.39 21.8539 1050.79 17.4697C1046.18 13.0805 1039.69 10.955 1031.46 10.955V12.955C1039.35 12.955 1045.28 14.9887 1049.41 18.9178C1053.54 22.8519 1056 28.8228 1056.66 36.9905L1058.65 36.8295ZM1031.46 10.955C1023.87 10.955 1017.65 12.6406 1012.89 16.1063L1014.07 17.7237C1018.39 14.5761 1024.16 12.955 1031.46 12.955V10.955ZM1012.88 16.1128C1008.17 19.6178 1005.81 24.4688 1005.81 30.555H1007.81C1007.81 25.0678 1009.9 20.8255 1014.07 17.7172L1012.88 16.1128ZM1005.81 30.555C1005.81 35.6049 1007.76 39.5879 1011.66 42.3737L1012.82 40.7463C1009.49 38.3654 1007.81 35.0117 1007.81 30.555H1005.81ZM1011.66 42.3737C1015.43 45.0725 1023.25 48.0557 1034.91 51.3572L1035.45 49.4328C1023.76 46.121 1016.27 43.2141 1012.82 40.7463L1011.66 42.3737ZM1034.9 51.3558C1045.66 54.4585 1052.76 56.8659 1056.29 58.5795L1057.16 56.7805C1053.45 54.9808 1046.19 52.5315 1035.45 49.4342L1034.9 51.3558ZM1056.27 58.571C1061.53 61.2513 1065.43 64.5208 1068.02 68.3546C1070.62 72.1814 1071.95 76.623 1072 81.7148L1074 81.6952C1073.94 76.247 1072.51 71.4144 1069.68 67.2329C1066.85 63.0584 1062.66 59.5854 1057.18 56.789L1056.27 58.571ZM1072 81.705C1072 90.6003 1068.57 97.7513 1061.68 103.243L1062.93 104.807C1070.3 98.932 1074 91.203 1074 81.705H1072ZM1061.68 103.242C1054.88 108.645 1045.82 111.395 1034.4 111.395V113.395C1046.14 113.395 1055.68 110.565 1062.92 104.808L1061.68 103.242ZM1034.4 111.395C1021.27 111.395 1010.84 107.685 1003 100.35L1001.63 101.81C1009.92 109.561 1020.87 113.395 1034.4 113.395V111.395ZM1003.01 100.359C995.272 92.9216 991.115 82.9011 990.607 70.195L988.608 70.275C989.133 83.4023 993.45 93.945 1001.62 101.801L1003.01 100.359ZM989.608 71.235H1003.56V69.235H989.608V71.235ZM1103.26 101.545L1102.51 102.21L1102.52 102.215L1102.52 102.221L1103.26 101.545ZM1103.57 43.265L1102.83 42.5884L1102.83 42.5938L1103.57 43.265ZM1156.58 43.11L1155.81 43.745L1155.81 43.7507L1155.82 43.7564L1156.58 43.11ZM1166.04 74.885V75.885H1167.04V74.885H1166.04ZM1106.52 74.885V73.885H1105.52V74.885H1106.52ZM1106.52 75.505H1105.52V75.5379L1105.52 75.5706L1106.52 75.505ZM1113.65 94.57L1112.89 95.2274L1112.9 95.2363L1113.65 94.57ZM1142.94 97.98L1142.38 97.1514L1142.38 97.1514L1142.94 97.98ZM1151.31 86.2V85.2H1150.59L1150.36 85.8838L1151.31 86.2ZM1165.42 86.2L1166.38 86.4539L1166.71 85.2H1165.42V86.2ZM1152.86 105.73L1153.47 106.525L1153.47 106.524L1152.86 105.73ZM1106.83 65.275L1105.84 65.1176L1105.65 66.275H1106.83V65.275ZM1153.17 65.275V66.275H1154.2L1154.17 65.2442L1153.17 65.275ZM1146.97 49L1146.24 49.6798L1146.25 49.6887L1146.97 49ZM1114.73 48.69L1115.42 49.4151L1115.43 49.406L1114.73 48.69ZM1130.54 111.705C1119.41 111.705 1110.6 108.075 1104 100.869L1102.52 102.221C1109.56 109.895 1118.93 113.705 1130.54 113.705V111.705ZM1104.01 100.88C1097.48 93.5481 1094.19 84.1872 1094.19 72.715H1092.19C1092.19 84.5962 1095.61 94.4552 1102.51 102.21L1104.01 100.88ZM1094.19 72.715C1094.19 60.9336 1097.58 51.3695 1104.31 43.9362L1102.83 42.5938C1095.71 50.4538 1092.19 60.5231 1092.19 72.715H1094.19ZM1104.31 43.9416C1111.13 36.5177 1119.95 32.795 1130.85 32.795V30.795C1119.43 30.795 1110.07 34.719 1102.83 42.5884L1104.31 43.9416ZM1130.85 32.795C1141.55 32.795 1149.82 36.4627 1155.81 43.745L1157.35 42.475C1150.94 34.6706 1142.06 30.795 1130.85 30.795V32.795ZM1155.82 43.7564C1161.93 50.9771 1165.04 60.4438 1165.04 72.25H1167.04C1167.04 60.0829 1163.83 50.1229 1157.34 42.4636L1155.82 43.7564ZM1165.04 72.25V74.885H1167.04V72.25H1165.04ZM1166.04 73.885H1106.52V75.885H1166.04V73.885ZM1105.52 74.885V75.505H1107.52V74.885H1105.52ZM1105.52 75.5706C1106.05 83.5931 1108.48 90.1717 1112.89 95.2274L1114.4 93.9126C1110.34 89.255 1108.02 83.1236 1107.51 75.4393L1105.52 75.5706ZM1112.9 95.2363C1117.44 100.313 1123.24 102.855 1130.23 102.855V100.855C1123.79 100.855 1118.53 98.5406 1114.39 93.9037L1112.9 95.2363ZM1130.23 102.855C1135.08 102.855 1139.51 101.505 1143.5 98.8086L1142.38 97.1514C1138.72 99.6221 1134.68 100.855 1130.23 100.855V102.855ZM1143.5 98.8086C1147.54 96.0783 1150.45 91.9513 1152.26 86.5162L1150.36 85.8838C1148.66 90.9887 1145.99 94.715 1142.38 97.1514L1143.5 98.8086ZM1151.31 87.2H1165.42V85.2H1151.31V87.2ZM1164.45 85.9461C1162.33 94.0194 1158.26 100.331 1152.25 104.936L1153.47 106.524C1159.86 101.622 1164.16 94.9139 1166.38 86.4539L1164.45 85.9461ZM1152.25 104.935C1146.36 109.433 1139.14 111.705 1130.54 111.705V113.705C1139.51 113.705 1147.17 111.327 1153.47 106.525L1152.25 104.935ZM1106.83 66.275H1153.17V64.275H1106.83V66.275ZM1154.17 65.2442C1153.96 58.3284 1151.82 52.6538 1147.7 48.3112L1146.25 49.6887C1149.97 53.6129 1151.97 58.7883 1152.17 65.3058L1154.17 65.2442ZM1147.7 48.3202C1143.55 43.8392 1137.84 41.645 1130.7 41.645V43.645C1137.4 43.645 1142.54 45.6874 1146.24 49.6798L1147.7 48.3202ZM1130.7 41.645C1123.96 41.645 1118.38 43.7381 1114.03 47.974L1115.43 49.406C1119.35 45.5819 1124.41 43.645 1130.7 43.645V41.645ZM1114.04 47.965C1109.71 52.0792 1107 57.8292 1105.84 65.1176L1107.81 65.4324C1108.92 58.4608 1111.48 53.1541 1115.42 49.415L1114.04 47.965ZM1200.49 53.495H1199.49L1201.42 53.8771L1200.49 53.495ZM1235.99 32.88H1236.99V31.88H1235.99V32.88ZM1235.99 47.295L1235.89 48.2905L1236.99 48.3943V47.295H1235.99ZM1209.17 53.03L1209.82 53.796L1209.82 53.7949L1209.17 53.03ZM1200.49 111V112H1201.49V111H1200.49ZM1187.78 111H1186.78V112H1187.78V111ZM1187.78 33.5V32.5H1186.78V33.5H1187.78ZM1200.49 33.5H1201.49V32.5H1200.49V33.5ZM1201.42 53.8771C1204.18 47.1896 1208.42 42.2143 1214.13 38.8985C1219.85 35.5749 1227.12 33.88 1235.99 33.88V31.88C1226.88 31.88 1219.24 33.621 1213.13 37.169C1207.01 40.7248 1202.49 46.0571 1199.57 53.1128L1201.42 53.8771ZM1234.99 32.88V47.295H1236.99V32.88H1234.99ZM1236.08 46.2995C1223.98 45.1514 1214.72 47.0561 1208.53 52.2651L1209.82 53.7949C1215.41 49.0839 1224.03 47.1653 1235.89 48.2905L1236.08 46.2995ZM1208.53 52.264C1202.42 57.3932 1199.49 65.9646 1199.49 77.675H1201.49C1201.49 66.2388 1204.35 58.3801 1209.82 53.796L1208.53 52.264ZM1199.49 77.675V111H1201.49V77.675H1199.49ZM1200.49 110H1187.78V112H1200.49V110ZM1188.78 111V33.5H1186.78V111H1188.78ZM1187.78 34.5H1200.49V32.5H1187.78V34.5ZM1199.49 33.5V53.495H1201.49V33.5H1199.49ZM1308.25 33.5V32.5H1307.56L1307.32 33.1389L1308.25 33.5ZM1322.35 33.5L1323.28 33.8872L1323.86 32.5H1322.35V33.5ZM1289.8 111V112H1290.47L1290.73 111.387L1289.8 111ZM1277.71 111L1276.79 111.387L1277.05 112H1277.71V111ZM1245.16 33.5V32.5H1243.66L1244.24 33.8872L1245.16 33.5ZM1259.27 33.5L1260.2 33.1389L1259.95 32.5H1259.27V33.5ZM1283.76 96.74L1282.83 97.1011L1283.76 99.5091L1284.69 97.1011L1283.76 96.74ZM1308.25 34.5H1322.35V32.5H1308.25V34.5ZM1321.43 33.1128L1288.88 110.613L1290.73 111.387L1323.28 33.8872L1321.43 33.1128ZM1289.8 110H1277.71V112H1289.8V110ZM1278.64 110.613L1246.09 33.1128L1244.24 33.8872L1276.79 111.387L1278.64 110.613ZM1245.16 34.5H1259.27V32.5H1245.16V34.5ZM1258.34 33.8611L1282.83 97.1011L1284.69 96.3789L1260.2 33.1389L1258.34 33.8611ZM1284.69 97.1011L1309.18 33.8611L1307.32 33.1389L1282.83 96.3789L1284.69 97.1011ZM1335.46 18.465H1334.46V19.465H1335.46V18.465ZM1335.46 2.49999V1.49999H1334.46V2.49999H1335.46ZM1351.58 2.49999H1352.58V1.49999H1351.58V2.49999ZM1351.58 18.465V19.465H1352.58V18.465H1351.58ZM1337.17 111H1336.17V112H1337.17V111ZM1337.17 33.5V32.5H1336.17V33.5H1337.17ZM1349.88 33.5H1350.88V32.5H1349.88V33.5ZM1349.88 111V112H1350.88V111H1349.88ZM1336.46 18.465V2.49999H1334.46V18.465H1336.46ZM1335.46 3.49999H1351.58V1.49999H1335.46V3.49999ZM1350.58 2.49999V18.465H1352.58V2.49999H1350.58ZM1351.58 17.465H1335.46V19.465H1351.58V17.465ZM1338.17 111V33.5H1336.17V111H1338.17ZM1337.17 34.5H1349.88V32.5H1337.17V34.5ZM1348.88 33.5V111H1350.88V33.5H1348.88ZM1349.88 110H1337.17V112H1349.88V110ZM1444.26 82.325L1445.25 82.4392L1445.38 81.325H1444.26V82.325ZM1433.25 104.335L1433.92 105.078L1433.92 105.078L1433.25 104.335ZM1381.17 101.39L1380.43 102.061L1380.43 102.061L1381.17 101.39ZM1381.17 43.11L1380.43 42.4393L1380.43 42.4393L1381.17 43.11ZM1432.48 39.7L1431.83 40.4619L1431.83 40.4619L1432.48 39.7ZM1443.79 60.315V61.315H1444.96L1444.78 60.1584L1443.79 60.315ZM1430.77 60.315L1429.8 60.522L1429.96 61.315H1430.77V60.315ZM1423.49 47.45L1424.14 46.6922L1424.14 46.6922L1423.49 47.45ZM1390.01 51.015L1389.23 50.3833L1389.23 50.385L1390.01 51.015ZM1390.01 93.64L1389.23 94.2629L1389.23 94.2709L1389.24 94.2788L1390.01 93.64ZM1424.26 96.585L1424.94 97.3213L1424.95 97.3164L1424.95 97.3115L1424.26 96.585ZM1431.55 82.325V81.325H1430.71L1430.56 82.1522L1431.55 82.325ZM1443.27 82.2108C1442.26 90.9763 1438.69 98.0834 1432.58 103.592L1433.92 105.078C1440.42 99.2199 1444.19 91.6537 1445.25 82.4392L1443.27 82.2108ZM1432.58 103.592C1426.61 108.971 1418.65 111.705 1408.61 111.705V113.705C1419.03 113.705 1427.5 110.859 1433.92 105.078L1432.58 103.592ZM1408.61 111.705C1397.38 111.705 1388.52 108.025 1381.92 100.719L1380.43 102.061C1387.47 109.842 1396.9 113.705 1408.61 113.705V111.705ZM1381.92 100.719C1375.29 93.3903 1371.94 83.9299 1371.94 72.25H1369.94C1369.94 84.3368 1373.42 94.303 1380.43 102.061L1381.92 100.719ZM1371.94 72.25C1371.94 60.5701 1375.29 51.1097 1381.92 43.7806L1380.43 42.4393C1373.42 50.197 1369.94 60.1632 1369.94 72.25H1371.94ZM1381.92 43.7806C1388.52 36.475 1397.38 32.795 1408.61 32.795V30.795C1396.9 30.795 1387.47 34.6583 1380.43 42.4393L1381.92 43.7806ZM1408.61 32.795C1418.13 32.795 1425.85 35.3741 1431.83 40.4619L1433.13 38.9381C1426.71 33.4858 1418.51 30.795 1408.61 30.795V32.795ZM1431.83 40.4619C1437.84 45.5683 1441.5 52.2202 1442.81 60.4716L1444.78 60.1584C1443.4 51.4631 1439.52 44.3717 1433.13 38.9381L1431.83 40.4619ZM1443.79 59.315H1430.77V61.315H1443.79V59.315ZM1431.75 60.108C1430.58 54.5472 1428.05 50.0554 1424.14 46.6922L1422.84 48.2078C1426.37 51.2512 1428.7 55.3362 1429.8 60.522L1431.75 60.108ZM1424.14 46.6922C1420.2 43.2949 1414.98 41.645 1408.61 41.645V43.645C1414.63 43.645 1419.34 45.1984 1422.84 48.2078L1424.14 46.6922ZM1408.61 41.645C1400.49 41.645 1393.99 44.5471 1389.23 50.3833L1390.78 51.6467C1395.12 46.3229 1401.02 43.645 1408.61 43.645V41.645ZM1389.23 50.385C1384.61 56.078 1382.34 63.3951 1382.34 72.25H1384.34C1384.34 63.7449 1386.52 56.9053 1390.79 51.645L1389.23 50.385ZM1382.34 72.25C1382.34 81.1057 1384.61 88.47 1389.23 94.2629L1390.79 93.0171C1386.52 87.65 1384.34 80.7543 1384.34 72.25H1382.34ZM1389.24 94.2788C1394 100.01 1400.49 102.855 1408.61 102.855V100.855C1401.02 100.855 1395.11 98.2236 1390.78 93.0012L1389.24 94.2788ZM1408.61 102.855C1415.4 102.855 1420.89 101.047 1424.94 97.3213L1423.59 95.8487C1419.99 99.1498 1415.04 100.855 1408.61 100.855V102.855ZM1424.95 97.3115C1428.95 93.5273 1431.47 88.5694 1432.53 82.4978L1430.56 82.1522C1429.56 87.8606 1427.22 92.4093 1423.58 95.8585L1424.95 97.3115ZM1431.55 83.325H1444.26V81.325H1431.55V83.325ZM1467.9 101.545L1467.16 102.21L1467.16 102.215L1467.17 102.221L1467.9 101.545ZM1468.21 43.265L1467.48 42.5884L1467.47 42.5938L1468.21 43.265ZM1521.22 43.11L1520.45 43.745L1520.46 43.7507L1520.46 43.7564L1521.22 43.11ZM1530.68 74.885V75.885H1531.68V74.885H1530.68ZM1471.16 74.885V73.885H1470.16V74.885H1471.16ZM1471.16 75.505H1470.16V75.5379L1470.16 75.5706L1471.16 75.505ZM1478.29 94.57L1477.53 95.2274L1477.54 95.2363L1478.29 94.57ZM1507.58 97.98L1507.02 97.1514L1507.02 97.1514L1507.58 97.98ZM1515.95 86.2V85.2H1515.23L1515 85.8838L1515.95 86.2ZM1530.06 86.2L1531.03 86.4539L1531.35 85.2H1530.06V86.2ZM1517.5 105.73L1518.11 106.525L1518.11 106.524L1517.5 105.73ZM1471.47 65.275L1470.48 65.1176L1470.3 66.275H1471.47V65.275ZM1517.81 65.275V66.275H1518.84L1518.81 65.2442L1517.81 65.275ZM1511.61 49L1510.88 49.6798L1510.89 49.6887L1511.61 49ZM1479.37 48.69L1480.06 49.4151L1480.07 49.406L1479.37 48.69ZM1495.18 111.705C1484.06 111.705 1475.25 108.075 1468.64 100.869L1467.17 102.221C1474.2 109.895 1483.58 113.705 1495.18 113.705V111.705ZM1468.65 100.88C1462.12 93.5481 1458.83 84.1872 1458.83 72.715H1456.83C1456.83 84.5962 1460.25 94.4552 1467.16 102.21L1468.65 100.88ZM1458.83 72.715C1458.83 60.9336 1462.22 51.3695 1468.95 43.9362L1467.47 42.5938C1460.36 50.4538 1456.83 60.5231 1456.83 72.715H1458.83ZM1468.95 43.9416C1475.77 36.5177 1484.59 32.795 1495.49 32.795V30.795C1484.08 30.795 1474.71 34.719 1467.48 42.5884L1468.95 43.9416ZM1495.49 32.795C1506.19 32.795 1514.47 36.4627 1520.45 43.745L1522 42.475C1515.58 34.6706 1506.7 30.795 1495.49 30.795V32.795ZM1520.46 43.7564C1526.58 50.9771 1529.68 60.4438 1529.68 72.25H1531.68C1531.68 60.0829 1528.48 50.1229 1521.99 42.4636L1520.46 43.7564ZM1529.68 72.25V74.885H1531.68V72.25H1529.68ZM1530.68 73.885H1471.16V75.885H1530.68V73.885ZM1470.16 74.885V75.505H1472.16V74.885H1470.16ZM1470.16 75.5706C1470.69 83.5931 1473.12 90.1717 1477.54 95.2274L1479.04 93.9126C1474.98 89.255 1472.66 83.1236 1472.16 75.4393L1470.16 75.5706ZM1477.54 95.2363C1482.08 100.313 1487.88 102.855 1494.87 102.855V100.855C1488.43 100.855 1483.18 98.5406 1479.03 93.9037L1477.54 95.2363ZM1494.87 102.855C1499.72 102.855 1504.15 101.505 1508.14 98.8086L1507.02 97.1514C1503.37 99.6221 1499.33 100.855 1494.87 100.855V102.855ZM1508.14 98.8086C1512.18 96.0783 1515.09 91.9513 1516.9 86.5162L1515 85.8838C1513.3 90.9887 1510.63 94.715 1507.02 97.1514L1508.14 98.8086ZM1515.95 87.2H1530.06V85.2H1515.95V87.2ZM1529.09 85.9461C1526.97 94.0194 1522.9 100.331 1516.9 104.936L1518.11 106.524C1524.51 101.622 1528.81 94.9139 1531.03 86.4539L1529.09 85.9461ZM1516.9 104.935C1511 109.433 1503.78 111.705 1495.18 111.705V113.705C1504.15 113.705 1511.81 111.327 1518.11 106.525L1516.9 104.935ZM1471.47 66.275H1517.81V64.275H1471.47V66.275ZM1518.81 65.2442C1518.6 58.3284 1516.46 52.6538 1512.34 48.3112L1510.89 49.6887C1514.62 53.6129 1516.61 58.7883 1516.81 65.3058L1518.81 65.2442ZM1512.35 48.3202C1508.19 43.8392 1502.48 41.645 1495.34 41.645V43.645C1502.04 43.645 1507.18 45.6874 1510.88 49.6798L1512.35 48.3202ZM1495.34 41.645C1488.6 41.645 1483.02 43.7381 1478.68 47.974L1480.07 49.406C1483.99 45.5819 1489.05 43.645 1495.34 43.645V41.645ZM1478.68 47.965C1474.35 52.0792 1471.64 57.8292 1470.48 65.1176L1472.46 65.4324C1473.57 58.4608 1476.13 53.1541 1480.06 49.415L1478.68 47.965ZM1595.83 58.455L1594.84 58.5978L1594.96 59.455H1595.83V58.455ZM1564.52 45.59L1563.94 44.7708L1563.94 44.7754L1563.93 44.7801L1564.52 45.59ZM1563.9 61.09L1563.41 61.9625L1563.41 61.9625L1563.9 61.09ZM1577.85 65.895L1577.59 66.8625L1577.6 66.8651L1577.85 65.895ZM1579.71 66.36L1579.95 65.3899L1579.95 65.3899L1579.71 66.36ZM1584.2 67.6L1583.93 68.5615L1583.95 68.5691L1583.98 68.5751L1584.2 67.6ZM1588.7 68.685L1588.42 69.6465L1588.44 69.6511L1588.45 69.6551L1588.7 68.685ZM1592.73 69.925L1592.41 70.8737L1592.43 70.8817L1592.46 70.8885L1592.73 69.925ZM1596.6 71.32L1596.11 72.1882L1596.18 72.2281L1596.25 72.2563L1596.6 71.32ZM1600.01 72.87L1599.56 73.7644L1599.56 73.7644L1600.01 72.87ZM1602.96 75.04L1602.14 75.6212L1602.19 75.6886L1602.25 75.7471L1602.96 75.04ZM1605.28 77.52L1604.54 78.189L1604.56 78.2085L1604.57 78.2271L1605.28 77.52ZM1607.14 80.62L1606.18 80.8831L1606.19 80.9383L1606.21 80.9914L1607.14 80.62ZM1600.63 106.66L1601.23 107.46L1601.23 107.46L1600.63 106.66ZM1554.75 104.955L1554.09 105.706L1554.1 105.712L1554.75 104.955ZM1545.14 83.41V82.41H1544.1L1544.14 83.4554L1545.14 83.41ZM1557.54 83.41L1558.54 83.3211L1558.46 82.41H1557.54V83.41ZM1563.74 97.205L1563.06 97.9326L1563.06 97.9379L1563.07 97.943L1563.74 97.205ZM1591.64 99.22L1592.16 100.073L1592.17 100.067L1592.18 100.06L1591.64 99.22ZM1595.67 85.735L1594.76 86.1488L1594.77 86.1657L1594.78 86.1822L1595.67 85.735ZM1593.81 82.945L1593.05 83.5958L1593.08 83.6249L1593.1 83.6521L1593.81 82.945ZM1590.25 80.93L1589.87 81.8547L1589.89 81.8644L1589.91 81.873L1590.25 80.93ZM1585.44 79.225L1585.15 80.1808L1585.16 80.1837L1585.17 80.1865L1585.44 79.225ZM1578.93 77.52L1578.69 78.4902L1578.7 78.4921L1578.93 77.52ZM1577.07 77.055L1576.8 78.0165L1576.81 78.0211L1576.83 78.0251L1577.07 77.055ZM1572.58 75.97L1572.35 76.9429L1572.36 76.9451L1572.58 75.97ZM1568.08 74.885L1567.69 75.8041L1567.76 75.8357L1567.84 75.8551L1568.08 74.885ZM1564.21 73.645L1563.89 74.5937L1563.91 74.6017L1563.94 74.6085L1564.21 73.645ZM1560.18 72.25L1559.68 73.1182L1559.75 73.1581L1559.83 73.1863L1560.18 72.25ZM1556.77 70.545L1556.32 71.4394L1556.33 71.4455L1556.34 71.4512L1556.77 70.545ZM1553.67 68.53L1552.91 69.1808L1552.93 69.2099L1552.96 69.2371L1553.67 68.53ZM1551.34 66.05L1550.6 66.719L1550.62 66.7385L1550.63 66.7571L1551.34 66.05ZM1549.33 62.95L1548.39 63.2917L1548.39 63.3067L1548.4 63.3214L1549.33 62.95ZM1548.24 59.075L1547.26 59.2845L1548.24 59.075ZM1607.92 58.455V59.455H1609.05L1608.91 58.3338L1607.92 58.455ZM1596.82 58.3122C1596.02 52.7655 1593.92 48.48 1590.42 45.5938C1586.93 42.7137 1582.18 41.335 1576.3 41.335V43.335C1581.88 43.335 1586.12 44.6429 1589.15 47.1362C1592.16 49.6234 1594.09 53.3979 1594.84 58.5978L1596.82 58.3122ZM1576.3 41.335C1571.39 41.335 1567.25 42.4561 1563.94 44.7708L1565.09 46.4092C1567.98 44.3839 1571.7 43.335 1576.3 43.335V41.335ZM1563.93 44.7801C1560.72 47.1047 1559.02 50.073 1559.02 53.65H1561.02C1561.02 50.8203 1562.32 48.4152 1565.1 46.3999L1563.93 44.7801ZM1559.02 53.65C1559.02 57.4448 1560.44 60.3029 1563.41 61.9625L1564.39 60.2175C1562.18 58.9838 1561.02 56.8819 1561.02 53.65H1559.02ZM1563.41 61.9625C1566.11 63.4777 1570.88 65.1053 1577.59 66.8625L1578.1 64.9275C1571.39 63.1714 1566.85 61.5956 1564.39 60.2175L1563.41 61.9625ZM1577.6 66.8651C1578.43 67.0718 1579.05 67.2268 1579.46 67.3301L1579.95 65.3899C1579.54 65.2865 1578.92 65.1315 1578.09 64.9249L1577.6 66.8651ZM1579.46 67.3301C1580.27 67.5322 1581.76 67.9412 1583.93 68.5615L1584.48 66.6385C1582.31 66.0188 1580.79 65.6011 1579.95 65.3899L1579.46 67.3301ZM1583.98 68.5751C1586.26 69.093 1587.73 69.4487 1588.42 69.6465L1588.97 67.7235C1588.22 67.508 1586.69 67.1404 1584.42 66.6249L1583.98 68.5751ZM1588.45 69.6551C1589.24 69.8517 1590.55 70.2541 1592.41 70.8737L1593.04 68.9763C1591.18 68.3559 1589.81 67.9317 1588.94 67.7149L1588.45 69.6551ZM1592.46 70.8885C1594.32 71.4043 1595.5 71.8424 1596.11 72.1882L1597.1 70.4518C1596.26 69.9709 1594.86 69.479 1592.99 68.9615L1592.46 70.8885ZM1596.25 72.2563C1597.03 72.5479 1598.13 73.0462 1599.56 73.7644L1600.46 71.9756C1599 71.2472 1597.83 70.7121 1596.95 70.3837L1596.25 72.2563ZM1599.56 73.7644C1600.97 74.4655 1601.77 75.0994 1602.14 75.6212L1603.77 74.4588C1603.11 73.5339 1601.95 72.7212 1600.46 71.9756L1599.56 73.7644ZM1602.25 75.7471C1602.85 76.3497 1603.61 77.1621 1604.54 78.189L1606.03 76.851C1605.09 75.8112 1604.3 74.9703 1603.66 74.3329L1602.25 75.7471ZM1604.57 78.2271C1605.4 79.0487 1605.92 79.9332 1606.18 80.8831L1608.11 80.3569C1607.75 79.0334 1607.03 77.8513 1605.99 76.8129L1604.57 78.2271ZM1606.21 80.9914C1606.6 81.9584 1606.95 83.1413 1607.25 84.5495L1609.2 84.1305C1608.89 82.6454 1608.51 81.3483 1608.07 80.2486L1606.21 80.9914ZM1607.25 84.5495C1607.54 85.9198 1607.69 87.399 1607.69 88.99H1609.69C1609.69 87.2743 1609.53 85.6535 1609.2 84.1305L1607.25 84.5495ZM1607.69 88.99C1607.69 96.4803 1605.11 102.05 1600.03 105.86L1601.23 107.46C1606.9 103.21 1609.69 96.9997 1609.69 88.99H1607.69ZM1600.03 105.86C1594.88 109.721 1587.88 111.705 1578.93 111.705V113.705C1588.17 113.705 1595.63 111.659 1601.23 107.46L1600.03 105.86ZM1578.93 111.705C1568.98 111.705 1561.17 109.168 1555.4 104.198L1554.1 105.712C1560.32 111.075 1568.63 113.705 1578.93 113.705V111.705ZM1555.41 104.204C1549.65 99.1393 1546.54 92.2282 1546.14 83.3646L1544.14 83.4554C1544.57 92.7784 1547.86 100.231 1554.09 105.706L1555.41 104.204ZM1545.14 84.41H1557.54V82.41H1545.14V84.41ZM1556.55 83.4989C1557.08 89.4856 1559.23 94.327 1563.06 97.9326L1564.43 96.4774C1561.02 93.263 1559.04 88.9077 1558.54 83.3211L1556.55 83.4989ZM1563.07 97.943C1566.92 101.47 1572.31 103.165 1579.09 103.165V101.165C1572.63 101.165 1567.79 99.5536 1564.42 96.467L1563.07 97.943ZM1579.09 103.165C1584.37 103.165 1588.76 102.162 1592.16 100.073L1591.12 98.3674C1588.12 100.205 1584.14 101.165 1579.09 101.165V103.165ZM1592.18 100.06C1595.72 97.7814 1597.45 94.2344 1597.45 89.61H1595.45C1595.45 93.6656 1593.97 96.5253 1591.1 98.3797L1592.18 100.06ZM1597.45 89.61C1597.45 87.9553 1597.17 86.4991 1596.57 85.2878L1594.78 86.1822C1595.21 87.0376 1595.45 88.1646 1595.45 89.61H1597.45ZM1596.58 85.3212C1596.03 84.0987 1595.34 83.0624 1594.52 82.2379L1593.1 83.6521C1593.73 84.2742 1594.28 85.098 1594.76 86.1488L1596.58 85.3212ZM1594.57 82.2942C1593.77 81.362 1592.37 80.6194 1590.58 79.987L1589.91 81.873C1591.64 82.4806 1592.61 83.0813 1593.05 83.5958L1594.57 82.2942ZM1590.63 80.0053C1588.85 79.2712 1587.21 78.6894 1585.72 78.2635L1585.17 80.1865C1586.57 80.5873 1588.14 81.1421 1589.87 81.8547L1590.63 80.0053ZM1585.74 78.2692C1584.36 77.8462 1582.17 77.2718 1579.17 76.5479L1578.7 78.4921C1581.69 79.2149 1583.84 79.7772 1585.15 80.1808L1585.74 78.2692ZM1579.17 76.5499C1578.35 76.3432 1577.73 76.1882 1577.31 76.0849L1576.83 78.0251C1577.24 78.1285 1577.86 78.2835 1578.69 78.4901L1579.17 76.5499ZM1577.35 76.0935C1576.59 75.878 1575.07 75.5104 1572.8 74.9949L1572.36 76.9451C1574.63 77.463 1576.1 77.8187 1576.8 78.0165L1577.35 76.0935ZM1572.81 74.9972C1570.64 74.4804 1569.15 74.12 1568.32 73.9149L1567.84 75.8551C1568.67 76.0633 1570.18 76.4262 1572.35 76.9428L1572.81 74.9972ZM1568.48 73.9659C1567.68 73.6265 1566.33 73.1979 1564.47 72.6815L1563.94 74.6085C1565.8 75.1254 1567.03 75.5235 1567.69 75.8041L1568.48 73.9659ZM1564.52 72.6963C1562.66 72.0767 1561.34 71.6167 1560.53 71.3137L1559.83 73.1863C1560.67 73.5033 1562.03 73.9733 1563.89 74.5937L1564.52 72.6963ZM1560.67 71.3818C1559.91 70.947 1558.74 70.3644 1557.19 69.6388L1556.34 71.4512C1557.89 72.1723 1559 72.7264 1559.68 73.1182L1560.67 71.3818ZM1557.21 69.6506C1555.8 68.9419 1554.88 68.3277 1554.37 67.8229L1552.96 69.2371C1553.7 69.9723 1554.84 70.7014 1556.32 71.4394L1557.21 69.6506ZM1554.43 67.8792C1553.78 67.1307 1552.99 66.2847 1552.05 65.3429L1550.63 66.7571C1551.55 67.6753 1552.31 68.4826 1552.91 69.1808L1554.43 67.8792ZM1552.09 65.381C1551.22 64.4143 1550.62 63.4792 1550.26 62.5786L1548.4 63.3214C1548.87 64.4875 1549.61 65.6191 1550.6 66.719L1552.09 65.381ZM1550.27 62.6083C1549.87 61.523 1549.52 60.2767 1549.22 58.8655L1547.26 59.2845C1547.58 60.7666 1547.96 62.1037 1548.39 63.2917L1550.27 62.6083ZM1549.22 58.8655C1548.93 57.4952 1548.78 56.016 1548.78 54.425H1546.78C1546.78 56.1407 1546.94 57.7615 1547.26 59.2845L1549.22 58.8655ZM1548.78 54.425C1548.78 47.0501 1551.4 41.705 1556.55 38.2022L1555.43 36.5478C1549.63 40.485 1546.78 46.5065 1546.78 54.425H1548.78ZM1556.55 38.2022C1561.83 34.6213 1568.54 32.795 1576.76 32.795V30.795C1568.24 30.795 1561.11 32.6887 1555.43 36.5478L1556.55 38.2022ZM1576.76 32.795C1585.91 32.795 1592.9 34.9796 1597.85 39.2198C1602.8 43.4553 1605.86 49.8588 1606.92 58.5762L1608.91 58.3338C1607.8 49.2779 1604.59 42.3513 1599.15 37.7002C1593.72 33.0537 1586.21 30.795 1576.76 30.795V32.795ZM1607.92 57.455H1595.83V59.455H1607.92V57.455Z" fill="black" fill-opacity="0.23" mask="url(#path-1-outside-1_128_12896)"/>
</svg>
